<svg id="Group_2675" data-name="Group 2675" xmlns="http://www.w3.org/2000/svg" xmlns:xlink="http://www.w3.org/1999/xlink" width="268.625" height="259.75" viewBox="0 0 268.625 259.75">
  <defs>
    <clipPath id="clip-path">
      <rect id="Rectangle_2018" data-name="Rectangle 2018" width="268.625" height="259.75" fill="none"/>
    </clipPath>
    <clipPath id="clip-path-2">
      <path id="Path_9666" data-name="Path 9666" d="M10,129.875A119.875,119.875,0,1,0,129.875,10,120.011,120.011,0,0,0,10,129.875" fill="none"/>
    </clipPath>
  </defs>
  <g id="Group_2656" data-name="Group 2656">
    <g id="Group_2655" data-name="Group 2655" clip-path="url(#clip-path)">
      <path id="Path_9636" data-name="Path 9636" d="M129.875,10A119.875,119.875,0,1,0,249.75,129.875,120.011,120.011,0,0,0,129.875,10" fill="#fff"/>
      <path id="Path_9637" data-name="Path 9637" d="M129.875,259.75A129.875,129.875,0,1,1,259.75,129.875,130.022,130.022,0,0,1,129.875,259.75m0-249.75A119.875,119.875,0,1,0,249.75,129.875,120.011,120.011,0,0,0,129.875,10" fill="#3b265d"/>
      <path id="Path_9638" data-name="Path 9638" d="M225.533,202.036l-43.077-.263-149.119-.917a119.748,119.748,0,0,0,192.2,1.18" fill="#606060"/>
    </g>
  </g>
  <g id="Group_2658" data-name="Group 2658">
    <g id="Group_2657" data-name="Group 2657" clip-path="url(#clip-path-2)">
      <path id="Path_9639" data-name="Path 9639" d="M181.311,104.038v-.545l-6.972,2.806Z" fill="#6cbdff"/>
      <path id="Path_9640" data-name="Path 9640" d="M228.26,87.974V84.951L188.368,101H193.7Z" fill="#4187b7"/>
      <path id="Path_9641" data-name="Path 9641" d="M181.6,60.354a1.115,1.115,0,0,1-.278-.056l-18.23,7.336v35.9l66.944-27.308V40.693L182.555,59.8a1.127,1.127,0,0,1-.957.553" fill="#fff"/>
      <path id="Path_9642" data-name="Path 9642" d="M167.857,104.091h5.834l63.544-25.572H231.4Z" fill="#4187b7"/>
      <rect id="Rectangle_2019" data-name="Rectangle 2019" width="9.677" height="36.085" transform="translate(232.325 40.143)" fill="#4187b7"/>
      <path id="Path_9643" data-name="Path 9643" d="M37.534,213.035c.544.587,1.084,1.177,1.627,1.764H40.3c-1.505-1.857-3.029-3.7-4.6-5.5-2.231-2.573-4.539-5.114-6.975-7.52h-1.6q5.186,5.646,10.4,11.261" fill="#6cbdff"/>
      <path id="Path_9644" data-name="Path 9644" d="M181.6,19.417a1.145,1.145,0,0,1,1.145,1.145V57.257l47.989-19.313h0l.017-.007a1.135,1.135,0,0,1,.427-.083h11.968A1.145,1.145,0,0,1,244.292,39V77.373l0,.01a1.162,1.162,0,0,1-.069.345c-.01.03-.008.065-.02.094a1.244,1.244,0,0,1-.094.138,1.142,1.142,0,0,1-.151.224c-.019.019-.047.028-.067.045a1.167,1.167,0,0,1-.307.2l-.008,0-13.023,5.241V200.628a1.145,1.145,0,0,1-1.145,1.146h-35.5a1.145,1.145,0,0,1-1.145-1.146V103.295H183.6v97.333a1.145,1.145,0,0,1-1.145,1.146h-6.472c.006.03.01.062.017.093.181.808.361,1.617.518,2.431a12.5,12.5,0,0,1,3.492.807,3.938,3.938,0,0,1,1.943,1.341,1.722,1.722,0,0,1-.117,2.1c-1.025,1.117-3.125.806-4.464.683-.807-.074-1.623-.062-2.425-.167-.765-.1-1.923-.506-2.143-1.355a1.552,1.552,0,0,1,.176-1.017c.149-.341.266-.684.382-1.034a15.135,15.135,0,0,1-1.223-3.881H158.989a30.3,30.3,0,0,1-1.87,2.844,1.538,1.538,0,0,1,.461.747,1.614,1.614,0,0,1-.854,1.7,8.237,8.237,0,0,1-3.167.886,15.191,15.191,0,0,1-3.814.186,3.574,3.574,0,0,1-2.823-1.352.83.83,0,0,1,.294-1.121,17.021,17.021,0,0,1,3.409-1.56,7.419,7.419,0,0,1,3-.487c.33-.615.655-1.231.981-1.846H141.96c.025.022.053.038.076.061a1.615,1.615,0,0,1,.51,1.749c-.3.572-1.226.791-1.794.962a10.015,10.015,0,0,1-4.411.289,9.38,9.38,0,0,1-2.161-.6,3.645,3.645,0,0,1-1.758-1.142,1.256,1.256,0,0,1,.009-1.316h-4.922c-.351.358-.717.7-1.056,1.071.019.013.042.027.058.039a3.868,3.868,0,0,1,1.44,1.78,1.6,1.6,0,0,1-.509,1.8,2.755,2.755,0,0,1-2.074.48,20.7,20.7,0,0,1-4.923-1.075,1.53,1.53,0,0,1-1.2-1.488,4.888,4.888,0,0,1,.778-1.985c.106-.2.2-.415.294-.622H106.709c-.222.353-.441.708-.666,1.06a4.835,4.835,0,0,1,1.457,2.416,2.922,2.922,0,0,1,.063,1.5,1.235,1.235,0,0,1-1.175.778,31.182,31.182,0,0,1-3.57.307,4.585,4.585,0,0,1-2.99-.918c-.006-.006-.008-.015-.014-.02a1.237,1.237,0,0,1-.695.91,3.938,3.938,0,0,1-1.927.277,2.015,2.015,0,0,1-.436.092,3.187,3.187,0,0,1-.888-.073c-.663.02-1.326.04-1.987.032-1.421-.019-3.022-.477-3.308-2.084-.271-1.52.724-2.824,1.626-3.995-.067-.091-.122-.191-.187-.283H76.541l0,.026a8.786,8.786,0,0,0,1.117,2.057.586.586,0,0,1-.347.853,21.156,21.156,0,0,1-4.78,1.053c-1.235.126-2.883.366-3.99-.332a1.969,1.969,0,0,1-.935-1.306c-.1-.661.388-.976.918-1.229a21.589,21.589,0,0,1,3.781-1.047c.078-.021.154-.052.232-.075H52.357c-.065.479-.124.958-.155,1.431l2.362,1.717a10.8,10.8,0,0,0-1.33-.321l.226.094a4.776,4.776,0,0,1,1.319.55l-1.319-.55c-.128-.038-.255-.073-.383-.109a8.882,8.882,0,0,0-1.185-.109,8.323,8.323,0,0,1,.2-2.161c.023-.171.035-.364.054-.542h-.282a13.634,13.634,0,0,1-.532,2.674c.067-.8.169-1.62.269-2.442-.041.246-.084.49-.125.736l-.136,1.536a1.444,1.444,0,0,1-.065-.357c-.013.083-.028.167-.042.25l.039-.426a11.373,11.373,0,0,1,.162-1.75l.021-.221H47.439c-.114.3-.221.61-.333.912.054.3.11.6.166.9a7.839,7.839,0,0,1,.216,1.419c.187.316.35.649.534.968a.672.672,0,0,1-.912.912,5.971,5.971,0,0,0-.746-.3.813.813,0,0,1-.179.077,2.023,2.023,0,0,1-1.068.323.572.572,0,0,1-.49-.335c-.051,0-.1.006-.151,0a.648.648,0,0,1-.553-.963c.457-.738,1.257-1.181,1.715-1.893.013-.414.018-.831.027-1.252.006-.256.03-.51.049-.764H36.079c.163.135.31.3.482.455a15.23,15.23,0,0,0,1.324,1.2.916.916,0,0,1,.285.338,2.341,2.341,0,0,1,.53.605.886.886,0,0,1-.137,1.06c-1.224,1.121-2.656.231-3.975-.363a6.405,6.405,0,0,1-1.776-.536.732.732,0,0,1-.393-.55c-.02-.027-.051-.046-.069-.074a.858.858,0,0,1,.139-1.055.967.967,0,0,1,.292-.2,9.027,9.027,0,0,1-.29-.888H30.124l.053.051A166.752,166.752,0,0,1,41.582,214.8H268.625V16.841Z" fill="#6cbdff"/>
      <path id="Path_9645" data-name="Path 9645" d="M243.147,37.853H231.179a1.135,1.135,0,0,0-.427.083l-.018.007h0L161.517,65.8a1.144,1.144,0,0,0-.718,1.062v38.375a1.135,1.135,0,0,0,.077.388c0,.015,0,.03.008.045l0,.006c.005.013.016.024.022.037a1.085,1.085,0,0,0,.118.2.889.889,0,0,0,.051.074c.013.015.028.029.042.044s.037.031.055.048a1.132,1.132,0,0,0,.128.111l0,0a1.185,1.185,0,0,0,.129.063c.037.018.07.036.109.051a1.126,1.126,0,0,0,.4.081h11.968a1.135,1.135,0,0,0,.427-.083l6.972-2.806v95.991H26.319c.446.769.9,1.532,1.367,2.29H182.457a1.145,1.145,0,0,0,1.145-1.145V103.295h9.16v97.333a1.145,1.145,0,0,0,1.145,1.145h35.5a1.145,1.145,0,0,0,1.146-1.145V83.677l13.023-5.241.007,0a1.156,1.156,0,0,0,.308-.2.767.767,0,0,0,.066-.045,1.147,1.147,0,0,0,.152-.224,1.234,1.234,0,0,0,.093-.138c.013-.029.01-.064.02-.094a1.133,1.133,0,0,0,.07-.345l0-.01V39a1.145,1.145,0,0,0-1.145-1.145M163.089,67.635l66.945-26.942V76.224l-66.945,27.308ZM228.26,87.974,193.7,101h-5.331L228.26,84.951Zm-54.57,16.117h-5.833L231.4,78.519h5.834ZM242,76.228h-9.677V40.143H242Z" fill="#3b265d"/>
      <path id="Path_9646" data-name="Path 9646" d="M168.322,98.056l-.072-6.135q0-.3-.087-2.168l.061-.026q.453,1.755,1.208,1.436.5-.213.864-1.3a14.018,14.018,0,0,0,.543-2.966,40.442,40.442,0,0,0,.152-4.3,26.833,26.833,0,0,0-.5-5.573q-.455-1.89-1.215-1.569-.805.34-1.189,2.763l-.054.022-.189-1.893-.952.4.259,21.8Zm0-17.93q.188-1.024.623-1.209.414-.175.622.861a19.671,19.671,0,0,1,.232,3.268q.056,4.578-.731,4.911-.447.188-.663-.782a18.747,18.747,0,0,1-.247-3.407l-.006-.447a18.894,18.894,0,0,1,.17-3.195" fill="#3b265d"/>
      <path id="Path_9647" data-name="Path 9647" d="M172.758,88.8c.323.5.689.668,1.1.494q.985-.417,1.514-2.736a26.482,26.482,0,0,0,.485-6.017,27.583,27.583,0,0,0-.3-4.05,6.629,6.629,0,0,0-.758-2.415q-.483-.749-1.1-.488-1,.421-1.519,2.711a26.333,26.333,0,0,0-.481,6,27.9,27.9,0,0,0,.3,4.064,6.769,6.769,0,0,0,.758,2.436m.3-10.47q.193-1.2.662-1.4t.693.837a18.408,18.408,0,0,1,.247,3.284,22.557,22.557,0,0,1-.165,3.493q-.193,1.231-.661,1.429t-.694-.863a18.771,18.771,0,0,1-.25-3.311,21.593,21.593,0,0,1,.168-3.466" fill="#3b265d"/>
      <path id="Path_9648" data-name="Path 9648" d="M177.005,79.863a3.833,3.833,0,0,0,.743,1.047,6.121,6.121,0,0,1,.564.667,2.145,2.145,0,0,1,.3.567,2.71,2.71,0,0,1,.094.757q.015,1.3-.622,1.569a.876.876,0,0,1-.725-.062,2.139,2.139,0,0,1-.745-.595l.04,3.413a1.327,1.327,0,0,0,.626.394,1.269,1.269,0,0,0,.8-.114,2.645,2.645,0,0,0,1.358-1.8,12.343,12.343,0,0,0,.418-3.742,13.375,13.375,0,0,0-.136-1.89,4.937,4.937,0,0,0-.361-1.289,3.615,3.615,0,0,0-.754-1.03,4.036,4.036,0,0,1-.746-.894,2.02,2.02,0,0,1-.177-.891c-.008-.659.161-1.063.505-1.208a.568.568,0,0,1,.576.07,3.645,3.645,0,0,1,.612.545l.318-3.13q-.745-.88-1.522-.554a2.471,2.471,0,0,0-1.244,1.635,10.215,10.215,0,0,0-.406,3.309,14.288,14.288,0,0,0,.129,1.939,4.859,4.859,0,0,0,.354,1.286" fill="#3b265d"/>
      <path id="Path_9649" data-name="Path 9649" d="M180.807,73.984l.086,7.3a14.526,14.526,0,0,0,.365,3.622q.336,1.118,1.039.82a2.221,2.221,0,0,0,1.066-1.144l-.037-3.075a2.049,2.049,0,0,1-.731.786c-.154.064-.278-.023-.376-.263a3.841,3.841,0,0,1-.155-1.242l-.086-7.3,1.2-.508-.037-3.1-1.2.508-.038-3.224-.749.316-.3,3.339-.628,1.655.021,1.747Z" fill="#3b265d"/>
      <path id="Path_9650" data-name="Path 9650" d="M184.944,83.646c.323.5.689.668,1.1.494q.984-.417,1.514-2.736a26.549,26.549,0,0,0,.484-6.017,27.6,27.6,0,0,0-.3-4.05,6.626,6.626,0,0,0-.759-2.415q-.483-.749-1.1-.488-1,.421-1.519,2.711a26.332,26.332,0,0,0-.481,6,27.883,27.883,0,0,0,.3,4.064,6.792,6.792,0,0,0,.757,2.436m.3-10.47q.193-1.2.662-1.4t.693.837a18.41,18.41,0,0,1,.247,3.284,22.557,22.557,0,0,1-.165,3.493q-.194,1.231-.661,1.429t-.693-.863a18.673,18.673,0,0,1-.25-3.311,21.618,21.618,0,0,1,.167-3.466" fill="#3b265d"/>
      <path id="Path_9651" data-name="Path 9651" d="M192.506,81.409q.819-.345,1.191-2.749l.05-.021.25,1.868.9-.38-.249-21.072-1.174.5.057,4.848q.017,1.328.126,2.983l-.039.016q-.453-2.043-1.264-1.7-.77.327-1.185,2.591a32.35,32.35,0,0,0-.37,5.988,26.741,26.741,0,0,0,.5,5.56q.456,1.89,1.212,1.57m-.349-11.073c.135-.843.334-1.318.6-1.429.319-.135.552.12.7.764a18.1,18.1,0,0,1,.255,3.4l.006.447a18.385,18.385,0,0,1-.191,3.226q-.2,1.008-.649,1.2-.405.171-.637-.854a17.108,17.108,0,0,1-.26-3.259,21.628,21.628,0,0,1,.177-3.5" fill="#3b265d"/>
      <path id="Path_9652" data-name="Path 9652" d="M198.064,79.06a2.24,2.24,0,0,0,.849-.624,4.567,4.567,0,0,0,.646-1.084l-.038-3.2a6.269,6.269,0,0,1-.71,1.213,1.908,1.908,0,0,1-.729.594q-.5.21-.788-.661a9.645,9.645,0,0,1-.328-2.624l2.768-1.171-.024-2a17.19,17.19,0,0,0-.568-4.837q-.528-1.613-1.437-1.229-.951.4-1.467,2.709a27.7,27.7,0,0,0-.469,6.112,18.96,18.96,0,0,0,.651,5.469q.607,1.77,1.644,1.333m-.89-11.608c.134-.614.325-.975.574-1.08s.448.09.6.583a8.859,8.859,0,0,1,.254,2.268l-1.643.694a12.577,12.577,0,0,1,.214-2.465" fill="#3b265d"/>
      <path id="Path_9653" data-name="Path 9653" d="M202.9,68.919a3.831,3.831,0,0,0,.744,1.047,6.007,6.007,0,0,1,.563.667,2.117,2.117,0,0,1,.3.567,2.705,2.705,0,0,1,.094.757q.015,1.3-.622,1.568a.876.876,0,0,1-.725-.061,2.131,2.131,0,0,1-.744-.6l.04,3.413a1.314,1.314,0,0,0,.625.4,1.269,1.269,0,0,0,.8-.114,2.647,2.647,0,0,0,1.358-1.8,12.346,12.346,0,0,0,.418-3.742,13.229,13.229,0,0,0-.136-1.89,4.956,4.956,0,0,0-.361-1.29,3.579,3.579,0,0,0-.754-1.029,4.014,4.014,0,0,1-.746-.895,2.018,2.018,0,0,1-.177-.89q-.012-.99.505-1.208a.57.57,0,0,1,.577.07,3.682,3.682,0,0,1,.611.545l.318-3.13q-.745-.881-1.522-.555a2.479,2.479,0,0,0-1.244,1.636,10.215,10.215,0,0,0-.406,3.309,14.425,14.425,0,0,0,.129,1.938,4.945,4.945,0,0,0,.354,1.287" fill="#3b265d"/>
      <path id="Path_9654" data-name="Path 9654" d="M206.812,66.971a11.52,11.52,0,0,0-.435,3.757,11.888,11.888,0,0,0,.4,3.4c.248.731.576,1.008.989.834a1.632,1.632,0,0,0,.81-.852,9.456,9.456,0,0,0,.587-2.079l.03-.013.25,1.963.819-.346-.12-10.088a11.316,11.316,0,0,0-.507-3.842q-.479-1.131-1.341-.767A3.671,3.671,0,0,0,206.662,61l.42,2.626q.683-1.391,1.2-1.608.667-.283.695,2.02l.008.663-.745.4a3.216,3.216,0,0,0-1.425,1.877m2.2.138.015,1.247a9.128,9.128,0,0,1-.217,2.3c-.157.619-.371.985-.642,1.1q-.567.24-.588-1.507a5.852,5.852,0,0,1,.228-1.921,1.632,1.632,0,0,1,.752-.97Z" fill="#3b265d"/>
      <path id="Path_9655" data-name="Path 9655" d="M213.338,55.439q.267-.792.73-2.384t.657-2.38l0-.284-1.313.554q-.224,1.47-.853,4.458l.005.366Z" fill="#3b265d"/>
      <path id="Path_9656" data-name="Path 9656" d="M211.809,71.813q.4,1.266,1.156.947a1.7,1.7,0,0,0,.781-.908A6.912,6.912,0,0,0,214.26,70l.062-.027.18,1.871.9-.38-.18-15.141-1.171.5.085,7.122a25.312,25.312,0,0,1-.173,3.933q-.207,1.25-.7,1.457c-.241.1-.417-.1-.535-.6a12.249,12.249,0,0,1-.193-2.389l-.1-8.842-1.171.5.117,9.872a14.8,14.8,0,0,0,.432,3.947" fill="#3b265d"/>
      <path id="Path_9657" data-name="Path 9657" d="M217.989,70.637q.817-.348,1.192-2.75l.049-.02.249,1.867.9-.38-.25-21.072-1.174.5.058,4.848q.015,1.328.124,2.983l-.039.017q-.451-2.043-1.263-1.7-.771.326-1.186,2.591a32.449,32.449,0,0,0-.37,5.989,26.746,26.746,0,0,0,.5,5.559q.458,1.89,1.212,1.571m-.348-11.074q.2-1.264.595-1.43.479-.2.7.765a18.194,18.194,0,0,1,.255,3.4l.006.447a18.361,18.361,0,0,1-.192,3.226q-.2,1.008-.648,1.2-.408.173-.638-.852a17.212,17.212,0,0,1-.26-3.26,21.605,21.605,0,0,1,.178-3.5" fill="#3b265d"/>
      <path id="Path_9658" data-name="Path 9658" d="M223.547,68.287a2.228,2.228,0,0,0,.85-.624,4.614,4.614,0,0,0,.646-1.084l-.038-3.2a6.321,6.321,0,0,1-.71,1.213,1.91,1.91,0,0,1-.73.594c-.332.141-.6-.079-.788-.66a9.7,9.7,0,0,1-.328-2.626l2.768-1.169-.024-2a17.272,17.272,0,0,0-.567-4.837q-.528-1.614-1.438-1.23-.951.4-1.466,2.71a27.624,27.624,0,0,0-.47,6.112,18.929,18.929,0,0,0,.651,5.469q.607,1.77,1.644,1.332m-.889-11.607q.2-.923.574-1.08t.6.583a8.806,8.806,0,0,1,.254,2.267l-1.643.695a12.558,12.558,0,0,1,.215-2.465" fill="#3b265d"/>
      <path id="Path_9659" data-name="Path 9659" d="M181.6,60.354a1.145,1.145,0,0,1-1.145-1.145V20.562a1.145,1.145,0,1,1,2.29,0V59.209a1.145,1.145,0,0,1-1.145,1.145" fill="#3b265d"/>
      <path id="Path_9660" data-name="Path 9660" d="M181.954,206.446a3.927,3.927,0,0,0-1.942-1.34,12.474,12.474,0,0,0-3.493-.808c-.157-.814-.337-1.623-.517-2.431-.068-.3-.114-.608-.175-.911,0-.045,0-.09.007-.135.038-.471.065-.943.1-1.415a.708.708,0,0,0,.234-.529c.035-1.052.042-2.12.018-3.19.039-.61.075-1.221.121-1.83.058-.776.106-1.551.154-2.327.951-.982.546-3.07.381-4.217-.048-.333-.113-.663-.173-.994q.031-1.735-.005-3.472.037-1.2-.038-2.407a30.238,30.238,0,0,0-.231-5.528c-.039-.3-.1-.593-.142-.89.006-.367.024-.735.017-1.1a20.983,20.983,0,0,0-.58-5.007c-.047-.178-.1-.362-.165-.548a7.168,7.168,0,0,0,.71-.567,3.947,3.947,0,0,0,.585-.667,3.035,3.035,0,0,0,.836-3.075,7.16,7.16,0,0,0-3.263-3.708,14.854,14.854,0,0,0-2.713-1.35,5.219,5.219,0,0,0-2.439-.5c-.148.02-.176.228-.08.324l-.006.005c.009.008.021.014.031.022s0,.007.008.009l.015.006c.024.019.05.034.074.052a5.036,5.036,0,0,0-.561-.228c.325-.567-.154-1.463-.91-1.216-.1.031-.194.058-.291.088-.085-.309-.194-.61-.3-.912a2.171,2.171,0,0,0,2.344-.951,3.3,3.3,0,0,0,1.28-.533,2.711,2.711,0,0,0,1.28-2.027,1.456,1.456,0,0,0,.121-.265,2.031,2.031,0,0,0-.472-1.795c-.034-.04-.074-.062-.11-.1-.013-.066-.016-.13-.034-.2A3.9,3.9,0,0,0,170.523,148l-.021-.042c-.156-.342-.333-.678-.5-1-.191-.379-.381-.758-.556-1.146a.394.394,0,0,0-.45-.22,5.65,5.65,0,0,0-1.517-2.186.511.511,0,0,0-.017-.083c-.148-.355-.289-.713-.437-1.068l0-.009h0c-.019-.045-.036-.09-.055-.135a.437.437,0,0,0-.641-.237c-.056-.074-.112-.148-.167-.223a4.254,4.254,0,0,0-1.846-3.223.573.573,0,0,0-.8.273,2.476,2.476,0,0,0-.369-.118,2.017,2.017,0,0,0-.47-.018c-.052-.022-.1-.049-.154-.068a.628.628,0,0,0-.619.164c-.058.062-.109.129-.166.192a3.238,3.238,0,0,0-1.249,1.432,5.492,5.492,0,0,0-.442.448,4.183,4.183,0,0,0-3.379,1.99,4.961,4.961,0,0,0-.352.619,7.71,7.71,0,0,0-1.536,2.5,3.074,3.074,0,0,0,.069,2.436,3.39,3.39,0,0,0-1.2,1.454,3.768,3.768,0,0,0-.347,1.7,2.586,2.586,0,0,0-1.1,1.329,2.457,2.457,0,0,0,.642,2.484,3.416,3.416,0,0,0,.727,1.454,2.454,2.454,0,0,0,1.888,1.054,1.423,1.423,0,0,0,.514-.124c.04.023.077.052.117.072a2.468,2.468,0,0,0,2.525-.277,3.754,3.754,0,0,0,1.886-.154,3.564,3.564,0,0,0,1.078-.194l.237,1.053c-.215.065-.431.125-.644.192-.244.033-.479.069-.721.1-.014-.007-.025-.021-.04-.026a.47.47,0,0,0-.5.094l-.005.007c-.417.057-.842.108-1.248.174a.836.836,0,0,0-.583,1.026l.037.093a8.453,8.453,0,0,0-2.15,6.356,4.542,4.542,0,0,0,.635,1.875c.666,2.045,2.946,2.169,5.013,2.1.53.025,1.057.026,1.564.01.241-.008.48-.031.72-.046a11.008,11.008,0,0,1,.424,1.384,7.937,7.937,0,0,1,0,3.358,26.724,26.724,0,0,0-1.925,4.725c-.315.79-.636,1.579-.928,2.378a39.115,39.115,0,0,0-1.7,5.627c-.484,1.588-.984,3.171-1.442,4.767-.231.8-.465,1.6-.713,2.4-.257.579-.514,1.159-.764,1.741-.549,1.279-1.071,2.57-1.529,3.884-.022.062-.038.125-.059.188q-.812,1.543-1.636,3.081a7.424,7.424,0,0,0-3,.487,17.077,17.077,0,0,0-3.409,1.56.831.831,0,0,0-.294,1.121,3.571,3.571,0,0,0,2.824,1.352,15.184,15.184,0,0,0,3.813-.186,8.242,8.242,0,0,0,3.168-.886,1.615,1.615,0,0,0,.853-1.7,1.537,1.537,0,0,0-.461-.747,38.979,38.979,0,0,0,2.484-3.865q1.134-1.488,2.289-2.956c.166-.212.325-.429.484-.646a17.471,17.471,0,0,0,1.257-1.74l.191-.264a25.154,25.154,0,0,0,2.123-2.608c.8.029,1.6.026,2.386.027a13.942,13.942,0,0,0,1.482-.061c.172.53.336,1.063.5,1.594.425,1.417.9,2.812,1.2,4.262.494,2.405.728,5.064,1.854,7.294-.115.351-.233.693-.382,1.035a1.541,1.541,0,0,0-.175,1.016c.22.849,1.377,1.254,2.142,1.355.8.1,1.618.093,2.425.167,1.339.123,3.44.435,4.464-.682a1.722,1.722,0,0,0,.117-2.1m-21.507-39.329c-.141-.015-.288-.038-.436-.066a5.732,5.732,0,0,0,.6-1.183c.092-.137.18-.277.264-.422a10.446,10.446,0,0,0,1.459,1.715,13.088,13.088,0,0,1-1.889-.044" fill="#3b265d"/>
      <path id="Path_9661" data-name="Path 9661" d="M138.947,196.56q.9-3.544,2.053-7.019c.772-2.317,1.675-4.575,2.566-6.848a1.736,1.736,0,0,0,.119-1.3,3.8,3.8,0,0,0-1-1.162q-1.256-1.23-2.583-2.384c-.194-.169-.4-.32-.6-.486a6.011,6.011,0,0,0-2.353-3.461c-.138-.1-.274-.2-.409-.3a61.31,61.31,0,0,0-2.97-16.517,2.472,2.472,0,0,0,.368-.3.487.487,0,0,0,.286.115,5.9,5.9,0,0,0,2.371-.342,5.912,5.912,0,0,0,1.709.468,1.584,1.584,0,0,0,1.707-1.126,12.9,12.9,0,0,0,.5-2.352c.02-.128.034-.256.053-.383a11.453,11.453,0,0,0,1.173-2.91.5.5,0,0,0,.987-.052c0-.012,0-.024,0-.037a.391.391,0,0,0,.195-.268,3.417,3.417,0,0,0-.1-1.455.425.425,0,0,0,.175-.369,3.39,3.39,0,0,0-.5-1.468.419.419,0,0,0,.18,0,.514.514,0,0,0,.348-.614,2.159,2.159,0,0,0-.316-.82.362.362,0,0,0-.015-.213,2.939,2.939,0,0,0-1.47-1.53c-.043-.021-.088-.033-.131-.052a4.975,4.975,0,0,0-1.776-.962,4.612,4.612,0,0,0-1.312-.656.509.509,0,0,0-.084-.4.5.5,0,0,0-.3-.888,8.98,8.98,0,0,0-3.147.633c-.122.042-.242.09-.361.143-.075.033-.149.067-.223.1l-.113.058a9,9,0,0,0-1.722,1.109.711.711,0,0,0-.773-.2,2.844,2.844,0,0,0-.927.688,7.079,7.079,0,0,0-1.829,2.949c-.068.211-.124.426-.171.644a5.378,5.378,0,0,0-.305,1.486q-.607.108-1.216.232a9.27,9.27,0,0,0-6.262,2.206c-.279.234-.531.5-.786.756-.869-.113-1.743-.2-2.619-.237-.793-.036-1.586-.048-2.379-.054a5.8,5.8,0,0,0,.2-.655c.035-.16.056-.332.085-.5a2.975,2.975,0,0,0,.657-.426,3.589,3.589,0,0,0,.69-.38A1.3,1.3,0,0,0,117.21,148a1.865,1.865,0,0,0-.511-1.137c-.409-.521-.824-1.037-1.238-1.554a14.469,14.469,0,0,0-.955-1.879c.187-1.718-.32-3.926-1.878-4.841a1.526,1.526,0,0,0-1.894.213,2.254,2.254,0,0,0-.586-.084,3.017,3.017,0,0,0-1.749.633,4.207,4.207,0,0,0-3.848,1.572c-.429.447-1.105,1.023-1.112,1.7a4.357,4.357,0,0,0-1.553,1.863,2.569,2.569,0,0,0,.231,2.7c0,.138.011.275.023.412a2.934,2.934,0,0,0,1.421,4.008,1.315,1.315,0,0,0,.127,1.064,1.782,1.782,0,0,0,1.309.774c-.072.049-.14.1-.211.153a.414.414,0,0,0-.423.143c-.155.178-.3.366-.451.547-.058.051-.12.1-.176.151a.434.434,0,0,0-.123.211c-.252.306-.509.607-.751.921-.534.479-1.057.969-1.554,1.487a.479.479,0,0,0,0,.681,37.994,37.994,0,0,0-2.029,3.384.476.476,0,0,0,.029.53c-.423,1.491.52,3.1,1.582,4.185a16.041,16.041,0,0,0,2.4,2.005,8.719,8.719,0,0,0,2.711,1.4,4.9,4.9,0,0,0,2.318-.07l-.852,5.445a6.981,6.981,0,0,0-.219,2.86,2.425,2.425,0,0,0,.514.908.47.47,0,0,0-.176.23,9.244,9.244,0,0,0-.379,1.64.523.523,0,0,0,.018.229c-.293,1.115-.7,2.205-1.078,3.288l-.872,2.478a8.938,8.938,0,0,0-.77,2.414,1.264,1.264,0,0,0,.466,1,.461.461,0,0,0,.205.8c.532.129,1.068.239,1.606.339a80.516,80.516,0,0,1-2.077,7.793.5.5,0,0,0-.017.223c-.474,1.168-.931,2.339-1.325,3.528a36.757,36.757,0,0,1-3.539,3.862.5.5,0,0,0,0,.706,4.586,4.586,0,0,0,2.99.919,31.626,31.626,0,0,0,3.569-.307,1.238,1.238,0,0,0,1.176-.778,2.922,2.922,0,0,0-.063-1.5,4.831,4.831,0,0,0-1.457-2.416c.894-1.406,1.769-2.826,2.657-4.23l3.21-5.079q.585-.838,1.182-1.67a.527.527,0,0,0,.785-.256c.147-.41.3-.817.466-1.222a.436.436,0,0,0,.273-.214l.411-.827c.007-.014.006-.028.012-.042a38.278,38.278,0,0,1,2.7-4.647.424.424,0,0,0,.073-.322.243.243,0,0,0,.067.028c.069.022.169.147.221.2a4.637,4.637,0,0,1,1.388,2.913c.034.414-.062.836-.015,1.244.093.81.819.935,1.5,1.031l.028,0a3.94,3.94,0,0,1,.52,1.7c.09.78.159,1.563.237,2.343q.185,1.826.368,3.651c-.018.021-.039.04-.056.061a.443.443,0,0,0-.289.32c-.009.035-.021.068-.03.1a4.318,4.318,0,0,0-.571,1.147c-.212.671-.387,1.356-.549,2.046-.189.433-.387.862-.6,1.283a4.9,4.9,0,0,0-.778,1.986,1.53,1.53,0,0,0,1.2,1.488,20.7,20.7,0,0,0,4.923,1.074,2.751,2.751,0,0,0,2.074-.48,1.6,1.6,0,0,0,.509-1.8,3.858,3.858,0,0,0-1.44-1.78l-.058-.039c1.552-1.693,3.248-3.247,4.934-4.8q1.025-.945,2.033-1.908-.06,1.014-.121,2.027-.051.838-.1,1.679c-.012.208-.036.425-.027.637-.138.235-.284.467-.418.705-.342.6-.766,1.234-.331,1.908a3.64,3.64,0,0,0,1.758,1.143,9.377,9.377,0,0,0,2.161.6,10,10,0,0,0,4.411-.288c.568-.172,1.493-.39,1.794-.962a1.615,1.615,0,0,0-.51-1.749,4.649,4.649,0,0,0-1.917-1.005,12.108,12.108,0,0,0-1.8-.4.592.592,0,0,1-.133-.456,8.478,8.478,0,0,1,.32-1.578q.215-.92.445-1.835m-30.279-33.931q-.017.444-.035.888c-.34-.347-.672-.7-.979-1.078a3.207,3.207,0,0,1-.491-.77c-.018-.041-.037-.1-.055-.16a2.871,2.871,0,0,1-.035-.515.345.345,0,0,0-.01-.056c.081-.417.364-.7.763-.586a1.352,1.352,0,0,1,.827,1.206,6.491,6.491,0,0,1,.015,1.071m21.389,25.9a6.86,6.86,0,0,1-1.164,1.821q-.765.972-1.581,1.9c-.092.1-.191.2-.283.307l.192-2.994c.473-.066.945-.139,1.417-.214.367-.058.817-.056,1.08-.359.3-.346.2-.936.189-1.354-.008-.5-.028-.995-.049-1.492a3.283,3.283,0,0,1,.2,2.383m1.279-22.455a11.6,11.6,0,0,0-2.382-1.114.574.574,0,0,0-.508-.286c.113-.04-.047-.31-.081-.442a3.508,3.508,0,0,1-.1-.628,5.284,5.284,0,0,1,.08-1.274,11.6,11.6,0,0,1,.623-2.11c.083-.171.177-.336.264-.5q1.724,3.735,3.358,7.512a5.921,5.921,0,0,0-1.256-1.154" fill="#3b265d"/>
      <path id="Path_9662" data-name="Path 9662" d="M98.229,203.978a7.412,7.412,0,0,0-3.754-1.83q-1.674-6.977-3.806-13.832a.575.575,0,0,0,.477-.715,147.559,147.559,0,0,1-4.052-14.195.543.543,0,0,0-.492-.82c-.081.005-.162.005-.242.01-.161-1.3-.305-2.6-.421-3.9a.6.6,0,0,0,.039-.187,31.946,31.946,0,0,0-.176-4.058c-.021-1.457,0-2.913.082-4.368a8.326,8.326,0,0,0,3.926-1.583,6.507,6.507,0,0,0,2.654-5.129,5.589,5.589,0,0,0-.641-2.695,6.7,6.7,0,0,0-2.1-2.147.569.569,0,0,0-.249-1.079,5.449,5.449,0,0,1-1.42-.2.528.528,0,0,0-.409.046.544.544,0,0,0-.4-.173c-.793-.014-1.587-.012-2.38,0,.008-.033.02-.063.027-.1.078-.342.153-.685.229-1.027l.087-.391a7.731,7.731,0,0,0,3.276-.682,7.305,7.305,0,0,0,3.59-3.027c.461-.182.921-.362,1.379-.55.435-.177.836-.455.837-.98a2.5,2.5,0,0,0-.436-1.153,10.727,10.727,0,0,0-1.643-2.188c-.036-.107-.069-.216-.109-.323a5.025,5.025,0,0,0-3.258-3.27,6.524,6.524,0,0,0-6.555,2.34,7,7,0,0,0-1.136,1.422,5.8,5.8,0,0,0,1.1,7.328,15.643,15.643,0,0,1-1.619,2.515c-.112.039-.224.073-.335.124a.435.435,0,0,0-.171.156c-1.211.085-2.422.187-3.629.326-.018,0-.029.011-.046.014a.459.459,0,0,0-.694-.112,41.437,41.437,0,0,0-4.23,3.678q-.966.966-1.863,2a7.291,7.291,0,0,0-1.45,2.071,1.958,1.958,0,0,0,.334,2.115,4.115,4.115,0,0,0,2.082.892,23.719,23.719,0,0,0,4.038.565,34.985,34.985,0,0,0-.489,7.881c0,1.113.056,2.224.131,3.336,0,.029,0,.06-.007.09-.006.068-.011.137-.017.205a.545.545,0,0,0-.718.533,84.358,84.358,0,0,1-.8,13.9c-.1.736-.184,1.573.516,2.049a1.759,1.759,0,0,0,.489.206q.167,6.688.933,13.343a4.279,4.279,0,0,1-2.407,1.449,21.589,21.589,0,0,0-3.781,1.047c-.53.253-1.018.567-.918,1.229a1.962,1.962,0,0,0,.935,1.3c1.106.7,2.755.459,3.989.333a21.152,21.152,0,0,0,4.781-1.053.586.586,0,0,0,.347-.853,8.786,8.786,0,0,1-1.117-2.057c.208-1.593.431-3.2.709-4.8a.5.5,0,0,0,.6-.4,71.491,71.491,0,0,1,2.793-9.444c.785-.021,1.57-.039,2.354-.078a.623.623,0,0,0,.3-.1c.261.72.521,1.441.793,2.157a.594.594,0,0,0,.854.347c.186-.085.379-.146.568-.222q2.2,5.682,4.646,11.263c.216.491.791.319.986-.068.33.55.679,1.089,1.057,1.605-.9,1.171-1.9,2.475-1.627,3.995.287,1.607,1.888,2.064,3.309,2.083.661.009,1.324-.011,1.986-.031a3.194,3.194,0,0,0,.889.073,2.141,2.141,0,0,0,.436-.092,3.928,3.928,0,0,0,1.927-.278c1.674-.916-.007-3.016-.89-3.829m-10.792-48.94c.315-.709.62-1.421.881-2.147l.007.011c.014.021.028.043.04.065s.052.1.063.118c-.005-.007.026.072.033.092a1.659,1.659,0,0,1,.051.2l.011.056,0,.017c0,.06.008.119.008.179s0,.1-.006.154l-.006.051-.008.048a2.222,2.222,0,0,1-.092.321v0c-.011.023-.022.045-.034.068a1.733,1.733,0,0,1-.1.177c-.013.02-.026.039-.04.058s0,0-.007.009c-.034.039-.068.077-.1.113s-.09.079-.131.121c0,.006,0,0,0,0-.027.02-.055.04-.083.058a2.208,2.208,0,0,1-.313.171l-.124.045-.041.011m-12.112.755a1.467,1.467,0,0,1-.428-.447c-.256-.454.115-.912.369-1.278.188-.271.379-.539.567-.809a17.1,17.1,0,0,0-.508,2.534" fill="#3b265d"/>
      <path id="Path_9663" data-name="Path 9663" d="M51.99,199.735c-.136.755-.258,1.513-.386,2.271-.1.822-.2,1.642-.269,2.442a16.368,16.368,0,0,0,.655-4.713" fill="#3b265d"/>
      <path id="Path_9664" data-name="Path 9664" d="M53.459,204.7l1.319.55a4.776,4.776,0,0,0-1.319-.55" fill="#3b265d"/>
      <path id="Path_9665" data-name="Path 9665" d="M57.032,192.148a11.926,11.926,0,0,0-.876-3.177c-.153-.662-.281-1.352-.4-2.056l.417,1.476a49.765,49.765,0,0,0-1.31-5.787,10.984,10.984,0,0,0-.531-2.06.521.521,0,0,0-.443-.363l-.01-.022c.137.007.273,0,.411.01.407.033.488-.615.1-.709a16.657,16.657,0,0,0-3.639-.418c-.052-.287-.1-.576-.136-.867l.023-.008a1.5,1.5,0,0,0,1.079-.151,1.881,1.881,0,0,0,.643-.636l.021,0a1.81,1.81,0,0,0,1.442-1.746,2.849,2.849,0,0,0,.333-.792,4.094,4.094,0,0,0,.47-1.361,3.808,3.808,0,0,0-.9-3.17,11.679,11.679,0,0,0,.108-2.16c.091-1.219-.325-2.452-1.635-2.746a3.04,3.04,0,0,0-.35-.056,1.369,1.369,0,0,0-.348-.324,2.292,2.292,0,0,0-1.657-.244,1.87,1.87,0,0,0-1.587,1.473,3.061,3.061,0,0,0-2.134,1.13,1.915,1.915,0,0,0-.441,1.108,1.6,1.6,0,0,0-.966.356,2.063,2.063,0,0,0-.331,2.3.727.727,0,0,0-.139.092.876.876,0,0,0-.177.917,2.837,2.837,0,0,0,1.493,1.511,3.436,3.436,0,0,0,1.067.283,3.122,3.122,0,0,0,1.129,3.7,2.8,2.8,0,0,0,1.177.335c.037.049.058.11.1.155a.916.916,0,0,0,1.195.061c.021.238.047.474.073.709a4.287,4.287,0,0,0-2.564-.051,1.2,1.2,0,0,0-.793.894,1.867,1.867,0,0,0-.455.478.192.192,0,0,0,.115.281c.144.03.289.046.434.068.01.051.017.1.028.153-.016.051-.033.1-.048.155a1.037,1.037,0,0,0-.183.129l-.006-.006c-.017.02-.025.044-.042.064-.049-.072-.081-.156-.136-.224-.027-.032-.077,0-.068.04.031.114.068.227.1.34-.232.337-.412.7-.622,1.059-.174.141-.344.288-.518.43a3.807,3.807,0,0,1-.49.358c-.083.053-.167.1-.253.151-.022.012-.2.1-.235.121a4.03,4.03,0,0,1-.6.172.292.292,0,0,0-.064.02.33.33,0,0,0-.062,0c-.039,0-.326-.015-.24,0a1.279,1.279,0,0,1-.132-.043c-.056-.054-.113-.106-.166-.163a7.3,7.3,0,0,1-.709-.976c-.51-.789-.977-1.591-1.436-2.407-.1-.183-.2-.381-.287-.583,0-.067-.005-.133,0-.2.006-.051-.068-.063-.091-.025l0,0c-.029-.072-.053-.146-.08-.219.013-.28.022-.56.041-.841.012-.183.045-.4.067-.627.047-.1.1-.188.141-.286a7.3,7.3,0,0,0,.461-1.141,2.488,2.488,0,0,0,.071-.665,1.16,1.16,0,0,0,.185-.892,8.947,8.947,0,0,0-.949-2.339,13.752,13.752,0,0,1-.891-2.461c-.487-1.751-.883-3.527-1.277-5.3-.018-.081-.031-.162-.049-.243a.234.234,0,0,0,0-.026,21.141,21.141,0,0,0-.193-3.214.665.665,0,0,0,.39-.767c-.176-1.116-.281-2.261-.427-3.4,1.144-1.09.916-2.566.6-3.969a3.572,3.572,0,0,0,.352-2.344A6.6,6.6,0,0,0,41,147.968c.066-.02.133-.042.2-.057a7.37,7.37,0,0,0,1.265-.4c.756-.329,1.635-1.032,1.254-1.959a1.684,1.684,0,0,0-.182-.295,1.061,1.061,0,0,0-.309-.6,2.033,2.033,0,0,0-.414-.279c-.08-.037-.159-.075-.237-.115l-.081-.045c-.1-.089-.207-.177-.3-.272a8.045,8.045,0,0,1-.772-.944c-.155-.219-.3-.569-.552-.7a4.345,4.345,0,0,0-1.289-1.366,3.864,3.864,0,0,0-.864-.429,3.548,3.548,0,0,0-1.228-2.73,1.742,1.742,0,0,0-2.335.3,1.642,1.642,0,0,0-.169.285,4.516,4.516,0,0,0-3.048,1.722,4.261,4.261,0,0,0-2.787,1.872c-.079.107-.153.231-.229.353a11.559,11.559,0,0,1,.668-4.676c1.13-.554,2.846-1.262,2.988-2.594.027-.259-.234-.446-.461-.461a2.7,2.7,0,0,0-1.768.661,15.667,15.667,0,0,0,1.087-3.062.381.381,0,0,0,.348-.292,4.288,4.288,0,0,0,.032-1.545,12.95,12.95,0,0,0-.235-1.531.512.512,0,0,0-.749-.3,6.611,6.611,0,0,0-2.524,3.446,6.736,6.736,0,0,0-.24,1.972c.008.293.034.591.062.885a3.841,3.841,0,0,0-.02.834,12.645,12.645,0,0,0-.56,1.613,29.383,29.383,0,0,0-.749,3.4c-.325,1.875-.642,3.755-.817,5.649-.124.137-.237.265-.325.37-.984,1.182-2.253,3.482-1.71,5.074a3.782,3.782,0,0,0-.881.962,3.337,3.337,0,0,0,.29,3.732,4.364,4.364,0,0,0,3.693,1.8c.026.174.053.348.089.517q-.252.7-.476,1.406a10.658,10.658,0,0,0-.674,2.991.206.206,0,0,0,.049.127c-.328.94-.657,1.881-.892,2.85a5.572,5.572,0,0,0-.074,3.381c-.009.039-.023.077-.031.116-.61,2.153-1.05,4.345-1.561,6.522a26.808,26.808,0,0,0-.614,3.2c-.094.341-.178.683-.255,1.027-.428,1.6-.885,3.193-1.451,4.741a13.164,13.164,0,0,0-1.125,4.428c-.263.967-.512,1.937-.719,2.916-.281,1.333-.334,2.725-.526,4.081-.113.413-.222.829-.344,1.239a25.2,25.2,0,0,0-1.025,3.024.7.7,0,0,0,.072.53l-.006.047c-.078.056-.146.126-.227.178a9.238,9.238,0,0,0-.936.649,5.04,5.04,0,0,0-.8.817,1.568,1.568,0,0,0-.107,2.07,2.246,2.246,0,0,0,1.714.53,8.911,8.911,0,0,0,1.893-.277.829.829,0,0,0,.5-1.182.8.8,0,0,0,.276-.908,1.448,1.448,0,0,1,.2-.161.65.65,0,0,0,.292-.718.671.671,0,0,0-.451-.445,17.864,17.864,0,0,0,1.027-3.659c.106-.472.218-.929.348-1.379.27-.449.549-.893.828-1.336q.744-1.185,1.543-2.328a14.443,14.443,0,0,0,2.1.349,16.694,16.694,0,0,0,4.489-.359c.212-.036.445-.06.686-.081a.852.852,0,0,0-.068.6c.3,1.287.569,2.636,1,3.915a23.783,23.783,0,0,0,.306,2.444,12.747,12.747,0,0,0,.689,2.553.979.979,0,0,0-.292.2.861.861,0,0,0-.139,1.056c.018.028.049.047.069.074a.733.733,0,0,0,.394.549,6.391,6.391,0,0,0,1.775.537c1.32.594,2.751,1.483,3.975.362a.884.884,0,0,0,.137-1.06,2.316,2.316,0,0,0-.529-.6.929.929,0,0,0-.285-.339,15.229,15.229,0,0,1-1.325-1.2,2.3,2.3,0,0,0-1.05-.748,10.6,10.6,0,0,1-.132-1.248c-.054-1.17.042-2.345-.048-3.515-.111-1.458-.526-2.969-.677-4.467l.374-.115a4.078,4.078,0,0,0,1.3-.512c.96-.713.587-2.022.41-3.013a39.671,39.671,0,0,1-.7-4.437c-.1-1.582-.146-3.168-.231-4.751-.173-3.2-.548-6.375-.587-9.588-.012-1.015-.026-2.015-.058-3.014.214-.256.439-.5.669-.739.428,1.184.884,2.357,1.422,3.5.557,1.181,1.1,2.375,1.545,3.6.083.229.22.542.354.882a5.884,5.884,0,0,0-.418,2.88,12.941,12.941,0,0,0,.7,3.766,3.741,3.741,0,0,0,.752,1.415.784.784,0,0,0,.174.107c.054.12.126.228.188.343.014.078.027.162.042.237a8.537,8.537,0,0,0,1.211,3.08,2.105,2.105,0,0,0,2.431,1.139,3.462,3.462,0,0,0,1.485-1.271,4.622,4.622,0,0,0,.793-.511,5.322,5.322,0,0,0,.646-.628c.111.406.246.807.391,1.2.04.186.081.372.133.555.024.183.044.366.064.55-.218.928-.426,1.86-.653,2.786a1.736,1.736,0,0,0,.007-.25c-.006-.055-.091-.059-.089,0a1.667,1.667,0,0,1-.054.492,3.574,3.574,0,0,1-.181.456.068.068,0,0,0,.039.08.069.069,0,0,0,.083-.028c-.262.974-.564,1.936-.866,2.9l-.015.041c-.522,1.456-1.472,2.755-1.853,4.257a2.177,2.177,0,0,0-.043,1.387,1.727,1.727,0,0,0,1.112.875c.22.084.451.139.676.213a17.08,17.08,0,0,0-.237,2.4c-.01.42-.014.837-.027,1.252-.459.712-1.259,1.154-1.715,1.892a.647.647,0,0,0,.553.963c.05.005.1,0,.15,0a.573.573,0,0,0,.49.335,2.023,2.023,0,0,0,1.068-.323.735.735,0,0,0,.18-.077,6.177,6.177,0,0,1,.745.3.672.672,0,0,0,.912-.911c-.184-.319-.346-.653-.534-.968a7.851,7.851,0,0,0-.215-1.42c-.057-.3-.113-.6-.166-.9.12-.327.235-.657.359-.987.131-.346.262-.682.392-1.02a1.549,1.549,0,0,0,1.178-.14.809.809,0,0,0,.362-.649,1.027,1.027,0,0,0,.757-.309,7.549,7.549,0,0,0,.945-1.116l-.186.338a1.379,1.379,0,0,1,.838-.2l-.314,3.4a11.116,11.116,0,0,0-.162,1.749l-.04.426c.014-.083.029-.167.043-.25a1.453,1.453,0,0,0,.065.358l.135-1.537c.041-.245.084-.49.125-.736a31.372,31.372,0,0,0,.265-3.4,3.441,3.441,0,0,1,.606.105c-.185,1.189-.231,2.481-.38,3.6a8.415,8.415,0,0,0-.2,2.161,9.078,9.078,0,0,1,1.186.11l.382.108-.226-.094a10.585,10.585,0,0,1,1.33.322L52.2,203.205c.094-1.451.428-2.945.526-4.418a7.059,7.059,0,0,1,1.62.778,1.445,1.445,0,0,0,.3-.335c.006.1.013.194.02.291,0-.109,0-.219,0-.327.7-1.094.236-3.261-.122-5.069l-.04-3.131c.157-.984.309-1.969.432-2.958a.386.386,0,0,0-.138-.357c.019-.113.035-.226.052-.34.42,1.474,1.382,3.4,1.227,4.936.679.331.828-.131.78-.669Zm-11.8-20.375c0,.007,0,.013.006.02-.087-.088-.04-.06-.006-.02m.169-1.8a.4.4,0,0,1,.025-.124c.008-.019.029-.02.04-.035-.023.052-.044.105-.065.159m-14.68-40.044c.009.057.019.114.027.171a.956.956,0,0,0-.175.2c-.016.008-.03.021-.046.03a1.075,1.075,0,0,0-.179,0c.121-.136.24-.273.373-.4M18.527,201.739v0h0l0,.005m10.278-67.845c.007-.04.015-.079.023-.119s.034-.089.052-.133c-.029.083-.049.168-.075.252m1.626,57.375-.13.023.087-.068.053.044h-.01m2.963,1.436c.031-.015.06-.031.091-.047,0,.153.007.3.017.457-.038-.136-.068-.275-.108-.41m2.02,10.017c.018-.029.024-.063.039-.093.045.069.088.139.135.209-.078-.019-.156-.037-.238-.051.019-.024.047-.038.064-.065m-.732-12.758a.083.083,0,0,0-.007-.019,1.163,1.163,0,0,0,.113-.053c0,.01,0,.021.006.032-.039.013-.079.027-.112.04m.343-25.89c0-.076.014-.152.019-.229.019.053.037.106.055.159l-.074.07m1.8-24.72a2.144,2.144,0,0,0-.215-.324c.249.045.39.262.517.472a1.413,1.413,0,0,0-.3-.148m13.552,39.574v-.723a.679.679,0,0,0,.108.01c.013.261.015.507.012.746-.039-.013-.081-.021-.12-.033m.336.114c-.041-.015-.08-.032-.12-.046a4.285,4.285,0,0,0,.025-.457l-.076-.337a.556.556,0,0,0,.068-.026c0,.121.008.242.008.363l.113.5h-.018m2.813,1.245c-.036-.048-.074-.094-.113-.14l.192,0,.023.08a.5.5,0,0,0-.1.055m.131-.069c-.016-.021-.026-.045-.042-.066.079,0,.158,0,.237.006l.006.023a.515.515,0,0,0-.2.037M56.174,191.5c-.341-1.407-.412-3.024-1.3-4.259.024-.169.058-.337.078-.506l1.482,4.253Zm.264-.529c-.109-.4-.22-.8-.333-1.2a2.811,2.811,0,0,0,.176.328l-.833-2.786c.052.276.108.562.168.847q-.292-.92-.637-1.828c.015-.16.022-.319.033-.479l.436,1.46c-.062-.332-.122-.648-.187-.927-.071-.3-.145-.635-.219-.961,0-.068.012-.135.014-.2l1.032,3.61a4.513,4.513,0,0,0-.236-.45l.725,2.307Z" fill="#3b265d"/>
    </g>
  </g>
</svg>
