<svg id="Group_2520" data-name="Group 2520" xmlns="http://www.w3.org/2000/svg" xmlns:xlink="http://www.w3.org/1999/xlink" width="301.91" height="98.171" viewBox="0 0 301.91 98.171">
  <defs>
    <clipPath id="clip-path">
      <rect id="Rectangle_1901" data-name="Rectangle 1901" width="301.91" height="98.171" fill="none"/>
    </clipPath>
  </defs>
  <rect id="Rectangle_1900" data-name="Rectangle 1900" width="252.825" height="66.248" transform="translate(49.085 15.961)" fill="#ff9d00"/>
  <path id="Path_8572" data-name="Path 8572" d="M512.576,138.989V117.981h5.676V134.4h8.09v4.584Z" transform="translate(-344.975 -79.404)" fill="#fff"/>
  <path id="Path_8573" data-name="Path 8573" d="M577.431,138.989H564.959V117.981h12.473v4.555h-6.8v3.3h6.294V130.4h-6.294v3.966h6.8Z" transform="translate(-380.229 -79.404)" fill="#fff"/>
  <g id="Group_2516" data-name="Group 2516">
    <g id="Group_2515" data-name="Group 2515" clip-path="url(#clip-path)">
      <path id="Path_8574" data-name="Path 8574" d="M621.478,117.981h6.351l-6.883,21.008h-6.682l-6.854-21.008h6.38l2.859,10.647a32.492,32.492,0,0,1,.977,4.943q.1-1.006.4-2.515t.532-2.371Z" transform="translate(-408.801 -79.404)" fill="#fff"/>
      <path id="Path_8575" data-name="Path 8575" d="M689.272,138.989H676.8V117.981h12.473v4.555h-6.8v3.3h6.294V130.4h-6.294v3.966h6.8Z" transform="translate(-455.501 -79.404)" fill="#fff"/>
      <path id="Path_8576" data-name="Path 8576" d="M99.523,51.715A47.808,47.808,0,1,0,51.716,99.523,47.808,47.808,0,0,0,99.523,51.715" transform="translate(-2.63 -2.629)" fill="#ff9d00"/>
      <path id="Path_8577" data-name="Path 8577" d="M49.085,98.171A49.085,49.085,0,1,1,98.171,49.085,49.141,49.141,0,0,1,49.085,98.171m0-95.615a46.53,46.53,0,1,0,46.53,46.53,46.583,46.583,0,0,0-46.53-46.53" fill="#fff"/>
      <path id="Path_8578" data-name="Path 8578" d="M72.876,114.536l20.39,11.469v22.686l-20.39-11.8Zm48.177,0v22.356l-20.39,11.8V126.006l20.39-11.469m-50.139-3.355v26.844l24.313,14.067V124.859Zm52.1,0L98.7,124.859v27.233l24.314-14.067Z" transform="translate(-47.727 -74.828)" fill="#fff"/>
      <path id="Path_8579" data-name="Path 8579" d="M100.682,62.641l20.243,11.388L100.682,85.416,80.44,74.029Zm0-2.251L76.439,74.029l24.243,13.639,24.245-13.639Z" transform="translate(-51.445 -40.644)" fill="#fff"/>
    </g>
  </g>
</svg>
