<svg id="Group_2433" data-name="Group 2433" xmlns="http://www.w3.org/2000/svg" xmlns:xlink="http://www.w3.org/1999/xlink" width="336.852" height="338.125" viewBox="0 0 336.852 338.125">
  <defs>
    <clipPath id="clip-path">
      <rect id="Rectangle_1619" data-name="Rectangle 1619" width="336.852" height="338.125" fill="none"/>
    </clipPath>
  </defs>
  <g id="Group_2396" data-name="Group 2396" clip-path="url(#clip-path)">
    <path id="Path_4973" data-name="Path 4973" d="M92.235,8.646c14.573-4.954,30.252,2.612,43.236,10.88s26.619,17.855,42,17.244c10.874-.431,20.817-5.986,30.073-11.71s18.637-11.9,29.35-13.813S260.175,12.92,265.2,22.573c9.267,17.8-11.574,42.647,1.066,58.237,5.213,6.43,14.328,8.163,22.6,7.913,9.158-.276,18.308-2.425,27.406-1.334s18.64,6.672,20.315,15.68c1.49,8.018-3.607,15.711-9.046,21.787-8.614,9.623-18.728,17.829-27.2,27.576s-15.424,21.614-15.848,34.523c-.428,13.009,5.771,25.29,12.8,36.247s15.142,21.467,19.357,33.781,3.709,27.294-5.2,36.779c-12.528,13.334-34.378,9.952-51.583,3.728s-36.122-14.313-53.007-7.268c-13.7,5.715-21.613,19.707-30.486,31.6s-22.4,23.35-36.9,20.166c-18.38-4.037-24.068-27.393-37.995-40.048C82.8,284.975,53.69,290.2,29.114,284.478c-10.4-2.422-21.331-8.1-24.518-18.292-4.1-13.111,6.2-25.814,14.441-36.8,11.2-14.917,20.024-34.1,14.327-51.859-3.915-12.2-13.9-21.269-21.925-31.262S-3.092,122.9,1.552,110.955C6.9,97.2,23.608,92.618,37.889,88.9c11.149-2.9,30.426-9.121,29.936-23.408-.509-14.829-1.626-28.1,6.581-41.6,4.133-6.8,10.186-12.646,17.829-15.243" transform="translate(0 -4.406)" fill="#f7f5ff"/>
    <path id="Path_4974" data-name="Path 4974" d="M95.513,446.749c-1.659,7.836,2,15.89,7.77,21.128,8.361,7.431,20.42,8.818,31.15,7.119,18.932-3.062,35.095-14.581,53.658-18.971,12.083-2.909,26.541-3.01,36.781,4.492-9.437-6.079-21.2-6.623-31.973-4.7-20.35,3.634-37.977,16.077-58.424,19.434-8.956,1.487-18.683,1.159-26.757-3.391-6.921-3.908-12.2-11.179-12.795-19.21a22.872,22.872,0,0,1-.033-2.389A20.446,20.446,0,0,1,95.2,447.9l.243-1.166c.009-.049.088-.03.073.017" transform="translate(-59.129 -278.402)" fill="#dacaf9"/>
    <path id="Path_4975" data-name="Path 4975" d="M210.312,596.209c4.8,7.117,13.71,10.364,22.06,10.118,8.5-.311,16.478-4,23.52-8.556,20.664-13.322,40-36.83,34.247-62.871-1.906-8.166-6.364-16.342-4.268-24.931.771-3.295,2.63-6.646,5.584-8.357a12.781,12.781,0,0,0-3.424,3.741c-2.58,4.418-2.646,9.837-1.529,14.714,1.1,4.962,3.21,9.685,4.379,14.658a44.585,44.585,0,0,1-1.822,25.3c-4.583,13-14.264,23.39-24.77,31.951-10.469,8.59-23.5,17.006-37.674,14.548a25.812,25.812,0,0,1-12.182-5.463,20.29,20.29,0,0,1-4.185-4.815c-.027-.04.04-.082.064-.041" transform="translate(-131.031 -312.624)" fill="#dacaf9"/>
    <path id="Path_4976" data-name="Path 4976" d="M522.649,600.074c10.987-15.545,22.122-32.991,21.594-52.73-.219-10.525-4.2-21.289-12.262-28.3-17.3-14.513-42.189-8.985-61.569-18.764-4.918-2.5-9.577-6.366-11.493-11.681a11.014,11.014,0,0,1-.548-5.529,12.8,12.8,0,0,0,.772,5.449c3.619,8.769,13.3,12.692,21.89,14.933,14.273,3.655,29.71,3.163,43.133,9.862a37.958,37.958,0,0,1,8.1,5.405c11.523,10.506,14.4,27.689,11.141,42.44-3.326,14.438-11.854,27.584-20.758,38.915" transform="translate(-285.58 -301.068)" fill="#dacaf9"/>
    <path id="Path_4977" data-name="Path 4977" d="M584.531,433.19a84.113,84.113,0,0,1-37.143,23.988,96.988,96.988,0,0,1-26.345,4.524c-23.827.641-48.068-9.2-64.333-26.6,23.308,22.721,59.435,32.7,90.546,21.68l4.168-1.559,4.086-1.757a112.963,112.963,0,0,0,11.736-6.315l3.7-2.468a107.549,107.549,0,0,0,13.587-11.49" transform="translate(-284.639 -269.981)" fill="#dacaf9"/>
    <path id="Path_4978" data-name="Path 4978" d="M536.338,160.082a120.921,120.921,0,0,0-51.312,21.392c-33.832,24.165-50.176,68.35-43.94,108.965-7.853-41.538,9.893-84.224,43.691-109.3l4.576-3.286,4.736-3.056c2.843-1.681,6.978-3.928,9.93-5.335,10.064-4.62,21.495-8.353,32.319-9.379" transform="translate(-273.753 -99.769)" fill="#dacaf9"/>
    <path id="Path_4979" data-name="Path 4979" d="M403.3,99.606c1.1,5.885,4.382,10.994,7.737,15.846,2.93,4.277,6.035,8.6,7.944,13.473,4.6,11.97,2.868,25.351-.853,37.323-7.126,22.377-22.588,43.109-21.809,67.252-1.867-24.49,13.857-45.163,21.417-67.38,4.574-13.136,5.654-28.424-1.246-40.949-4.4-8.359-12.142-16.014-13.19-25.564" transform="translate(-246.908 -62.078)" fill="#dacaf9"/>
    <path id="Path_4980" data-name="Path 4980" d="M116.932,109.963c-4.21,37.028-32.825,69.576-26.278,108.043,3.2,18.967,17.76,32.594,27.411,48.445a65.512,65.512,0,0,1,6.663,14.4,75.668,75.668,0,0,1,2.381,10.315c2.373,14.438,1.764,29.387,6.868,43.246a43.856,43.856,0,0,0,7.172,12.921C147,354.5,155.5,358.4,164.609,359.39c23.872,2.854,45.2-11.5,68.533-13.427,16.564-1.609,32.191,6.583,48.661,6.1,16.587-.5,31.38-10.891,40.87-24.015,22.432-31.709,15.619-72.554,19.5-109.046a138.094,138.094,0,0,1,5.574-27.594c1.36-4.489,2.75-8.962,3.733-13.524,1.06-5.1,1.608-10.408.577-15.548a28.941,28.941,0,0,0-9.58-16.1A52.452,52.452,0,0,0,330.9,138.5c-10.5-5.249-22.12-7.822-32.493-13.393-15.306-8.037-24.416-23.647-38.2-33.569-16.645-12.087-39.955-13.393-58.028-3.661-7.079,3.5-13.857,7.738-21.31,10.467-1.289.447-2.882.965-4.216,1.307A48.915,48.915,0,0,1,162.647,101c-9.3-.165-18.838-2.029-27.946.571-6.593,2.017-13.122,6.2-15.864,12.765a14.147,14.147,0,0,0-.909,6.876c.009.049-.072.057-.075.009-.647-4.732,1.443-9.449,4.746-12.779,13.632-13.381,30.451-6.642,47.062-7.995a42.944,42.944,0,0,0,11.876-2.824c7.127-2.728,13.592-6.808,20.417-10.2,18.221-9.878,41.8-8.623,58.653,3.549,10.077,7.177,17.579,17.32,26.769,25.411,10.408,9.8,24.451,13.427,37.432,18.519,12.566,4.94,25.982,13.8,28.176,28.152a34.217,34.217,0,0,1,.286,7.979c-1.03,11.768-6.22,22.614-8.316,34.162-2.771,13.793-3.233,27.892-3.654,41.926-.668,23.277-1.178,47.511-11.163,69.019-9.609,21.144-31.08,38.987-55.369,35.955-11.12-1.149-21.718-5.064-32.846-5.934-17.2-1.3-33.267,6.091-49.493,10.627-17.3,4.944-39.151,6.146-51.686-9.133-6.237-7.539-9.225-17.2-10.82-26.713-2.365-14.433-1.747-29.391-6.973-43.21-4.88-12.659-14-22.857-21.546-33.991-11.957-16.944-14.662-33.5-10.455-53.688,5.61-27.6,22.437-52.187,25.979-80.1" transform="translate(-55.526 -50.382)" fill="#dacaf9"/>
    <path id="Path_4981" data-name="Path 4981" d="M88.02,303.508c-3.186-14.8,8.073-27.465,17.521-37.425a188.315,188.315,0,0,1,17.368-16.042c12.233-9.87,26.072-18.075,41.049-22.993a104.489,104.489,0,0,1,14.59-3.64,142.052,142.052,0,0,1,25.717-1.664c32.031.539,67.942,7.547,95.544-13.047a53.35,53.35,0,0,0,10.54-10.578c.717-.944,1.147-1.72,1.812-2.655.194-.3.362-.616.544-.923l1.073-1.857c.019-.045.093-.008.067.035-.434.753-1.147,2.116-1.568,2.818-.572.9-1.173,1.831-1.768,2.7-9.688,13.612-25.77,21.272-41.9,24.121-38.854,6.578-77.005-8.86-114.576,8.771-13.059,5.78-24.9,14.2-35.634,23.553A217.746,217.746,0,0,0,100.156,272.8c-7.4,8.4-14.357,19.243-12.136,30.711" transform="translate(-54.514 -120.076)" fill="#dacaf9"/>
    <path id="Path_4982" data-name="Path 4982" d="M191.361,182.053c1.635,9.162,10.258,14.9,18.435,17.9,24.624,8.791,51.076,2.191,76.463,2.029,40.405-.774,81.371,14.1,105.877,47.406a98.6,98.6,0,0,1,8.494,13.623,89.992,89.992,0,0,1,6.108,14.863,108.171,108.171,0,0,0-7.4-16.441,111.7,111.7,0,0,0-43.784-42.679,137.689,137.689,0,0,0-53.288-15.893,173.469,173.469,0,0,0-32,.2c-20.1,1.73-41.275,4.664-60.652-2.607-8.156-3.057-17.181-9.329-18.249-18.4" transform="translate(-119.264 -113.463)" fill="#dacaf9"/>
    <path id="Path_4983" data-name="Path 4983" d="M442.006,56.257c-5.963,9.7-6.94,21.709-4.677,32.688,2.178,11.11,7.82,21.208,14.75,30.055,21.185,27.2,54.075,44.041,63.73,79.341,9.5,32.8.63,67.6-8.7,99.163,7.226-27.479,14.772-55.873,10.986-84.486a91.6,91.6,0,0,0-9.667-31.11c-13.565-25.29-39.273-40.451-56.842-62.523-7.048-8.864-12.7-19.113-14.826-30.327-2.195-10.965-1.05-23.589,5.244-32.8" transform="translate(-271.568 -35.062)" fill="#dacaf9"/>
    <path id="Path_4984" data-name="Path 4984" d="M331.755,590.683c-.2-.672-.695-2.1-.888-2.731-.168-.5-.878-2.115-1.08-2.658a47.375,47.375,0,0,0-6-9.73,58.681,58.681,0,0,0-15.906-13.513c-15.6-8.99-33.891-11.237-51.587-12.336-14.646-.9-29.465-1.039-43.875-4.154-25.922-5.435-48.187-22.452-63.606-43.585a138.546,138.546,0,0,1-15.344-26.57.038.038,0,0,1,.05.018,151.1,151.1,0,0,0,15.767,26.2c15.556,20.839,37.564,37.692,63.254,43.392,4.354.974,8.769,1.723,13.2,2.259,19.642,2.5,39.7,1.346,59.142,5.48,10.636,2.262,21.063,6.355,29.681,13.1,7.36,5.65,13.41,13.229,16.439,22.054.286.913.567,1.917.828,2.758.015.047-.063.068-.073.02" transform="translate(-83.184 -296.29)" fill="#dacaf9"/>
    <path id="Path_4985" data-name="Path 4985" d="M177.048,403.4c11.5-7.483,15.559-23.536,18.285-36.233a120.306,120.306,0,0,0,.955-41.472c-3.692-23.029-14.274-44.089-21.842-65.964a158.7,158.7,0,0,1-7.583-30.426c-1.7-12.65-1.159-25.805,3.19-37.891a89.161,89.161,0,0,0-2.941,13.575c-4.445,37.781,17.189,71.675,26.483,107.047a125.286,125.286,0,0,1,4.26,41.428c-1.23,15.389-6.557,42.025-20.806,49.935" transform="translate(-103.436 -119.3)" fill="#dacaf9"/>
    <path id="Path_4986" data-name="Path 4986" d="M72.957,230.31c9.269,9.044,24.15,8.321,34.736,2.014,26.055-15.43,34.754-46.477,44.634-73.178,8.4-22.961,21.655-48.115,45.635-57.15-43.169,19.354-44.372,73.451-67.885,108.866-5.729,8.727-12.879,16.848-22.06,22.039A37.409,37.409,0,0,1,96.2,237.208c-8.112,1.418-17.809-.728-23.239-6.9" transform="translate(-45.47 -63.568)" fill="#dacaf9"/>
    <path id="Path_4987" data-name="Path 4987" d="M169.14,167.533c-1.435,4.107.677,8.6,3.8,11.322,3.192,2.837,7.251,4.361,11.1,6.1,17.409,7.6,35.541,15.66,54.9,15.394,23.022-.512,42.931-13.873,64.754-19.527a98.6,98.6,0,0,1,53.049,1.038c.046.012.024.087-.021.072a102.757,102.757,0,0,0-53.6-.136c-26.846,7.486-47.456,22.628-76.952,17.921-14.845-2.153-28.806-8.074-42.368-14.234-3.87-1.778-7.938-3.418-11.13-6.339a12.147,12.147,0,0,1-4.157-8.487,8.131,8.131,0,0,1,.556-3.153.038.038,0,0,1,.07.027" transform="translate(-105.023 -104.382)" fill="#dacaf9"/>
    <path id="Path_4988" data-name="Path 4988" d="M444.635,80.471c-3.295,21.63-2.03,46.517,13.675,63.274,11.547,12.217,28,17.385,42.529,25.068A104.565,104.565,0,0,1,520.3,181.84c10.015,8.519,18.445,19.265,23.254,31.567.232.646.786,2.087,1.024,2.743.434,1.285.9,2.973,1.289,4.2.016.046-.062.068-.073.021-.358-1.091-1.041-3.132-1.4-4.15-.268-.681-.827-2.027-1.1-2.706-5.844-13.9-16.073-25.7-28.058-34.7a111.653,111.653,0,0,0-12.172-7.976c-7.654-4.257-15.709-7.8-23.48-11.835-8.632-4.48-17.075-9.775-23.463-17.22-14.342-16.614-15.581-40.88-11.49-61.307" transform="translate(-275.845 -50.153)" fill="#dacaf9"/>
    <path id="Path_4989" data-name="Path 4989" d="M133.874,133.922a30.094,30.094,0,1,0-30.094,30.094,30.094,30.094,0,0,0,30.094-30.094" transform="translate(-45.924 -64.71)" fill="#dacaf9"/>
    <path id="Path_4990" data-name="Path 4990" d="M133.2,149.223a11.147,11.147,0,0,0-.07-1.2h-.531a10.866,10.866,0,0,1,.069,1.2,35.908,35.908,0,0,1-1.759,8.646h.542a36.007,36.007,0,0,0,1.749-8.646" transform="translate(-81.584 -92.256)" fill="#fff"/>
    <path id="Path_4991" data-name="Path 4991" d="M132.883,122.811l-.108-.759h.639l1.473-1.473v-6.508h-1.862v-.665a4.39,4.39,0,0,1,8.779,0v19.82h.532v-19.82a4.922,4.922,0,0,0-9.844,0v.665H130.63v6.508l2.256,2.256,0-.025" transform="translate(-81.414 -67.611)" fill="#fff"/>
    <path id="Path_4992" data-name="Path 4992" d="M100.02,180.721a3.991,3.991,0,1,0-3.991-3.991,4,4,0,0,0,3.991,3.991" transform="translate(-59.849 -107.658)" fill="#fff"/>
    <path id="Path_4993" data-name="Path 4993" d="M163.464,191.252V180.743a3.063,3.063,0,0,0-3.059-3.059H125.687v13.568Z" transform="translate(-78.333 -110.74)" fill="#fff"/>
    <path id="Path_4994" data-name="Path 4994" d="M137.048,167.224a1.2,1.2,0,0,0-1.2,1.2V180.26h-57.2V159.11a1.2,1.2,0,0,0-2.395,0v27.269h2.395v-3.725h57.2v3.725h2.4V168.422a1.2,1.2,0,0,0-1.2-1.2" transform="translate(-47.527 -98.418)" fill="#8aa795"/>
    <path id="Path_4995" data-name="Path 4995" d="M102.793,202.4H92.284a1.2,1.2,0,0,0-1.2,1.2v3.059h11.706Z" transform="translate(-56.769 -126.142)" fill="#fff"/>
    <path id="Path_4996" data-name="Path 4996" d="M137.375,185.508H132.32v-3.725H77.783v3.725H72.728v-28.6a2.527,2.527,0,1,1,5.055,0v19.82H132.32V166.221a2.528,2.528,0,0,1,5.055,0Zm-3.725-1.33h2.394V166.221a1.2,1.2,0,1,0-2.394,0v11.839h-57.2v-21.15a1.2,1.2,0,1,0-2.394,0v27.269h2.394v-3.725h57.2Z" transform="translate(-45.327 -96.217)" fill="#265d3b"/>
    <path id="Path_4997" data-name="Path 4997" d="M122.821,190.132a.665.665,0,0,1-.665-.665V174.818a.665.665,0,0,1,.665-.665H158.2a4.395,4.395,0,0,1,4.39,4.39v10.775a.665.665,0,0,1-1.33,0V178.543a3.063,3.063,0,0,0-3.059-3.06H123.486v13.984a.665.665,0,0,1-.665.665" transform="translate(-76.132 -108.539)" fill="#265d3b"/>
    <path id="Path_4998" data-name="Path 4998" d="M88.886,204.87h-1.33v-3.475a2.53,2.53,0,0,1,2.528-2.527h11.174v1.33H90.084a1.2,1.2,0,0,0-1.2,1.2Z" transform="translate(-54.568 -123.942)" fill="#265d3b"/>
    <path id="Path_4999" data-name="Path 4999" d="M97.82,179.852a5.321,5.321,0,1,1,5.321-5.321,5.327,5.327,0,0,1-5.321,5.321m0-9.311a3.991,3.991,0,1,0,3.991,3.991,4,4,0,0,0-3.991-3.991" transform="translate(-57.649 -105.458)" fill="#265d3b"/>
    <path id="Path_5000" data-name="Path 5000" d="M128.321,131.592l-1.257-.436a35.9,35.9,0,0,0,1.876-8.777,10.514,10.514,0,0,0-.157-1.744l-1.7-1.705v-8.39h1.9a6.252,6.252,0,0,1,12.469.665v20.219h-1.33V111.2a4.922,4.922,0,0,0-9.844,0v.665h-1.862v6.509l2.8,2.8H130.2a10.954,10.954,0,0,1,.068,1.2,36.788,36.788,0,0,1-1.949,9.213" transform="translate(-79.191 -65.411)" fill="#265d3b"/>
    <path id="Path_5001" data-name="Path 5001" d="M133.482,134.666l-1.261-.422a36.189,36.189,0,0,0,1.795-8.784,12.431,12.431,0,0,0-.142-1.769l-.108-.759h.639l1.473-1.473v-6.509h-1.862v-.665a4.39,4.39,0,1,1,8.779,0V134.5h-1.33V114.286a3.06,3.06,0,0,0-6.046-.665h1.789v8.39l-1.957,1.957a12.647,12.647,0,0,1,.094,1.492,37.146,37.146,0,0,1-1.863,9.207" transform="translate(-82.405 -68.491)" fill="#265d3b"/>
    <path id="Path_5002" data-name="Path 5002" d="M670.717,133.922a30.094,30.094,0,1,0-30.094,30.094,30.094,30.094,0,0,0,30.094-30.094" transform="translate(-380.505 -64.71)" fill="#dacaf9"/>
    <path id="Path_5003" data-name="Path 5003" d="M662.474,148.247V122.952a5.85,5.85,0,0,0-5.85-5.85H620.273a5.85,5.85,0,0,0-5.783,5.073h-2.958v-.836a3,3,0,0,0-5.992,0v.836h-4.178a.834.834,0,0,0-.643.3l-10.028,12.059h0a.836.836,0,0,0-.192.535v12.994a3.677,3.677,0,0,0-2.14,1.053,3.76,3.76,0,0,0,2.666,6.418H597.1a7.738,7.738,0,0,0,14.065,0h32.2a7.738,7.738,0,0,0,14.065,0h3.794a3.75,3.75,0,0,0,1.254-7.287Zm-46.379-25.295a4.178,4.178,0,0,1,4.178-4.178h36.351a4.178,4.178,0,0,1,4.178,4.178v25.07H656.85a7.738,7.738,0,0,0-12.911,0H616.1Zm-8.858-1.671a1.324,1.324,0,0,1,2.649,0v.836h-2.674v-.836Zm-15.042,14.048,9.552-11.482h12.677v24.167h-3.844a7.738,7.738,0,0,0-12.911,0h-5.491V135.37Zm-1.17,18.535a2.089,2.089,0,0,1-1.48-3.568,2.056,2.056,0,0,1,1.48-.61h5.85a7.663,7.663,0,0,0-.3,4.178Zm13.1,4.512h0a6.073,6.073,0,1,0-.009,0Zm7.588-4.512a7.666,7.666,0,0,0-.3-4.178h31.7a7.663,7.663,0,0,0-.3,4.178Zm38.64,4.513a6.084,6.084,0,1,1,4.294-1.782,6.073,6.073,0,0,1-4.294,1.782Zm12.334-5.165a2.04,2.04,0,0,1-1.471.61h-3.234a7.659,7.659,0,0,0-.3-4.178h3.535a2.089,2.089,0,0,1,2.089,2.089A2.047,2.047,0,0,1,662.691,153.212Z" transform="translate(-366.003 -72.983)" fill="#265d3b"/>
    <path id="Path_5004" data-name="Path 5004" d="M626.108,201.034a3.577,3.577,0,1,0,2.521,1.047A3.568,3.568,0,0,0,626.108,201.034Zm0,5.474a1.9,1.9,0,1,1,1.9-1.9A1.9,1.9,0,0,1,626.108,206.508Z" transform="translate(-387.991 -125.292)" fill="#265d3b"/>
    <path id="Path_5005" data-name="Path 5005" d="M748.831,201.034a3.577,3.577,0,1,0,2.521,1.047A3.568,3.568,0,0,0,748.831,201.034Zm0,5.474a1.9,1.9,0,1,1,1.9-1.9A1.9,1.9,0,0,1,748.831,206.508Z" transform="translate(-464.477 -125.292)" fill="#265d3b"/>
    <path id="Path_5006" data-name="Path 5006" d="M623.032,148.019a.836.836,0,0,0,.835-.835v-8.616a.836.836,0,0,0-.835-.835h-8.616a.836.836,0,0,0-.652.309l-6.927,8.615a.836.836,0,0,0,.652,1.362Zm-8.223-8.615h7.379v6.944H609.235Z" transform="translate(-378.088 -85.84)" fill="#265d3b"/>
    <path id="Path_5007" data-name="Path 5007" d="M640.586,171.709h-3.593a.836.836,0,0,0,0,1.672h3.593a.836.836,0,1,0,0-1.672" transform="translate(-396.478 -107.016)" fill="#265d3b"/>
    <path id="Path_5008" data-name="Path 5008" d="M696.436,142.576h4.329v4.329a.835.835,0,0,0,.836.836h5.173a.835.835,0,0,0,.835-.836v-4.329h4.329a.836.836,0,0,0,.835-.836v-5.164a.836.836,0,0,0-.835-.836h-4.329V131.4a.835.835,0,0,0-.835-.836h-5.165a.835.835,0,0,0-.835.836v4.337h-4.337a.835.835,0,0,0-.835.836v5.165h0a.836.836,0,0,0,.835.836Zm.836-5.165H701.6a.835.835,0,0,0,.835-.835v-4.337h3.5v4.337a.836.836,0,0,0,.836.835H711.1V140.9h-4.329a.836.836,0,0,0-.836.835v4.329h-3.493V141.74a.836.836,0,0,0-.836-.835h-4.337Z" transform="translate(-433.526 -81.375)" fill="#265d3b"/>
    <path id="Path_5009" data-name="Path 5009" d="M642.451,110.958a.836.836,0,0,0,.836-.835v-3.209a.836.836,0,1,0-1.671,0v3.209a.836.836,0,0,0,.835.835Z" transform="translate(-399.88 -66.112)" fill="#265d3b"/>
    <path id="Path_5010" data-name="Path 5010" d="M650.688,115.066a.838.838,0,0,0,.593-.243l2.265-2.264a.836.836,0,0,0-1.179-1.179l-2.29,2.256a.836.836,0,0,0,.61,1.429Z" transform="translate(-405 -69.291)" fill="#265d3b"/>
    <path id="Path_5011" data-name="Path 5011" d="M629.706,114.825a.836.836,0,0,0,1.178-1.178l-2.264-2.265h0a.836.836,0,0,0-1.179,1.179Z" transform="translate(-390.921 -69.292)" fill="#265d3b"/>
    <path id="Path_5012" data-name="Path 5012" d="M622.56,135H609.884l-9.552,11.482-.017.041v12.643h5.49a7.739,7.739,0,0,1,12.911,0h3.844Zm-4.313,15.5h-3.593a.836.836,0,0,1,0-1.672h3.593a.836.836,0,1,1,0,1.672m1.671-5.021a.835.835,0,0,1-.835.835H603.54a.836.836,0,0,1-.652-1.362l6.927-8.615a.835.835,0,0,1,.652-.309h8.616a.835.835,0,0,1,.835.836Z" transform="translate(-374.14 -84.138)" fill="#fff"/>
    <path id="Path_5013" data-name="Path 5013" d="M651.375,203.584a7.667,7.667,0,0,1,.3,4.178h31.1a7.663,7.663,0,0,1,.3-4.178Z" transform="translate(-405.962 -126.881)" fill="#fff"/>
    <path id="Path_5014" data-name="Path 5014" d="M613.511,149.113h12.953v-6.944h-7.379Z" transform="translate(-382.364 -88.605)" fill="#fff"/>
    <path id="Path_5015" data-name="Path 5015" d="M621.984,194.4a6.075,6.075,0,0,0-.006,12.151h.006a6.075,6.075,0,0,0,0-12.151m2.515,8.59a3.563,3.563,0,1,1,1.045-2.524,3.569,3.569,0,0,1-1.045,2.524" transform="translate(-383.858 -121.159)" fill="#8aa795"/>
    <path id="Path_5016" data-name="Path 5016" d="M752.322,205.636a1.9,1.9,0,1,0,1.171,1.752,1.9,1.9,0,0,0-1.171-1.752" transform="translate(-467.242 -128.07)" fill="#fff"/>
    <path id="Path_5017" data-name="Path 5017" d="M629.6,205.636a1.9,1.9,0,1,0,1.171,1.752,1.9,1.9,0,0,0-1.171-1.752" transform="translate(-390.756 -128.07)" fill="#fff"/>
    <path id="Path_5018" data-name="Path 5018" d="M593.793,203.584a2.058,2.058,0,0,0-1.48.61,2.089,2.089,0,0,0,1.48,3.568h5.549a7.663,7.663,0,0,1,.3-4.178Z" transform="translate(-368.771 -126.881)" fill="#fff"/>
    <path id="Path_5019" data-name="Path 5019" d="M777.72,203.474h-3.535a7.66,7.66,0,0,1,.3,4.178h3.234a2.04,2.04,0,0,0,1.471-.61h0a2.048,2.048,0,0,0,.618-1.479,2.089,2.089,0,0,0-2.089-2.089" transform="translate(-482.502 -126.813)" fill="#fff"/>
    <path id="Path_5020" data-name="Path 5020" d="M708.5,125.716a4.179,4.179,0,0,0-4.179-4.178H667.973a4.179,4.179,0,0,0-4.178,4.178v25.07h27.844a7.738,7.738,0,0,1,12.911,0H708.5Zm-15.552,10.4a.836.836,0,0,1-.835.836h-4.329v4.329a.835.835,0,0,1-.835.836h-5.173a.836.836,0,0,1-.836-.836v-4.329h-4.329a.836.836,0,0,1-.835-.836v-5.164a.836.836,0,0,1,.835-.836h4.337v-4.337a.835.835,0,0,1,.835-.836h5.165a.835.835,0,0,1,.835.836v4.337h4.329a.836.836,0,0,1,.835.836Z" transform="translate(-413.703 -75.747)" fill="#fff"/>
    <path id="Path_5021" data-name="Path 5021" d="M632.01,226.652h0Z" transform="translate(-393.893 -141.258)" fill="#fff"/>
    <path id="Path_5022" data-name="Path 5022" d="M632.026,226.651h0" transform="translate(-393.901 -141.258)" fill="#fff"/>
    <path id="Path_5023" data-name="Path 5023" d="M744.683,194.4a6.076,6.076,0,1,0,4.3,1.779,6.073,6.073,0,0,0-4.3-1.779m2.524,8.59a3.563,3.563,0,1,1,1.045-2.524,3.569,3.569,0,0,1-1.045,2.524" transform="translate(-460.329 -121.159)" fill="#8aa795"/>
    <path id="Path_5024" data-name="Path 5024" d="M708.946,139.932a.834.834,0,0,1-.245-.59V135h-3.5v4.337a.835.835,0,0,1-.835.835h-4.329v3.493h4.337a.836.836,0,0,1,.836.835v4.329H708.7v-4.329a.836.836,0,0,1,.836-.835h4.329v-3.493h-4.329a.836.836,0,0,1-.591-.245" transform="translate(-436.29 -84.14)" fill="#8aa795"/>
    <path id="Path_5025" data-name="Path 5025" d="M642.892,126a1.324,1.324,0,0,0-2.649,0h-.025v.836h2.674Z" transform="translate(-399.009 -77.704)" fill="#fff"/>
    <path id="Path_5026" data-name="Path 5026" d="M413.451,30.094a30.094,30.094,0,1,0-30.094,30.094,30.094,30.094,0,0,0,30.094-30.094" transform="translate(-220.167)" fill="#dacaf9"/>
    <path id="Path_5027" data-name="Path 5027" d="M403.824,13.173a3.967,3.967,0,0,0-4.241,3.73v2.183a3.5,3.5,0,0,0,1.169,2.6,4.518,4.518,0,0,0,3.072,1.13,3.967,3.967,0,0,0,4.241-3.73V16.9a3.967,3.967,0,0,0-4.241-3.73" transform="translate(-249.036 -8.21)" fill="#fff"/>
    <path id="Path_5028" data-name="Path 5028" d="M384.808,47.947a3.967,3.967,0,0,0-4.241,3.73V53.86a4.276,4.276,0,0,0,8.482,0V51.677a3.967,3.967,0,0,0-4.241-3.73" transform="translate(-237.184 -29.882)" fill="#fff"/>
    <path id="Path_5029" data-name="Path 5029" d="M421,104.329a.864.864,0,0,1,1.729,0v9.3a4.71,4.71,0,0,0,3.112-4.287,26.588,26.588,0,0,0-.968-8.3c-1.106-3.2-3.164-4.756-6.293-4.756H410.8c-3.129,0-5.187,1.556-6.293,4.756a26.588,26.588,0,0,0-.968,8.3,4.633,4.633,0,0,0,2.853,4.159v-9.173a.864.864,0,0,1,1.729,0v10.092a.859.859,0,0,1,.063.57.9.9,0,0,1-.063.173v1.959H421Z" transform="translate(-251.502 -60.012)" fill="#fff"/>
    <path id="Path_5030" data-name="Path 5030" d="M426.008,53.743h0a3.967,3.967,0,0,0-4.24,3.73v2.184a4.276,4.276,0,0,0,8.482,0V57.473a3.967,3.967,0,0,0-4.241-3.73" transform="translate(-262.862 -33.495)" fill="#fff"/>
    <path id="Path_5031" data-name="Path 5031" d="M467.205,47.946a3.967,3.967,0,0,0-4.241,3.73v2.183a4.276,4.276,0,0,0,8.482,0V51.676a3.967,3.967,0,0,0-4.241-3.73" transform="translate(-288.537 -29.882)" fill="#fff"/>
    <path id="Path_5032" data-name="Path 5032" d="M466.855,90.226c-3.771-2.671-12.337-.5-12.423-.474a.852.852,0,0,1-.6-.064,5.627,5.627,0,0,1-2,.795,8.151,8.151,0,0,1,4.772,5.39,28.021,28.021,0,0,1,1.063,8.862c0,3.63-2.933,5.516-4.841,6.145v1.635H466.49V97.647a.864.864,0,0,1,1.729,0v9.02c1.447-.488,3.2-1.591,3.2-6.513,0-5.757-.64-7.149-4.563-9.927" transform="translate(-281.602 -55.404)" fill="#8aa795"/>
    <path id="Path_5033" data-name="Path 5033" d="M376.214,104.735a28.012,28.012,0,0,1,1.063-8.862,8.353,8.353,0,0,1,4.194-5.142,4.33,4.33,0,0,1-.936-.578,6.993,6.993,0,0,1-.693-.393.855.855,0,0,1-.388-.007c-.086-.023-8.652-2.2-12.423.474-3.923,2.779-4.563,4.17-4.563,9.927,0,4.921,1.752,6.025,3.2,6.513v-9.02a.864.864,0,0,1,1.729,0v14.869h13.4V110.79a6.582,6.582,0,0,1-4.582-6.055" transform="translate(-225.905 -55.403)" fill="#8aa795"/>
    <path id="Path_5034" data-name="Path 5034" d="M448.193,13.173a3.967,3.967,0,0,0-4.241,3.73v2.183a3.5,3.5,0,0,0,1.169,2.6,4.519,4.519,0,0,0,3.072,1.13,3.967,3.967,0,0,0,4.241-3.73V16.9a3.967,3.967,0,0,0-4.241-3.73" transform="translate(-276.688 -8.21)" fill="#fff"/>
    <path id="Path_5035" data-name="Path 5035" d="M423.149,52.432a3.967,3.967,0,0,1,4.241,3.73v2.184a4.276,4.276,0,0,1-8.482,0V56.162a3.966,3.966,0,0,1,4.24-3.73Zm0-1.729a5.675,5.675,0,0,0-5.969,5.459v2.184a5.994,5.994,0,0,0,11.94,0V56.162a5.676,5.676,0,0,0-5.97-5.459Z" transform="translate(-260.002 -31.6)" fill="#265d3b"/>
    <path id="Path_5036" data-name="Path 5036" d="M381.949,46.636a3.967,3.967,0,0,1,4.241,3.73v2.184a4.276,4.276,0,0,1-8.482,0V50.366a3.967,3.967,0,0,1,4.241-3.73m0-1.729a5.675,5.675,0,0,0-5.97,5.459v2.184a5.994,5.994,0,0,0,11.94,0V50.366a5.675,5.675,0,0,0-5.97-5.459" transform="translate(-234.325 -27.988)" fill="#265d3b"/>
    <path id="Path_5037" data-name="Path 5037" d="M400.965,11.862a3.967,3.967,0,0,1,4.241,3.73v2.184a3.967,3.967,0,0,1-4.241,3.73,4.518,4.518,0,0,1-3.072-1.13,3.5,3.5,0,0,1-1.169-2.6V15.592a3.967,3.967,0,0,1,4.241-3.73m0-1.729a5.675,5.675,0,0,0-5.97,5.459v2.184a5.993,5.993,0,0,0,11.939,0V15.592a5.675,5.675,0,0,0-5.97-5.459" transform="translate(-246.176 -6.315)" fill="#265d3b"/>
    <path id="Path_5038" data-name="Path 5038" d="M445.334,11.862a3.967,3.967,0,0,1,4.241,3.73v2.184a3.967,3.967,0,0,1-4.241,3.73,4.519,4.519,0,0,1-3.072-1.13,3.5,3.5,0,0,1-1.169-2.6V15.592a3.967,3.967,0,0,1,4.241-3.73m0-1.729a5.675,5.675,0,0,0-5.97,5.459v2.184a5.994,5.994,0,0,0,11.94,0V15.592a5.675,5.675,0,0,0-5.97-5.459" transform="translate(-273.829 -6.315)" fill="#265d3b"/>
    <path id="Path_5039" data-name="Path 5039" d="M464.346,46.635a3.967,3.967,0,0,1,4.241,3.73v2.184a4.276,4.276,0,0,1-8.482,0V50.365a3.967,3.967,0,0,1,4.241-3.73m0-1.729a5.676,5.676,0,0,0-5.97,5.459v2.184a5.994,5.994,0,0,0,11.94,0V50.365a5.675,5.675,0,0,0-5.97-5.459" transform="translate(-285.678 -27.987)" fill="#265d3b"/>
    <path id="Path_5040" data-name="Path 5040" d="M363.155,107.237a.865.865,0,0,1-.238-.034c-1.635-.467-5.036-1.439-5.036-8.352,0-6.313.89-8.22,5.292-11.338,4.427-3.135,13.474-.836,13.857-.736a.865.865,0,0,1-.434,1.674c-.086-.023-8.652-2.2-12.423.474-3.923,2.779-4.563,4.17-4.563,9.927,0,5.609,2.276,6.26,3.782,6.69a.865.865,0,0,1-.237,1.7" transform="translate(-223.045 -53.518)" fill="#265d3b"/>
    <path id="Path_5041" data-name="Path 5041" d="M371.823,128.059a.864.864,0,0,1-.864-.864V112.24a.864.864,0,1,1,1.729,0v14.955a.864.864,0,0,1-.864.864" transform="translate(-231.196 -69.413)" fill="#265d3b"/>
    <path id="Path_5042" data-name="Path 5042" d="M470.376,107.237a.865.865,0,0,1-.237-1.7c1.506-.43,3.782-1.081,3.782-6.69,0-5.757-.639-7.149-4.563-9.927-3.771-2.671-12.337-.5-12.423-.474a.865.865,0,0,1-.434-1.674c.383-.1,9.43-2.4,13.857.736,4.4,3.118,5.292,5.026,5.292,11.338,0,6.913-3.4,7.885-5.036,8.352a.865.865,0,0,1-.238.034" transform="translate(-284.105 -53.518)" fill="#265d3b"/>
    <path id="Path_5043" data-name="Path 5043" d="M491.593,128.059a.864.864,0,0,1-.864-.864V112.24a.864.864,0,1,1,1.729,0v14.955a.864.864,0,0,1-.864.864" transform="translate(-305.841 -69.413)" fill="#265d3b"/>
    <path id="Path_5044" data-name="Path 5044" d="M411.976,131.578a.864.864,0,0,1-.864-.864V117.747a.864.864,0,1,1,1.729,0v12.967a.864.864,0,0,1-.864.864" transform="translate(-256.221 -72.845)" fill="#265d3b"/>
    <path id="Path_5045" data-name="Path 5045" d="M450.752,131.578a.864.864,0,0,1-.864-.864V117.747a.864.864,0,1,1,1.729,0v12.967a.864.864,0,0,1-.864.864" transform="translate(-280.388 -72.845)" fill="#265d3b"/>
    <path id="Path_5046" data-name="Path 5046" d="M419.179,114.342a.865.865,0,0,1-.2-1.705c.161-.04,4.006-1.031,4.006-4.606a26.588,26.588,0,0,0-.968-8.3c-1.106-3.2-3.164-4.756-6.293-4.756h-7.78c-3.129,0-5.187,1.556-6.293,4.756a26.588,26.588,0,0,0-.968,8.3c0,3.6,3.966,4.6,4.006,4.606a.865.865,0,1,1-.4,1.681c-1.844-.444-5.33-2.329-5.33-6.287a28.011,28.011,0,0,1,1.063-8.862c1.357-3.928,4.025-5.92,7.927-5.92h7.78c3.9,0,6.57,1.992,7.927,5.92a28.011,28.011,0,0,1,1.063,8.862c0,3.958-3.487,5.843-5.33,6.287a.877.877,0,0,1-.2.024" transform="translate(-248.642 -58.116)" fill="#265d3b"/>
    <path id="Path_5047" data-name="Path 5047" d="M70.2,414.44a30.094,30.094,0,1,0-30.094,30.094A30.094,30.094,0,0,0,70.2,414.44" transform="translate(-6.24 -239.539)" fill="#dacaf9"/>
    <path id="Path_5048" data-name="Path 5048" d="M78.367,424.423H70.835a2.424,2.424,0,0,0,.167-.558l1.5-13.557a.836.836,0,0,0-.826-.929H69.786a2.519,2.519,0,0,0-2.482,2.153L65.94,421.08h-9.3a2.507,2.507,0,0,0-2.507,2.507v.836H51.993a3.33,3.33,0,0,0-2.878-5.015h-4.3l-5.127-4.1a4.169,4.169,0,0,0-.6-.4v-.725a7.646,7.646,0,1,0-6.686-2.164v2.457a4.179,4.179,0,0,0-3.343,4.094v17.551H27.385V423.587a.836.836,0,1,0-1.671,0V448.66a.836.836,0,0,0,1.671,0V437.8H37.415V448.66a.836.836,0,0,0,1.671,0V437.8h1.672v8.358a3.343,3.343,0,0,0,6.686,0V433.315a2.506,2.506,0,0,0-2.016-2.459l-3.027-.605a.775.775,0,0,0,.028-.145v-4.43l.335.251a.835.835,0,0,0,.5.167h7.522V448.66a.836.836,0,0,0,1.672,0V429.437H74.188V448.66a.836.836,0,0,0,1.672,0V426.094h2.507a.836.836,0,0,0,0-1.672M34.071,413.3a7.585,7.585,0,0,0,3.343.979v.143c-.112-.008-.224-.028-.334-.028H34.071Zm3.756-12.559a5.91,5.91,0,0,1,.083,11.819h-.166a5.91,5.91,0,0,1,.083-11.819M45.1,432.5a.836.836,0,0,1,.669.819v12.837a1.672,1.672,0,0,1-3.343,0V436.96a.836.836,0,0,0-.836-.836H30.728v-6.5Zm-1.559-8.073-6.464-4.847a.836.836,0,1,0-1,1.337l4.68,3.51v5.5l-10.029-2.006v-9.344a2.507,2.507,0,0,1,2.507-2.507H37.08a2.506,2.506,0,0,1,1.566.55L44,420.9a.832.832,0,0,0,.523.182h2.925v3.341Zm7.019-.836a1.672,1.672,0,0,1-1.448.836v-3.343a1.672,1.672,0,0,1,1.448,2.507m6.074-.836H66.666a.836.836,0,0,0,.836-.717l1.466-10.266a.835.835,0,0,1,.836-.717h.96l-1.4,12.63h0a.836.836,0,0,1-.836.742H55.8v-.836a.836.836,0,0,1,.836-.836m17.551,5.015H52.458V426.1h21.73Z" transform="translate(-16.026 -248.68)" fill="#265d3b"/>
    <path id="Path_5049" data-name="Path 5049" d="M39.023,486.76H49.888a.836.836,0,0,1,.836.836v9.193a1.672,1.672,0,0,0,3.343,0V483.952a.836.836,0,0,0-.669-.819l-14.375-2.875Z" transform="translate(-24.321 -299.315)" fill="#8aa795"/>
    <path id="Path_5050" data-name="Path 5050" d="M52.813,449.293a.832.832,0,0,1-.523-.182l-5.349-4.284a2.506,2.506,0,0,0-1.566-.55H41.53a2.507,2.507,0,0,0-2.507,2.507v9.344l10.029,2.006v-5.5l-4.68-3.51a.836.836,0,1,1,1-1.337l6.464,4.847h3.9v-3.341Z" transform="translate(-24.321 -276.891)" fill="#fff"/>
    <path id="Path_5051" data-name="Path 5051" d="M50.9,438.03c.11,0,.222.02.334.028v-.143a7.586,7.586,0,0,1-3.343-.979v1.094Z" transform="translate(-29.851 -272.316)" fill="#fff"/>
    <path id="Path_5052" data-name="Path 5052" d="M48,415.42h.166a5.911,5.911,0,1,0-.166,0" transform="translate(-26.286 -251.54)" fill="#fff"/>
    <path id="Path_5053" data-name="Path 5053" d="M87.825,457.587v3.343a1.671,1.671,0,1,0,0-3.343" transform="translate(-54.736 -285.186)" fill="#fff"/>
    <rect id="Rectangle_1575" data-name="Rectangle 1575" width="21.73" height="1.672" transform="translate(36.432 177.415)" fill="#fff"/>
    <path id="Path_5054" data-name="Path 5054" d="M118.293,444.341a.836.836,0,0,0,.836-.742h0l1.4-12.63h-.96a.836.836,0,0,0-.836.717l-1.466,10.266a.836.836,0,0,1-.836.717H106.407a.836.836,0,0,0-.836.836v.836Z" transform="translate(-65.796 -268.597)" fill="#fff"/>
    <path id="Path_5055" data-name="Path 5055" d="M752.248,414.44a30.094,30.094,0,1,0-30.094,30.094,30.094,30.094,0,0,0,30.094-30.094" transform="translate(-431.319 -239.539)" fill="#dacaf9"/>
    <path id="Path_5056" data-name="Path 5056" d="M754.7,391.723a2.128,2.128,0,0,0,.622-1.492v-.847a2.479,2.479,0,0,0-1.871-2.4l-11.668-2.915v-8.711a2.536,2.536,0,0,0-.539-5.015H718.628a2.536,2.536,0,0,0-.542,5.014v8.711l-11.665,2.917h0a2.482,2.482,0,0,0-1.875,2.4v.848a2.132,2.132,0,0,0,1.691,2.069v27.126h-.845a.847.847,0,1,0,0,1.694h49.086a.847.847,0,0,0,0-1.694h-.845V392.3a2.128,2.128,0,0,0,1.07-.578m-36.617,4.855v22.849H707.932V392.345h10.153v4.233m0-5.925H706.665a.412.412,0,0,1-.424-.422v-.848a.77.77,0,0,1,.59-.755l11.255-2.814Zm9.99,21.66h3.717v6.44h-3.717Zm12.013,7.115h-6.567v-7.98a.864.864,0,0,0-.864-.865h-5.446a.864.864,0,0,0-.865.865v7.98h-6.566v-22h20.308Zm0-34.7v6.75c0,.008,0,.014,0,.022v4.23l-19.982,0h-.326V375.418h20.31Zm.868-11-.023,0-22,0h-.306a.847.847,0,1,1,0-1.693h22.617a.828.828,0,0,1,.848.848h0a.826.826,0,0,1-.847.845Zm10.978,45.7H741.785V392.346h10.153Zm1.693-29.2a.408.408,0,0,1-.421.421H741.785v-4.839l11.258,2.814a.771.771,0,0,1,.589.757Z" transform="translate(-439.1 -230.812)" fill="#265d3b"/>
    <path id="Path_5057" data-name="Path 5057" d="M756.395,402.954h.96v.963a2.438,2.438,0,0,0,2.426,2.423H761.7a2.438,2.438,0,0,0,2.426-2.423v-.963h.96a2.438,2.438,0,0,0,2.426-2.423v-1.923a2.438,2.438,0,0,0-2.426-2.423h-.96v-.96A2.441,2.441,0,0,0,761.7,392.8h-1.919a2.441,2.441,0,0,0-2.426,2.426v.96h-.96a2.435,2.435,0,0,0-2.423,2.423v1.922a2.436,2.436,0,0,0,2.423,2.423m-.731-4.344a.71.71,0,0,1,.731-.732H758.2a.848.848,0,0,0,.844-.847v-1.805a.716.716,0,0,1,.735-.734H761.7a.716.716,0,0,1,.734.735v1.8a.848.848,0,0,0,.846.848h1.805a.712.712,0,0,1,.734.729v1.923a.715.715,0,0,1-.736.734h-1.8a.848.848,0,0,0-.848.843v1.807a.711.711,0,0,1-.732.732h-1.92a.711.711,0,0,1-.734-.731v-1.809a.847.847,0,0,0-.846-.842h-1.806a.712.712,0,0,1-.731-.736Z" transform="translate(-469.905 -244.808)" fill="#265d3b"/>
    <path id="Path_5058" data-name="Path 5058" d="M723.523,434.472h-5.446a.864.864,0,0,0-.864.865v5.4a.864.864,0,0,0,.864.864h5.446a.865.865,0,0,0,.865-.864v-5.4a.865.865,0,0,0-.865-.865m-.864,5.4h-3.717V436.2h3.717Z" transform="translate(-446.995 -270.78)" fill="#265d3b"/>
    <path id="Path_5059" data-name="Path 5059" d="M723.523,462.465h-5.446a.864.864,0,0,0-.864.864v5.4a.864.864,0,0,0,.864.865h5.446a.865.865,0,0,0,.865-.865v-5.4a.865.865,0,0,0-.865-.864m-.864,5.4h-3.717v-3.674h3.717Z" transform="translate(-446.995 -288.226)" fill="#265d3b"/>
    <path id="Path_5060" data-name="Path 5060" d="M808.708,441.6h5.446a.865.865,0,0,0,.865-.864v-5.4a.865.865,0,0,0-.865-.865h-5.446a.864.864,0,0,0-.864.865v5.4a.864.864,0,0,0,.864.864m.864-5.4h3.717v3.674h-3.717Z" transform="translate(-503.48 -270.78)" fill="#265d3b"/>
    <path id="Path_5061" data-name="Path 5061" d="M808.708,469.6h5.446a.865.865,0,0,0,.865-.865v-5.4a.865.865,0,0,0-.865-.864h-5.446a.864.864,0,0,0-.864.864v5.4a.864.864,0,0,0,.864.865m.864-5.4h3.717v3.674h-3.717Z" transform="translate(-503.48 -288.226)" fill="#265d3b"/>
    <path id="Path_5062" data-name="Path 5062" d="M759.195,404.065H761a.848.848,0,0,1,.846.842v1.809a.712.712,0,0,0,.734.731H764.5a.712.712,0,0,0,.732-.733v-1.807a.847.847,0,0,1,.848-.842h1.8a.715.715,0,0,0,.735-.734v-1.923a.711.711,0,0,0-.734-.729H766.08a.848.848,0,0,1-.846-.848v-1.8a.716.716,0,0,0-.734-.735h-1.918a.716.716,0,0,0-.735.734v1.806a.848.848,0,0,1-.845.846H759.2a.71.71,0,0,0-.731.732v1.92a.712.712,0,0,0,.73.736" transform="translate(-472.704 -247.608)" fill="#8aa795"/>
    <rect id="Rectangle_1576" data-name="Rectangle 1576" width="3.717" height="6.44" transform="translate(288.977 181.5)" fill="#8aa795"/>
    <path id="Path_5063" data-name="Path 5063" d="M744.986,394.77v9.355h20.308v-4.23c0-.008,0-.015,0-.022V383.811h-20.31Zm3.386-1.763a2.435,2.435,0,0,1,2.423-2.423h.96v-.96a2.441,2.441,0,0,1,2.426-2.426H756.1a2.441,2.441,0,0,1,2.426,2.426v.96h.96a2.438,2.438,0,0,1,2.426,2.423v1.923a2.438,2.438,0,0,1-2.426,2.423h-.96v.963a2.438,2.438,0,0,1-2.426,2.423h-1.919a2.438,2.438,0,0,1-2.426-2.423v-.963h-.96a2.435,2.435,0,0,1-2.423-2.423Z" transform="translate(-464.304 -239.206)" fill="#fff"/>
    <path id="Path_5064" data-name="Path 5064" d="M713.536,428.74v27.083H723.69V428.74Zm8.56,18.973a.864.864,0,0,1-.864.865h-5.446a.864.864,0,0,1-.865-.865v-5.4a.864.864,0,0,1,.865-.864h5.446a.864.864,0,0,1,.864.864Zm0-10.546a.864.864,0,0,1-.864.864h-5.446a.864.864,0,0,1-.865-.864v-5.4a.864.864,0,0,1,.865-.865h5.446a.864.864,0,0,1,.864.865Z" transform="translate(-444.703 -267.207)" fill="#fff"/>
    <rect id="Rectangle_1577" data-name="Rectangle 1577" width="3.717" height="3.674" transform="translate(271.947 175.968)" fill="#8aa795"/>
    <rect id="Rectangle_1578" data-name="Rectangle 1578" width="3.717" height="3.674" transform="translate(271.947 165.421)" fill="#8aa795"/>
    <path id="Path_5065" data-name="Path 5065" d="M804.207,377.083h0Z" transform="translate(-501.213 -235.013)" fill="#fff"/>
    <path id="Path_5066" data-name="Path 5066" d="M709.046,414.975v.848a.412.412,0,0,0,.424.422h11.422v-4.839l-11.256,2.814a.771.771,0,0,0-.59.755" transform="translate(-441.905 -256.404)" fill="#fff"/>
    <path id="Path_5067" data-name="Path 5067" d="M744.985,448.8v15.423h6.566v-7.98a.865.865,0,0,1,.865-.864h5.446a.864.864,0,0,1,.864.864v7.98h6.567v-22H744.985Z" transform="translate(-464.304 -275.611)" fill="#fff"/>
    <rect id="Rectangle_1579" data-name="Rectangle 1579" width="3.717" height="3.674" transform="translate(306.093 175.967)" fill="#8aa795"/>
    <path id="Path_5068" data-name="Path 5068" d="M814.646,414.219,803.388,411.4v4.839h11.426a.408.408,0,0,0,.42-.421v-.848a.77.77,0,0,0-.589-.756" transform="translate(-500.703 -256.404)" fill="#fff"/>
    <path id="Path_5069" data-name="Path 5069" d="M803.388,432.975v22.85h10.154V428.744H803.388Zm1.678-1.208a.864.864,0,0,1,.864-.865h5.446a.864.864,0,0,1,.865.865v5.4a.864.864,0,0,1-.865.864h-5.446a.864.864,0,0,1-.864-.864Zm0,10.546a.864.864,0,0,1,.864-.864h5.446a.864.864,0,0,1,.865.864v5.4a.864.864,0,0,1-.865.865h-5.446a.864.864,0,0,1-.864-.865Z" transform="translate(-500.703 -267.21)" fill="#fff"/>
    <rect id="Rectangle_1580" data-name="Rectangle 1580" width="3.717" height="3.674" transform="translate(306.093 165.421)" fill="#8aa795"/>
    <path id="Path_5070" data-name="Path 5070" d="M763.988,375.682a.828.828,0,0,0-.848-.848H740.523a.847.847,0,1,0,0,1.694h.306l22,0,.023,0h.286a.827.827,0,0,0,.847-.846" transform="translate(-460.995 -233.611)" fill="#fff"/>
    <path id="Path_5071" data-name="Path 5071" d="M620.489,721.8a30.094,30.094,0,1,0-30.094,30.094A30.094,30.094,0,0,0,620.489,721.8" transform="translate(-349.201 -431.098)" fill="#dacaf9"/>
    <path id="Path_5072" data-name="Path 5072" d="M664.083,813.408l3.583,1.288,3.2-1.288V810.82h-6.782Z" transform="translate(-413.883 -505.335)" fill="#fff"/>
    <path id="Path_5073" data-name="Path 5073" d="M626.264,767.356a11.388,11.388,0,0,0-3.355-3.994l-1.02,4.08a7.417,7.417,0,0,1,4.375-.085" transform="translate(-387.585 -475.757)" fill="#fff"/>
    <path id="Path_5074" data-name="Path 5074" d="M632.423,758.728a.905.905,0,0,1,.066.142,14.155,14.155,0,0,1,5.119-7.045,8.722,8.722,0,0,1-1.839-4.4,5.777,5.777,0,0,1-3.029,1.114h-.016l-.182,0a6.408,6.408,0,0,1-3.259-.86,8.463,8.463,0,0,1-1.808,4.151,14.08,14.08,0,0,1,4.947,6.891" transform="translate(-391.067 -465.827)" fill="#fff"/>
    <path id="Path_5075" data-name="Path 5075" d="M628.994,715.254l.135,0h.065a4.637,4.637,0,0,0,2.732-1.416c1.446-1.353,3.349-4.241,4.289-10.339a21.831,21.831,0,0,1-7.123-6.376,16.176,16.176,0,0,1-7.31,6.534h0c.341,2.77,1.851,11.6,7.212,11.6" transform="translate(-387.519 -434.473)" fill="#fff"/>
    <path id="Path_5076" data-name="Path 5076" d="M605.434,677.789a14.1,14.1,0,0,0,8.021-8.456h0c.148-.438.286-.656.427-.656s.283.215.443.643c1.681,4.51,6.222,7.378,8.073,8.393a1.432,1.432,0,0,1,.675,1.37,34.254,34.254,0,0,1-.99,4.693c4.872-2.383,8.155-6.818,8.155-11.887,0-7.58-7.338-13.747-16.357-13.747s-16.357,6.167-16.357,13.747c0,5.007,3.2,9.395,7.978,11.8a32.33,32.33,0,0,1-.82-4.6,1.343,1.343,0,0,1,.751-1.3" transform="translate(-372.401 -410.179)" fill="#8aa795"/>
    <path id="Path_5077" data-name="Path 5077" d="M648.033,767.36a8.733,8.733,0,0,1,2.291-.324,6.434,6.434,0,0,1,2.213.374l-1.023-4.094a11.443,11.443,0,0,0-3.48,4.044" transform="translate(-403.879 -475.728)" fill="#fff"/>
    <path id="Path_5078" data-name="Path 5078" d="M668.878,790.354a1.211,1.211,0,1,0,1.119-.747,1.212,1.212,0,0,0-1.119.747" transform="translate(-416.813 -492.114)" fill="#fff"/>
    <path id="Path_5079" data-name="Path 5079" d="M618.472,763.558a9.625,9.625,0,0,1,2.683,4.156,7.83,7.83,0,0,1-.047,4.549,3.163,3.163,0,1,1-1.788-.812,5.875,5.875,0,0,0-.02-3.174h0a9.146,9.146,0,0,0-3.823-4.633l1.465,5.858a.969.969,0,0,1-1.653.891c-2.192-2.382-5.6-.807-6.386-.393a24.077,24.077,0,0,0-.661,3.128c0,.032.009,7.993.009,7.993a.969.969,0,0,1-1.938,0v-7.993c-.031-.075-.5-2.227-.813-3.21-1.018-.5-4.161-1.765-6.226.476a.969.969,0,0,1-1.652-.892l1.457-5.826a10.246,10.246,0,0,0-4.252,5.188,5.915,5.915,0,0,0-.09,2.85,3.913,3.913,0,0,1,3.977,1.921l3.122,5.766a.969.969,0,0,1-.523,1.372l-1.424.515a.969.969,0,0,1-.658-1.822h0l.365-.132-2.586-4.775a2.056,2.056,0,0,0-2.492-.811,1.755,1.755,0,0,0-1.226,2.072l1.5,5.25.555-.2a.969.969,0,1,1,.659,1.822l-1.53.553a.969.969,0,0,1-1.261-.645l-1.79-6.246a3.582,3.582,0,0,1,1.482-3.939,7.859,7.859,0,0,1,.057-4.092,10.618,10.618,0,0,1,3.134-4.768,13.1,13.1,0,0,0-9.165,12.48v13.079h40.691V776.035a13.1,13.1,0,0,0-9.156-12.477m6.25,20.392a1.936,1.936,0,0,1-1.214,1.8l-3.2,1.288a1.937,1.937,0,0,1-1.379.026l-3.583-1.288a1.937,1.937,0,0,1-1.282-1.823v-2.587A1.937,1.937,0,0,1,616,779.425h6.782a1.937,1.937,0,0,1,1.938,1.938Z" transform="translate(-365.802 -475.877)" fill="#fff"/>
    <path id="Path_5080" data-name="Path 5080" d="M660.879,805.678a1.937,1.937,0,0,0-1.938,1.938V810.2a1.937,1.937,0,0,0,1.282,1.824l3.583,1.288a1.939,1.939,0,0,0,1.379-.026l3.2-1.288a1.937,1.937,0,0,0,1.214-1.8v-2.587a1.937,1.937,0,0,0-1.938-1.938Zm6.782,4.525-3.2,1.288-3.583-1.288v-2.587h6.782Z" transform="translate(-410.678 -502.13)" fill="#265d3b"/>
    <path id="Path_5081" data-name="Path 5081" d="M610.509,705.535a25.688,25.688,0,0,0,2.761-9.025,1.432,1.432,0,0,0-.675-1.37c-1.851-1.015-6.392-3.883-8.073-8.392-.16-.428-.3-.643-.443-.643s-.28.219-.428.656h0a14.1,14.1,0,0,1-8.021,8.456,1.343,1.343,0,0,0-.751,1.3,27.1,27.1,0,0,0,2.412,8.938,8.511,8.511,0,0,0,1.751,2.682.986.986,0,0,0-.031.194c-.058.968-.528,3.571-1.966,4.418h-.232a15.017,15.017,0,0,0-15.017,15.017v15.017h44.567V727.764a15.016,15.016,0,0,0-14.985-15.016h-.265c-1.429-.844-1.9-3.449-1.967-4.42a.949.949,0,0,0-.035-.2,14.207,14.207,0,0,0,1.4-2.59m-.278,9.66,1.023,4.094a6.425,6.425,0,0,0-2.213-.374,8.721,8.721,0,0,0-2.291.324,11.443,11.443,0,0,1,3.48-4.044M596.86,696.79h0a16.175,16.175,0,0,0,7.31-6.534,21.829,21.829,0,0,0,7.123,6.376c-.939,6.1-2.842,8.986-4.289,10.338a4.636,4.636,0,0,1-2.732,1.416h-.065l-.134,0c-5.362,0-6.871-8.828-7.212-11.6m3.953,12.677h0a6.41,6.41,0,0,0,3.259.86l.182,0h.016a5.777,5.777,0,0,0,3.029-1.115,8.719,8.719,0,0,0,1.839,4.4,14.158,14.158,0,0,0-5.119,7.045.9.9,0,0,0-.066-.142,14.083,14.083,0,0,0-4.947-6.891,8.461,8.461,0,0,0,1.808-4.151m-2.893,5.746a11.379,11.379,0,0,1,3.356,3.994,7.416,7.416,0,0,0-4.376.086Zm-14.188,25.631V727.766a13.1,13.1,0,0,1,9.165-12.481,10.618,10.618,0,0,0-3.135,4.768,7.859,7.859,0,0,0-.056,4.092,3.58,3.58,0,0,0-1.482,3.939l1.79,6.247a.969.969,0,0,0,1.261.644l1.53-.553a.969.969,0,0,0-.658-1.822l-.555.2-1.5-5.25a1.754,1.754,0,0,1,1.226-2.072,2.054,2.054,0,0,1,2.492.811l2.586,4.775-.365.132h0a.969.969,0,1,0,.659,1.822l1.424-.514a.969.969,0,0,0,.523-1.373l-3.123-5.765a3.913,3.913,0,0,0-3.977-1.921,5.92,5.92,0,0,1,.09-2.85c.695-2.433,2.825-4.222,4.252-5.188l-1.457,5.826a.969.969,0,0,0,1.652.892c2.065-2.241,5.208-.975,6.225-.475.316.983.783,3.135.813,3.21v7.993a.969.969,0,1,0,1.938,0s-.006-7.961-.009-7.993a24.122,24.122,0,0,1,.661-3.128c.789-.414,4.194-1.99,6.387.393a.968.968,0,0,0,1.652-.891l-1.464-5.858a9.149,9.149,0,0,1,3.823,4.633h0a5.879,5.879,0,0,1,.02,3.174,3.163,3.163,0,1,0,1.787.812,7.83,7.83,0,0,0,.047-4.549,9.618,9.618,0,0,0-2.683-4.156,13.1,13.1,0,0,1,9.156,12.477v13.078Zm33.259-14.532h0a1.211,1.211,0,1,1-1.211-1.211,1.211,1.211,0,0,1,1.211,1.211" transform="translate(-362.597 -427.607)" fill="#265d3b"/>
    <path id="Path_5082" data-name="Path 5082" d="M611.022,653.552c-9.972,0-18.086,6.942-18.086,15.475,0,6.723,5.037,12.458,12.051,14.588a19.736,19.736,0,0,1-.508-1.991c-5.772-2.125-9.815-6.972-9.815-12.6,0-7.58,7.338-13.747,16.357-13.747s16.357,6.167,16.357,13.747c0,5.633-4.054,10.486-9.839,12.606q-.185.983-.415,1.961c6.978-2.147,11.982-7.866,11.982-14.567,0-8.533-8.114-15.475-18.086-15.475" transform="translate(-369.541 -407.319)" fill="#265d3b"/>
    <path id="Path_5083" data-name="Path 5083" d="M206.413,721.8a30.094,30.094,0,1,0-30.094,30.094A30.094,30.094,0,0,0,206.413,721.8" transform="translate(-91.133 -431.098)" fill="#dacaf9"/>
    <path id="Path_5084" data-name="Path 5084" d="M203.182,772.472a3.046,3.046,0,0,0-2.378-.021L190.771,776.6c-.084.035-.177.061-.264.094a2.91,2.91,0,0,0,.086-.511,2.743,2.743,0,0,0-2.652-2.751l-4.231-.159a16.138,16.138,0,0,1-4.278-.752,47.979,47.979,0,0,0-8.009-1.785c-4.039-.538-7.92,1.5-10.079,2.933v-.012a.847.847,0,0,0-.846-.847h-4.942a.847.847,0,0,0-.846.847V787a.847.847,0,0,0,.846.847H160.5a.847.847,0,0,0,.846-.847v-.311c1.481-.317,5.07-1.061,6.567-1.17a107.332,107.332,0,0,1,14.614.843,14.687,14.687,0,0,0,8.862-1.865l12.041-6.532a3.071,3.071,0,0,0,1.4-3.776,3.039,3.039,0,0,0-1.644-1.719Zm-43.53,13.684H156.4V774.5h3.25Zm42.967-9.676-12.055,6.54a13.132,13.132,0,0,1-7.866,1.663c-5.025-.518-11.693-1.087-14.91-.851-1.5.11-4.77.775-6.444,1.129v-9.232c1.55-1.165,5.661-3.87,9.859-3.319a46.266,46.266,0,0,1,7.719,1.72,17.807,17.807,0,0,0,4.728.828l4.23.159a1.057,1.057,0,0,1,1.021,1.062,1.2,1.2,0,0,1-.792,1.168,42.818,42.818,0,0,1-11.406.1.846.846,0,1,0-.229,1.677,43.585,43.585,0,0,0,11.857-.091c.025,0,.05,0,.076-.008s.024-.012.037-.015a15.361,15.361,0,0,0,2.978-.848l10.029-4.142a1.365,1.365,0,0,1,1.171,2.462Z" transform="translate(-96.421 -480.296)" fill="#265d3b"/>
    <path id="Path_5085" data-name="Path 5085" d="M204.441,707.587c.008.022.016.042.026.063s0,.015.009.021a15.808,15.808,0,0,0,2.753,3.65c1.327,1.364,2.773,2.614,4.329,3.959,2.4,2.074,4.732,4.11,6.992,6.267a1.1,1.1,0,0,0,1.357,0c.911-.87,1.839-1.723,2.772-2.565,1.136-1.023,2.289-2.024,3.443-3.024.864-.749,1.727-1.5,2.584-2.256a35.929,35.929,0,0,0,3.481-3.432A13.9,13.9,0,0,0,234,707.591c.012-.024.024-.047.034-.071a11.631,11.631,0,0,0,.856-2.143,15.977,15.977,0,0,0,.535-3.767,10.85,10.85,0,0,0-.165-2.554,8.583,8.583,0,0,0-3.89-5.649,9.005,9.005,0,0,0-7.024-1.01,9.422,9.422,0,0,0-4.792,3.132c-.112.132-.221.267-.327.4a10.032,10.032,0,0,0-1.169-1.291,8.856,8.856,0,0,0-8.3-2.32,8.589,8.589,0,0,0-6.738,8.206,18.764,18.764,0,0,0,.15,2.921A12.332,12.332,0,0,0,204.441,707.587Zm23.142,4.844c-.851.754-1.708,1.5-2.568,2.243-1.163,1.008-2.326,2.016-3.47,3.047-.779.7-1.555,1.415-2.32,2.136-2.132-2.01-4.332-3.928-6.718-5.992-1.371-1.186-2.791-2.412-4.064-3.723a16.563,16.563,0,0,1-1.721-2.058l2.741-.072,1.737,3.444a.826.826,0,0,0,.85.46.844.844,0,0,0,.726-.637l2.413-9.752,2.964,11.4a.846.846,0,0,0,.812.633h.006a.847.847,0,0,0,.816-.621l1.368-4.954,2.152-.055a.847.847,0,0,0,.814-.72l.934-6.179.975,6.249a.845.845,0,0,0,.827.716l4.906.055a13.623,13.623,0,0,1-.859,1.118A34.16,34.16,0,0,1,227.583,712.431Zm-17.458-18.454a8.21,8.21,0,0,1,1.76-.2,7.221,7.221,0,0,1,5.025,2.11,9,9,0,0,1,1.581,1.969l.737-.42-.708.464a.8.8,0,0,0,.721.382.846.846,0,0,0,.708-.4,9.886,9.886,0,0,1,.895-1.252,7.667,7.667,0,0,1,3.937-2.593,7.307,7.307,0,0,1,5.7.813,6.914,6.914,0,0,1,3.123,4.55,9.472,9.472,0,0,1,.132,2.159,14.323,14.323,0,0,1-.475,3.369,9.829,9.829,0,0,1-.546,1.44l-5.123-.057-1.715-10.984a.846.846,0,0,0-.836-.715h0a.845.845,0,0,0-.835.72l-1.651,10.924-2.07.053a.844.844,0,0,0-.793.621L219,709.441l-3.01-11.569a.846.846,0,0,0-.818-.633h0a.846.846,0,0,0-.818.642l-2.664,10.773-.95-1.884a.83.83,0,0,0-.778-.465l-4.173.11a10.736,10.736,0,0,1-.93-3.184,17.25,17.25,0,0,1-.135-2.658A6.9,6.9,0,0,1,210.125,693.977Z" transform="translate(-126.528 -431.334)" fill="#265d3b"/>
    <path id="Path_5086" data-name="Path 5086" d="M233.28,697.648a7.3,7.3,0,0,0-5.7-.813,7.667,7.667,0,0,0-3.938,2.592,9.911,9.911,0,0,0-.894,1.252.846.846,0,0,1-.709.4.8.8,0,0,1-.721-.382l.709-.464-.738.421a9,9,0,0,0-1.58-1.969,7.221,7.221,0,0,0-5.025-2.11,8.176,8.176,0,0,0-1.759.2,6.9,6.9,0,0,0-5.409,6.6,17.156,17.156,0,0,0,.135,2.658,10.752,10.752,0,0,0,.93,3.184l4.173-.111a.83.83,0,0,1,.778.464l.95,1.884,2.664-10.773a.846.846,0,0,1,.818-.642h0a.846.846,0,0,1,.818.633l3.01,11.569.694-2.515a.845.845,0,0,1,.793-.621l2.07-.054L227,698.129a.846.846,0,0,1,.835-.72h0a.846.846,0,0,1,.836.715l1.715,10.984,5.123.057a9.841,9.841,0,0,0,.546-1.44,14.362,14.362,0,0,0,.475-3.368,9.474,9.474,0,0,0-.132-2.16,6.918,6.918,0,0,0-3.123-4.55" transform="translate(-129.329 -434.135)" fill="#fff"/>
    <path id="Path_5087" data-name="Path 5087" d="M232.159,722.065l-.975-6.249-.934,6.179a.846.846,0,0,1-.814.72l-2.152.056-1.368,4.954a.847.847,0,0,1-.816.621h-.006a.845.845,0,0,1-.812-.633l-2.964-11.4-2.413,9.752a.845.845,0,0,1-.726.638.826.826,0,0,1-.85-.46l-1.737-3.444-2.741.073a16.594,16.594,0,0,0,1.721,2.058c1.273,1.311,2.693,2.537,4.064,3.723,2.386,2.065,4.586,3.982,6.718,5.992.764-.721,1.541-1.432,2.32-2.136,1.145-1.03,2.307-2.039,3.47-3.047.859-.745,1.717-1.489,2.568-2.243a34.232,34.232,0,0,0,3.32-3.267,13.688,13.688,0,0,0,.859-1.119l-4.906-.055a.845.845,0,0,1-.826-.715" transform="translate(-132.657 -446.124)" fill="#8aa795"/>
    <rect id="Rectangle_1581" data-name="Rectangle 1581" width="3.25" height="11.655" transform="translate(59.98 294.205)" fill="#8aa795"/>
    <path id="Path_5088" data-name="Path 5088" d="M213.482,776.826a1.359,1.359,0,0,0-1.062-.008l-10.029,4.141a15.37,15.37,0,0,1-2.978.849c-.014,0-.024.013-.038.015s-.05,0-.075.008a43.591,43.591,0,0,1-11.857.092.846.846,0,1,1,.229-1.677,42.806,42.806,0,0,0,11.406-.1,1.2,1.2,0,0,0,.792-1.168,1.057,1.057,0,0,0-1.021-1.062l-4.23-.159a17.81,17.81,0,0,1-4.728-.828,46.245,46.245,0,0,0-7.718-1.721c-4.2-.552-8.308,2.154-9.859,3.319v9.232c1.674-.355,4.943-1.019,6.444-1.129,3.218-.236,9.885.332,14.91.851a13.135,13.135,0,0,0,7.866-1.663l12.055-6.54h0a1.366,1.366,0,0,0-.109-2.453" transform="translate(-107.393 -483.095)" fill="#fff"/>
    <path id="Path_5089" data-name="Path 5089" d="M413.451,436.063a30.094,30.094,0,1,0-30.094,30.094,30.094,30.094,0,0,0,30.094-30.094" transform="translate(-220.167 -253.016)" fill="#dacaf9"/>
    <path id="Path_5090" data-name="Path 5090" d="M348.935,452.543a50.9,50.9,0,1,1,50.9-50.9,50.96,50.96,0,0,1-50.9,50.9m0-98.038A47.135,47.135,0,1,0,396.07,401.64,47.189,47.189,0,0,0,348.935,354.5" transform="translate(-185.745 -218.593)" fill="#dacaf9"/>
    <rect id="Rectangle_1582" data-name="Rectangle 1582" width="28.786" height="56.302" transform="translate(136.839 144.874)" fill="#b9b0d6"/>
    <rect id="Rectangle_1583" data-name="Rectangle 1583" width="33.019" height="5.08" transform="translate(134.722 141.911)" fill="#3b265d"/>
    <rect id="Rectangle_1584" data-name="Rectangle 1584" width="21.287" height="13.94" transform="translate(141.088 124.885)" fill="#3b265d"/>
    <path id="Path_5091" data-name="Path 5091" d="M399.522,339.607h-2.637v-2.637h-4.521v2.637h-2.637v4.521h2.637v2.637h4.521v-2.637h2.637Z" transform="translate(-242.893 -210.012)" fill="#fff"/>
    <rect id="Rectangle_1585" data-name="Rectangle 1585" width="1.319" height="13.94" transform="translate(142.878 132.608)" fill="#3b265d"/>
    <rect id="Rectangle_1586" data-name="Rectangle 1586" width="1.319" height="13.94" transform="translate(159.267 132.608)" fill="#3b265d"/>
    <rect id="Rectangle_1587" data-name="Rectangle 1587" width="1.695" height="6.593" transform="translate(139.817 150.316)" fill="#fff"/>
    <rect id="Rectangle_1588" data-name="Rectangle 1588" width="1.695" height="6.593" transform="translate(146.724 150.316)" fill="#fff"/>
    <rect id="Rectangle_1589" data-name="Rectangle 1589" width="1.695" height="6.593" transform="translate(153.631 150.316)" fill="#fff"/>
    <rect id="Rectangle_1590" data-name="Rectangle 1590" width="1.695" height="6.593" transform="translate(160.539 150.316)" fill="#fff"/>
    <rect id="Rectangle_1591" data-name="Rectangle 1591" width="1.695" height="6.593" transform="translate(139.817 162.937)" fill="#fff"/>
    <rect id="Rectangle_1592" data-name="Rectangle 1592" width="1.695" height="6.593" transform="translate(146.724 162.937)" fill="#fff"/>
    <rect id="Rectangle_1593" data-name="Rectangle 1593" width="1.695" height="6.593" transform="translate(153.631 162.937)" fill="#fff"/>
    <rect id="Rectangle_1594" data-name="Rectangle 1594" width="1.695" height="6.593" transform="translate(160.539 162.937)" fill="#fff"/>
    <rect id="Rectangle_1595" data-name="Rectangle 1595" width="1.695" height="6.593" transform="translate(139.817 175.559)" fill="#fff"/>
    <rect id="Rectangle_1596" data-name="Rectangle 1596" width="1.695" height="6.593" transform="translate(146.724 175.559)" fill="#fff"/>
    <rect id="Rectangle_1597" data-name="Rectangle 1597" width="1.695" height="6.593" transform="translate(153.631 175.559)" fill="#fff"/>
    <rect id="Rectangle_1598" data-name="Rectangle 1598" width="1.695" height="6.593" transform="translate(160.539 175.559)" fill="#fff"/>
    <rect id="Rectangle_1599" data-name="Rectangle 1599" width="1.695" height="6.593" transform="translate(139.817 188.18)" fill="#fff"/>
    <rect id="Rectangle_1600" data-name="Rectangle 1600" width="1.695" height="6.593" transform="translate(146.724 188.18)" fill="#fff"/>
    <rect id="Rectangle_1601" data-name="Rectangle 1601" width="1.695" height="6.593" transform="translate(153.631 188.18)" fill="#fff"/>
    <rect id="Rectangle_1602" data-name="Rectangle 1602" width="1.695" height="6.593" transform="translate(160.539 188.18)" fill="#fff"/>
    <rect id="Rectangle_1603" data-name="Rectangle 1603" width="28.786" height="39.369" transform="translate(159.063 161.808)" fill="#9182ad"/>
    <rect id="Rectangle_1604" data-name="Rectangle 1604" width="33.019" height="5.08" transform="translate(156.947 160.961)" fill="#3b265d"/>
    <rect id="Rectangle_1605" data-name="Rectangle 1605" width="3.014" height="3.014" transform="translate(162.046 168.777)" fill="#fff"/>
    <rect id="Rectangle_1606" data-name="Rectangle 1606" width="3.014" height="3.014" transform="translate(171.371 168.777)" fill="#fff"/>
    <rect id="Rectangle_1607" data-name="Rectangle 1607" width="3.014" height="3.014" transform="translate(180.695 168.777)" fill="#fff"/>
    <rect id="Rectangle_1608" data-name="Rectangle 1608" width="3.014" height="3.014" transform="translate(162.046 175.936)" fill="#fff"/>
    <rect id="Rectangle_1609" data-name="Rectangle 1609" width="3.014" height="3.014" transform="translate(171.371 175.936)" fill="#fff"/>
    <rect id="Rectangle_1610" data-name="Rectangle 1610" width="3.014" height="3.014" transform="translate(180.695 175.936)" fill="#fff"/>
    <rect id="Rectangle_1611" data-name="Rectangle 1611" width="3.014" height="3.014" transform="translate(162.046 183.094)" fill="#fff"/>
    <rect id="Rectangle_1612" data-name="Rectangle 1612" width="3.014" height="3.014" transform="translate(171.371 183.094)" fill="#fff"/>
    <rect id="Rectangle_1613" data-name="Rectangle 1613" width="3.014" height="3.014" transform="translate(180.695 183.094)" fill="#fff"/>
    <rect id="Rectangle_1614" data-name="Rectangle 1614" width="3.014" height="3.014" transform="translate(162.046 190.253)" fill="#fff"/>
    <rect id="Rectangle_1615" data-name="Rectangle 1615" width="3.014" height="3.014" transform="translate(171.371 190.253)" fill="#fff"/>
    <rect id="Rectangle_1616" data-name="Rectangle 1616" width="2.732" height="1.507" transform="translate(171.371 197.411)" fill="#fff"/>
    <rect id="Rectangle_1617" data-name="Rectangle 1617" width="3.014" height="3.014" transform="translate(180.695 190.253)" fill="#fff"/>
    <rect id="Rectangle_1618" data-name="Rectangle 1618" width="57.572" height="2.963" transform="translate(135.78 198.214)" fill="#3b265d"/>
  </g>
</svg>
