<svg id="Group_2518" data-name="Group 2518" xmlns="http://www.w3.org/2000/svg" xmlns:xlink="http://www.w3.org/1999/xlink" width="301.91" height="98.171" viewBox="0 0 301.91 98.171">
  <defs>
    <clipPath id="clip-path">
      <rect id="Rectangle_1896" data-name="Rectangle 1896" width="301.91" height="98.171" fill="none"/>
    </clipPath>
  </defs>
  <rect id="Rectangle_1895" data-name="Rectangle 1895" width="252.825" height="66.248" transform="translate(49.085 15.961)" fill="#3b265d"/>
  <g id="Group_2510" data-name="Group 2510">
    <g id="Group_2509" data-name="Group 2509" clip-path="url(#clip-path)">
      <path id="Path_8552" data-name="Path 8552" d="M99.523,51.715A47.808,47.808,0,1,0,51.716,99.523,47.808,47.808,0,0,0,99.523,51.715" transform="translate(-2.63 -2.629)" fill="#3b265d"/>
      <path id="Path_8553" data-name="Path 8553" d="M49.085,98.171A49.085,49.085,0,1,1,98.171,49.085,49.141,49.141,0,0,1,49.085,98.171m0-95.615a46.53,46.53,0,1,0,46.53,46.53,46.583,46.583,0,0,0-46.53-46.53" fill="#fff"/>
      <path id="Path_8554" data-name="Path 8554" d="M507.007,128.04q0,5.259-2.9,8.1t-8.14,2.845h-6.8V117.981h7.271q5.058,0,7.81,2.586t2.752,7.472m-5.892.2a6.677,6.677,0,0,0-1.142-4.282,4.225,4.225,0,0,0-3.47-1.394h-1.653v11.768h1.264a4.579,4.579,0,0,0,3.794-1.5,7.255,7.255,0,0,0,1.207-4.591" transform="translate(-329.225 -79.404)" fill="#fff"/>
      <path id="Path_8555" data-name="Path 8555" d="M572.849,117.981v12.645a8.483,8.483,0,0,1-2.335,6.387q-2.335,2.263-6.732,2.263-4.3,0-6.6-2.2a8.322,8.322,0,0,1-2.307-6.322V117.981h5.7V130.31a5.049,5.049,0,0,0,.833,3.233,3.593,3.593,0,0,0,4.979.007,5.35,5.35,0,0,0,.783-3.269v-12.3Z" transform="translate(-373.441 -79.404)" fill="#fff"/>
      <path id="Path_8556" data-name="Path 8556" d="M629.017,131.345v7.644h-5.676V117.982h6.883q8.564,0,8.564,6.207a6.2,6.2,0,0,1-3.564,5.647l6.121,9.153h-6.437l-4.454-7.644Zm0-4.268h1.063q2.974,0,2.975-2.629,0-2.17-2.917-2.17h-1.121Z" transform="translate(-419.522 -79.404)" fill="#fff"/>
      <path id="Path_8557" data-name="Path 8557" d="M692.465,138.812l-1.035-3.937H684.6l-1.063,3.937H677.3l6.854-21.094h7.573l6.94,21.094Zm-2.213-8.593-.905-3.449q-.316-1.15-.769-2.975t-.6-2.615q-.129.733-.51,2.414t-1.689,6.624Z" transform="translate(-455.841 -79.227)" fill="#fff"/>
      <path id="Path_8558" data-name="Path 8558" d="M93.857,150.045,69.544,135.977V109.133L93.857,122.81Zm27.787-14.069L97.331,150.043V122.81l24.314-13.677Z" transform="translate(-46.805 -73.449)" fill="#fff"/>
      <path id="Path_8559" data-name="Path 8559" d="M99.313,58.342,75.07,71.98,99.313,85.619,123.558,71.98Z" transform="translate(-50.524 -39.265)" fill="#fff"/>
    </g>
  </g>
</svg>
