<svg id="Group_2432" data-name="Group 2432" xmlns="http://www.w3.org/2000/svg" xmlns:xlink="http://www.w3.org/1999/xlink" width="362.776" height="349.545" viewBox="0 0 362.776 349.545">
  <defs>
    <clipPath id="clip-path">
      <rect id="Rectangle_1663" data-name="Rectangle 1663" width="362.776" height="349.545" fill="none"/>
    </clipPath>
    <clipPath id="clip-path-3">
      <rect id="Rectangle_1620" data-name="Rectangle 1620" width="286.264" height="284.948" fill="none"/>
    </clipPath>
    <clipPath id="clip-path-4">
      <rect id="Rectangle_1621" data-name="Rectangle 1621" width="241.07" height="240.461" fill="none"/>
    </clipPath>
    <clipPath id="clip-path-5">
      <rect id="Rectangle_1622" data-name="Rectangle 1622" width="121.641" height="122.376" fill="none"/>
    </clipPath>
  </defs>
  <g id="Group_2409" data-name="Group 2409" clip-path="url(#clip-path)">
    <path id="Path_5092" data-name="Path 5092" d="M16.875,181.064l22.049-76.729L96.25,43.48l89.91-26.605,90.29,29.276,56.31,58.184,22.049,76.729-22.049,84.667-57.327,60.854L186.16,353.191,96.25,326.586,38.924,265.731Z" transform="translate(-10.26 -10.26)" fill="#f7f5ff"/>
    <g id="Group_2408" data-name="Group 2408">
      <g id="Group_2407" data-name="Group 2407" clip-path="url(#clip-path)">
        <path id="Path_5093" data-name="Path 5093" d="M445.1,6.615A6.615,6.615,0,1,1,438.49,0,6.615,6.615,0,0,1,445.1,6.615" transform="translate(-262.59 0)" fill="#3b265d"/>
        <path id="Path_5094" data-name="Path 5094" d="M215.729,74.49a6.615,6.615,0,1,1-6.615-6.615,6.615,6.615,0,0,1,6.615,6.615" transform="translate(-123.125 -41.27)" fill="#3b265d"/>
        <path id="Path_5095" data-name="Path 5095" d="M69.479,229.74a6.615,6.615,0,1,1-6.615-6.615,6.615,6.615,0,0,1,6.615,6.615" transform="translate(-34.201 -135.665)" fill="#3b265d"/>
        <path id="Path_5096" data-name="Path 5096" d="M13.229,425.49a6.615,6.615,0,1,1-6.615-6.615,6.614,6.614,0,0,1,6.615,6.615" transform="translate(0 -254.686)" fill="#3b265d"/>
        <path id="Path_5097" data-name="Path 5097" d="M659.625,74.49a6.615,6.615,0,1,0,6.615-6.615,6.614,6.614,0,0,0-6.615,6.615" transform="translate(-401.067 -41.27)" fill="#3b265d"/>
        <path id="Path_5098" data-name="Path 5098" d="M805.875,229.74a6.615,6.615,0,1,0,6.615-6.615,6.614,6.614,0,0,0-6.615,6.615" transform="translate(-489.991 -135.665)" fill="#3b265d"/>
        <path id="Path_5099" data-name="Path 5099" d="M501.588,182.553a6.615,6.615,0,1,1-6.615-6.615,6.615,6.615,0,0,1,6.615,6.615" transform="translate(-296.934 -106.974)" fill="#3b265d"/>
        <path id="Path_5100" data-name="Path 5100" d="M387.807,182.553a6.615,6.615,0,1,1-6.615-6.615,6.615,6.615,0,0,1,6.615,6.615" transform="translate(-227.752 -106.974)" fill="#3b265d"/>
        <path id="Path_5101" data-name="Path 5101" d="M428.307,319.8a6.615,6.615,0,1,1-6.615-6.615,6.615,6.615,0,0,1,6.615,6.615" transform="translate(-252.377 -190.426)" fill="#3b265d"/>
        <path id="Path_5102" data-name="Path 5102" d="M602.141,245.49a6.615,6.615,0,1,0,6.615-6.615,6.615,6.615,0,0,0-6.615,6.615" transform="translate(-366.116 -145.242)" fill="#3b265d"/>
        <path id="Path_5103" data-name="Path 5103" d="M715.922,344.49a6.615,6.615,0,1,0,6.615-6.615,6.615,6.615,0,0,0-6.615,6.615" transform="translate(-435.297 -205.436)" fill="#3b265d"/>
        <path id="Path_5104" data-name="Path 5104" d="M260.8,245.49a6.615,6.615,0,1,0,6.615-6.615,6.615,6.615,0,0,0-6.615,6.615" transform="translate(-158.571 -145.242)" fill="#3b265d"/>
        <path id="Path_5105" data-name="Path 5105" d="M147.016,364.74a6.615,6.615,0,1,0,6.615-6.615,6.614,6.614,0,0,0-6.615,6.615" transform="translate(-89.389 -217.748)" fill="#3b265d"/>
        <path id="Path_5106" data-name="Path 5106" d="M501.588,722.49a6.615,6.615,0,1,0-6.615,6.615,6.615,6.615,0,0,0,6.615-6.615" transform="translate(-296.934 -435.269)" fill="#3b265d"/>
        <path id="Path_5107" data-name="Path 5107" d="M387.807,722.49a6.615,6.615,0,1,0-6.615,6.615,6.615,6.615,0,0,0,6.615-6.615" transform="translate(-227.752 -435.269)" fill="#3b265d"/>
        <path id="Path_5108" data-name="Path 5108" d="M435.057,587.49a6.615,6.615,0,1,0-6.615,6.615,6.614,6.614,0,0,0,6.615-6.615" transform="translate(-256.481 -353.185)" fill="#3b265d"/>
        <path id="Path_5109" data-name="Path 5109" d="M602.141,659.553a6.615,6.615,0,1,1,6.615,6.615,6.614,6.614,0,0,1-6.615-6.615" transform="translate(-366.116 -397.001)" fill="#3b265d"/>
        <path id="Path_5110" data-name="Path 5110" d="M715.922,560.553a6.615,6.615,0,1,1,6.615,6.615,6.615,6.615,0,0,1-6.615-6.615" transform="translate(-435.297 -336.807)" fill="#3b265d"/>
        <path id="Path_5111" data-name="Path 5111" d="M578.969,452.553a6.615,6.615,0,1,1,6.615,6.615,6.615,6.615,0,0,1-6.615-6.615" transform="translate(-352.026 -271.141)" fill="#3b265d"/>
        <path id="Path_5112" data-name="Path 5112" d="M431.594,445.8a6.615,6.615,0,1,1,6.615,6.615,6.615,6.615,0,0,1-6.615-6.615" transform="translate(-262.419 -267.036)" fill="#3b265d"/>
        <path id="Path_5113" data-name="Path 5113" d="M260.8,659.553a6.615,6.615,0,1,1,6.615,6.615,6.614,6.614,0,0,1-6.615-6.615" transform="translate(-158.571 -397.001)" fill="#3b265d"/>
        <path id="Path_5114" data-name="Path 5114" d="M147.016,540.3a6.615,6.615,0,1,1,6.615,6.615,6.615,6.615,0,0,1-6.615-6.615" transform="translate(-89.389 -324.495)" fill="#3b265d"/>
        <path id="Path_5115" data-name="Path 5115" d="M275.266,448.053a6.615,6.615,0,1,1,6.615,6.615,6.614,6.614,0,0,1-6.615-6.615" transform="translate(-167.368 -268.404)" fill="#3b265d"/>
        <path id="Path_5116" data-name="Path 5116" d="M445.1,864.615a6.615,6.615,0,1,0-6.615,6.615,6.615,6.615,0,0,0,6.615-6.615" transform="translate(-262.59 -521.684)" fill="#3b265d"/>
        <path id="Path_5117" data-name="Path 5117" d="M215.729,796.74a6.615,6.615,0,1,0-6.615,6.615,6.615,6.615,0,0,0,6.615-6.615" transform="translate(-123.125 -480.414)" fill="#3b265d"/>
        <path id="Path_5118" data-name="Path 5118" d="M69.479,641.49a6.615,6.615,0,1,0-6.615,6.615,6.614,6.614,0,0,0,6.615-6.615" transform="translate(-34.201 -386.019)" fill="#3b265d"/>
        <path id="Path_5119" data-name="Path 5119" d="M659.625,796.74a6.615,6.615,0,1,1,6.615,6.615,6.614,6.614,0,0,1-6.615-6.615" transform="translate(-401.067 -480.414)" fill="#3b265d"/>
        <path id="Path_5120" data-name="Path 5120" d="M805.875,641.49a6.615,6.615,0,1,1,6.615,6.615,6.614,6.614,0,0,1-6.615-6.615" transform="translate(-489.991 -386.019)" fill="#3b265d"/>
        <path id="Path_5121" data-name="Path 5121" d="M862.125,425.49a6.615,6.615,0,1,0,6.615-6.615,6.615,6.615,0,0,0-6.615,6.615" transform="translate(-524.192 -254.686)" fill="#3b265d"/>
        <path id="Path_5122" data-name="Path 5122" d="M184.64,352.651a.98.98,0,0,1-.909-.613l-22.084-54.778L95.119,325.966a.98.98,0,0,1-1.29-1.283l22.324-52.534-78.835-6.962a.98.98,0,0,1-.643-1.63l34.878-38.882-56.8-44.358a.98.98,0,0,1,.229-1.678L71.5,155.284,36.59,103.362a.98.98,0,0,1,.889-1.524l78.695,6.06L93.8,42.277a.98.98,0,0,1,1.448-1.146l66.387,41.69,22.07-67.769a.98.98,0,0,1,.932-.677h0a.98.98,0,0,1,.931.68l21.768,67.8,67.1-39.074a.98.98,0,0,1,1.413,1.183l-23.026,62.927,78.34-6.056a.98.98,0,0,1,.847,1.582L297.46,147.494l56.3,31.193a.98.98,0,0,1,.19,1.577l-56.518,52.212,34.46,31.007a.98.98,0,0,1-.569,1.7L252.8,272.149l22.015,52.538a.98.98,0,0,1-1.293,1.278l-66.205-28.7-21.767,54.771a.98.98,0,0,1-.908.618Zm-22.459-57.67a.978.978,0,0,1,.909.613l21.543,53.439L205.87,295.6a.98.98,0,0,1,1.3-.537l64.9,28.135L250.476,271.67a.98.98,0,0,1,.817-1.355l77.617-6.881-33.586-30.22a.98.98,0,0,1-.01-1.448l56.313-52.022L295.5,148.651a.98.98,0,0,1-.3-1.462l33.885-43.226-77.638,6a.98.98,0,0,1-1-1.314l22.616-61.808-65.8,38.321a.98.98,0,0,1-1.426-.547L184.633,18.54,163.113,84.622a.98.98,0,0,1-1.453.527L96.549,44.26l21.959,64.412a.98.98,0,0,1-1,1.294l-78.16-6.018,34.449,51.238a.98.98,0,0,1-.439,1.453l-56.072,23.17,56.3,43.968a.979.979,0,0,1,.126,1.426l-34.27,38.205,78.226,6.908a.98.98,0,0,1,.816,1.359L96.589,323.2l65.2-28.135a.981.981,0,0,1,.388-.08" transform="translate(-8.74 -8.74)" fill="#3b265d"/>
        <path id="Path_5123" data-name="Path 5123" d="M184.64,352.651a.984.984,0,0,1-.278-.04l-89.91-26.605a.982.982,0,0,1-.435-.268L36.69,264.883a.982.982,0,0,1-.235-.425L14.407,179.792a.982.982,0,0,1,.006-.517l22.049-76.729a.985.985,0,0,1,.229-.4L94.017,41.289a.978.978,0,0,1,.435-.268l89.91-26.605a.984.984,0,0,1,.581.007L275.232,43.7a.981.981,0,0,1,.4.25l56.31,58.184a.98.98,0,0,1,.237.411l22.049,76.729a.978.978,0,0,1,.007.517l-22.049,84.667a.975.975,0,0,1-.235.425l-57.327,60.854a.977.977,0,0,1-.433.267L184.92,352.611a.984.984,0,0,1-.28.041M95.262,324.2l89.377,26.448L273.381,324.2l56.974-60.48,21.918-84.165-21.907-76.236L274.4,45.488,184.627,16.381,95.262,42.825,38.28,103.314,16.371,179.557l21.918,84.165Z" transform="translate(-8.741 -8.741)" fill="#3b265d"/>
        <path id="Path_5124" data-name="Path 5124" d="M296.169,403.916h-44.6a.98.98,0,0,1-.925-1.3l17.769-50.769L207.37,379.16a.981.981,0,0,1-1.109-.218l-44.6-46.743a.98.98,0,0,1-.271-.676V262.706a.98.98,0,0,1,1.514-.822l48.62,31.584-5.531-77.435a.979.979,0,0,1,.5-.927l44.6-24.67a.978.978,0,0,1,.474-.122h44.6a.98.98,0,0,1,.864,1.441l-28.724,53.8a.98.98,0,0,1-1.729-.923l27.955-52.357H251.822l-43.83,24.245,5.627,78.776a.98.98,0,0,1-1.511.891L163.35,264.511V331.13L207.2,377.089l62.489-27.964a.98.98,0,0,1,1.325,1.218L252.95,401.956h42.965l43.806-24.231-9.01-80.489a.98.98,0,0,1,1.58-.878l52.1,41.082V254.768a.98.98,0,0,1,1.96,0V339.46a.98.98,0,0,1-1.586.769l-51.841-40.881,8.822,78.809a.98.98,0,0,1-.5.967l-44.6,24.67a.979.979,0,0,1-.474.122" transform="translate(-98.129 -115.715)" fill="#3b265d"/>
        <path id="Path_5125" data-name="Path 5125" d="M296.169,442.183a.979.979,0,0,1-.878-.547l-26.079-52.917a.982.982,0,0,1-.1-.5l3.612-52.407-64.99,81.333a.98.98,0,0,1-1.743-.678l5.529-80.824-48.579,34.943a.98.98,0,0,1-1.145-1.591l50.224-36.126,54.761-50.232a.988.988,0,0,1,.3-.189l73.324-29.129a.98.98,0,0,1,1.005.171l44.6,38.806a.98.98,0,0,1-.036,1.508l-53.454,42.177L297.1,441.515a.98.98,0,0,1-.864.666l-.066,0M271.087,388.09,296,438.637l34.76-103.555a.978.978,0,0,1,.322-.457L383.833,293l-43.257-37.638-72.6,28.842-54.382,49.884-5.431,79.385,64.991-81.336a.98.98,0,0,1,1.743.679Z" transform="translate(-98.129 -153.982)" fill="#3b265d"/>
        <path id="Path_5126" data-name="Path 5126" d="M470.05,298.106H470l-57.759-2.645a.972.972,0,0,1-.583-.22l0,0,0,0,0,0,0,0,0,0,0,0,0,0,0,0a.977.977,0,0,1-.337-.622l-6.463-49.31-15.854-53.725a.98.98,0,0,1,1.88-.555l15.875,53.8a.981.981,0,0,1,.032.15l6.187,47.2,65.42-76.837a.98.98,0,0,1,1.72.744l-9.083,81.164a.979.979,0,0,1-.973.871m-55.726-4.513,54.853,2.512,8.625-77.069Z" transform="translate(-236.492 -115.714)" fill="#3b265d"/>
        <path id="Path_5127" data-name="Path 5127" d="M162.37,301.953a.98.98,0,0,1-.709-1.657l44.6-46.743a.98.98,0,0,1,1.134-.206l60.475,29.129a.98.98,0,0,1-.851,1.766l-59.833-28.819L163.08,301.65a.976.976,0,0,1-.709.3" transform="translate(-98.129 -153.982)" fill="#3b265d"/>
        <g id="Group_2400" data-name="Group 2400" transform="translate(33.246 32.363)" opacity="0.3">
          <g id="Group_2399" data-name="Group 2399">
            <g id="Group_2398" data-name="Group 2398" clip-path="url(#clip-path-3)">
              <path id="Path_5128" data-name="Path 5128" d="M535.886,89.526a5.564,5.564,0,1,1-3.988-6.783,5.564,5.564,0,0,1,3.988,6.783" transform="translate(-352.419 -82.563)" fill="#3b265d"/>
              <path id="Path_5129" data-name="Path 5129" d="M334.8,96.325a5.564,5.564,0,1,1-3.988-6.783,5.564,5.564,0,0,1,3.988,6.783" transform="translate(-230.152 -86.697)" fill="#3b265d"/>
              <path id="Path_5130" data-name="Path 5130" d="M182.922,191.824a5.564,5.564,0,1,1-3.988-6.783,5.564,5.564,0,0,1,3.988,6.783" transform="translate(-137.809 -144.763)" fill="#3b265d"/>
              <path id="Path_5131" data-name="Path 5131" d="M95.767,339.313a5.564,5.564,0,1,1-3.988-6.783,5.564,5.564,0,0,1,3.988,6.783" transform="translate(-84.816 -234.439)" fill="#3b265d"/>
              <path id="Path_5132" data-name="Path 5132" d="M696.2,190.111a5.564,5.564,0,1,0,6.783-3.988,5.564,5.564,0,0,0-6.783,3.988" transform="translate(-456.443 -145.421)" fill="#3b265d"/>
              <path id="Path_5133" data-name="Path 5133" d="M782.472,347.41a5.564,5.564,0,1,0,6.783-3.988,5.564,5.564,0,0,0-6.783,3.988" transform="translate(-508.898 -241.062)" fill="#3b265d"/>
              <path id="Path_5134" data-name="Path 5134" d="M544.7,244.7a5.564,5.564,0,1,1-3.988-6.783A5.564,5.564,0,0,1,544.7,244.7" transform="translate(-357.779 -176.914)" fill="#3b265d"/>
              <path id="Path_5135" data-name="Path 5135" d="M452.065,220.662a5.564,5.564,0,1,1-3.988-6.783,5.564,5.564,0,0,1,3.988,6.783" transform="translate(-301.454 -162.297)" fill="#3b265d"/>
              <path id="Path_5136" data-name="Path 5136" d="M456.04,340.964a5.564,5.564,0,1,1-3.988-6.783,5.564,5.564,0,0,1,3.988,6.783" transform="translate(-303.871 -235.443)" fill="#3b265d"/>
              <path id="Path_5137" data-name="Path 5137" d="M613.27,317.188a5.564,5.564,0,1,0,6.783-3.988,5.564,5.564,0,0,0-6.783,3.988" transform="translate(-406.019 -222.686)" fill="#3b265d"/>
              <path id="Path_5138" data-name="Path 5138" d="M684.99,421.831a5.564,5.564,0,1,0,6.783-3.988,5.564,5.564,0,0,0-6.783,3.988" transform="translate(-449.627 -286.312)" fill="#3b265d"/>
              <path id="Path_5139" data-name="Path 5139" d="M335.359,245.069a5.564,5.564,0,1,0,6.783-3.988,5.564,5.564,0,0,0-6.783,3.988" transform="translate(-237.043 -178.836)" fill="#3b265d"/>
              <path id="Path_5140" data-name="Path 5140" d="M217.527,318.118a5.564,5.564,0,1,0,6.783-3.988,5.564,5.564,0,0,0-6.783,3.988" transform="translate(-165.398 -223.252)" fill="#3b265d"/>
              <path id="Path_5141" data-name="Path 5141" d="M430.623,684.3a5.564,5.564,0,1,0-6.783,3.988,5.564,5.564,0,0,0,6.783-3.988" transform="translate(-288.417 -444.201)" fill="#3b265d"/>
              <path id="Path_5142" data-name="Path 5142" d="M337.986,660.262a5.564,5.564,0,1,0-6.783,3.988,5.564,5.564,0,0,0,6.783-3.988" transform="translate(-232.091 -429.584)" fill="#3b265d"/>
              <path id="Path_5143" data-name="Path 5143" d="M404.978,560.333a5.564,5.564,0,1,0-6.783,3.988,5.564,5.564,0,0,0,6.783-3.988" transform="translate(-272.824 -368.825)" fill="#3b265d"/>
              <path id="Path_5144" data-name="Path 5144" d="M525.787,654.305a5.564,5.564,0,1,1,3.988,6.783,5.564,5.564,0,0,1-3.988-6.783" transform="translate(-352.828 -427.661)" fill="#3b265d"/>
              <path id="Path_5145" data-name="Path 5145" d="M639.34,597.742a5.564,5.564,0,1,1,3.988,6.783,5.564,5.564,0,0,1-3.988-6.783" transform="translate(-421.87 -393.27)" fill="#3b265d"/>
              <path id="Path_5146" data-name="Path 5146" d="M550.656,480.876a5.564,5.564,0,1,1,3.988,6.783,5.564,5.564,0,0,1-3.988-6.783" transform="translate(-367.948 -322.213)" fill="#3b265d"/>
              <path id="Path_5147" data-name="Path 5147" d="M432.094,444.243a5.564,5.564,0,1,1,3.988,6.783,5.564,5.564,0,0,1-3.988-6.783" transform="translate(-295.86 -299.939)" fill="#3b265d"/>
              <path id="Path_5148" data-name="Path 5148" d="M247.875,582.185a5.564,5.564,0,1,1,3.988,6.783,5.564,5.564,0,0,1-3.988-6.783" transform="translate(-183.851 -383.811)" fill="#3b265d"/>
              <path id="Path_5149" data-name="Path 5149" d="M180.434,461.056a5.564,5.564,0,1,1,3.988,6.783,5.564,5.564,0,0,1-3.988-6.783" transform="translate(-142.845 -310.162)" fill="#3b265d"/>
              <path id="Path_5150" data-name="Path 5150" d="M304.341,413.045a5.564,5.564,0,1,1,3.988,6.783,5.564,5.564,0,0,1-3.988-6.783" transform="translate(-218.183 -280.97)" fill="#3b265d"/>
              <path id="Path_5151" data-name="Path 5151" d="M354.607,788.082a5.564,5.564,0,1,0-6.783,3.988,5.564,5.564,0,0,0,6.783-3.988" transform="translate(-242.197 -507.301)" fill="#3b265d"/>
              <path id="Path_5152" data-name="Path 5152" d="M182.2,684.357a5.564,5.564,0,1,0-6.783,3.988,5.564,5.564,0,0,0,6.783-3.988" transform="translate(-137.368 -444.234)" fill="#3b265d"/>
              <path id="Path_5153" data-name="Path 5153" d="M95.927,527.058a5.564,5.564,0,1,0-6.783,3.988,5.564,5.564,0,0,0,6.783-3.988" transform="translate(-84.914 -348.593)" fill="#3b265d"/>
              <path id="Path_5154" data-name="Path 5154" d="M543.6,778.144a5.564,5.564,0,1,1,3.988,6.783,5.564,5.564,0,0,1-3.988-6.783" transform="translate(-363.66 -502.958)" fill="#3b265d"/>
              <path id="Path_5155" data-name="Path 5155" d="M695.477,682.644a5.564,5.564,0,1,1,3.988,6.783,5.564,5.564,0,0,1-3.988-6.783" transform="translate(-456.003 -444.892)" fill="#3b265d"/>
              <path id="Path_5156" data-name="Path 5156" d="M786.911,518.668a5.564,5.564,0,1,0,6.783-3.988,5.564,5.564,0,0,0-6.783,3.988" transform="translate(-511.597 -345.191)" fill="#3b265d"/>
              <path id="Path_5157" data-name="Path 5157" d="M198.988,370.1a.824.824,0,0,1-.611-.691l-6.406-49.265-60.231,9.316a.824.824,0,0,1-.779-1.317l29.275-38.054L97.522,267.761a.824.824,0,0,1-.179-1.463l36.611-24.287L97.081,193.894a.824.824,0,0,1,.541-1.318l50.95-7.073L131.12,135.854a.825.825,0,0,1,1.045-1.053l62.791,21.56-4.349-58.153a.824.824,0,0,1,1.421-.627L237.27,145.55l32.287-50.512a.825.825,0,0,1,.9-.354h0a.825.825,0,0,1,.614.751l3.4,59.8L337.355,137.6a.824.824,0,0,1,.9,1.262L306.213,185.23l65.061,11.621a.824.824,0,0,1,.355,1.467L334.188,226.9l39.249,37.292a.824.824,0,0,1-.178,1.324l-57.047,30.568,21.505,32.525a.824.824,0,0,1-.824,1.268l-65.4-10.923,6.823,47.426a.824.824,0,0,1-1.323.767l-47.838-37.357-29.294,39.993a.825.825,0,0,1-.87.312h0m-6.1-51.7a.825.825,0,0,1,.61.691l6.25,48.06,28.579-39.018a.825.825,0,0,1,1.172-.163l46.893,36.618L269.7,318.076a.824.824,0,0,1,.952-.931l64.647,10.8-20.959-31.7a.824.824,0,0,1,.3-1.181L371.475,264.6l-39.124-37.173a.824.824,0,0,1,.067-1.252l36.721-28.034-64.479-11.517a.824.824,0,0,1-.533-1.28L335.6,139.8,273.93,157.1a.824.824,0,0,1-1.045-.747l-3.311-58.281L238.09,147.329a.824.824,0,0,1-1.294.122L192.424,100.4l4.269,57.082a.824.824,0,0,1-1.09.841L133.24,136.913l17.222,48.995A.825.825,0,0,1,149.8,187L99.25,194.015,135.8,241.708a.824.824,0,0,1-.2,1.188L99.627,266.76l62.23,22.152a.824.824,0,0,1,.377,1.279l-28.711,37.321,59.031-9.13a.828.828,0,0,1,.333.017" transform="translate(-92.17 -89.917)" fill="#3b265d"/>
              <path id="Path_5158" data-name="Path 5158" d="M198.988,370.1a.828.828,0,0,1-.218-.091l-67.58-40.658a.826.826,0,0,1-.3-.31L97.076,267.381a.82.82,0,0,1-.1-.4l-.063-73.592a.826.826,0,0,1,.115-.42l34.163-57.812a.828.828,0,0,1,.271-.278l59.531-37.434a.821.821,0,0,1,.411-.126l78.823-2.665a.826.826,0,0,1,.471.129L338.021,137.7a.83.83,0,0,1,.274.289l33.553,59.269a.823.823,0,0,1,.106.385l1.74,67.129a.823.823,0,0,1-.1.423l-35.84,64.275a.822.822,0,0,1-.281.3L277.938,367.2a.825.825,0,0,1-.409.126l-78.3,2.8a.827.827,0,0,1-.236-.026M132.23,328.051l67.18,40.417,77.838-2.783,59.165-37.2,35.627-63.893-1.729-66.7-33.35-58.911L270.024,96.314,191.68,98.963l-59.173,37.209L98.56,193.618l.062,73.155Z" transform="translate(-92.17 -89.917)" fill="#3b265d"/>
              <path id="Path_5159" data-name="Path 5159" d="M286.813,409.152,250.5,399.729a.825.825,0,0,1-.478-1.257l25.194-37.58-55.471,9.344a.825.825,0,0,1-.857-.412l-26.436-47.48a.826.826,0,0,1-.078-.608l14.54-56.028a.824.824,0,0,1,1.406-.349l32.911,35.987,11.857-64.214a.825.825,0,0,1,.606-.649L295.22,225.82a.823.823,0,0,1,.412,0l36.312,9.423a.824.824,0,0,1,.4,1.356l-34.753,37.732a.824.824,0,0,1-1.213-1.117L330.2,236.494l-34.775-9.024-40.808,10.478-12.063,65.326a.824.824,0,0,1-1.419.406l-33-36.089L194.054,321.83l25.992,46.683,56.785-9.565a.824.824,0,0,1,.821,1.272L252.04,398.425l34.981,9.078,40.785-10.473,9.67-67.435a.824.824,0,0,1,1.472-.381l33.735,44.455L390.15,306.36a.824.824,0,1,1,1.6.414l-17.894,68.953a.824.824,0,0,1-1.454.291l-33.57-44.237-9.469,66.027a.823.823,0,0,1-.611.681l-41.524,10.663a.824.824,0,0,1-.412,0" transform="translate(-150.199 -169.651)" fill="#3b265d"/>
              <path id="Path_5160" data-name="Path 5160" d="M286.812,469.542a.825.825,0,0,1-.6-.631L276.16,420.318a.828.828,0,0,1,.025-.428L290.2,377.984l-70.1,52.488a.824.824,0,0,1-1.276-.921l21.578-64.635L193.471,383.1a.824.824,0,1,1-.6-1.537l48.523-18.8,55.2-29.327a.827.827,0,0,1,.285-.09l65.853-8.224a.824.824,0,0,1,.782.352l28.113,41.018a.824.824,0,0,1-.348,1.221l-52.431,23.045L287.71,469.194a.824.824,0,0,1-.844.36l-.054-.012M277.82,420.2l9.6,46.417,50.18-76.967a.828.828,0,0,1,.359-.3L389.706,366.6,362.439,326.82l-65.2,8.143L242.42,364.087l-21.194,63.485,70.1-52.489A.824.824,0,0,1,292.6,376Z" transform="translate(-150.199 -230.041)" fill="#3b265d"/>
              <path id="Path_5161" data-name="Path 5161" d="M491.1,330.51l-.037-.011L444.6,316.142a.82.82,0,0,1-.428-.3v0l0,0v0l0,0v0a.819.819,0,0,1-.143-.577l5.156-41.512-1.556-47.091a.824.824,0,0,1,1.648-.054l1.558,47.155a.835.835,0,0,1-.006.129l-4.935,39.736,69.5-48.736a.824.824,0,0,1,1.243.969l-24.543,64.162a.825.825,0,0,1-.977.5m-44.416-15.448L490.813,328.7l23.305-60.925Z" transform="translate(-303.214 -169.651)" fill="#3b265d"/>
              <path id="Path_5162" data-name="Path 5162" d="M230.059,283.252a.824.824,0,0,1-.227-1.5l46.187-28.634a.824.824,0,0,1,.967.071l43.082,36.493A.824.824,0,1,1,319,290.942l-42.625-36.105L230.7,283.155a.824.824,0,0,1-.642.1" transform="translate(-172.752 -186.19)" fill="#3b265d"/>
            </g>
          </g>
        </g>
        <g id="Group_2403" data-name="Group 2403" transform="translate(55.268 54.411)" opacity="0.15">
          <g id="Group_2402" data-name="Group 2402">
            <g id="Group_2401" data-name="Group 2401" clip-path="url(#clip-path-4)">
              <path id="Path_5163" data-name="Path 5163" d="M588.316,180.528a4.576,4.576,0,1,1-1.819-6.21,4.576,4.576,0,0,1,1.819,6.21" transform="translate(-407.755 -160.059)" fill="#3b265d"/>
              <path id="Path_5164" data-name="Path 5164" d="M426.567,145.585a4.576,4.576,0,1,1-1.819-6.21,4.576,4.576,0,0,1,1.819,6.21" transform="translate(-309.407 -138.813)" fill="#3b265d"/>
              <path id="Path_5165" data-name="Path 5165" d="M286.268,191.267a4.576,4.576,0,1,1-1.819-6.21,4.576,4.576,0,0,1,1.819,6.21" transform="translate(-224.102 -166.588)" fill="#3b265d"/>
              <path id="Path_5166" data-name="Path 5166" d="M187.149,291.4a4.576,4.576,0,1,1-1.819-6.21,4.576,4.576,0,0,1,1.819,6.21" transform="translate(-163.836 -227.475)" fill="#3b265d"/>
              <path id="Path_5167" data-name="Path 5167" d="M695.988,292.932a4.576,4.576,0,1,0,6.211-1.819,4.576,4.576,0,0,0-6.211,1.819" transform="translate(-478.103 -231.073)" fill="#3b265d"/>
              <path id="Path_5168" data-name="Path 5168" d="M733.22,435.707a4.576,4.576,0,1,0,6.21-1.819,4.576,4.576,0,0,0-6.21,1.819" transform="translate(-500.741 -317.884)" fill="#3b265d"/>
              <path id="Path_5169" data-name="Path 5169" d="M564.2,306.062a4.576,4.576,0,1,1-1.819-6.21,4.576,4.576,0,0,1,1.819,6.21" transform="translate(-393.09 -236.386)" fill="#3b265d"/>
              <path id="Path_5170" data-name="Path 5170" d="M495.139,268.293a4.576,4.576,0,1,1-1.819-6.21,4.576,4.576,0,0,1,1.819,6.21" transform="translate(-351.101 -213.422)" fill="#3b265d"/>
              <path id="Path_5171" data-name="Path 5171" d="M474.161,365.04a4.576,4.576,0,1,1-1.819-6.211,4.576,4.576,0,0,1,1.819,6.211" transform="translate(-338.346 -272.246)" fill="#3b265d"/>
              <path id="Path_5172" data-name="Path 5172" d="M604.336,377.639a4.576,4.576,0,1,0,6.211-1.819,4.576,4.576,0,0,0-6.211,1.819" transform="translate(-422.377 -282.577)" fill="#3b265d"/>
              <path id="Path_5173" data-name="Path 5173" d="M640.533,475.5a4.576,4.576,0,1,0,6.211-1.819,4.576,4.576,0,0,0-6.211,1.819" transform="translate(-444.385 -342.076)" fill="#3b265d"/>
              <path id="Path_5174" data-name="Path 5174" d="M397.159,264.332a4.576,4.576,0,1,0,6.21-1.819,4.576,4.576,0,0,0-6.21,1.819" transform="translate(-296.408 -213.684)" fill="#3b265d"/>
              <path id="Path_5175" data-name="Path 5175" d="M288.516,298.943a4.576,4.576,0,1,0,6.21-1.819,4.576,4.576,0,0,0-6.21,1.819" transform="translate(-230.351 -234.728)" fill="#3b265d"/>
              <path id="Path_5176" data-name="Path 5176" d="M384.97,633.775a4.576,4.576,0,1,0-6.21,1.819,4.576,4.576,0,0,0,6.21-1.819" transform="translate(-284.115 -435.643)" fill="#3b265d"/>
              <path id="Path_5177" data-name="Path 5177" d="M315.911,596.006a4.576,4.576,0,1,0-6.211,1.819,4.576,4.576,0,0,0,6.211-1.819" transform="translate(-242.126 -412.679)" fill="#3b265d"/>
              <path id="Path_5178" data-name="Path 5178" d="M389.4,529.753a4.576,4.576,0,1,0-6.211,1.819,4.576,4.576,0,0,0,6.211-1.819" transform="translate(-286.81 -372.396)" fill="#3b265d"/>
              <path id="Path_5179" data-name="Path 5179" d="M466.892,628.953a4.576,4.576,0,1,1,1.819,6.21,4.576,4.576,0,0,1-1.819-6.21" transform="translate(-338.808 -435.381)" fill="#3b265d"/>
              <path id="Path_5180" data-name="Path 5180" d="M568.813,606.634a4.576,4.576,0,1,1,1.819,6.211,4.576,4.576,0,0,1-1.819-6.211" transform="translate(-400.778 -421.811)" fill="#3b265d"/>
              <path id="Path_5181" data-name="Path 5181" d="M521.54,495.623a4.576,4.576,0,1,1,1.819,6.21,4.576,4.576,0,0,1-1.819-6.21" transform="translate(-372.035 -354.314)" fill="#3b265d"/>
              <path id="Path_5182" data-name="Path 5182" d="M434.331,442.606a4.576,4.576,0,1,1,1.819,6.211,4.576,4.576,0,0,1-1.819-6.211" transform="translate(-319.01 -322.079)" fill="#3b265d"/>
              <path id="Path_5183" data-name="Path 5183" d="M259.714,515.646a4.576,4.576,0,1,1,1.819,6.21,4.576,4.576,0,0,1-1.819-6.21" transform="translate(-212.839 -366.489)" fill="#3b265d"/>
              <path id="Path_5184" data-name="Path 5184" d="M230.239,405.5a4.576,4.576,0,1,1,1.819,6.21,4.576,4.576,0,0,1-1.819-6.21" transform="translate(-194.917 -299.517)" fill="#3b265d"/>
              <path id="Path_5185" data-name="Path 5185" d="M338.7,392.079a4.576,4.576,0,1,1,1.819,6.21,4.576,4.576,0,0,1-1.819-6.21" transform="translate(-260.865 -291.357)" fill="#3b265d"/>
              <path id="Path_5186" data-name="Path 5186" d="M303.51,701.287a4.576,4.576,0,1,0-6.21,1.82,4.575,4.575,0,0,0,6.21-1.82" transform="translate(-234.586 -476.692)" fill="#3b265d"/>
              <path id="Path_5187" data-name="Path 5187" d="M186.823,583.952a4.576,4.576,0,1,0-6.21,1.819,4.576,4.576,0,0,0,6.21-1.819" transform="translate(-163.637 -405.35)" fill="#3b265d"/>
              <path id="Path_5188" data-name="Path 5188" d="M149.591,441.177a4.576,4.576,0,1,0-6.21,1.819,4.576,4.576,0,0,0,6.21-1.819" transform="translate(-141 -318.539)" fill="#3b265d"/>
              <path id="Path_5189" data-name="Path 5189" d="M456.243,731.3a4.576,4.576,0,1,1,1.819,6.21,4.576,4.576,0,0,1-1.819-6.21" transform="translate(-332.333 -497.611)" fill="#3b265d"/>
              <path id="Path_5190" data-name="Path 5190" d="M596.543,685.617a4.576,4.576,0,1,1,1.819,6.211,4.576,4.576,0,0,1-1.819-6.211" transform="translate(-417.639 -469.835)" fill="#3b265d"/>
              <path id="Path_5191" data-name="Path 5191" d="M702.383,573.188a4.576,4.576,0,1,0,6.211-1.819,4.576,4.576,0,0,0-6.211,1.819" transform="translate(-481.992 -401.476)" fill="#3b265d"/>
              <path id="Path_5192" data-name="Path 5192" d="M211.631,367.854a.678.678,0,0,1-.348-.674l4.78-40.578-49.908-4.66a.678.678,0,0,1-.357-1.207l30.988-24.475-45.538-30.393a.678.678,0,0,1,.151-1.2l34.075-12.022-19.75-45.777a.678.678,0,0,1,.7-.942l42.056,4.586-3.953-43.1a.678.678,0,0,1,1.045-.63l45.752,29.8,8.2-47.254a.678.678,0,0,1,1.26-.215l26.455,47.34,35.891-33.806a.677.677,0,0,1,.79-.1h0a.679.679,0,0,1,.339.722l-9.295,48.378,53.694-1.444a.678.678,0,0,1,.465,1.188l-34.863,30.55,49.558,22.328a.678.678,0,0,1-.011,1.241l-35.6,15.282,23.818,37.622a.678.678,0,0,1-.408,1.02l-51.635,12.929,10.623,30.258a.678.678,0,0,1-.911.846l-49.971-21.84-4.078,39.195a.678.678,0,0,1-1.209.346l-30.655-39.4-31.392,26.017a.677.677,0,0,1-.757.074h0m5.512-42.457a.677.677,0,0,1,.348.674l-4.663,39.586,30.626-25.382a.678.678,0,0,1,.968.105L274.472,379l4-38.442a.678.678,0,0,1,.946-.551l49.393,21.588L318.457,332.1a.677.677,0,0,1,.475-.882l51.447-12.882-23.742-37.5a.678.678,0,0,1,.305-.985l34.915-14.988-49.114-22.129a.678.678,0,0,1-.168-1.128L366.817,211.6l-52.659,1.416a.678.678,0,0,1-.684-.806l9.058-47.148-35,32.964a.678.678,0,0,1-1.057-.163l-25.946-46.43-8.053,46.384a.678.678,0,0,1-1.038.452L206,168.675l3.9,42.533a.678.678,0,0,1-.748.736l-41.724-4.55,19.577,45.375a.678.678,0,0,1-.4.908l-33.482,11.813,45.186,30.159a.678.678,0,0,1,.044,1.1l-30.391,24,48.914,4.567a.684.684,0,0,1,.262.08" transform="translate(-147.047 -144.861)" fill="#3b265d"/>
              <path id="Path_5193" data-name="Path 5193" d="M211.631,367.854a.681.681,0,0,1-.156-.116l-45.739-45.993a.676.676,0,0,1-.175-.307l-14.594-55.965a.672.672,0,0,1,0-.336l14.722-58.707a.68.68,0,0,1,.176-.312l38.852-39.252a.677.677,0,0,1,.272-.168l54.994-17.906a.678.678,0,0,1,.353-.018l63.4,13.7a.678.678,0,0,1,.35.2l45.083,47.74a.685.685,0,0,1,.161.285L384.194,264.7a.675.675,0,0,1,.007.328l-12.087,53.889a.677.677,0,0,1-.168.316L330.459,363.3a.679.679,0,0,1-.283.18l-54.994,17.906a.675.675,0,0,1-.352.018l-63.015-13.485a.675.675,0,0,1-.183-.068m-44.8-46.936,45.468,45.72,62.64,13.405,54.656-17.8,41.241-43.808L382.842,264.9l-14.774-53.68-44.823-47.464-63.018-13.614-54.664,17.8-38.606,39L152.323,265.3Z" transform="translate(-147.047 -144.861)" fill="#3b265d"/>
              <path id="Path_5194" data-name="Path 5194" d="M297.48,416l-27.07-14.8a.678.678,0,0,1-.129-1.1l27.637-24.916L251.8,371.5a.679.679,0,0,1-.6-.5l-11.554-43.175a.677.677,0,0,1,.06-.5l22.843-41.768a.678.678,0,0,1,1.192,0l19.026,35.308,22.347-48.835a.678.678,0,0,1,.613-.4l35.258-.169a.673.673,0,0,1,.328.083l27.07,14.8a.678.678,0,0,1,.046,1.162l-35.292,23.118a.678.678,0,0,1-.743-1.134L366.741,287l-25.924-14.178-34.65.166-22.734,49.68a.678.678,0,0,1-1.213.04L263.14,287.3l-22.113,40.434,11.359,42.45,47.21,3.77a.678.678,0,0,1,.4,1.179l-28.1,25.33,26.078,14.262,34.631-.166,21.249-51.844a.678.678,0,0,1,1.251-.008l17.983,42.227,27.442-50.177a.678.678,0,1,1,1.189.65l-28.113,51.4a.678.678,0,0,1-1.218-.06L354.5,364.733l-20.805,50.761a.678.678,0,0,1-.624.421l-35.259.169a.678.678,0,0,1-.328-.083" transform="translate(-200.965 -219.47)" fill="#3b265d"/>
              <path id="Path_5195" data-name="Path 5195" d="M297.481,474.824a.678.678,0,0,1-.352-.623l1.737-40.775a.675.675,0,0,1,.106-.336l19.589-30.609-66.443,27.792a.678.678,0,0,1-.833-.991l30.185-47.22-41.084,5.083a.678.678,0,0,1-.167-1.346l42.475-5.255,49.91-12.311a.681.681,0,0,1,.245-.015l54.173,6.66a.678.678,0,0,1,.553.437l14.188,38.358a.678.678,0,0,1-.523.9L354.8,422.433l-56.531,52.294a.678.678,0,0,1-.745.117l-.041-.02m2.732-41.158-1.659,38.948L354.025,421.3a.678.678,0,0,1,.347-.171l45.836-7.753-13.762-37.2-53.639-6.594-49.565,12.225L253.6,428.185l66.445-27.793a.678.678,0,0,1,.833.991Z" transform="translate(-200.966 -278.294)" fill="#3b265d"/>
              <path id="Path_5196" data-name="Path 5196" d="M478.253,363.57l-.027-.016-34.178-20.778a.672.672,0,0,1-.281-.327v-.014a.676.676,0,0,1,0-.489l12.445-32.074L464.419,272a.678.678,0,0,1,1.325.287l-8.222,37.923a.722.722,0,0,1-.031.1l-11.913,30.7,65.212-24.921a.678.678,0,0,1,.8,1.023l-32.455,46.247a.678.678,0,0,1-.88.205m-32.324-21.237,32.459,19.733L509.2,318.152Z" transform="translate(-325.058 -219.47)" fill="#3b265d"/>
              <path id="Path_5197" data-name="Path 5197" d="M298.253,286.737a.678.678,0,0,1,.12-1.241l42.586-13.566a.678.678,0,0,1,.757.251l27.036,37.754a.678.678,0,0,1-1.1.789L340.9,273.371l-42.116,13.416a.675.675,0,0,1-.531-.051" transform="translate(-236.398 -219.732)" fill="#3b265d"/>
            </g>
          </g>
        </g>
        <g id="Group_2406" data-name="Group 2406" transform="translate(114.983 113.454)" opacity="0.15">
          <g id="Group_2405" data-name="Group 2405">
            <g id="Group_2404" data-name="Group 2404" clip-path="url(#clip-path-5)">
              <path id="Path_5198" data-name="Path 5198" d="M582.423,379.729a2.327,2.327,0,1,1,1.108-3.1,2.327,2.327,0,0,1-1.108,3.1" transform="translate(-467.089 -341.644)" fill="#3b265d"/>
              <path id="Path_5199" data-name="Path 5199" d="M526.32,317.009a2.327,2.327,0,1,1,1.108-3.1,2.327,2.327,0,0,1-1.108,3.1" transform="translate(-432.977 -303.509)" fill="#3b265d"/>
              <path id="Path_5200" data-name="Path 5200" d="M454.944,293.87a2.327,2.327,0,1,1,1.107-3.1,2.327,2.327,0,0,1-1.107,3.1" transform="translate(-389.579 -289.44)" fill="#3b265d"/>
              <path id="Path_5201" data-name="Path 5201" d="M384.236,305.444a2.327,2.327,0,1,1,1.108-3.1,2.327,2.327,0,0,1-1.108,3.1" transform="translate(-346.587 -296.477)" fill="#3b265d"/>
              <path id="Path_5202" data-name="Path 5202" d="M593.125,458.156a2.327,2.327,0,1,0,3.1,1.108,2.327,2.327,0,0,0-3.1-1.108" transform="translate(-474.807 -391.887)" fill="#3b265d"/>
              <path id="Path_5203" data-name="Path 5203" d="M565.77,528.024a2.327,2.327,0,1,0,3.1,1.108,2.327,2.327,0,0,0-3.1-1.108" transform="translate(-458.174 -434.368)" fill="#3b265d"/>
              <path id="Path_5204" data-name="Path 5204" d="M534.98,424.168a2.327,2.327,0,1,1,1.108-3.1,2.327,2.327,0,0,1-1.108,3.1" transform="translate(-438.242 -368.664)" fill="#3b265d"/>
              <path id="Path_5205" data-name="Path 5205" d="M517.857,387.988a2.327,2.327,0,1,1,1.108-3.1,2.327,2.327,0,0,1-1.108,3.1" transform="translate(-427.831 -346.665)" fill="#3b265d"/>
              <path id="Path_5206" data-name="Path 5206" d="M480.31,421.522a2.327,2.327,0,1,1,1.108-3.1,2.327,2.327,0,0,1-1.108,3.1" transform="translate(-405.002 -367.055)" fill="#3b265d"/>
              <path id="Path_5207" data-name="Path 5207" d="M530.1,465.612a2.327,2.327,0,1,0,3.1,1.108,2.327,2.327,0,0,0-3.1-1.108" transform="translate(-436.486 -396.42)" fill="#3b265d"/>
              <path id="Path_5208" data-name="Path 5208" d="M515.745,516.691a2.327,2.327,0,1,0,3.1,1.108,2.327,2.327,0,0,0-3.1-1.108" transform="translate(-427.758 -427.478)" fill="#3b265d"/>
              <path id="Path_5209" data-name="Path 5209" d="M478.729,357.074a2.327,2.327,0,1,0,3.1,1.108,2.327,2.327,0,0,0-3.1-1.108" transform="translate(-405.251 -330.427)" fill="#3b265d"/>
              <path id="Path_5210" data-name="Path 5210" d="M423.687,338.842a2.327,2.327,0,1,0,3.1,1.108,2.327,2.327,0,0,0-3.1-1.108" transform="translate(-371.784 -319.341)" fill="#3b265d"/>
              <path id="Path_5211" data-name="Path 5211" d="M363.295,505.427a2.327,2.327,0,1,0-3.1-1.108,2.327,2.327,0,0,0,3.1,1.108" transform="translate(-333.854 -418.071)" fill="#3b265d"/>
              <path id="Path_5212" data-name="Path 5212" d="M346.171,469.248a2.327,2.327,0,1,0-3.1-1.108,2.327,2.327,0,0,0,3.1,1.108" transform="translate(-323.442 -396.073)" fill="#3b265d"/>
              <path id="Path_5213" data-name="Path 5213" d="M396.209,463.955a2.327,2.327,0,1,0-3.1-1.108,2.327,2.327,0,0,0,3.1,1.108" transform="translate(-353.866 -392.855)" fill="#3b265d"/>
              <path id="Path_5214" data-name="Path 5214" d="M398.44,527.928a2.327,2.327,0,1,1-1.108,3.1,2.327,2.327,0,0,1,1.108-3.1" transform="translate(-356.434 -434.31)" fill="#3b265d"/>
              <path id="Path_5215" data-name="Path 5215" d="M447.043,549.208a2.327,2.327,0,1,1-1.108,3.1,2.327,2.327,0,0,1,1.108-3.1" transform="translate(-385.985 -447.249)" fill="#3b265d"/>
              <path id="Path_5216" data-name="Path 5216" d="M460.773,489.407a2.327,2.327,0,1,1-1.108,3.1,2.327,2.327,0,0,1,1.108-3.1" transform="translate(-394.333 -410.888)" fill="#3b265d"/>
              <path id="Path_5217" data-name="Path 5217" d="M440.74,441.53a2.327,2.327,0,1,1-1.108,3.1,2.327,2.327,0,0,1,1.108-3.1" transform="translate(-382.153 -381.778)" fill="#3b265d"/>
              <path id="Path_5218" data-name="Path 5218" d="M347.069,419.39a2.327,2.327,0,1,1-1.108,3.1,2.327,2.327,0,0,1,1.108-3.1" transform="translate(-325.199 -368.316)" fill="#3b265d"/>
              <path id="Path_5219" data-name="Path 5219" d="M367.863,365.264a2.327,2.327,0,1,1-1.108,3.1,2.327,2.327,0,0,1,1.108-3.1" transform="translate(-337.842 -335.406)" fill="#3b265d"/>
              <path id="Path_5220" data-name="Path 5220" d="M416.5,392.16a2.327,2.327,0,1,1-1.108,3.1,2.327,2.327,0,0,1,1.108-3.1" transform="translate(-367.413 -351.76)" fill="#3b265d"/>
              <path id="Path_5221" data-name="Path 5221" d="M309.6,508.856a2.327,2.327,0,1,0-3.1-1.108,2.327,2.327,0,0,0,3.1,1.108" transform="translate(-301.208 -420.156)" fill="#3b265d"/>
              <path id="Path_5222" data-name="Path 5222" d="M296.664,425.706a2.327,2.327,0,1,0-3.1-1.108,2.328,2.328,0,0,0,3.1,1.108" transform="translate(-293.341 -369.599)" fill="#3b265d"/>
              <path id="Path_5223" data-name="Path 5223" d="M324.019,355.838a2.327,2.327,0,1,0-3.1-1.108,2.327,2.327,0,0,0,3.1,1.108" transform="translate(-309.973 -327.118)" fill="#3b265d"/>
              <path id="Path_5224" data-name="Path 5224" d="M363.47,566.853a2.327,2.327,0,1,1-1.108,3.1,2.327,2.327,0,0,1,1.108-3.1" transform="translate(-335.171 -457.977)" fill="#3b265d"/>
              <path id="Path_5225" data-name="Path 5225" d="M434.845,589.992a2.327,2.327,0,1,1-1.108,3.1,2.327,2.327,0,0,1,1.108-3.1" transform="translate(-378.569 -472.046)" fill="#3b265d"/>
              <path id="Path_5226" data-name="Path 5226" d="M511.993,575.37a2.327,2.327,0,1,0,3.1,1.108,2.327,2.327,0,0,0-3.1-1.108" transform="translate(-425.476 -463.156)" fill="#3b265d"/>
              <path id="Path_5227" data-name="Path 5227" d="M303.5,379.26a.346.346,0,0,1,.058-.381l14.095-15.266-19.141-16.834a.345.345,0,0,1,.214-.6l20.064-.808-9.651-26.115a.345.345,0,0,1,.422-.45l17.612,5.238,5.556-24.736a.345.345,0,0,1,.568-.18l15.932,14.457,11.256-18.914a.345.345,0,0,1,.619.053l9.917,25.935,17.5-16.989a.345.345,0,0,1,.582.288l-3.265,27.384,24.87-3.181a.345.345,0,0,1,.355.194h0a.344.344,0,0,1-.076.4l-18.283,17.126,22.522,15.454a.345.345,0,0,1-.164.628L391.592,364.1l13.716,24a.345.345,0,0,1-.376.508l-19.214-4.353-1.445,22.6a.345.345,0,0,1-.473.3l-25.108-10.113-4.673,15.624a.345.345,0,0,1-.628.076l-14.032-23.92-13.392,14.907a.345.345,0,0,1-.6-.219l-.837-25.371-20.691,1.321a.346.346,0,0,1-.334-.2h0m14.957-15.821a.345.345,0,0,1-.058.381l-13.75,14.893,20.187-1.289a.344.344,0,0,1,.367.332l.821,24.87,13.135-14.62a.345.345,0,0,1,.554.056l13.869,23.644,4.554-15.228a.344.344,0,0,1,.459-.221l25.016,10.077,1.44-22.525a.345.345,0,0,1,.421-.314l18.844,4.269-13.593-23.784a.345.345,0,0,1,.268-.514l23.057-2.11L391.964,346.2a.344.344,0,0,1-.041-.536l17.818-16.69-24.251,3.1a.345.345,0,0,1-.386-.383l3.2-26.857L371.13,321.513a.345.345,0,0,1-.562-.124l-9.85-25.758L349.611,314.3a.345.345,0,0,1-.528.079l-15.806-14.342-5.508,24.519a.345.345,0,0,1-.435.255l-17.306-5.147,9.576,25.914a.345.345,0,0,1-.309.464l-19.677.792,18.759,16.5a.346.346,0,0,1,.084.111" transform="translate(-296.417 -292.515)" fill="#3b265d"/>
              <path id="Path_5228" data-name="Path 5228" d="M303.5,379.26a.358.358,0,0,1-.029-.094L298.4,346.573a.356.356,0,0,1,.02-.179l10.722-27.387a.346.346,0,0,1,.1-.139l23.6-19.753a.343.343,0,0,1,.166-.076l27.716-4.537a.345.345,0,0,1,.162.012l27.977,9.07a.34.34,0,0,1,.15.1l21.991,24.585a.348.348,0,0,1,.085.185l4.28,33.116a.355.355,0,0,1-.019.165L405.331,388.4a.355.355,0,0,1-.095.138l-21.08,18.559a.35.35,0,0,1-.163.08l-30.24,5.731a.345.345,0,0,1-.171-.011l-27.977-9.07a.338.338,0,0,1-.15-.1l-21.9-24.382a.34.34,0,0,1-.055-.083m-4.4-32.7,5.042,32.4L325.906,403.2l27.806,9.014,30.06-5.7,20.944-18.439,9.966-26.5-4.254-32.924-21.858-24.435L360.76,295.2,333.219,299.7,309.755,319.34Z" transform="translate(-296.417 -292.516)" fill="#3b265d"/>
              <path id="Path_5229" data-name="Path 5229" d="M354.652,407.817l-6.712-14.181a.345.345,0,0,1,.276-.49l18.817-1.99-17.873-15.3a.344.344,0,0,1-.1-.385l8.151-21.216a.343.343,0,0,1,.174-.188l21.882-10.357a.345.345,0,0,1,.489.358l-2.726,20.213,23.79-13.413a.345.345,0,0,1,.37.021l14.557,10.469a.343.343,0,0,1,.11.132l6.712,14.181a.344.344,0,0,1-.328.491l-21.43-1.037a.345.345,0,0,1,.033-.689l20.856,1.009-6.428-13.582-14.305-10.288-24.2,13.645a.345.345,0,0,1-.511-.346l2.733-20.27L357.807,354.63l-8.014,20.86,18.3,15.661a.345.345,0,0,1-.188.6l-19.13,2.024,6.466,13.662,14.3,10.282,24.238-14.978a.345.345,0,0,1,.517.37l-5.223,22.748,26.287-12.442a.345.345,0,0,1,.3.623l-26.93,12.746a.345.345,0,0,1-.484-.389l5.2-22.636L369.7,418.432a.345.345,0,0,1-.383-.013L354.762,407.95a.35.35,0,0,1-.11-.132" transform="translate(-326.518 -322.417)" fill="#3b265d"/>
              <path id="Path_5230" data-name="Path 5230" d="M356.408,423.882a.344.344,0,0,1,.042-.362l12.9-16.256a.345.345,0,0,1,.145-.107l17.208-6.738-35.643-8.424a.345.345,0,0,1-.046-.657l26.532-10.406-18.422-10.188a.345.345,0,0,1,.334-.6L378.5,380.674l24.214,9.853a.348.348,0,0,1,.105.067l20.3,18.931a.345.345,0,0,1,.1.346l-5.627,20.022a.346.346,0,0,1-.485.216l-21.456-10.649-38.888,4.618a.344.344,0,0,1-.342-.174l-.011-.02m13.425-16.117L357.51,423.294l38.159-4.532a.351.351,0,0,1,.194.033l21.175,10.51,5.457-19.419-20.1-18.745-24.046-9.784-26.059,10.22L387.936,400a.345.345,0,0,1,.047.657Z" transform="translate(-328.274 -338.482)" fill="#3b265d"/>
              <path id="Path_5231" data-name="Path 5231" d="M452.351,430.511l-.007-.015-7.851-18.764a.339.339,0,0,1-.018-.218h0a.344.344,0,0,1,.147-.2l14.707-9.476,14.7-13.127a.345.345,0,0,1,.459.514L459.77,402.362a.32.32,0,0,1-.043.033l-14.077,9.071,34.278,9.238a.345.345,0,0,1,.022.659l-27.175,9.327a.345.345,0,0,1-.423-.178m-6.952-18.4,7.457,17.82,25.8-8.856Z" transform="translate(-385.228 -349.741)" fill="#3b265d"/>
              <path id="Path_5232" data-name="Path 5232" d="M427.447,344.168a.345.345,0,0,1,.42-.475l21.575,7.147a.346.346,0,0,1,.236.33l-.161,23.613a.345.345,0,1,1-.689,0l.159-23.362-21.337-7.068a.344.344,0,0,1-.2-.18" transform="translate(-374.86 -322.417)" fill="#3b265d"/>
            </g>
          </g>
        </g>
        <path id="Path_5233" data-name="Path 5233" d="M439.743,414.75a32.938,32.938,0,1,1-32.937-32.937,32.937,32.937,0,0,1,32.937,32.937" transform="translate(-227.32 -232.151)" fill="#fff"/>
        <path id="Path_5234" data-name="Path 5234" d="M406.805,383.059a31.692,31.692,0,1,1-31.692,31.692,31.728,31.728,0,0,1,31.692-31.692m0-1.246a32.938,32.938,0,1,0,32.937,32.937,32.937,32.937,0,0,0-32.937-32.937" transform="translate(-227.32 -232.151)" fill="#3b265d"/>
        <path id="Path_5235" data-name="Path 5235" d="M411.88,442.764v10.9a7.311,7.311,0,0,1-2.012,5.5,9.548,9.548,0,0,1-11.492.056,7.173,7.173,0,0,1-1.987-5.448V442.764H401.3v10.625a4.351,4.351,0,0,0,.719,2.786,3.1,3.1,0,0,0,4.291.006,4.612,4.612,0,0,0,.675-2.817v-10.6Z" transform="translate(-241.014 -269.211)" fill="#265d3b"/>
        <path id="Path_5236" data-name="Path 5236" d="M445.609,442.764h6.315a10.742,10.742,0,0,1,5.479,1.1,3.715,3.715,0,0,1,1.789,3.411,4.315,4.315,0,0,1-.78,2.6,3.48,3.48,0,0,1-2.056,1.387v.124a4.217,4.217,0,0,1,2.439,1.486,4.484,4.484,0,0,1,.755,2.7,4.624,4.624,0,0,1-1.851,3.882,8.107,8.107,0,0,1-5.046,1.418h-7.046Zm4.891,6.947h1.473a2.663,2.663,0,0,0,1.628-.433,1.51,1.51,0,0,0,.576-1.288q0-1.523-2.3-1.523H450.5Zm0,3.579v3.8h1.721q2.291,0,2.291-1.932a1.662,1.662,0,0,0-.613-1.387,2.823,2.823,0,0,0-1.777-.483Z" transform="translate(-270.941 -269.211)" fill="#265d3b"/>
        <path id="Path_5237" data-name="Path 5237" d="M499.736,454.967a5.338,5.338,0,0,1-.855,2.99,5.6,5.6,0,0,1-2.464,2.031,9.139,9.139,0,0,1-3.777.724,15.277,15.277,0,0,1-3.034-.254,11.251,11.251,0,0,1-2.551-.885v-4.359a14.547,14.547,0,0,0,2.91,1.121,10.833,10.833,0,0,0,2.774.4,2.7,2.7,0,0,0,1.6-.378,1.162,1.162,0,0,0,.508-.972,1.068,1.068,0,0,0-.2-.65,2.384,2.384,0,0,0-.657-.564q-.452-.285-2.408-1.164a11.552,11.552,0,0,1-2.656-1.56,4.788,4.788,0,0,1-1.313-1.734,5.753,5.753,0,0,1-.427-2.316,4.641,4.641,0,0,1,1.82-3.9,8.024,8.024,0,0,1,5-1.4,14.042,14.042,0,0,1,5.733,1.3l-1.5,3.777a10.858,10.858,0,0,0-4.384-1.164,2.285,2.285,0,0,0-1.387.334,1.011,1.011,0,0,0-.434.83,1.2,1.2,0,0,0,.551.953,20.982,20.982,0,0,0,2.99,1.536,8.272,8.272,0,0,1,3.251,2.26,4.908,4.908,0,0,1,.91,3.04" transform="translate(-296.141 -268.808)" fill="#265d3b"/>
        <path id="Path_5238" data-name="Path 5238" d="M612.427,215.4a25.467,25.467,0,1,1-25.467-25.467A25.467,25.467,0,0,1,612.427,215.4" transform="translate(-341.401 -115.484)" fill="#fff"/>
        <path id="Path_5239" data-name="Path 5239" d="M586.96,190.9a24.5,24.5,0,1,1-24.5,24.5,24.532,24.532,0,0,1,24.5-24.5m0-.963A25.467,25.467,0,1,0,612.427,215.4a25.468,25.468,0,0,0-25.467-25.467" transform="translate(-341.401 -115.484)" fill="#3b265d"/>
        <path id="Path_5240" data-name="Path 5240" d="M616.885,207.71h-6.059a1.969,1.969,0,0,0,.134-.449l1.21-10.9a.672.672,0,0,0-.664-.748h-1.523a2.027,2.027,0,0,0-2,1.732l-1.1,7.68h-7.484a2.017,2.017,0,0,0-2.017,2.017v.672H595.67a2.678,2.678,0,0,0-2.315-4.034H589.9l-4.124-3.3a3.343,3.343,0,0,0-.484-.321v-.583a6.152,6.152,0,1,0-5.378-1.741v1.977A3.361,3.361,0,0,0,577.219,203v14.118h-1.344V207.038a.672.672,0,0,0-1.345,0v20.169a.672.672,0,0,0,1.345,0v-8.74h8.068v8.74a.672.672,0,1,0,1.344,0v-8.74h1.344v6.723a2.689,2.689,0,0,0,5.378,0V214.863a2.016,2.016,0,0,0-1.622-1.978l-2.435-.487a.634.634,0,0,0,.023-.117v-3.563l.269.2a.671.671,0,0,0,.4.134H594.7v18.152a.672.672,0,1,0,1.344,0V211.744h17.48v15.463a.672.672,0,0,0,1.345,0V209.055h2.017a.672.672,0,1,0,0-1.344m-35.632-8.948a6.1,6.1,0,0,0,2.689.788v.115c-.09-.007-.18-.023-.269-.023h-2.42Zm3.021-10.1a4.754,4.754,0,0,1,.066,9.508h-.133a4.754,4.754,0,0,1,.067-9.508m5.853,25.545a.673.673,0,0,1,.538.659V225.19a1.345,1.345,0,1,1-2.689,0v-7.4a.672.672,0,0,0-.672-.672h-8.74v-5.231Zm-1.255-6.494-5.2-3.9a.672.672,0,1,0-.807,1.076l3.765,2.823v4.424l-8.068-1.613V203a2.017,2.017,0,0,1,2.017-2.017h3.093a2.015,2.015,0,0,1,1.26.443l4.3,3.446a.669.669,0,0,0,.421.147h2.353v2.688Zm5.646-.672a1.344,1.344,0,0,1-1.165.672v-2.689a1.344,1.344,0,0,1,1.165,2.017m4.886-.672h8.067a.672.672,0,0,0,.672-.577l1.179-8.258a.672.672,0,0,1,.672-.577h.772l-1.129,10.16h0a.672.672,0,0,1-.672.6H598.733v-.673a.672.672,0,0,1,.673-.672m14.118,4.034h-17.48v-1.344h17.48Z" transform="translate(-349.327 -113.864)" fill="#265d3b"/>
        <path id="Path_5241" data-name="Path 5241" d="M584.821,255.319h8.74a.672.672,0,0,1,.672.672v7.4a1.345,1.345,0,1,0,2.689,0V253.06a.673.673,0,0,0-.538-.659l-11.564-2.313Z" transform="translate(-355.585 -152.059)" fill="#8aa795"/>
        <path id="Path_5242" data-name="Path 5242" d="M595.914,226.3a.667.667,0,0,1-.421-.147l-4.3-3.446a2.016,2.016,0,0,0-1.26-.443h-3.092a2.017,2.017,0,0,0-2.017,2.017V231.8l8.068,1.614v-4.424l-3.765-2.823a.672.672,0,0,1,.807-1.076l5.2,3.9h3.137V226.3Z" transform="translate(-355.585 -135.144)" fill="#fff"/>
        <path id="Path_5243" data-name="Path 5243" d="M594.1,217.471c.089,0,.179.016.269.023v-.115a6.1,6.1,0,0,1-2.689-.788v.88Z" transform="translate(-359.756 -131.692)" fill="#fff"/>
        <path id="Path_5244" data-name="Path 5244" d="M591.948,200.325h.133a4.755,4.755,0,1,0-.133,0" transform="translate(-357.068 -116.021)" fill="#fff"/>
        <path id="Path_5245" data-name="Path 5245" d="M622.554,232.559v2.689a1.345,1.345,0,1,0,0-2.689" transform="translate(-378.527 -141.401)" fill="#fff"/>
        <rect id="Rectangle_1623" data-name="Rectangle 1623" width="17.48" height="1.344" transform="translate(246.716 95.192)" fill="#fff"/>
        <path id="Path_5246" data-name="Path 5246" d="M646.509,222.735a.672.672,0,0,0,.672-.6h0l1.129-10.16h-.772a.672.672,0,0,0-.672.577l-1.179,8.258a.672.672,0,0,1-.672.577h-8.068a.672.672,0,0,0-.672.672v.673Z" transform="translate(-386.87 -128.887)" fill="#fff"/>
        <path id="Path_5247" data-name="Path 5247" d="M846.5,398.8a25.467,25.467,0,1,1-25.467-25.467A25.467,25.467,0,0,1,846.5,398.8" transform="translate(-483.72 -226.995)" fill="#fff"/>
        <path id="Path_5248" data-name="Path 5248" d="M821.029,374.3a24.5,24.5,0,1,1-24.5,24.5,24.531,24.531,0,0,1,24.5-24.5m0-.963A25.467,25.467,0,1,0,846.5,398.8a25.467,25.467,0,0,0-25.467-25.467" transform="translate(-483.72 -226.995)" fill="#3b265d"/>
        <rect id="Rectangle_1624" data-name="Rectangle 1624" width="21.041" height="41.153" transform="translate(319.645 145.966)" fill="#fff"/>
        <rect id="Rectangle_1625" data-name="Rectangle 1625" width="24.135" height="3.713" transform="translate(318.098 143.8)" fill="#265d3b"/>
        <rect id="Rectangle_1626" data-name="Rectangle 1626" width="15.559" height="10.189" transform="translate(322.752 131.355)" fill="#265d3b"/>
        <path id="Path_5249" data-name="Path 5249" d="M841.269,340.9h-1.928v-1.928h-3.3V340.9h-1.927v3.3h1.927v1.928h3.3v-1.928h1.928Z" transform="translate(-507.157 -206.104)" fill="#fff"/>
        <rect id="Rectangle_1627" data-name="Rectangle 1627" width="0.964" height="10.189" transform="translate(324.059 137.001)" fill="#265d3b"/>
        <rect id="Rectangle_1628" data-name="Rectangle 1628" width="0.964" height="10.189" transform="translate(336.039 137.001)" fill="#265d3b"/>
        <rect id="Rectangle_1629" data-name="Rectangle 1629" width="1.239" height="4.819" transform="translate(321.822 149.944)" fill="#265d3b"/>
        <rect id="Rectangle_1630" data-name="Rectangle 1630" width="1.239" height="4.819" transform="translate(326.871 149.944)" fill="#265d3b"/>
        <rect id="Rectangle_1631" data-name="Rectangle 1631" width="1.239" height="4.819" transform="translate(331.92 149.944)" fill="#265d3b"/>
        <rect id="Rectangle_1632" data-name="Rectangle 1632" width="1.239" height="4.819" transform="translate(336.968 149.944)" fill="#265d3b"/>
        <rect id="Rectangle_1633" data-name="Rectangle 1633" width="1.239" height="4.819" transform="translate(321.822 159.169)" fill="#265d3b"/>
        <rect id="Rectangle_1634" data-name="Rectangle 1634" width="1.239" height="4.819" transform="translate(326.871 159.169)" fill="#265d3b"/>
        <rect id="Rectangle_1635" data-name="Rectangle 1635" width="1.239" height="4.819" transform="translate(331.92 159.169)" fill="#265d3b"/>
        <rect id="Rectangle_1636" data-name="Rectangle 1636" width="1.239" height="4.819" transform="translate(336.968 159.169)" fill="#fff"/>
        <rect id="Rectangle_1637" data-name="Rectangle 1637" width="1.239" height="4.819" transform="translate(321.822 168.395)" fill="#265d3b"/>
        <rect id="Rectangle_1638" data-name="Rectangle 1638" width="1.239" height="4.819" transform="translate(326.871 168.395)" fill="#265d3b"/>
        <rect id="Rectangle_1639" data-name="Rectangle 1639" width="1.239" height="4.819" transform="translate(331.92 168.395)" fill="#265d3b"/>
        <rect id="Rectangle_1640" data-name="Rectangle 1640" width="1.239" height="4.819" transform="translate(336.968 168.395)" fill="#fff"/>
        <rect id="Rectangle_1641" data-name="Rectangle 1641" width="1.239" height="4.819" transform="translate(321.822 177.62)" fill="#265d3b"/>
        <rect id="Rectangle_1642" data-name="Rectangle 1642" width="1.239" height="4.819" transform="translate(326.871 177.62)" fill="#265d3b"/>
        <rect id="Rectangle_1643" data-name="Rectangle 1643" width="1.239" height="4.819" transform="translate(331.92 177.62)" fill="#265d3b"/>
        <rect id="Rectangle_1644" data-name="Rectangle 1644" width="1.239" height="4.819" transform="translate(336.968 177.62)" fill="#fff"/>
        <path id="Path_5250" data-name="Path 5250" d="M835.805,413.288H814.764a.455.455,0,0,1-.454-.455V371.681a.454.454,0,0,1,.454-.455h21.041a.454.454,0,0,1,.455.455v41.153a.455.455,0,0,1-.455.455m-20.586-.909h20.132V372.135H815.219Z" transform="translate(-495.119 -225.714)" fill="#265d3b"/>
        <rect id="Rectangle_1645" data-name="Rectangle 1645" width="21.041" height="28.776" transform="translate(335.89 158.343)" fill="#8aa795"/>
        <rect id="Rectangle_1646" data-name="Rectangle 1646" width="24.135" height="3.713" transform="translate(334.343 157.724)" fill="#265d3b"/>
        <rect id="Rectangle_1647" data-name="Rectangle 1647" width="2.203" height="2.203" transform="translate(338.07 163.438)" fill="#fff"/>
        <rect id="Rectangle_1648" data-name="Rectangle 1648" width="2.203" height="2.203" transform="translate(344.886 163.438)" fill="#fff"/>
        <rect id="Rectangle_1649" data-name="Rectangle 1649" width="2.203" height="2.203" transform="translate(351.702 163.438)" fill="#fff"/>
        <rect id="Rectangle_1650" data-name="Rectangle 1650" width="2.203" height="2.203" transform="translate(338.07 168.67)" fill="#fff"/>
        <rect id="Rectangle_1651" data-name="Rectangle 1651" width="2.203" height="2.203" transform="translate(344.886 168.67)" fill="#fff"/>
        <rect id="Rectangle_1652" data-name="Rectangle 1652" width="2.203" height="2.203" transform="translate(351.702 168.67)" fill="#fff"/>
        <rect id="Rectangle_1653" data-name="Rectangle 1653" width="2.203" height="2.203" transform="translate(338.07 173.903)" fill="#fff"/>
        <rect id="Rectangle_1654" data-name="Rectangle 1654" width="2.203" height="2.203" transform="translate(344.886 173.903)" fill="#fff"/>
        <rect id="Rectangle_1655" data-name="Rectangle 1655" width="2.203" height="2.203" transform="translate(351.702 173.903)" fill="#fff"/>
        <rect id="Rectangle_1656" data-name="Rectangle 1656" width="2.203" height="2.203" transform="translate(338.07 179.135)" fill="#fff"/>
        <rect id="Rectangle_1657" data-name="Rectangle 1657" width="2.203" height="2.203" transform="translate(344.886 179.135)" fill="#fff"/>
        <rect id="Rectangle_1658" data-name="Rectangle 1658" width="1.997" height="1.101" transform="translate(344.886 184.368)" fill="#fff"/>
        <rect id="Rectangle_1659" data-name="Rectangle 1659" width="2.203" height="2.203" transform="translate(351.702 179.135)" fill="#fff"/>
        <path id="Path_5251" data-name="Path 5251" d="M877.248,431.579H856.207a.455.455,0,0,1-.454-.455V403.256a.455.455,0,0,1,.454-.455h21.041a.455.455,0,0,1,.455.455v27.869a.455.455,0,0,1-.455.455m-20.586-.909h20.132V403.71H856.662Z" transform="translate(-520.318 -244.912)" fill="#265d3b"/>
        <rect id="Rectangle_1660" data-name="Rectangle 1660" width="42.081" height="2.166" transform="translate(318.872 184.954)" fill="#265d3b"/>
        <path id="Path_5252" data-name="Path 5252" d="M815.6,620.782a25.467,25.467,0,1,1-25.467-25.467A25.467,25.467,0,0,1,815.6,620.782" transform="translate(-464.936 -361.965)" fill="#fff"/>
        <path id="Path_5253" data-name="Path 5253" d="M790.135,596.279a24.5,24.5,0,1,1-24.5,24.5,24.531,24.531,0,0,1,24.5-24.5m0-.964A25.467,25.467,0,1,0,815.6,620.782a25.467,25.467,0,0,0-25.467-25.467" transform="translate(-464.936 -361.965)" fill="#3b265d"/>
        <path id="Path_5254" data-name="Path 5254" d="M847.746,683.34l2.917,1.049,2.6-1.049v-2.106h-5.52Z" transform="translate(-515.449 -414.206)" fill="#fff"/>
        <path id="Path_5255" data-name="Path 5255" d="M818.295,647.356a9.271,9.271,0,0,0-2.731-3.251l-.831,3.321a6.037,6.037,0,0,1,3.562-.07" transform="translate(-495.377 -391.631)" fill="#fff"/>
        <path id="Path_5256" data-name="Path 5256" d="M823.132,640.835a.7.7,0,0,1,.053.116,11.526,11.526,0,0,1,4.167-5.734,7.1,7.1,0,0,1-1.5-3.579,4.7,4.7,0,0,1-2.465.907h-.161a5.218,5.218,0,0,1-2.653-.7,6.891,6.891,0,0,1-1.471,3.379,11.461,11.461,0,0,1,4.027,5.609" transform="translate(-498.035 -384.05)" fill="#fff"/>
        <path id="Path_5257" data-name="Path 5257" d="M820.521,607.038l.109,0h.053a3.776,3.776,0,0,0,2.224-1.153c1.177-1.1,2.726-3.452,3.491-8.415a17.761,17.761,0,0,1-5.8-5.19,13.165,13.165,0,0,1-5.95,5.319h0c.278,2.255,1.506,9.441,5.871,9.441" transform="translate(-495.326 -360.119)" fill="#fff"/>
        <path id="Path_5258" data-name="Path 5258" d="M802.109,577.774a11.478,11.478,0,0,0,6.529-6.883h0c.12-.356.233-.534.348-.534s.23.175.361.523c1.368,3.671,5.065,6.005,6.571,6.831a1.166,1.166,0,0,1,.55,1.115,27.845,27.845,0,0,1-.806,3.82c3.966-1.94,6.638-5.55,6.638-9.676,0-6.17-5.973-11.189-13.314-11.189s-13.314,5.02-13.314,11.189c0,4.075,2.608,7.647,6.494,9.6a26.339,26.339,0,0,1-.668-3.742,1.094,1.094,0,0,1,.611-1.058" transform="translate(-483.787 -341.576)" fill="#8aa795"/>
        <path id="Path_5259" data-name="Path 5259" d="M835.188,647.359a7.109,7.109,0,0,1,1.865-.263,5.243,5.243,0,0,1,1.8.3l-.833-3.333a9.318,9.318,0,0,0-2.833,3.292" transform="translate(-507.814 -391.608)" fill="#fff"/>
        <path id="Path_5260" data-name="Path 5260" d="M851.5,665.246a.986.986,0,1,0,1.9.377h0a.986.986,0,0,0-1.9-.377" transform="translate(-517.686 -404.115)" fill="#fff"/>
        <path id="Path_5261" data-name="Path 5261" d="M813.057,644.258a7.83,7.83,0,0,1,2.184,3.383,6.369,6.369,0,0,1-.038,3.7,2.574,2.574,0,1,1-1.455-.66,4.785,4.785,0,0,0-.016-2.584h0a7.446,7.446,0,0,0-3.112-3.771l1.193,4.768a.788.788,0,0,1-1.345.725c-1.785-1.939-4.557-.656-5.2-.32a19.589,19.589,0,0,0-.538,2.546c0,.026.008,6.506.008,6.506a.789.789,0,1,1-1.577,0v-6.506c-.025-.061-.4-1.813-.662-2.612-.828-.407-3.386-1.437-5.067.387a.789.789,0,0,1-1.345-.726l1.186-4.742a8.343,8.343,0,0,0-3.461,4.223,4.816,4.816,0,0,0-.073,2.32,3.184,3.184,0,0,1,3.237,1.564l2.542,4.693a.789.789,0,0,1-.426,1.117l-1.159.419a.789.789,0,1,1-.536-1.483h0l.3-.107-2.105-3.887a1.672,1.672,0,0,0-2.028-.66,1.428,1.428,0,0,0-1,1.687l1.224,4.273.452-.163a.788.788,0,0,1,.536,1.483l-1.246.45a.788.788,0,0,1-1.026-.524l-1.457-5.084a2.915,2.915,0,0,1,1.206-3.206,6.4,6.4,0,0,1,.045-3.33,8.64,8.64,0,0,1,2.552-3.881,10.663,10.663,0,0,0-7.46,10.159V665.06h33.122V654.414a10.664,10.664,0,0,0-7.453-10.156m5.088,16.6a1.576,1.576,0,0,1-.988,1.463l-2.6,1.049a1.577,1.577,0,0,1-1.122.021l-2.917-1.049a1.577,1.577,0,0,1-1.044-1.484V658.75a1.577,1.577,0,0,1,1.577-1.577h5.52a1.577,1.577,0,0,1,1.577,1.577Z" transform="translate(-478.751 -391.722)" fill="#fff"/>
        <path id="Path_5262" data-name="Path 5262" d="M845.3,677.21a1.577,1.577,0,0,0-1.577,1.577v2.106a1.577,1.577,0,0,0,1.044,1.484l2.917,1.048a1.576,1.576,0,0,0,1.123-.021l2.6-1.048a1.576,1.576,0,0,0,.988-1.463v-2.106a1.578,1.578,0,0,0-1.577-1.577Zm5.52,3.683-2.6,1.049-2.917-1.049v-2.106h5.52Z" transform="translate(-513.002 -411.759)" fill="#265d3b"/>
        <path id="Path_5263" data-name="Path 5263" d="M806.737,599.475a20.905,20.905,0,0,0,2.248-7.346,1.166,1.166,0,0,0-.55-1.115c-1.506-.826-5.2-3.16-6.571-6.831-.13-.348-.247-.523-.361-.523s-.227.178-.348.534h0a11.478,11.478,0,0,1-6.529,6.883,1.094,1.094,0,0,0-.612,1.058,22.076,22.076,0,0,0,1.963,7.275,6.929,6.929,0,0,0,1.426,2.183.8.8,0,0,0-.025.157c-.047.788-.43,2.907-1.6,3.6h-.19a12.224,12.224,0,0,0-12.223,12.223v12.223h36.276V617.57a12.223,12.223,0,0,0-12.2-12.223h-.216c-1.163-.687-1.55-2.807-1.6-3.6a.777.777,0,0,0-.028-.165,11.528,11.528,0,0,0,1.138-2.108m-.226,7.863.833,3.333a5.239,5.239,0,0,0-1.8-.3,7.107,7.107,0,0,0-1.865.263,9.32,9.32,0,0,1,2.833-3.291m-10.883-14.981h0a13.166,13.166,0,0,0,5.95-5.318,17.763,17.763,0,0,0,5.8,5.19c-.765,4.963-2.314,7.315-3.491,8.415a3.777,3.777,0,0,1-2.224,1.153H801.5c-4.364,0-5.593-7.185-5.871-9.441m3.218,10.318h0a5.219,5.219,0,0,0,2.653.7l.148,0h.013a4.7,4.7,0,0,0,2.465-.907,7.1,7.1,0,0,0,1.5,3.579,11.526,11.526,0,0,0-4.167,5.735.686.686,0,0,0-.053-.116,11.461,11.461,0,0,0-4.027-5.609,6.889,6.889,0,0,0,1.471-3.379m-2.355,4.677a9.266,9.266,0,0,1,2.731,3.251,6.037,6.037,0,0,0-3.561.07Zm-11.549,20.863V617.571a10.663,10.663,0,0,1,7.46-10.159,8.647,8.647,0,0,0-2.551,3.881,6.4,6.4,0,0,0-.046,3.331,2.914,2.914,0,0,0-1.206,3.206l1.457,5.084a.789.789,0,0,0,1.027.525l1.245-.45a.789.789,0,0,0-.536-1.483l-.452.163-1.224-4.273a1.428,1.428,0,0,1,1-1.686,1.673,1.673,0,0,1,2.029.66l2.105,3.886-.3.107h0a.789.789,0,1,0,.536,1.483l1.159-.419a.788.788,0,0,0,.426-1.117l-2.542-4.693a3.185,3.185,0,0,0-3.237-1.564,4.813,4.813,0,0,1,.073-2.32,8.345,8.345,0,0,1,3.461-4.223l-1.186,4.742a.789.789,0,0,0,1.345.726c1.681-1.824,4.239-.794,5.068-.387.257.8.637,2.552.662,2.613v6.506a.789.789,0,0,0,1.577,0s-.005-6.48-.008-6.506a19.654,19.654,0,0,1,.538-2.546c.642-.337,3.414-1.62,5.2.319a.788.788,0,0,0,1.345-.725l-1.192-4.768a7.446,7.446,0,0,1,3.111,3.771h0a4.784,4.784,0,0,1,.016,2.583,2.574,2.574,0,1,0,1.455.66,6.376,6.376,0,0,0,.038-3.7,7.835,7.835,0,0,0-2.184-3.383,10.664,10.664,0,0,1,7.453,10.156v10.646Zm27.072-11.829h0a.986.986,0,1,1-.986-.986.985.985,0,0,1,.986.986" transform="translate(-476.304 -354.879)" fill="#265d3b"/>
        <path id="Path_5264" data-name="Path 5264" d="M806.8,558.191c-8.117,0-14.721,5.651-14.721,12.6,0,5.472,4.1,10.14,9.809,11.875a15.921,15.921,0,0,1-.413-1.62c-4.7-1.73-7.989-5.675-7.989-10.254,0-6.17,5.973-11.189,13.314-11.189s13.314,5.02,13.314,11.189c0,4.586-3.3,8.535-8.009,10.261q-.15.8-.337,1.6c5.68-1.748,9.753-6.4,9.753-11.858,0-6.946-6.6-12.6-14.721-12.6" transform="translate(-481.604 -339.393)" fill="#265d3b"/>
        <path id="Path_5265" data-name="Path 5265" d="M360.673,691.3a25.467,25.467,0,1,1-25.467-25.467A25.467,25.467,0,0,1,360.673,691.3" transform="translate(-188.328 -404.844)" fill="#fff"/>
        <path id="Path_5266" data-name="Path 5266" d="M335.206,666.8a24.5,24.5,0,1,1-24.5,24.5,24.531,24.531,0,0,1,24.5-24.5m0-.963A25.467,25.467,0,1,0,360.673,691.3a25.467,25.467,0,0,0-25.467-25.467" transform="translate(-188.328 -404.844)" fill="#3b265d"/>
        <path id="Path_5267" data-name="Path 5267" d="M350.5,713.08V692.732a4.705,4.705,0,0,0-4.706-4.705H316.551a4.706,4.706,0,0,0-4.652,4.081h-2.38v-.673a2.41,2.41,0,0,0-4.82,0v.673h-3.361a.672.672,0,0,0-.517.242l-8.066,9.7h0a.671.671,0,0,0-.154.43v10.453a2.959,2.959,0,0,0-1.721.847,3.025,3.025,0,0,0,2.144,5.163h4.887a6.225,6.225,0,0,0,11.314,0h25.9a6.225,6.225,0,0,0,11.314,0h3.052a3.016,3.016,0,0,0,1.009-5.862ZM313.19,692.732a3.362,3.362,0,0,1,3.361-3.361h29.241a3.362,3.362,0,0,1,3.361,3.361V712.9h-3.18a6.225,6.225,0,0,0-10.386,0h-22.4Zm-7.125-1.344a1.065,1.065,0,1,1,2.131,0v.672h-2.151v-.672Zm-12.1,11.3,7.684-9.237h10.2v19.44h-3.093a6.225,6.225,0,0,0-10.386,0h-4.416V702.721Zm-.941,14.91a1.68,1.68,0,0,1-1.19-2.87,1.653,1.653,0,0,1,1.19-.491h4.705a6.167,6.167,0,0,0-.242,3.361Zm10.541,3.63h0a4.885,4.885,0,1,0-.007,0Zm6.1-3.63a6.162,6.162,0,0,0-.242-3.361h25.5a6.166,6.166,0,0,0-.242,3.361Zm31.083,3.63A4.894,4.894,0,1,1,344.2,719.8a4.886,4.886,0,0,1-3.454,1.434Zm9.922-4.155a1.639,1.639,0,0,1-1.183.491h-2.6a6.159,6.159,0,0,0-.242-3.361h2.843a1.68,1.68,0,0,1,1.68,1.68A1.647,1.647,0,0,1,350.673,717.074Z" transform="translate(-176.323 -418.336)" fill="#265d3b"/>
        <path id="Path_5268" data-name="Path 5268" d="M320.144,752.922a2.877,2.877,0,1,0,2.028.843A2.87,2.87,0,0,0,320.144,752.922Zm0,4.4a1.526,1.526,0,1,1,1.526-1.526A1.526,1.526,0,0,1,320.144,757.325Z" transform="translate(-192.91 -457.794)" fill="#265d3b"/>
        <path id="Path_5269" data-name="Path 5269" d="M415.032,752.922a2.877,2.877,0,1,0,2.028.843A2.87,2.87,0,0,0,415.032,752.922Zm0,4.4a1.526,1.526,0,1,1,1.526-1.526A1.526,1.526,0,0,1,415.032,757.325Z" transform="translate(-250.604 -457.794)" fill="#265d3b"/>
        <path id="Path_5270" data-name="Path 5270" d="M318.165,712.252a.673.673,0,0,0,.672-.672v-6.931a.673.673,0,0,0-.672-.672h-6.931a.673.673,0,0,0-.524.249l-5.572,6.93a.672.672,0,0,0,.524,1.1Zm-6.615-6.931h5.936v5.586h-10.42Z" transform="translate(-185.44 -428.034)" fill="#265d3b"/>
        <path id="Path_5271" data-name="Path 5271" d="M331.365,730.248h-2.89a.672.672,0,0,0,0,1.345h2.89a.672.672,0,0,0,0-1.345" transform="translate(-199.311 -444.008)" fill="#265d3b"/>
        <path id="Path_5272" data-name="Path 5272" d="M374.436,708.1h3.482v3.482a.673.673,0,0,0,.672.673h4.161a.672.672,0,0,0,.672-.673V708.1h3.483a.672.672,0,0,0,.672-.673v-4.154a.673.673,0,0,0-.672-.673h-3.483V699.11a.671.671,0,0,0-.672-.672H378.6a.672.672,0,0,0-.672.672V702.6h-3.489a.672.672,0,0,0-.672.673v4.155h0a.672.672,0,0,0,.672.673Zm.672-4.155h3.482a.672.672,0,0,0,.672-.672v-3.489h2.817v3.489a.672.672,0,0,0,.672.672h3.482v2.81h-3.482a.672.672,0,0,0-.672.672v3.482h-2.81v-3.482a.673.673,0,0,0-.673-.672h-3.489Z" transform="translate(-227.257 -424.666)" fill="#265d3b"/>
        <path id="Path_5273" data-name="Path 5273" d="M332.695,683.429a.672.672,0,0,0,.672-.672v-2.581a.672.672,0,1,0-1.344,0v2.581a.672.672,0,0,0,.672.672Z" transform="translate(-201.878 -413.154)" fill="#265d3b"/>
        <path id="Path_5274" data-name="Path 5274" d="M339.064,686.573a.674.674,0,0,0,.477-.2l1.822-1.821a.673.673,0,0,0-.948-.948l-1.842,1.815a.673.673,0,0,0,.491,1.15Z" transform="translate(-205.739 -415.551)" fill="#265d3b"/>
        <path id="Path_5275" data-name="Path 5275" d="M322.892,686.38a.672.672,0,0,0,.948-.948l-1.822-1.821h0a.672.672,0,0,0-.948.948Z" transform="translate(-195.12 -415.553)" fill="#265d3b"/>
        <path id="Path_5276" data-name="Path 5276" d="M317.984,701.867h-10.2L300.1,711.1l-.014.033v10.171h4.416a6.225,6.225,0,0,1,10.386,0h3.093Zm-3.469,12.47h-2.89a.672.672,0,0,1,0-1.345h2.89a.672.672,0,0,1,0,1.345m1.344-4.039a.671.671,0,0,1-.672.672h-12.5a.672.672,0,0,1-.524-1.1l5.573-6.93a.671.671,0,0,1,.524-.249h6.931a.671.671,0,0,1,.672.672Z" transform="translate(-182.461 -426.751)" fill="#fff"/>
        <path id="Path_5277" data-name="Path 5277" d="M339.569,754.894a6.168,6.168,0,0,1,.241,3.361h25.014a6.167,6.167,0,0,1,.242-3.361Z" transform="translate(-206.466 -458.993)" fill="#fff"/>
        <path id="Path_5278" data-name="Path 5278" d="M310.292,712.993h10.419v-5.586h-5.936Z" transform="translate(-188.665 -430.12)" fill="#fff"/>
        <path id="Path_5279" data-name="Path 5279" d="M317.033,747.794a4.887,4.887,0,0,0-.005,9.774h.005a4.887,4.887,0,0,0,0-9.774m2.023,6.91a2.865,2.865,0,1,1,.841-2.03,2.871,2.871,0,0,1-.841,2.03" transform="translate(-189.791 -454.676)" fill="#8aa795"/>
        <path id="Path_5280" data-name="Path 5280" d="M417.7,756.485a1.526,1.526,0,1,0-.584,2.936h0a1.526,1.526,0,0,0,.584-2.936" transform="translate(-252.69 -459.889)" fill="#fff"/>
        <path id="Path_5281" data-name="Path 5281" d="M322.813,756.485a1.526,1.526,0,1,0-.584,2.936h0a1.526,1.526,0,0,0,.584-2.936" transform="translate(-194.995 -459.889)" fill="#fff"/>
        <path id="Path_5282" data-name="Path 5282" d="M295.111,754.894a1.654,1.654,0,0,0-1.19.491,1.681,1.681,0,0,0,1.19,2.87h4.463a6.171,6.171,0,0,1,.242-3.361Z" transform="translate(-178.411 -458.993)" fill="#fff"/>
        <path id="Path_5283" data-name="Path 5283" d="M437.367,754.809h-2.843a6.16,6.16,0,0,1,.242,3.361h2.6a1.688,1.688,0,0,0,1.68-1.681,1.68,1.68,0,0,0-1.68-1.68" transform="translate(-264.201 -458.941)" fill="#fff"/>
        <path id="Path_5284" data-name="Path 5284" d="M385.135,694.818a3.361,3.361,0,0,0-3.361-3.361H352.532a3.361,3.361,0,0,0-3.361,3.361v20.167h22.4a6.225,6.225,0,0,1,10.386,0h3.179Zm-12.51,8.363a.672.672,0,0,1-.672.672H368.47v3.482a.671.671,0,0,1-.672.672h-4.161a.672.672,0,0,1-.672-.672v-3.482h-3.482a.672.672,0,0,1-.672-.672v-4.154a.672.672,0,0,1,.672-.673h3.489v-3.489a.672.672,0,0,1,.672-.672H367.8a.671.671,0,0,1,.672.672v3.489h3.483a.673.673,0,0,1,.672.673Z" transform="translate(-212.304 -420.422)" fill="#fff"/>
        <path id="Path_5285" data-name="Path 5285" d="M324.6,772.73h0Z" transform="translate(-197.362 -469.837)" fill="#fff"/>
        <path id="Path_5286" data-name="Path 5286" d="M324.609,772.73h0" transform="translate(-197.367 -469.837)" fill="#fff"/>
        <path id="Path_5287" data-name="Path 5287" d="M411.9,747.794a4.888,4.888,0,1,0,3.456,1.432,4.885,4.885,0,0,0-3.456-1.432m2.03,6.91a2.865,2.865,0,1,1,.841-2.03,2.871,2.871,0,0,1-.841,2.03" transform="translate(-247.476 -454.676)" fill="#8aa795"/>
        <path id="Path_5288" data-name="Path 5288" d="M384.361,705.832a.67.67,0,0,1-.2-.475v-3.489h-2.817v3.489a.672.672,0,0,1-.672.672h-3.482v2.81h3.489a.672.672,0,0,1,.673.672v3.482h2.81v-3.482a.672.672,0,0,1,.672-.672h3.482v-2.81h-3.482a.672.672,0,0,1-.475-.2" transform="translate(-229.342 -426.752)" fill="#8aa795"/>
        <path id="Path_5289" data-name="Path 5289" d="M333.093,694.949a1.065,1.065,0,0,0-2.131,0h-.02v.672h2.151Z" transform="translate(-201.22 -421.898)" fill="#fff"/>
        <path id="Path_5290" data-name="Path 5290" d="M371.31,143.2a25.467,25.467,0,1,1-25.467-25.467A25.467,25.467,0,0,1,371.31,143.2" transform="translate(-194.796 -71.586)" fill="#fff"/>
        <path id="Path_5291" data-name="Path 5291" d="M345.843,118.7a24.5,24.5,0,1,1-24.5,24.5,24.531,24.531,0,0,1,24.5-24.5m0-.963A25.467,25.467,0,1,0,371.31,143.2a25.467,25.467,0,0,0-25.467-25.467" transform="translate(-194.796 -71.586)" fill="#3b265d"/>
        <path id="Path_5292" data-name="Path 5292" d="M364.9,117.59a3.191,3.191,0,0,0-3.411,3v1.756a2.811,2.811,0,0,0,.94,2.092,3.636,3.636,0,0,0,2.471.909,3.191,3.191,0,0,0,3.412-3V120.59a3.191,3.191,0,0,0-3.411-3" transform="translate(-219.792 -71.497)" fill="#fff"/>
        <path id="Path_5293" data-name="Path 5293" d="M350.194,144.477a3.191,3.191,0,0,0-3.411,3v1.756a3.44,3.44,0,0,0,6.823,0v-1.756a3.191,3.191,0,0,0-3.411-3" transform="translate(-210.852 -87.845)" fill="#fff"/>
        <path id="Path_5294" data-name="Path 5294" d="M378.592,188.322a.7.7,0,1,1,1.391,0V195.8a3.789,3.789,0,0,0,2.5-3.449,21.392,21.392,0,0,0-.779-6.675c-.89-2.574-2.546-3.826-5.062-3.826h-6.259c-2.517,0-4.173,1.252-5.062,3.826a21.392,21.392,0,0,0-.779,6.675,3.728,3.728,0,0,0,2.295,3.346v-7.379a.7.7,0,0,1,1.391,0v8.118a.68.68,0,0,1,0,.6v1.576h10.361Z" transform="translate(-221.652 -110.572)" fill="#fff"/>
        <path id="Path_5295" data-name="Path 5295" d="M382.05,148.958h0a3.191,3.191,0,0,0-3.411,3v1.756a3.44,3.44,0,0,0,6.823,0v-1.756a3.191,3.191,0,0,0-3.412-3" transform="translate(-230.221 -90.57)" fill="#fff"/>
        <path id="Path_5296" data-name="Path 5296" d="M413.9,144.476a3.191,3.191,0,0,0-3.411,3v1.756a3.44,3.44,0,0,0,6.823,0v-1.756a3.191,3.191,0,0,0-3.411-3" transform="translate(-249.589 -87.845)" fill="#fff"/>
        <path id="Path_5297" data-name="Path 5297" d="M413.968,177.208c-3.033-2.149-9.924-.4-9.993-.381a.686.686,0,0,1-.479-.052,4.528,4.528,0,0,1-1.608.639,6.554,6.554,0,0,1,3.839,4.336,22.532,22.532,0,0,1,.855,7.128,5.346,5.346,0,0,1-3.894,4.944v1.315h10.987v-11.96a.7.7,0,0,1,1.391,0v7.255c1.164-.392,2.573-1.28,2.573-5.239,0-4.631-.515-5.751-3.67-7.986" transform="translate(-244.357 -107.096)" fill="#8aa795"/>
        <path id="Path_5298" data-name="Path 5298" d="M343.847,188.879a22.534,22.534,0,0,1,.855-7.129,6.718,6.718,0,0,1,3.374-4.137,3.476,3.476,0,0,1-.753-.465,5.588,5.588,0,0,1-.558-.316.682.682,0,0,1-.312-.005c-.069-.018-6.96-1.768-9.993.381-3.156,2.235-3.67,3.355-3.67,7.986,0,3.959,1.409,4.846,2.573,5.239v-7.255a.7.7,0,0,1,1.391,0v11.96h10.778V193.75a5.294,5.294,0,0,1-3.685-4.871" transform="translate(-202.344 -107.096)" fill="#8aa795"/>
        <path id="Path_5299" data-name="Path 5299" d="M399.2,117.59a3.191,3.191,0,0,0-3.411,3v1.756a2.812,2.812,0,0,0,.94,2.092,3.637,3.637,0,0,0,2.471.909,3.191,3.191,0,0,0,3.411-3V120.59a3.191,3.191,0,0,0-3.411-3" transform="translate(-240.651 -71.497)" fill="#fff"/>
        <path id="Path_5300" data-name="Path 5300" d="M379.893,148a3.191,3.191,0,0,1,3.411,3v1.756a3.44,3.44,0,0,1-6.823,0V151a3.191,3.191,0,0,1,3.411-3Zm0-1.391a4.565,4.565,0,0,0-4.8,4.391v1.756a4.822,4.822,0,0,0,9.6,0V151a4.566,4.566,0,0,0-4.8-4.391Z" transform="translate(-228.063 -89.14)" fill="#265d3b"/>
        <path id="Path_5301" data-name="Path 5301" d="M348.036,143.517a3.191,3.191,0,0,1,3.411,3v1.756a3.44,3.44,0,0,1-6.823,0v-1.756a3.191,3.191,0,0,1,3.411-3m0-1.391a4.566,4.566,0,0,0-4.8,4.391v1.756a4.822,4.822,0,0,0,9.6,0v-1.756a4.566,4.566,0,0,0-4.8-4.391" transform="translate(-208.694 -86.416)" fill="#265d3b"/>
        <path id="Path_5302" data-name="Path 5302" d="M362.74,116.63a3.191,3.191,0,0,1,3.411,3v1.757a3.191,3.191,0,0,1-3.412,3,3.634,3.634,0,0,1-2.471-.909,2.812,2.812,0,0,1-.94-2.092V119.63a3.191,3.191,0,0,1,3.411-3m0-1.391a4.566,4.566,0,0,0-4.8,4.391v1.756a4.822,4.822,0,0,0,9.6,0V119.63a4.566,4.566,0,0,0-4.8-4.391" transform="translate(-217.634 -70.068)" fill="#265d3b"/>
        <path id="Path_5303" data-name="Path 5303" d="M397.046,116.63a3.191,3.191,0,0,1,3.411,3v1.757a3.191,3.191,0,0,1-3.411,3,3.635,3.635,0,0,1-2.471-.909,2.811,2.811,0,0,1-.94-2.092V119.63a3.191,3.191,0,0,1,3.411-3m0-1.391a4.566,4.566,0,0,0-4.8,4.391v1.756a4.822,4.822,0,0,0,9.605,0V119.63a4.566,4.566,0,0,0-4.8-4.391" transform="translate(-238.493 -70.068)" fill="#265d3b"/>
        <path id="Path_5304" data-name="Path 5304" d="M411.745,143.516a3.191,3.191,0,0,1,3.411,3v1.756a3.44,3.44,0,0,1-6.823,0v-1.756a3.191,3.191,0,0,1,3.411-3m0-1.391a4.566,4.566,0,0,0-4.8,4.391v1.756a4.822,4.822,0,0,0,9.6,0v-1.756a4.566,4.566,0,0,0-4.8-4.391" transform="translate(-247.431 -86.415)" fill="#265d3b"/>
        <path id="Path_5305" data-name="Path 5305" d="M333.483,190.987a.689.689,0,0,1-.191-.027c-1.315-.376-4.051-1.157-4.051-6.719,0-5.078.716-6.612,4.257-9.121,3.561-2.522,10.839-.672,11.147-.593a.7.7,0,0,1-.349,1.346c-.069-.018-6.96-1.768-9.993.381-3.156,2.235-3.67,3.355-3.67,7.986,0,4.512,1.831,5.035,3.042,5.381a.7.7,0,0,1-.19,1.364" transform="translate(-200.186 -105.674)" fill="#265d3b"/>
        <path id="Path_5306" data-name="Path 5306" d="M340.048,206.941a.7.7,0,0,1-.7-.7v-12.03a.7.7,0,1,1,1.391,0v12.03a.7.7,0,0,1-.7.7" transform="translate(-206.334 -117.665)" fill="#265d3b"/>
        <path id="Path_5307" data-name="Path 5307" d="M416.675,190.987a.7.7,0,0,1-.19-1.364c1.211-.346,3.042-.869,3.042-5.381,0-4.631-.515-5.75-3.67-7.986-3.034-2.149-9.924-.4-9.993-.381a.7.7,0,0,1-.349-1.346c.308-.08,7.586-1.93,11.147.593,3.541,2.508,4.257,4.042,4.257,9.121,0,5.561-2.736,6.343-4.051,6.719a.689.689,0,0,1-.191.027" transform="translate(-246.245 -105.674)" fill="#265d3b"/>
        <path id="Path_5308" data-name="Path 5308" d="M432.654,206.941a.7.7,0,0,1-.7-.7v-12.03a.7.7,0,0,1,1.391,0v12.03a.7.7,0,0,1-.7.7" transform="translate(-262.641 -117.665)" fill="#265d3b"/>
        <path id="Path_5309" data-name="Path 5309" d="M371.094,209.6a.7.7,0,0,1-.7-.7V198.472a.7.7,0,0,1,1.391,0V208.9a.7.7,0,0,1-.7.7" transform="translate(-225.211 -120.253)" fill="#265d3b"/>
        <path id="Path_5310" data-name="Path 5310" d="M401.076,209.6a.7.7,0,0,1-.7-.7V198.472a.7.7,0,0,1,1.391,0V208.9a.7.7,0,0,1-.7.7" transform="translate(-243.441 -120.253)" fill="#265d3b"/>
        <path id="Path_5311" data-name="Path 5311" d="M377.268,196.473a.7.7,0,0,1-.162-1.372c.13-.032,3.222-.829,3.222-3.7a21.389,21.389,0,0,0-.779-6.675c-.89-2.575-2.546-3.826-5.062-3.826h-6.258c-2.517,0-4.173,1.251-5.062,3.826a21.389,21.389,0,0,0-.779,6.675c0,2.9,3.19,3.7,3.222,3.7a.7.7,0,0,1-.326,1.352C363.8,196.1,361,194.58,361,191.4a22.543,22.543,0,0,1,.855-7.129c1.092-3.16,3.238-4.762,6.377-4.762h6.258c3.139,0,5.285,1.6,6.377,4.762a22.533,22.533,0,0,1,.855,7.129c0,3.184-2.8,4.7-4.287,5.057a.693.693,0,0,1-.163.02" transform="translate(-219.495 -109.143)" fill="#265d3b"/>
        <path id="Path_5312" data-name="Path 5312" d="M151.687,508.039a25.467,25.467,0,1,1-25.467-25.467,25.467,25.467,0,0,1,25.467,25.467" transform="translate(-61.26 -293.415)" fill="#fff"/>
        <path id="Path_5313" data-name="Path 5313" d="M126.22,483.536a24.5,24.5,0,1,1-24.5,24.5,24.531,24.531,0,0,1,24.5-24.5m0-.963a25.467,25.467,0,1,0,25.467,25.467,25.467,25.467,0,0,0-25.467-25.467" transform="translate(-61.26 -293.415)" fill="#3b265d"/>
        <path id="Path_5314" data-name="Path 5314" d="M145.786,522.676a8.946,8.946,0,0,0-.056-.963H145.3a8.763,8.763,0,0,1,.055.963,28.873,28.873,0,0,1-1.415,6.955h.436a28.972,28.972,0,0,0,1.407-6.955" transform="translate(-87.521 -317.214)" fill="#fff"/>
        <path id="Path_5315" data-name="Path 5315" d="M145.543,502.664l-.087-.61h.514l1.185-1.185v-5.236h-1.5V495.1a3.531,3.531,0,1,1,7.062,0v15.944h.428V495.1a3.959,3.959,0,0,0-7.918,0v.535h-1.5v5.236l1.815,1.815c0-.007,0-.013,0-.02" transform="translate(-87.392 -298.624)" fill="#fff"/>
        <path id="Path_5316" data-name="Path 5316" d="M120.189,547.242a3.21,3.21,0,1,0-3.21-3.21,3.214,3.214,0,0,0,3.21,3.21" transform="translate(-71.126 -328.832)" fill="#fff"/>
        <path id="Path_5317" data-name="Path 5317" d="M170.3,555.558V547.1a2.464,2.464,0,0,0-2.461-2.461H139.909v10.914Z" transform="translate(-85.068 -331.156)" fill="#fff"/>
        <path id="Path_5318" data-name="Path 5318" d="M150.592,536.846a.964.964,0,0,0-.963.963v9.523H103.618V530.319a.963.963,0,1,0-1.926,0v21.936h1.926v-3h46.011v3h1.926V537.809a.964.964,0,0,0-.963-.963" transform="translate(-61.831 -321.861)" fill="#8aa795"/>
        <path id="Path_5319" data-name="Path 5319" d="M122.572,563.752h-8.453a.964.964,0,0,0-.963.963v2.461h9.416Z" transform="translate(-68.801 -342.774)" fill="#fff"/>
        <path id="Path_5320" data-name="Path 5320" d="M150.966,551.666H146.9v-3H103.028v3H98.962V528.66a2.033,2.033,0,0,1,4.066,0V544.6H146.9V536.15a2.033,2.033,0,0,1,4.066,0Zm-3-1.07H149.9V536.15a.963.963,0,0,0-1.926,0v9.523H101.958V528.66a.963.963,0,0,0-1.926,0V550.6h1.926v-3h46.011Z" transform="translate(-60.171 -320.201)" fill="#265d3b"/>
        <path id="Path_5321" data-name="Path 5321" d="M137.714,554.768a.535.535,0,0,1-.535-.535V542.449a.535.535,0,0,1,.535-.535h28.463a3.535,3.535,0,0,1,3.531,3.531v8.667a.535.535,0,1,1-1.07,0v-8.667a2.463,2.463,0,0,0-2.461-2.461H138.249v11.249a.535.535,0,0,1-.535.535" transform="translate(-83.408 -329.496)" fill="#265d3b"/>
        <path id="Path_5322" data-name="Path 5322" d="M111.5,565.851h-1.07v-2.8a2.035,2.035,0,0,1,2.033-2.033h8.988v1.07h-8.988a.964.964,0,0,0-.963.963Z" transform="translate(-67.142 -341.115)" fill="#265d3b"/>
        <path id="Path_5323" data-name="Path 5323" d="M118.529,546.652a4.28,4.28,0,1,1,4.28-4.28,4.285,4.285,0,0,1-4.28,4.28m0-7.49a3.21,3.21,0,1,0,3.21,3.21,3.214,3.214,0,0,0-3.21-3.21" transform="translate(-69.466 -327.172)" fill="#265d3b"/>
        <path id="Path_5324" data-name="Path 5324" d="M141.985,509.838l-1.011-.351a28.888,28.888,0,0,0,1.509-7.061,8.473,8.473,0,0,0-.127-1.4l-1.371-1.372V492.9h1.526a5.029,5.029,0,0,1,10.03.535V509.7h-1.07V493.439a3.959,3.959,0,1,0-7.918,0v.535h-1.5v5.236l2.255,2.255H143.5a8.672,8.672,0,0,1,.055.963,29.582,29.582,0,0,1-1.568,7.411" transform="translate(-85.715 -296.964)" fill="#265d3b"/>
        <path id="Path_5325" data-name="Path 5325" d="M145.976,512.155l-1.015-.339a29.118,29.118,0,0,0,1.444-7.067,9.993,9.993,0,0,0-.114-1.422l-.087-.61h.514l1.185-1.185V496.3h-1.5v-.535a3.531,3.531,0,1,1,7.062,0v16.264H152.4V495.761a2.461,2.461,0,0,0-4.864-.535h1.439v6.749l-1.574,1.574a10.216,10.216,0,0,1,.076,1.2,29.889,29.889,0,0,1-1.5,7.406" transform="translate(-88.14 -299.287)" fill="#265d3b"/>
        <path id="Path_5326" data-name="Path 5326" d="M64.6,188.211a25.467,25.467,0,1,1-25.467-25.467A25.467,25.467,0,0,1,64.6,188.211" transform="translate(-8.31 -98.952)" fill="#fff"/>
        <path id="Path_5327" data-name="Path 5327" d="M39.135,163.707a24.5,24.5,0,1,1-24.5,24.5,24.531,24.531,0,0,1,24.5-24.5m0-.963A25.467,25.467,0,1,0,64.6,188.211a25.467,25.467,0,0,0-25.467-25.467" transform="translate(-8.31 -98.952)" fill="#3b265d"/>
        <path id="Path_5328" data-name="Path 5328" d="M61.811,233.215a2.781,2.781,0,0,0-2.173-.019l-9.168,3.788c-.076.032-.162.056-.241.086a2.692,2.692,0,0,0,.078-.467,2.506,2.506,0,0,0-2.424-2.514l-3.866-.145a14.753,14.753,0,0,1-3.909-.687,43.823,43.823,0,0,0-7.318-1.631c-3.691-.491-7.237,1.373-9.21,2.68V234.3a.774.774,0,0,0-.773-.774H18.294a.774.774,0,0,0-.773.774v12.2a.774.774,0,0,0,.773.774H22.81a.774.774,0,0,0,.773-.774v-.284c1.353-.29,4.633-.969,6-1.069a98,98,0,0,1,13.353.77,13.419,13.419,0,0,0,8.1-1.7l11-5.969a2.806,2.806,0,0,0,1.277-3.451,2.778,2.778,0,0,0-1.5-1.571Zm-39.775,12.5h-2.97v-10.65h2.97ZM61.3,236.877l-11.015,5.976a12,12,0,0,1-7.188,1.52c-4.592-.474-10.684-.993-13.624-.778-1.371.1-4.358.708-5.888,1.032v-8.436c1.417-1.065,5.173-3.536,9.008-3.032a42.271,42.271,0,0,1,7.053,1.572,16.289,16.289,0,0,0,4.32.757l3.866.145a.966.966,0,0,1,.933.97,1.093,1.093,0,0,1-.724,1.067,39.151,39.151,0,0,1-10.422.088.773.773,0,1,0-.209,1.532,39.8,39.8,0,0,0,10.834-.083c.023,0,.045,0,.069-.007s.022-.011.034-.014a14.045,14.045,0,0,0,2.721-.775l9.164-3.785a1.247,1.247,0,0,1,1.07,2.25Z" transform="translate(-10.653 -140.785)" fill="#265d3b"/>
        <path id="Path_5329" data-name="Path 5329" d="M61.248,176.713c.008.02.015.039.024.058s0,.013.008.02a14.436,14.436,0,0,0,2.515,3.335c1.212,1.246,2.534,2.389,3.956,3.618,2.189,1.894,4.324,3.755,6.388,5.726a1.008,1.008,0,0,0,1.24,0c.833-.795,1.68-1.574,2.533-2.344,1.038-.934,2.091-1.849,3.146-2.763.789-.684,1.578-1.369,2.361-2.061a32.834,32.834,0,0,0,3.18-3.136,12.7,12.7,0,0,0,1.655-2.442.707.707,0,0,0,.031-.065,10.623,10.623,0,0,0,.782-1.958,14.585,14.585,0,0,0,.489-3.442,9.919,9.919,0,0,0-.151-2.334,7.842,7.842,0,0,0-3.554-5.162,8.227,8.227,0,0,0-6.418-.923,8.614,8.614,0,0,0-4.379,2.862c-.1.121-.2.243-.3.37a9.191,9.191,0,0,0-1.068-1.179,8.09,8.09,0,0,0-7.58-2.12,7.847,7.847,0,0,0-6.157,7.5,17.179,17.179,0,0,0,.137,2.669A11.278,11.278,0,0,0,61.248,176.713Zm21.146,4.426c-.777.689-1.561,1.37-2.346,2.05-1.063.921-2.125,1.842-3.171,2.784-.711.643-1.421,1.293-2.12,1.952-1.948-1.837-3.958-3.589-6.138-5.476-1.253-1.083-2.55-2.2-3.714-3.4a15.226,15.226,0,0,1-1.573-1.881l2.5-.066,1.588,3.146a.754.754,0,0,0,.777.42.772.772,0,0,0,.664-.582l2.2-8.911,2.709,10.413a.772.772,0,0,0,.742.579h.006a.774.774,0,0,0,.746-.567l1.25-4.527,1.967-.051a.773.773,0,0,0,.744-.658l.853-5.646.891,5.71a.772.772,0,0,0,.755.654l4.482.05a12.342,12.342,0,0,1-.785,1.022,31.266,31.266,0,0,1-3.034,2.986ZM66.441,164.277a7.478,7.478,0,0,1,1.608-.182,6.6,6.6,0,0,1,4.592,1.928,8.226,8.226,0,0,1,1.444,1.8l.674-.384-.647.424a.73.73,0,0,0,.659.349.773.773,0,0,0,.647-.369,9.013,9.013,0,0,1,.818-1.144,7,7,0,0,1,3.6-2.369,6.674,6.674,0,0,1,5.208.743,6.32,6.32,0,0,1,2.854,4.157,8.647,8.647,0,0,1,.121,1.973,13.128,13.128,0,0,1-.434,3.078,8.983,8.983,0,0,1-.5,1.315l-4.681-.052-1.567-10.037a.773.773,0,0,0-.764-.654h0a.773.773,0,0,0-.762.658L77.8,175.493l-1.891.049a.771.771,0,0,0-.725.567l-.634,2.3L71.8,167.836a.773.773,0,0,0-.748-.578h0a.773.773,0,0,0-.747.587l-2.434,9.843L67,175.966a.759.759,0,0,0-.711-.425l-3.813.1a9.823,9.823,0,0,1-.85-2.909A15.737,15.737,0,0,1,61.5,170.3,6.305,6.305,0,0,1,66.441,164.277Z" transform="translate(-36.449 -98.833)" fill="#265d3b"/>
        <path id="Path_5330" data-name="Path 5330" d="M87.441,167.472a6.675,6.675,0,0,0-5.208-.743,7,7,0,0,0-3.6,2.369,9.106,9.106,0,0,0-.818,1.144.772.772,0,0,1-.647.369.729.729,0,0,1-.659-.349l.647-.424-.674.384a8.213,8.213,0,0,0-1.444-1.8,6.6,6.6,0,0,0-4.591-1.928,7.48,7.48,0,0,0-1.608.182A6.306,6.306,0,0,0,63.9,172.7a15.686,15.686,0,0,0,.124,2.429,9.829,9.829,0,0,0,.849,2.91l3.814-.1a.759.759,0,0,1,.711.424l.868,1.722,2.434-9.843a.773.773,0,0,1,.747-.587h0a.773.773,0,0,1,.747.579l2.75,10.571.635-2.3a.771.771,0,0,1,.724-.567l1.891-.049,1.508-9.982a.773.773,0,0,1,.762-.658h0a.773.773,0,0,1,.764.654L84.8,177.944l4.681.052a8.985,8.985,0,0,0,.5-1.316,13.1,13.1,0,0,0,.434-3.078,8.672,8.672,0,0,0-.121-1.973,6.32,6.32,0,0,0-2.854-4.157" transform="translate(-38.849 -101.233)" fill="#fff"/>
        <path id="Path_5331" data-name="Path 5331" d="M86.227,189.1l-.891-5.71-.853,5.646a.773.773,0,0,1-.744.658l-1.967.051-1.25,4.526a.774.774,0,0,1-.746.568h-.006a.772.772,0,0,1-.742-.579l-2.709-10.413-2.2,8.911a.772.772,0,0,1-.664.582.755.755,0,0,1-.777-.42l-1.587-3.146-2.5.066a15.166,15.166,0,0,0,1.573,1.881c1.163,1.2,2.46,2.318,3.714,3.4,2.18,1.887,4.191,3.639,6.138,5.475.7-.659,1.408-1.308,2.12-1.952,1.046-.942,2.108-1.863,3.171-2.784.785-.68,1.569-1.361,2.346-2.05a31.216,31.216,0,0,0,3.034-2.985,12.428,12.428,0,0,0,.785-1.022l-4.483-.05a.772.772,0,0,1-.755-.654" transform="translate(-41.701 -111.505)" fill="#8aa795"/>
        <rect id="Rectangle_1661" data-name="Rectangle 1661" width="2.97" height="10.65" transform="translate(8.413 94.283)" fill="#8aa795"/>
        <path id="Path_5332" data-name="Path 5332" d="M70.6,237.033a1.246,1.246,0,0,0-.97-.007l-9.164,3.785a14.058,14.058,0,0,1-2.721.775c-.013,0-.022.011-.034.014s-.046,0-.069.007a39.839,39.839,0,0,1-10.834.083.773.773,0,1,1,.209-1.533,39.169,39.169,0,0,0,10.422-.088A1.093,1.093,0,0,0,58.161,239a.966.966,0,0,0-.933-.97l-3.866-.145a16.3,16.3,0,0,1-4.32-.757,42.232,42.232,0,0,0-7.053-1.573c-3.836-.5-7.592,1.968-9.008,3.033v8.435c1.529-.324,4.517-.931,5.888-1.032,2.94-.216,9.033.3,13.624.777a12,12,0,0,0,7.188-1.519L70.7,239.275a1.249,1.249,0,0,0-.1-2.242" transform="translate(-20.054 -143.183)" fill="#fff"/>
        <path id="Path_5333" data-name="Path 5333" d="M616.445,634.417a25.467,25.467,0,1,1-25.467-25.467,25.468,25.468,0,0,1,25.467,25.467" transform="translate(-343.843 -370.256)" fill="#fff"/>
        <path id="Path_5334" data-name="Path 5334" d="M590.978,609.914a24.5,24.5,0,1,1-24.5,24.5,24.532,24.532,0,0,1,24.5-24.5m0-.964a25.467,25.467,0,1,0,25.467,25.467,25.467,25.467,0,0,0-25.467-25.467" transform="translate(-343.843 -370.256)" fill="#3b265d"/>
        <path id="Path_5335" data-name="Path 5335" d="M628.012,632.284c0,7.628-13.812,26.761-13.812,26.761s-13.812-19.133-13.812-26.761a13.812,13.812,0,1,1,27.625,0" transform="translate(-365.049 -376.045)" fill="#265d3b"/>
        <path id="Path_5336" data-name="Path 5336" d="M630.629,639.65a9.064,9.064,0,1,1-9.065-9.064,9.064,9.064,0,0,1,9.065,9.064" transform="translate(-372.414 -383.41)" fill="#fff"/>
        <path id="Path_5337" data-name="Path 5337" d="M580.568,664.2c0,2.873-5.2,10.078-5.2,10.078s-5.2-7.2-5.2-10.078a5.2,5.2,0,1,1,10.4,0" transform="translate(-346.673 -400.688)" fill="#265d3b"/>
        <path id="Path_5338" data-name="Path 5338" d="M581.552,666.976a3.414,3.414,0,1,1-3.413-3.413,3.413,3.413,0,0,1,3.413,3.413" transform="translate(-349.446 -403.462)" fill="#fff"/>
        <path id="Path_5339" data-name="Path 5339" d="M671.919,688.921c0,1.436-2.6,5.039-2.6,5.039s-2.6-3.6-2.6-5.039a2.6,2.6,0,0,1,5.2,0" transform="translate(-405.379 -417.298)" fill="#265d3b"/>
        <path id="Path_5340" data-name="Path 5340" d="M672.411,690.308A1.707,1.707,0,1,1,670.7,688.6a1.706,1.706,0,0,1,1.707,1.707" transform="translate(-406.766 -418.685)" fill="#fff"/>
        <path id="Path_5341" data-name="Path 5341" d="M597.625,708.91c0,.947-1.715,3.323-1.715,3.323s-1.715-2.376-1.715-3.323a1.715,1.715,0,1,1,3.429,0" transform="translate(-361.285 -429.991)" fill="#265d3b"/>
        <path id="Path_5342" data-name="Path 5342" d="M597.95,709.825a1.125,1.125,0,1,1-1.125-1.125,1.125,1.125,0,0,1,1.125,1.125" transform="translate(-362.199 -430.906)" fill="#fff"/>
        <path id="Path_5343" data-name="Path 5343" d="M590.926,634.949c0,.947-1.715,3.322-1.715,3.322s-1.715-2.375-1.715-3.322a1.715,1.715,0,1,1,3.429,0" transform="translate(-357.212 -385.021)" fill="#265d3b"/>
        <path id="Path_5344" data-name="Path 5344" d="M591.251,635.863a1.125,1.125,0,1,1-1.125-1.125,1.125,1.125,0,0,1,1.125,1.125" transform="translate(-358.126 -385.935)" fill="#fff"/>
        <path id="Path_5345" data-name="Path 5345" d="M633.182,643.61h-2.387v-2.387H626.7v2.387h-2.387V647.7H626.7v2.387h4.091V647.7h2.387Z" transform="translate(-379.599 -389.879)" fill="#265d3b"/>
      </g>
    </g>
  </g>
</svg>
