<svg id="Group_2773" data-name="Group 2773" xmlns="http://www.w3.org/2000/svg" xmlns:xlink="http://www.w3.org/1999/xlink" width="298.389" height="278.066" viewBox="0 0 298.389 278.066">
  <defs>
    <clipPath id="clip-path">
      <rect id="Rectangle_2391" data-name="Rectangle 2391" width="298.389" height="278.066" fill="none"/>
    </clipPath>
    <clipPath id="clip-path-3">
      <rect id="Rectangle_2387" data-name="Rectangle 2387" width="165.528" height="127.207" fill="none"/>
    </clipPath>
    <clipPath id="clip-path-4">
      <rect id="Rectangle_2388" data-name="Rectangle 2388" width="165.529" height="124.699" fill="none"/>
    </clipPath>
    <clipPath id="clip-path-5">
      <rect id="Rectangle_2389" data-name="Rectangle 2389" width="165.529" height="127.604" fill="none"/>
    </clipPath>
  </defs>
  <g id="Group_2765" data-name="Group 2765" clip-path="url(#clip-path)">
    <g id="Group_2764" data-name="Group 2764">
      <g id="Group_2763" data-name="Group 2763" clip-path="url(#clip-path)">
        <g id="Group_2756" data-name="Group 2756" transform="translate(19.269 28.58)" opacity="0.5">
          <g id="Group_2755" data-name="Group 2755">
            <g id="Group_2754" data-name="Group 2754" clip-path="url(#clip-path-3)">
              <path id="Path_19726" data-name="Path 19726" d="M137.373,81c-45.709,0-82.764,27.458-82.764,61.329,0,25.986,21.811,48.2,52.607,57.129A52.743,52.743,0,0,1,94.7,206.135c1.6,2.032,4.587,2.2,7.169,2.016a57.041,57.041,0,0,0,20.582-5.49,111.567,111.567,0,0,0,14.919,1c45.709,0,82.764-27.458,82.764-61.329S183.083,81,137.373,81" transform="translate(-54.609 -81)" fill="#dfd7ff"/>
            </g>
          </g>
        </g>
        <g id="Group_2759" data-name="Group 2759" transform="translate(115.331 34.932)" opacity="0.5">
          <g id="Group_2758" data-name="Group 2758">
            <g id="Group_2757" data-name="Group 2757" clip-path="url(#clip-path-4)">
              <path id="Path_19727" data-name="Path 19727" d="M492.388,160.329c0-33.871-37.055-61.329-82.764-61.329s-82.764,27.458-82.764,61.329,37.055,61.329,82.764,61.329a109.749,109.749,0,0,0,24.276-2.683,56.984,56.984,0,0,0,18.793,4.668c2.582.184,5.566.016,7.169-2.016a52.747,52.747,0,0,1-12.529-6.69c26.75-10.163,45.055-30.8,45.055-54.608" transform="translate(-326.859 -99)" fill="#dce9ff"/>
            </g>
          </g>
        </g>
        <g id="Group_2762" data-name="Group 2762" transform="translate(62.536)" opacity="0.5">
          <g id="Group_2761" data-name="Group 2761">
            <g id="Group_2760" data-name="Group 2760" clip-path="url(#clip-path-5)">
              <path id="Path_19728" data-name="Path 19728" d="M342.763,61.329C342.763,27.458,305.708,0,260,0s-82.764,27.458-82.764,61.329S214.289,122.658,260,122.658a110.072,110.072,0,0,0,22.8-2.358,57.083,57.083,0,0,0,23.952,7.249c2.581.184,5.566.016,7.169-2.016a52.985,52.985,0,0,1-16.221-9.594c26.753-10.162,45.06-30.8,45.06-54.61" transform="translate(-177.234)" fill="#ffffd9"/>
            </g>
          </g>
        </g>
        <path id="Path_19729" data-name="Path 19729" d="M450.323,336.327a4.7,4.7,0,1,1,.765-6.605,4.7,4.7,0,0,1-.765,6.605" transform="translate(-286.496 -212.228)" fill="#3b265d"/>
        <path id="Path_19730" data-name="Path 19730" d="M451.973,288.908a4.74,4.74,0,0,0-.654-.675,4.7,4.7,0,1,0-6.9.921,4.687,4.687,0,0,0-.72,1.647,4.688,4.688,0,0,0-1.534,7.036,4.693,4.693,0,0,0-.967,2.537,4.7,4.7,0,1,0,1.115,3.386,4.7,4.7,0,0,0,7.287-5.926,4.684,4.684,0,0,0,.869-1.845,4.69,4.69,0,0,0,1.5-7.082" transform="translate(-280.172 -181.758)" fill="#3b265d"/>
        <path id="Path_19731" data-name="Path 19731" d="M415.07,267.827H411.1a11.337,11.337,0,0,0-11.337,11.337v6.374a11.281,11.281,0,0,0,.732,3.978,1.3,1.3,0,0,0,.1.284c.01.025.018.052.028.077l-.237-.315a2.546,2.546,0,0,1,.249.35c.094.224.2.439.311.656.347.888.535,1.97.823,2.748a18.341,18.341,0,0,1,1.045,4.03c.357,2.787-.3,5.676-.757,8.414-.5,2.974,1.032,5.012,3.338,6.9,1.747,1.429,4.852,4.332,7.32,3.213s4.178-4.763,5.227-7.064c.649-1.422.353-1.569-.3-2.862a14.188,14.188,0,0,1-1.144-3.222,12.624,12.624,0,0,1,.36-6,11.33,11.33,0,0,0,9.543-11.181v-6.374a11.337,11.337,0,0,0-11.337-11.337" transform="translate(-258.708 -173.325)" fill="#8774aa"/>
        <path id="Path_19732" data-name="Path 19732" d="M402.446,385.806l2.269,1.072a15.245,15.245,0,0,0,14.164-.6l1.538-.893,5.433,51.93H400.356Z" transform="translate(-259.092 -249.406)" fill="#a04747"/>
        <path id="Path_19733" data-name="Path 19733" d="M354.866,370.878l-14.219,3.144a9.844,9.844,0,0,0-7.6,8.107l-7.017,45.38H339.82l3.825-29.8a.336.336,0,0,1,.668.043v29.755H362.6V382.058Z" transform="translate(-210.991 -240.015)" fill="#fff"/>
        <path id="Path_19734" data-name="Path 19734" d="M399.539,389.926a1.115,1.115,0,0,1-1.114-1.1c-.106-11.262-.016-11.534.057-11.752a1.115,1.115,0,0,1,2.156.544c-.058.756-.021,7.23.017,11.187a1.115,1.115,0,0,1-1.1,1.125Zm1.058-12.152h0m0,0h0Z" transform="translate(-257.811 -243.53)" fill="#3b265d"/>
        <path id="Path_19735" data-name="Path 19735" d="M396.511,424.258a1.115,1.115,0,0,1-1.115-1.115v-9.961h-5.085v9.961a1.114,1.114,0,1,1-2.229,0V412.068a1.114,1.114,0,0,1,1.114-1.114h7.314a1.115,1.115,0,0,1,1.115,1.114v11.075a1.115,1.115,0,0,1-1.115,1.115" transform="translate(-251.15 -265.951)" fill="#3b265d"/>
        <path id="Path_19736" data-name="Path 19736" d="M392.27,441.9a1.962,1.962,0,1,0-1.962,1.962,1.962,1.962,0,0,0,1.962-1.962" transform="translate(-251.32 -284.71)" fill="#3b265d"/>
        <path id="Path_19737" data-name="Path 19737" d="M407.964,441.9A1.962,1.962,0,1,0,406,443.865a1.962,1.962,0,0,0,1.962-1.962" transform="translate(-261.476 -284.71)" fill="#3b265d"/>
        <path id="Path_19738" data-name="Path 19738" d="M397.985,370.878l-5.329,1.149,7,11.389,3.971-.418-3.239,6.792,5.329,37.72V382.058Z" transform="translate(-254.109 -240.016)" fill="#d4d9e8"/>
        <path id="Path_19739" data-name="Path 19739" d="M552.937,430.18a4.63,4.63,0,0,1-.432-9.179c.467-.081,11.833-2.089,21.25-3.764a4.629,4.629,0,1,1,1.621,9.115c-2.811.5-20.91,3.706-21.307,3.774a4.621,4.621,0,0,1-1.133.054" transform="translate(-355.068 -269.97)" fill="#8774aa"/>
        <path id="Path_19740" data-name="Path 19740" d="M437.37,381.554l3.03-9.195,10.344,2.3s23.823,17.8,24.241,17.8,16.105-2.79,16.105-2.79l.523,11.528-19.519,3.7-15.148-9.642a1.18,1.18,0,0,0-1.814,1v32.225H435.594Z" transform="translate(-281.897 -240.974)" fill="#fff"/>
        <path id="Path_19741" data-name="Path 19741" d="M460.475,393.964a1.115,1.115,0,0,1-1.115-1.109c-.105-20.872-.019-15.559.057-15.787a1.115,1.115,0,0,1,2.16.517c-.063,1-.028,7.386.012,15.259a1.115,1.115,0,0,1-1.109,1.12Z" transform="translate(-297.245 -243.528)" fill="#3b265d"/>
        <path id="Path_19742" data-name="Path 19742" d="M460.274,424.726a2.717,2.717,0,1,0-2.717,2.717,2.717,2.717,0,0,0,2.717-2.717" transform="translate(-294.352 -273.105)" fill="#3b265d"/>
        <path id="Path_19743" data-name="Path 19743" d="M461.669,427.792a1.045,1.045,0,1,0-1.045,1.045,1.045,1.045,0,0,0,1.045-1.045" transform="translate(-297.419 -276.171)" fill="#fff"/>
        <path id="Path_19744" data-name="Path 19744" d="M440.4,372.359l6.269,1.045-4.493,8.359-3.239.523,2.821,8.463-6.165,37.719,1.776-46.914Z" transform="translate(-281.896 -240.974)" fill="#d4d9e8"/>
        <path id="Path_19745" data-name="Path 19745" d="M401.877,252.094a4.7,4.7,0,0,0-3.736-4.6,4.7,4.7,0,0,0-4.623-3.862,4.821,4.821,0,0,0-.507.028,4.7,4.7,0,0,0-5.46-3.275,4.7,4.7,0,0,0-7.385-.153,4.681,4.681,0,0,0-5.788,3.674,4.7,4.7,0,0,0-3.929,4.213,4.691,4.691,0,0,0-5.536,5.673,4.688,4.688,0,0,0-1.691,6.394,4.619,4.619,0,0,0-1.215,3.795,4.682,4.682,0,0,0-1.428,5.88,7.043,7.043,0,0,0,9.76,7.49,4.561,4.561,0,0,0,.436.151,4.694,4.694,0,0,0,7.934.914,4.7,4.7,0,0,0,6.24-6.512,4.691,4.691,0,0,0-3.4-6.783,4.424,4.424,0,0,0-.025-1.56,4.69,4.69,0,0,0,5.184-4.307,4.687,4.687,0,0,0,5.422-.4,4.7,4.7,0,0,0,6.553-2.3,4.7,4.7,0,0,0,3.195-4.45" transform="translate(-233.029 -154.354)" fill="#3b265d"/>
        <path id="Path_19746" data-name="Path 19746" d="M377.256,342.041H351.762a.268.268,0,0,1-.268-.28l.005-.138h-7.678a.269.269,0,0,1-.269-.269V311.6c0-.022,0-.063-.062-.067a.06.06,0,0,0-.07.058l-3.825,29.8a.269.269,0,0,1-.267.234H325.536a.269.269,0,0,1-.265-.309l7.016-45.38A10.05,10.05,0,0,1,340.1,287.6l8.793-1.944a.225.225,0,0,1,.1-.05l4.893-1.055a29.282,29.282,0,0,0,.555-4.979,4.865,4.865,0,0,1-1.943.4,4.993,4.993,0,0,1-4.44-2.746c-.078-.025-.154-.052-.23-.08A10.588,10.588,0,0,1,337.7,270.2a4.891,4.891,0,0,1,.067-.793,4.909,4.909,0,0,1-.485-2.133,4.99,4.99,0,0,1,1.907-3.908,4.6,4.6,0,0,1-.027-.48,4.95,4.95,0,0,1,1.2-3.23,4.955,4.955,0,0,1,1.715-6.487,4.908,4.908,0,0,1-.093-.941,4.968,4.968,0,0,1,5.7-4.917,4.957,4.957,0,0,1,3.936-4.131,4.945,4.945,0,0,1,5.917-3.742,4.963,4.963,0,0,1,7.593.159,4.969,4.969,0,0,1,5.54,3.283c.1-.007.21-.011.317-.011a4.962,4.962,0,0,1,4.852,3.907,4.99,4.99,0,0,1,3.775,4.825,4.92,4.92,0,0,1-.194,1.372A4.964,4.964,0,0,1,382,260.289a4.957,4.957,0,0,1-.966,7.982,4.9,4.9,0,0,1-.768,1.666,4.963,4.963,0,0,1-5.2,7.7,5.021,5.021,0,0,1-.568.529,4.953,4.953,0,0,1-3.233,1.068c-.071.065-.14.127-.215.186a4.921,4.921,0,0,1-2.677,1.053,11.119,11.119,0,0,0,.191,2.727,12.217,12.217,0,0,0,.529,1.783l6.229,1.038a.269.269,0,0,1,.194.391l3.9.866a.266.266,0,0,1,.1.047c9.2,6.871,23.066,17.155,24.125,17.739.815-.1,9.934-1.7,16.014-2.781a.27.27,0,0,1,.31.206l9.184-1.63a4.9,4.9,0,0,1,1.716,9.644l-10.449,1.853.077,1.708a.268.268,0,0,1-.218.276l-19.518,3.7a.273.273,0,0,1-.194-.037L385.4,308.36a.911.911,0,0,0-1.4.769v32.225a.269.269,0,0,1-.269.269H377.51l.013.122a.268.268,0,0,1-.267.3m-25.214-.537h24.916l-.012-.121a.268.268,0,0,1,.267-.3h6.253V309.129a1.449,1.449,0,0,1,2.227-1.222l15.058,9.585,19.185-3.633-.077-1.711a.268.268,0,0,1,.222-.276l10.68-1.894a4.361,4.361,0,0,0-1.527-8.586c-3.1.552-6.416,1.14-9.482,1.683a.267.267,0,0,1-.215-.055.271.271,0,0,1-.095-.151c-3.188.567-15.449,2.741-15.855,2.741-.336,0-8.53-5.994-24.355-17.817l-4.186-.93a.268.268,0,0,1-.188-.37l-5.684-.947a.27.27,0,0,1-.211.114.282.282,0,0,1-.258-.17,13.278,13.278,0,0,1-.674-2.18,11.8,11.8,0,0,1-.186-3.106.269.269,0,0,1,.26-.251A4.4,4.4,0,0,0,370.71,279c.091-.072.175-.151.259-.23a.284.284,0,0,1,.2-.077,4.4,4.4,0,0,0,3.592-1.532.269.269,0,0,1,.275-.083,4.427,4.427,0,0,0,4.677-6.98.268.268,0,0,1,0-.329,4.383,4.383,0,0,0,.819-1.739.269.269,0,0,1,.137-.179,4.5,4.5,0,0,0,.7-.449,4.434,4.434,0,0,0,.1-6.864.269.269,0,0,1-.047-.358,4.426,4.426,0,0,0-2.417-6.776.271.271,0,0,1-.164-.135.267.267,0,0,1-.014-.212,4.405,4.405,0,0,0,.248-1.458,4.45,4.45,0,0,0-3.522-4.339.269.269,0,0,1-.21-.215,4.423,4.423,0,0,0-4.836-3.614.27.27,0,0,1-.286-.191,4.434,4.434,0,0,0-5.149-3.088.267.267,0,0,1-.268-.1,4.426,4.426,0,0,0-6.963-.144.265.265,0,0,1-.275.09,4.406,4.406,0,0,0-5.457,3.463.269.269,0,0,1-.221.216,4.419,4.419,0,0,0-3.7,3.972.267.267,0,0,1-.108.192.27.27,0,0,1-.215.048,4.422,4.422,0,0,0-5.22,5.348.268.268,0,0,1-.125.292,4.419,4.419,0,0,0-1.595,6.029.27.27,0,0,1-.036.317,4.354,4.354,0,0,0-1.145,3.577.269.269,0,0,1-.107.251,4.412,4.412,0,0,0-1.346,5.543.27.27,0,0,1,.024.168,4.4,4.4,0,0,0,3.111,5.037.269.269,0,0,1,.167.143,4.426,4.426,0,0,0,6.09,2.025.269.269,0,0,1,.227-.012q.2.081.411.143a.269.269,0,0,1,.167.143,4.453,4.453,0,0,0,4.007,2.546,4.357,4.357,0,0,0,2.079-.526.269.269,0,0,1,.4.229,28.521,28.521,0,0,1-.589,5.683.27.27,0,0,1-.208.216l-4.956,1.069a.223.223,0,0,1-.1.049l-8.905,1.969a9.515,9.515,0,0,0-7.4,7.886l-6.969,45.07h13.243l3.794-29.564a.6.6,0,0,1,1.2.077v29.487h7.69a.269.269,0,0,1,.269.28Z" transform="translate(-210.498 -153.86)" fill="#3b265d"/>
        <path id="Path_19747" data-name="Path 19747" d="M350.227,516.474H180.4a6.986,6.986,0,0,0-6.986,6.986v1.075a6.986,6.986,0,0,0,6.986,6.986h46.755a6.964,6.964,0,0,0-.537,2.687v67.445a6.986,6.986,0,0,0,6.986,6.986h63.415a6.986,6.986,0,0,0,6.986-6.986V534.209a6.964,6.964,0,0,0-.537-2.687h46.755a6.986,6.986,0,0,0,6.986-6.986V523.46a6.986,6.986,0,0,0-6.986-6.986" transform="translate(-112.228 -334.239)" fill="#3b265d"/>
        <path id="Path_19748" data-name="Path 19748" d="M659.885,603.514l9.846,46.157a8.912,8.912,0,0,1-17.391,3.9l-11.822-54.263" transform="translate(-414.514 -387.846)" fill="#60697c"/>
        <path id="Path_19749" data-name="Path 19749" d="M703.269,469.278l-3.071-.06a6.089,6.089,0,0,0-6.208,6.088v29.451a2.039,2.039,0,0,0,1.814,2.026l-2.217,19.548H647.638l.01.119-1.314.082a3.225,3.225,0,0,0-3.225,3.225v2.62l-5.7,47.333a1,1,0,0,0,1.978.261l6.741-46.788h3.014l-4.689,38.965a.838.838,0,0,0,1.662.219l5.645-39.184h40.266l5.645,39.184a.838.838,0,0,0,1.662-.219l-4.689-38.965h2.362l6.741,46.788a1,1,0,0,0,1.978-.261l-5.7-47.333v-2.62a3.225,3.225,0,0,0-3.224-3.225l2.418-20.153,1.786-.241a7.552,7.552,0,0,0,6.467-6.433l3.066-21.829a7.551,7.551,0,0,0-7.279-8.6" transform="translate(-412.501 -303.656)" fill="#3b265d"/>
        <path id="Path_19750" data-name="Path 19750" d="M655,589.111v5.24a9.539,9.539,0,0,1-9.539,9.539H614.648a4.332,4.332,0,0,0-4.009,2.692l-18.246,43.526a8.912,8.912,0,0,1-16.509-6.718l21.247-51.311a13.138,13.138,0,0,1,12.177-8.207h42.469Z" transform="translate(-372.263 -377.855)" fill="#747d93"/>
        <path id="Path_19751" data-name="Path 19751" d="M719.163,327.744l-5.266-1.391a10.933,10.933,0,0,0-13.363,7.779l-2.376,9a10.924,10.924,0,0,0,7.22,13.185c7.112,5.319-.08,13.778-.08,13.778s17.869,10.479,16.66-2.015c-.053-.552.438-.545.4-1.075a48.518,48.518,0,0,1,.974-14.015,10.914,10.914,0,0,0,1.23-2.882l2.377-9a10.933,10.933,0,0,0-7.778-13.363" transform="translate(-451.58 -210.965)" fill="#685e7f"/>
        <path id="Path_19752" data-name="Path 19752" d="M608.66,486.644l-14.375.116a5.105,5.105,0,0,0,.083,10.211l22.436-.182Z" transform="translate(-381.317 -314.934)" fill="#685e7f"/>
        <path id="Path_19753" data-name="Path 19753" d="M690.918,440.7s3.493,1.612,6.046,8.061,2.821,47.7,2.821,47.7l-29.423,25.258L657.33,489.471s9.539-3.224,10.614-5.374-.4-22.571-.4-22.571l-16.391,8.733-6.718-13.3,6.046-1.478,19.75-14.645Z" transform="translate(-417.047 -285.202)" fill="#d4d9e8"/>
        <path id="Path_19754" data-name="Path 19754" d="M717.54,434.182l5.911-3.762s8.733,1.881,11.151.134l3.628,3.493s-3.359,3.9-5.912,4.434-14.779-4.3-14.779-4.3" transform="translate(-464.359 -278.548)" fill="#acb3c6"/>
        <path id="Path_19755" data-name="Path 19755" d="M735.267,332.634a11.243,11.243,0,0,1,.575-2.218c.7-1.453,2.425-2.165,3.215-3.57.681-1.212.557-2.75,1.231-3.966.486-.876,1.376-1.577,1.487-2.572a9.364,9.364,0,0,0-.214-1.77,13.057,13.057,0,0,1,.6-3.159A5.257,5.257,0,0,0,741.6,312a15.962,15.962,0,0,1-1.095-1.888,19.677,19.677,0,0,1-.47-2.607,4.692,4.692,0,0,0-2.063-2.884c-.5-.31-1.048-.523-1.567-.8-.621-.326-1.194-.736-1.8-1.092-3.55-2.089-7.879-2.172-11.992-2.405s-8.517-.8-11.577-3.562a23.632,23.632,0,0,0-2.265,6.485,7.98,7.98,0,0,0,1.642,6.47,3.513,3.513,0,0,0-.5,5.138,2.113,2.113,0,0,0-.731,2.808,5.452,5.452,0,0,0,2.366,2.13c1.565.89,3.464,1.658,5.116.944.736-.318,1.5-.925,2.241-.632.641.252.863,1.031,1,1.707a11.784,11.784,0,0,1,.307,3.758,4.245,4.245,0,0,1-1.856,3.153,2.633,2.633,0,0,1-3.4-.546q-.155,1.667-.31,3.334c-.125,1.35-.146,2.954.939,3.768.49.368,1.151.512,1.541.984a3.74,3.74,0,0,1,.493,1.047,4.647,4.647,0,0,0,4.765,2.806,3.539,3.539,0,0,1,1.423-.064,3.607,3.607,0,0,1,1.068.683c2.473,1.835,5.327.449,6.646-1.967,1.124-2.061,3.188-3.847,3.756-6.142" transform="translate(-458.618 -192.055)" fill="#3b265d"/>
        <path id="Path_19756" data-name="Path 19756" d="M583.634,469.629A9.193,9.193,0,0,1,575.128,457l21.249-51.314a13.386,13.386,0,0,1,1.192-2.271l-.071-.329a.268.268,0,0,1,.32-.32l.169.037a13.426,13.426,0,0,1,10.815-5.49h3.545l-.557-1.377a.269.269,0,0,1,.163-.355c2.624-.887,9.619-3.558,10.459-5.24s.019-16.075-.4-22.02l-16.026,8.539a.269.269,0,0,1-.367-.116l-1.53-3.029-19.28.156h-.045a5.374,5.374,0,0,1-.042-10.748L599.1,363a.291.291,0,0,1,.109.022l5.864-1.434,19.706-14.612,3.4-2.163a6.924,6.924,0,0,0-2.746-7.664,11.191,11.191,0,0,1-7.355-13.495l2.377-9a11.165,11.165,0,0,1,1.507-3.334,3.632,3.632,0,0,1,1.2-2.137,8.294,8.294,0,0,1-1.517-6.466,23.8,23.8,0,0,1,2.286-6.56.269.269,0,0,1,.424-.087c2.959,2.668,7.234,3.256,11.412,3.493l.912.05c3.862.209,7.855.424,11.2,2.392.24.141.475.291.71.441.349.222.71.452,1.078.645.193.1.391.194.588.287a9.466,9.466,0,0,1,1,.518,4.944,4.944,0,0,1,2.183,3.051,9.747,9.747,0,0,1,.168,1.1,4.459,4.459,0,0,0,.924,2.61c.155.237.31.474.446.722a5.5,5.5,0,0,1,.6,3.55,11.059,11.059,0,0,1-.284,1.158,5.523,5.523,0,0,0-.316,1.934,5.762,5.762,0,0,0,.1.647,2.917,2.917,0,0,1-.826,3.007,6.942,6.942,0,0,0-.584.839,6.485,6.485,0,0,0-.583,1.9,5.269,5.269,0,0,1-2.275,3.844,4.33,4.33,0,0,0-1.987,3.228c-.046.241-.092.482-.151.72a11.443,11.443,0,0,1-2.252,3.972,18.76,18.76,0,0,0-1.529,2.234,6.058,6.058,0,0,1-2.1,2.249c-.065,1.034-.1,2.108-.1,3.194l3.1,2.984c.432.216,3.7,2.019,6.14,8.185a30.781,30.781,0,0,1,1.214,6.759,6.365,6.365,0,0,1,6.322-4.927l3.071.06h0a7.82,7.82,0,0,1,7.539,8.905L667,387.65a7.845,7.845,0,0,1-6.7,6.662l-1.58.214-2.359,19.659a3.5,3.5,0,0,1,3.192,3.48v2.62l5.694,47.3a1.266,1.266,0,0,1-2.511.332l-6.708-46.558h-1.826l4.653,38.664a1.1,1.1,0,0,1-.309.907,1.082,1.082,0,0,1-.9.327,1.105,1.105,0,0,1-.986-.944l-5.612-38.953H633.31l-8.063,6.922a.266.266,0,0,1-.238.057.27.27,0,0,1-.186-.16l-2.755-6.818h-1.651l6.821,31.973a9.18,9.18,0,0,1-17.916,4.016l-1.958-8.983-1.721,11.947a1.105,1.105,0,0,1-.986.944,1.106,1.106,0,0,1-1.209-1.234l2.3-19.088-1.359-6.24-1.043,2.489-4.427,30.734A1.265,1.265,0,0,1,597.786,469a1.266,1.266,0,0,1-1.383-1.411l2.338-19.427-6.607,15.76a9.208,9.208,0,0,1-8.5,5.709m14.475-66.26.009.039a.269.269,0,0,1-.038.206,12.877,12.877,0,0,0-1.206,2.273L575.625,457.2a8.643,8.643,0,0,0,16.012,6.513l7.353-17.539a.269.269,0,0,1,.514.136l-2.568,21.339a.728.728,0,0,0,.2.6.742.742,0,0,0,.592.215.728.728,0,0,0,.649-.621l4.433-30.768a.261.261,0,0,1,.018-.066l1.386-3.305a.268.268,0,0,1,.51.047l1.55,7.116a.271.271,0,0,1,0,.089l-2.3,19.133a.567.567,0,0,0,.159.467.579.579,0,0,0,.463.168.569.569,0,0,0,.507-.486l1.933-13.419a.269.269,0,0,1,.529-.019l2.273,10.434a8.643,8.643,0,0,0,16.867-3.785l-6.89-32.3a.269.269,0,0,1,.263-.325h2.164a.269.269,0,0,1,.249.168l2.683,6.639,7.854-6.742a.267.267,0,0,1,.175-.065h18.078a.269.269,0,0,1,.266.23l5.645,39.184a.568.568,0,0,0,.507.486.582.582,0,0,0,.464-.168.568.568,0,0,0,.159-.467l-4.689-38.965a.268.268,0,0,1,.267-.3h2.362a.269.269,0,0,1,.266.23l6.741,46.788a.728.728,0,0,0,.649.621.729.729,0,0,0,.8-.813l-5.7-47.333,0-2.652a2.959,2.959,0,0,0-2.956-2.956.268.268,0,0,1-.266-.3l2.418-20.153a.268.268,0,0,1,.23-.234l1.786-.241a7.307,7.307,0,0,0,6.237-6.2l3.066-21.829a7.283,7.283,0,0,0-7.019-8.293l-3.071-.06a5.82,5.82,0,0,0-5.933,5.819v2.776a.268.268,0,0,1-.258.269.25.25,0,0,1-.279-.248c-.434-5.649-.956-9.279-1.554-10.787-2.476-6.254-5.875-7.9-5.909-7.916a.273.273,0,0,1-.073-.05l-3.211-3.092a.268.268,0,0,1-.083-.193c0-1.187.034-2.359.108-3.485a.268.268,0,0,1,.134-.215,5.485,5.485,0,0,0,2.024-2.116,19.032,19.032,0,0,1,1.572-2.3,11.073,11.073,0,0,0,2.159-3.778c.056-.228.1-.46.145-.692a4.829,4.829,0,0,1,2.164-3.533,6.5,6.5,0,0,0,1.508-1.63,6.406,6.406,0,0,0,.592-1.913,6.984,6.984,0,0,1,.639-2.051,7.345,7.345,0,0,1,.628-.907,2.419,2.419,0,0,0,.725-2.574,6.088,6.088,0,0,1-.113-.709,6,6,0,0,1,.334-2.125,10.509,10.509,0,0,0,.271-1.1,4.963,4.963,0,0,0-.538-3.2c-.129-.235-.277-.46-.424-.685a4.97,4.97,0,0,1-1.009-2.844,9.075,9.075,0,0,0-.157-1.035,4.4,4.4,0,0,0-1.943-2.717,8.952,8.952,0,0,0-.94-.488c-.2-.1-.409-.193-.609-.3-.387-.2-.758-.44-1.116-.668-.23-.146-.46-.293-.694-.431-3.232-1.9-7.159-2.114-10.957-2.319l-.913-.05c-4.151-.236-8.4-.815-11.469-3.392a22.208,22.208,0,0,0-2.091,6.085,7.641,7.641,0,0,0,1.574,6.251.268.268,0,0,1-.048.4,3.038,3.038,0,0,0-1.223,2.021.263.263,0,0,1-.042.105,10.615,10.615,0,0,0-1.466,3.219l-2.377,9a10.652,10.652,0,0,0,7.043,12.86.281.281,0,0,1,.079.041,7.529,7.529,0,0,1,2.956,8.355.271.271,0,0,1-.117.162l-3.473,2.21-19.734,14.634a.278.278,0,0,1-.1.045l-5.979,1.461a.262.262,0,0,1-.293-.021l-14.253.115a4.837,4.837,0,0,0,.038,9.674h.041l19.447-.158a.261.261,0,0,1,.242.147l1.481,2.933,16.149-8.6a.269.269,0,0,1,.395.218c.06.837,1.471,20.52.375,22.711-1.02,2.039-8.9,4.861-10.5,5.416l.6,1.484a.269.269,0,0,1-.249.369H608.8a12.888,12.888,0,0,0-10.482,5.408.268.268,0,0,1-.211.113m54.733,11.139h-.628a.268.268,0,0,1-.2-.443,9.5,9.5,0,0,0,.72-.966.269.269,0,0,1,.493.177l-.113.993a.269.269,0,0,1-.267.238m1.623-14.314h-.014a.268.268,0,0,1-.255-.265c-.017-1.41-.044-3.269-.084-5.434a.268.268,0,0,1,.388-.246,1.759,1.759,0,0,0,.587.175.269.269,0,0,1,.237.3l-.593,5.234a.269.269,0,0,1-.267.238m.193-5.31q.007.424.014.832l.091-.8-.106-.028" transform="translate(-371.756 -191.563)" fill="#3b265d"/>
        <path id="Path_19757" data-name="Path 19757" d="M136.26,590.661l-9.241,48.682a8.356,8.356,0,0,0,16.413,3.14L154.4,585.418Z" transform="translate(-82.105 -378.856)" fill="#3b265d"/>
        <path id="Path_19758" data-name="Path 19758" d="M8.111,463.185l3.071-.06a6.089,6.089,0,0,1,6.208,6.088v29.451a2.039,2.039,0,0,1-1.814,2.026l2.217,19.548H63.742l-.01.119,1.314.082a3.225,3.225,0,0,1,3.225,3.225v2.62l5.7,47.333a1,1,0,0,1-1.978.261l-6.741-46.788H62.233l4.689,38.965a.838.838,0,0,1-1.662.219l-5.645-39.184H19.348L13.7,566.276a.838.838,0,0,1-1.662-.219l4.689-38.965H14.367L7.626,573.88a1,1,0,0,1-1.978-.261l5.7-47.333v-2.62a3.225,3.225,0,0,1,3.224-3.225L12.15,500.288l-1.786-.241A7.552,7.552,0,0,1,3.9,493.614L.832,471.785a7.551,7.551,0,0,1,7.279-8.6" transform="translate(-0.49 -299.713)" fill="#3b265d"/>
        <path id="Path_19759" data-name="Path 19759" d="M258.069,477.623l-11.823-16.362a.682.682,0,0,1,1.1-.808l12.035,16.075c.082.29,1.073,2.155,1.073,2.155Z" transform="translate(-159.276 -297.808)" fill="#3b265d"/>
        <path id="Path_19760" data-name="Path 19760" d="M97.525,570.858c.317.158,8.456.41,15.1.59a13,13,0,0,1,11.726,8.185L145.892,633.6a8.356,8.356,0,0,1-15.515,6.209L111.9,593.832,74.517,592.4a4.855,4.855,0,0,1-4.669-4.852V569.783Z" transform="translate(-45.202 -368.738)" fill="#3b265d"/>
        <path id="Path_19761" data-name="Path 19761" d="M203.968,485.632h18.205a5.979,5.979,0,0,1,0,11.958h-22.1s.671-10.211,3.9-11.958" transform="translate(-129.478 -314.279)" fill="#b5abd3"/>
        <path id="Path_19762" data-name="Path 19762" d="M114.363,337.417l-2.376-9a10.933,10.933,0,0,0-13.363-7.779l-5.266,1.391a10.933,10.933,0,0,0-7.778,13.363l2.376,9a10.982,10.982,0,0,0,.8,2.117c-2.047,6.3-3.6,12.788-6.612,18.673q9.627-1.023,19.176-2.654c-.622-2.884-1.21-6.053.175-8.659a6.868,6.868,0,0,1,1.972-2.266l3.115-.823a10.923,10.923,0,0,0,3.063-1.337c.093-.01.187-.021.279-.029l-.143-.066a10.931,10.931,0,0,0,4.579-11.93" transform="translate(-53.161 -207.268)" fill="#b5abd3"/>
        <path id="Path_19763" data-name="Path 19763" d="M94.769,440.323,116,456.042,112.5,469.477l-3.762-1.612-.4-2.015-13.57-6.987S94.5,481.3,96.381,484.122s6.852,5.643,6.852,5.643l.671,25.258-39.768-9.942,1.747-53.876s15.988-13.838,28.886-10.882" transform="translate(-41.506 -284.689)" fill="#fff"/>
        <path id="Path_19764" data-name="Path 19764" d="M64.87,299.569a1.247,1.247,0,0,1,1.065.3c.208.282.061.653-.09.962l-1.03,2.1a24.391,24.391,0,0,1,8.726-3.857,8.557,8.557,0,0,1,4.971.044,2.526,2.526,0,0,1,1.349,1.067,2.07,2.07,0,0,1-1,2.544,8.028,8.028,0,0,1-3.114.931,17.849,17.849,0,0,1,5.441.849,7,7,0,0,1,3.057,1.722,2.584,2.584,0,0,1,.521,3.016c-.725,1.217-2.531,1.563-4.093,1.512s-3.177-.357-4.656.089c1.1,1.015.339,2.748-.851,3.678s-2.754,1.5-3.695,2.633c-1.675,2.009-.715,4.85.611,7.051s3.02,4.5,2.622,6.961c-.3,1.868-1.706,4.018-.262,5.414a5.487,5.487,0,0,0,2.035.993,12.548,12.548,0,0,1,7.356,6.2,7.965,7.965,0,0,1-1.29,8.7,8.942,8.942,0,0,1-9.432,2.122c.159,2.665-2.334,5.047-5.234,5.847a16.491,16.491,0,0,1-8.944-.541,11.171,11.171,0,0,1-3.79,6.765c-2.2,1.679-5.822,2.123-7.989.408-2.066-1.636-2.111-4.453-1.667-6.864-2.259-.331-3.5-2.548-3.741-4.546a10.516,10.516,0,0,1,3.074-8.6,4.93,4.93,0,0,0,.928-1.09,4.317,4.317,0,0,0,.342-1.436,11.308,11.308,0,0,1,4.7-7.45,8.694,8.694,0,0,1-3.85-6.619A12.783,12.783,0,0,1,49,323.71a3.564,3.564,0,0,0,.737-2.555A4.657,4.657,0,0,0,48.2,319.26a7.309,7.309,0,0,1-2.452-6.245,6.221,6.221,0,0,1,4.7-4.941c.34-.08,1.973-2.448,2.662-2.849a14.03,14.03,0,0,0,2.757-1.946,14.434,14.434,0,0,1,9-3.711" transform="translate(-26.968 -193.318)" fill="#3b265d"/>
        <path id="Path_19765" data-name="Path 19765" d="M93.075,572.178c.4-.134,13.435-2.015,13.435-2.015l.537,8.33-2.15,6.986-7.39.135-4.434-4.3Z" transform="translate(-60.234 -368.984)" fill="#d4d9e8"/>
        <path id="Path_19766" data-name="Path 19766" d="M92.927,469.413a8.647,8.647,0,0,1-8-5.415L68.5,423.12,73.742,466.7a1.26,1.26,0,0,1-.353,1.037,1.247,1.247,0,0,1-1.031.374,1.263,1.263,0,0,1-1.127-1.079l-5-34.683-1.7,8.831L66.7,459.136a1.1,1.1,0,0,1-.308.907,1.087,1.087,0,0,1-.9.326,1.1,1.1,0,0,1-.985-.943L63.015,449.1,61.591,456.5a8.625,8.625,0,0,1-16.942-3.242l6.21-32.71-.317-.079H19.09l-5.612,38.954a1.1,1.1,0,0,1-.986.943,1.085,1.085,0,0,1-.9-.326,1.1,1.1,0,0,1-.309-.908l4.653-38.664H14.109L7.4,467.031a1.264,1.264,0,0,1-1.127,1.079,1.246,1.246,0,0,1-1.031-.374,1.26,1.26,0,0,1-.353-1.037l5.7-47.333,0-2.588a3.5,3.5,0,0,1,3.192-3.48l-2.359-19.659-1.58-.213a7.846,7.846,0,0,1-6.7-6.662L.076,364.934a7.82,7.82,0,0,1,7.538-8.905l3.073-.06a6.3,6.3,0,0,1,4.576,1.818q.214.21.405.435a6.524,6.524,0,0,1-1.16-3.017,10.82,10.82,0,0,1,3.15-8.819l.153-.152a3.819,3.819,0,0,0,.728-.873,3.351,3.351,0,0,0,.284-1.136l.029-.213a11.508,11.508,0,0,1,4.506-7.409,8.9,8.9,0,0,1-3.663-6.61,13.263,13.263,0,0,1,2.1-6.909,3.352,3.352,0,0,0,.711-2.352,3.557,3.557,0,0,0-1.167-1.5c-.1-.09-.2-.18-.291-.27a7.551,7.551,0,0,1-2.532-6.48,6.5,6.5,0,0,1,4.9-5.162,11.46,11.46,0,0,0,.946-1.081,9.354,9.354,0,0,1,1.642-1.738,13.766,13.766,0,0,0,2.711-1.912,14.632,14.632,0,0,1,9.17-3.781,1.483,1.483,0,0,1,1.294.405,1.205,1.205,0,0,1-.065,1.24l-.584,1.189a24.936,24.936,0,0,1,7.979-3.329,8.929,8.929,0,0,1,5.13.057,2.819,2.819,0,0,1,1.488,1.193,2.333,2.333,0,0,1-1.1,2.894,5,5,0,0,1-1.213.551,17.912,17.912,0,0,1,3.477.747,7.091,7.091,0,0,1,3.172,1.8,2.832,2.832,0,0,1,.554,3.335,2.764,2.764,0,0,1-.981.951,11.067,11.067,0,0,1,2.043,4.071l2.377,9a11.184,11.184,0,0,1-4.428,12.046.286.286,0,0,1,0,.065.269.269,0,0,1-.241.222l-.212.022a11.175,11.175,0,0,1-3.086,1.336l-2.7.712A12.379,12.379,0,0,1,57.1,343.17a8.4,8.4,0,0,1-.3,7.577L74.579,363.91H92.152l-5.4-7.473a.95.95,0,0,1,1.531-1.127l6.795,9.076a6.214,6.214,0,0,1,3.827,5.112l1.413,1.887a.273.273,0,0,1,.044.088c.051.182.645,1.338,1.051,2.1a.269.269,0,0,1-.346.372l-2.383-1.06a.272.272,0,0,1-.109-.088l-.137-.189a6.237,6.237,0,0,1-5.743,3.8H71.589l-.332,1.277a.269.269,0,0,1-.366.179l-3.762-1.612a.27.27,0,0,1-.158-.194l-.378-1.888-13.068-6.728c-.08,7.853.147,22.534,1.572,24.671a13.635,13.635,0,0,0,2.82,2.869c2.465.087,5.664.184,9.508.288A13.262,13.262,0,0,1,79.4,403.62l21.543,53.969a8.636,8.636,0,0,1-8.011,11.824M68.075,421.078a.269.269,0,0,1,.249.169l17.1,42.55a8.087,8.087,0,0,0,10.564,4.472,8.111,8.111,0,0,0,4.452-10.481L78.9,403.819A12.724,12.724,0,0,0,67.412,395.8c-3.893-.105-7.123-.2-9.6-.291a.27.27,0,0,1-.158-.058,14.3,14.3,0,0,1-3-3.046c-1.905-2.858-1.669-24.491-1.658-25.411a.269.269,0,0,1,.392-.235l13.57,6.986a.266.266,0,0,1,.14.186l.375,1.877,3.345,1.434.305-1.176a.269.269,0,0,1,.26-.2H92.7a5.7,5.7,0,0,0,5.414-3.9.269.269,0,0,1,.473-.072l.386.535,1.61.716c-.279-.537-.621-1.213-.716-1.468L98.43,369.76a.271.271,0,0,1-.052-.137,5.679,5.679,0,0,0-3.57-4.768.271.271,0,0,1-.115-.088l-6.84-9.135a.415.415,0,0,0-.549-.1.413.413,0,0,0-.116.592l5.708,7.9a.269.269,0,0,1-.218.426H74.49a.267.267,0,0,1-.16-.053l-18.042-13.36a.269.269,0,0,1-.069-.357,7.84,7.84,0,0,0,.4-7.285,12.051,12.051,0,0,0-6.593-5.829.269.269,0,0,1-.068-.459l.07-.059c.04-.035.08-.069.122-.1a.267.267,0,0,1,.093-.045l3.116-.823a10.652,10.652,0,0,0,2.988-1.3.251.251,0,0,1,.065-.03.271.271,0,0,1,.067-.063,10.647,10.647,0,0,0,4.467-11.637l-2.376-9a10.563,10.563,0,0,0-2.143-4.118.269.269,0,0,1,.089-.415,2.385,2.385,0,0,0,1.05-.9,2.323,2.323,0,0,0-.488-2.7,6.59,6.59,0,0,0-2.941-1.648,17.461,17.461,0,0,0-5.359-.836.269.269,0,0,1-.041-.534,7.862,7.862,0,0,0,3.01-.892,1.831,1.831,0,0,0,.911-2.194,2.308,2.308,0,0,0-1.21-.941,8.45,8.45,0,0,0-4.813-.032A24.194,24.194,0,0,0,38,302.652a.269.269,0,0,1-.4-.337l1.031-2.1c.173-.353.208-.558.115-.683-.108-.146-.39-.21-.837-.188a14.091,14.091,0,0,0-8.833,3.641,14.4,14.4,0,0,1-2.8,1.979,9.955,9.955,0,0,0-1.5,1.615c-.734.893-1.011,1.21-1.238,1.263a5.952,5.952,0,0,0-4.495,4.72,7.019,7.019,0,0,0,2.37,6.01c.093.088.188.176.285.264a3.933,3.933,0,0,1,1.323,1.756,3.727,3.727,0,0,1-.748,2.729c-1.488,2.6-2.133,4.7-2.045,6.646a8.406,8.406,0,0,0,3.734,6.41.269.269,0,0,1,0,.44,11.016,11.016,0,0,0-4.587,7.27l-.029.208a3.812,3.812,0,0,1-.341,1.315,4.262,4.262,0,0,1-.825,1l-.15.149a10.282,10.282,0,0,0-3,8.375c.236,1.925,1.414,4.006,3.513,4.313a.27.27,0,0,1,.225.314c-.571,3.106-.043,5.328,1.57,6.6a5.428,5.428,0,0,0,3.741,1.013.268.268,0,0,1,.286.277l-1.47,45.347.327.081a.269.269,0,0,1-.065.53H17.3a.269.269,0,0,1-.267-.238l-2.217-19.548a.27.27,0,0,1,.238-.3,1.768,1.768,0,0,0,1.574-1.759V362.326a5.819,5.819,0,0,0-5.933-5.819l-3.071.06A7.283,7.283,0,0,0,.608,364.86l3.066,21.829a7.308,7.308,0,0,0,6.237,6.2l1.786.241a.268.268,0,0,1,.231.234l2.418,20.153a.269.269,0,0,1-.267.3,2.959,2.959,0,0,0-2.956,2.956v2.62l-5.7,47.365a.724.724,0,0,0,.2.6.729.729,0,0,0,1.242-.406l6.74-46.789a.269.269,0,0,1,.266-.23h2.362a.268.268,0,0,1,.267.3L11.817,459.2a.567.567,0,0,0,.159.467.569.569,0,0,0,.97-.318l5.646-39.184a.269.269,0,0,1,.266-.23H50.575a.273.273,0,0,1,.066.008l.595.149a.269.269,0,0,1,.2.311l-6.257,32.96a8.087,8.087,0,0,0,15.885,3.04l1.726-8.978a.26.26,0,0,1,.27-.218.269.269,0,0,1,.26.23l1.716,11.912a.569.569,0,0,0,1.129-.149L64,441.2a.272.272,0,0,1,0-.083l2.007-10.443a.265.265,0,0,1,.27-.218.269.269,0,0,1,.26.23l5.225,36.266a.729.729,0,0,0,1.445-.192l-5.437-45.187a.268.268,0,0,1,0-.082l.038-.2a.269.269,0,0,1,.238-.217h.026m-50.533-8h4.823l1.464-45.148a5.846,5.846,0,0,1-3.814-1.141c-1.733-1.372-2.342-3.679-1.811-6.858a4.154,4.154,0,0,1-2.282-1.394,6.3,6.3,0,0,1,1.247,3.784v29.451a2.305,2.305,0,0,1-1.787,2.248Z" transform="translate(0 -192.825)" fill="#3b265d"/>
      </g>
    </g>
  </g>
</svg>
