<svg id="Group_2677" data-name="Group 2677" xmlns="http://www.w3.org/2000/svg" xmlns:xlink="http://www.w3.org/1999/xlink" width="262.846" height="350.337" viewBox="0 0 262.846 350.337">
  <defs>
    <clipPath id="clip-path">
      <rect id="Rectangle_2025" data-name="Rectangle 2025" width="262.846" height="350.337" fill="none"/>
    </clipPath>
    <clipPath id="clip-path-2">
      <path id="Path_10279" data-name="Path 10279" d="M94.6,0a48.573,48.573,0,0,0-7.046.632C78.278,2.037,67.841,4.461,63.339,13.8c-1.525,3.168-2.171,7.084-2.807,10.491-.34,1.827-.007,3.8-.351,5.547-.277,1.407-.763,1.529-2,1.989-3.447,1.277-7.331,1.207-10.863,2.6-10.6,4.2-21.128,13.4-22.395,25.4-.814,7.715,1.619,13.959,7.892,18.6,1.194.884,2.932,1.683,3.722,2.979,1.577,2.588-1.323,5.6-2.8,7.5-4.689,6.037-9.668,11.339-12.823,18.385a36.223,36.223,0,0,0-2.365,20.286c1.291,7.777,4.9,13.448,10.859,18.373,1.351,1.117,2.746,2.178,4.159,3.217A119.846,119.846,0,1,0,241.3,176.256a79.624,79.624,0,0,0,4.835-7.165c8.642-14.383,16-29.809,16.6-46.831a100.312,100.312,0,0,0-1.228-21.849,95.779,95.779,0,0,0-5.27-16.935A112.615,112.615,0,0,0,242.35,58,56.234,56.234,0,0,0,232.616,47.4c-5.083-4.163-11.022-7.274-16.549-10.776-10.232-6.482-21.536-14.244-33.749-15.978-5.323-.755-11.782-1.185-17.18-.28-5.51.923-10.3,4.087-15.122,6.716-2.2,1.2-4.322,2.564-6.9,2.61A23.192,23.192,0,0,1,131.9,26.678c-8.292-4.667-14.683-11.678-21-18.63-2.284-2.514-4.721-5.22-7.93-6.564A21.12,21.12,0,0,0,94.82,0Z" fill="none"/>
    </clipPath>
    <clipPath id="clip-path-3">
      <path id="Path_10319" data-name="Path 10319" d="M92.934,6.3c-2.424.391-4.615,3.175-5.812,5.119-3.77,6.122-2.71,14.665-1.754,21.427.891,6.3,1.636,12.505,3.314,18.656a21.4,21.4,0,0,1,.857,4.572A3.731,3.731,0,0,1,87.691,59.8a22.678,22.678,0,0,1-4.272,1.944,30.474,30.474,0,0,0-8.7,5.863,64.728,64.728,0,0,1-7.238,6.149c-2.467,1.644-4.906,3.319-7.23,5.163a25.946,25.946,0,0,0-5.307,5.984,11.68,11.68,0,0,0-2.17,4.682c-.687,4.762.52,9.776,1.291,14.432.761,4.595,1.526,9.1,2.729,13.6a94.988,94.988,0,0,1,2.434,12.551c.484,3.828.4,7.772,1.195,11.545.456,2.178.734,4.426,1.386,6.561.789,2.583,1.966,5.107,2.985,7.6a61.126,61.126,0,0,0,2.957,6.314L41.242,275.2l140.393,30.745,48.982-209.76a1.45,1.45,0,0,0-1.1-1.726L125.588,71.4c-.582-2.623-1.056-5.264-1.833-7.844-1.278-4.251-2.7-8.481-4.122-12.684-1.352-3.983-2.729-7.967-3.894-12.01-1.282-4.453-2.262-8.9-4.489-13.013a90.616,90.616,0,0,0-5.615-8.877c-2.161-3.077-4.371-6.138-7.38-8.437-1.123-.859-3.308-2.265-4.931-2.265a2.475,2.475,0,0,0-.39.03" fill="none"/>
    </clipPath>
  </defs>
  <g id="Group_2666" data-name="Group 2666">
    <g id="Group_2665" data-name="Group 2665" clip-path="url(#clip-path)">
      <path id="Path_10268" data-name="Path 10268" d="M129.875,100.587A119.875,119.875,0,1,0,249.75,220.462,120.011,120.011,0,0,0,129.875,100.587" fill="#fff"/>
      <path id="Path_10269" data-name="Path 10269" d="M129.875,350.337A129.875,129.875,0,1,1,259.75,220.462,130.022,130.022,0,0,1,129.875,350.337m0-249.75A119.875,119.875,0,1,0,249.75,220.462,120.011,120.011,0,0,0,129.875,100.587" fill="#3b265d"/>
    </g>
  </g>
  <g id="Group_2668" data-name="Group 2668">
    <g id="Group_2667" data-name="Group 2667" clip-path="url(#clip-path-2)">
      <path id="Path_10270" data-name="Path 10270" d="M103.356,19.413H98.318A2.519,2.519,0,0,1,95.8,16.894V11.856A2.519,2.519,0,0,0,93.28,9.337H79.845a2.519,2.519,0,0,0-2.519,2.519v5.038a2.519,2.519,0,0,1-2.519,2.519H69.769a2.519,2.519,0,0,0-2.519,2.519V35.367a2.519,2.519,0,0,0,2.519,2.519h5.038A2.519,2.519,0,0,1,77.326,40.4v5.038a2.519,2.519,0,0,0,2.519,2.519H93.28A2.519,2.519,0,0,0,95.8,45.443V40.4a2.519,2.519,0,0,1,2.519-2.519h5.038a2.519,2.519,0,0,0,2.519-2.519V21.932a2.519,2.519,0,0,0-2.519-2.519" fill="#6cbdff"/>
      <path id="Path_10271" data-name="Path 10271" d="M30.6,303.454l0,0,2.478,2.294a10.947,10.947,0,0,0,3.732,1.6L174.079,337.8a10.956,10.956,0,0,0,13.058-8.316L240.893,98.236a10.852,10.852,0,0,0-.011-4.726L238.7,88.99a10.885,10.885,0,0,0-6.129-3.807L95.306,54.734a10.941,10.941,0,0,0-13.058,8.317L28.492,294.294a10.866,10.866,0,0,0,1.455,8.246q.3.477.65.914m88.609,1.314-1.492,6.583a7.43,7.43,0,0,1-8.9,5.61l-9.144-2.071a7.434,7.434,0,0,1-5.609-8.9l1.491-6.583a7.435,7.435,0,0,1,8.9-5.61l9.144,2.071a7.447,7.447,0,0,1,5.61,8.9M41.755,275.084,91.036,64.994a1.934,1.934,0,0,1,2.322-1.473L230.627,93.969a1.95,1.95,0,0,1,1.479,2.323l-49.1,210.245-.483-.1L41.639,275.578Z" fill="#93a8b5"/>
      <path id="Path_10272" data-name="Path 10272" d="M113.375,296.846l-9.144-2.071a6.487,6.487,0,0,0-1.434-.161,6.443,6.443,0,0,0-6.267,5.017l-1.491,6.583a6.436,6.436,0,0,0,4.856,7.7l9.143,2.072a6.446,6.446,0,0,0,7.7-4.857l1.492-6.583a6.446,6.446,0,0,0-4.856-7.7" fill="#8c969b"/>
      <path id="Path_10273" data-name="Path 10273" d="M230.41,94.945,93.139,64.5a.933.933,0,0,0-1.128.719l-49.167,209.6L182.26,305.349,231.13,96.07a.947.947,0,0,0-.72-1.125" fill="#6cbdff"/>
      <path id="Path_10274" data-name="Path 10274" d="M242.146,96.135a11.975,11.975,0,0,1-.278,2.323L188.112,329.7a11.958,11.958,0,0,1-11.639,9.359,12.018,12.018,0,0,1-2.611-.287L36.592,308.324c-.351-.079-.695-.176-1.035-.284l1.207,1.118a31.132,31.132,0,0,0,14.4,7.542l128.919,28.6a10.946,10.946,0,0,0,13.057-8.316L245.37,112.6a19.876,19.876,0,0,0-1.491-12.869Z" fill="#93a8b5"/>
      <path id="Path_10275" data-name="Path 10275" d="M173.971,338.284,36.7,307.836A11.447,11.447,0,0,1,28,294.181L81.76,62.943a11.448,11.448,0,0,1,13.655-8.7L232.684,84.695a11.449,11.449,0,0,1,8.7,13.654L187.626,329.587A11.449,11.449,0,0,1,173.971,338.284Z" fill="none" stroke="#3b265d" stroke-miterlimit="10" stroke-width="1"/>
      <path id="Path_10276" data-name="Path 10276" d="M239.125,88.712l5.2,10.8a20.3,20.3,0,0,1,1.529,13.2L193.625,337.087a11.448,11.448,0,0,1-13.655,8.7l-128.918-28.6a31.613,31.613,0,0,1-14.628-7.663l-6.164-5.707" fill="none" stroke="#3b265d" stroke-miterlimit="10" stroke-width="1"/>
      <path id="Path_10277" data-name="Path 10277" d="M230.519,94.457,93.248,64.009a1.433,1.433,0,0,0-1.725,1.1L42.242,275.2l140.393,30.745L231.618,96.184A1.45,1.45,0,0,0,230.519,94.457Z" fill="none" stroke="#3b265d" stroke-miterlimit="10" stroke-width="1"/>
      <path id="Rectangle_2026" data-name="Rectangle 2026" d="M6.938,0h6.75a6.937,6.937,0,0,1,6.937,6.937v9.375a6.937,6.937,0,0,1-6.937,6.937H6.938A6.938,6.938,0,0,1,0,16.312V6.938A6.938,6.938,0,0,1,6.938,0Z" transform="translate(93.019 312.87) rotate(-77.237)" fill="none" stroke="#3b265d" stroke-miterlimit="10" stroke-width="1"/>
      <path id="Path_10278" data-name="Path 10278" d="M159.418,111.838h-4.665a2.332,2.332,0,0,1-2.332-2.332v-4.665a2.333,2.333,0,0,0-2.333-2.333H137.649a2.334,2.334,0,0,0-2.333,2.333v4.665a2.332,2.332,0,0,1-2.332,2.332h-4.665a2.332,2.332,0,0,0-2.332,2.332v12.44a2.332,2.332,0,0,0,2.332,2.332h4.665a2.333,2.333,0,0,1,2.332,2.333v4.665a2.333,2.333,0,0,0,2.333,2.332h12.439a2.332,2.332,0,0,0,2.333-2.332v-4.665a2.333,2.333,0,0,1,2.332-2.333h4.665a2.332,2.332,0,0,0,2.332-2.332V114.17a2.332,2.332,0,0,0-2.332-2.332" fill="#fff"/>
    </g>
  </g>
  <g id="Group_2670" data-name="Group 2670">
    <g id="Group_2669" data-name="Group 2669" clip-path="url(#clip-path-3)">
      <path id="Path_10280" data-name="Path 10280" d="M93.133,113.8a.235.235,0,0,1,.09.139.256.256,0,0,1-.041.182.244.244,0,0,1-.361.035,5.741,5.741,0,0,1,.605.988,18.683,18.683,0,0,1,1.159,3.1c.281.965.529,1.937.773,2.912a4.815,4.815,0,0,0,.569,1.49c.283.432.684.774,1,1.18-.473-2.261-.837-4.558-1.12-6.831a21.437,21.437,0,0,1-.27-3.065c0-.177.009-.381.028-.589-.806.182-1.617.332-2.431.458" fill="#ad865a"/>
      <path id="Path_10281" data-name="Path 10281" d="M109.644,194.623c1.3,2.26,2.577,4.531,3.871,6.793,2.665,4.659,5.426,9.275,8.4,13.743a137.53,137.53,0,0,0,9.379,12.53,55.439,55.439,0,0,0,6.269,6.583.278.278,0,0,1,.329.155.573.573,0,0,1,.558,0,4.164,4.164,0,0,1,1.961,1.954c.209.133.422.26.637.386.608-.545,1.19-1.113,1.742-1.683a62.785,62.785,0,0,0,5.683-7.027,86.705,86.705,0,0,0,13.787-28.364c1.388-5.244,2.154-10.7.4-15.964a33.5,33.5,0,0,0-1.727-4.268,18.041,18.041,0,0,1-2.7-1.624c-1.143-.765-2.278-1.535-3.375-2.365a53.987,53.987,0,0,1-10.386-10.056,68.268,68.268,0,0,1-3.984-6.043c-.59-.968-1.2-1.927-1.742-2.924-.213-.392-.448-.828-.642-1.282-.269.386-.538.771-.818,1.151a14.34,14.34,0,0,1-2.33,2.589,3.038,3.038,0,0,1-2.259.81.311.311,0,0,1,.058-.619c.752.011,1.39-.658,1.871-1.153a19.832,19.832,0,0,0,3.182-4.893.562.562,0,0,1,.086-.167c.168-.328.336-.656.505-.979,1.111-2.125,2.155-4.3,3.155-6.484a69.958,69.958,0,0,0,3.913-10.622c.509-1.854.907-3.732,1.292-5.615a56.773,56.773,0,0,0,.939-5.735c.356-3.554.118-7.3-1.824-10.4a19.671,19.671,0,0,0-6.586-5.931c-2.6-1.6-5.363-2.913-8.028-4.4A72.111,72.111,0,0,1,122,96.5c-2.962-2.319-5.768-4.833-8.49-7.428-1.2-1.14-2.329-2.386-3.626-3.414a5.167,5.167,0,0,0-3.4-1.311,15.175,15.175,0,0,0-5.383,1.678c-1.816.819-3.571,1.765-5.348,2.663-3.7,1.872-7.426,3.707-11.205,5.422-3.738,1.7-7.532,3.275-11.4,4.654-1.616.577-3.241,1.156-4.9,1.59a18.427,18.427,0,0,0-3.552,1.169c-.939.464-1.757,1.11-1.628,2.243a8.681,8.681,0,0,0,1.757,3.757,11.361,11.361,0,0,0,2.527,2.765A11.827,11.827,0,0,0,70.957,112a30.262,30.262,0,0,0,8.431.98c3.376.028,6.781,0,10.145-.273a45.387,45.387,0,0,0,12.07-2.755c1.948-.716,3.84-1.565,5.757-2.359,1.784-.739,3.8-1.136,5.461-2.141.329-.2.581.342.256.538-1.707,1.033-3.488,1.883-5.251,2.817a50.235,50.235,0,0,1-11.259,4.283c.008.07.016.14.02.2.039.534.111,1.072.187,1.6.18,1.253.359,2.507.573,3.754a74,74,0,0,0,1.835,8.662,27.755,27.755,0,0,0,3.043,6.747.7.7,0,0,1,.186.308c.042.064.078.133.12.2a19.394,19.394,0,0,0,5.461,5.726,11.512,11.512,0,0,0,3.249,1.4,15.917,15.917,0,0,0,1.826.345c.317.046.636.068.953.106s.632.125.962.141c.585.029.634,1,.043,1.04-.408.026-.8.121-1.207.113-.372-.006-.745-.027-1.115-.062a12.257,12.257,0,0,1-2.17-.438,12.555,12.555,0,0,1-3.993-1.956,21.328,21.328,0,0,1-5.167-5.632,7.332,7.332,0,0,1-1.41-.061,20.4,20.4,0,0,1-2.158-.331,19.32,19.32,0,0,1-7.416-3.264,14.237,14.237,0,0,1-4.866-5.785.039.039,0,0,1,.07-.033,11.459,11.459,0,0,0,2.737,3.22,20.525,20.525,0,0,0,3.111,2.023,29.095,29.095,0,0,0,7.169,2.338q.875.147,1.76.216a31.038,31.038,0,0,1-2.817-7.125c-.032-.125-.057-.252-.089-.378a.553.553,0,0,1-.222.014A3.72,3.72,0,0,1,94.93,124.6a5.573,5.573,0,0,1-1.736.846,8.4,8.4,0,0,1-2.666.542,3.347,3.347,0,0,1-2.951-1.473,23.7,23.7,0,0,1-1.722-3.356c-.6-1.289-1.162-2.59-1.765-3.875a16.6,16.6,0,0,1,.081,2.675,14.918,14.918,0,0,1-3.1,8.561,7.611,7.611,0,0,1-3.087,2.546,3.357,3.357,0,0,1-3.283-.3,5.654,5.654,0,0,1-1.759-2.661,29.84,29.84,0,0,1-.882-3.278c-.014-.06-.033-.119-.047-.179q.062,1.4.049,2.8a25.354,25.354,0,0,1-.574,5.46c-.083.363-.161.729-.242,1.094a40.255,40.255,0,0,0,.056,6.821c.186,2.408.343,4.837.667,7.231a18.327,18.327,0,0,0,1.964,6.491,19.64,19.64,0,0,0,3.822,4.787,30.336,30.336,0,0,0,4.888,3.648c2.037,1.253,4.094,2.484,6.193,3.631,3.548,1.939,7.577,3.332,10.065,6.664-.1-.453-.179-.907-.229-1.363-.011-.1.138-.157.171-.055a35.173,35.173,0,0,0,1.551,3.9c.162.328.325.656.478.99q.692,1.424,1.431,2.836c.669,1.282,1.335,2.568,1.938,3.882.611,1.33,1.1,2.708,1.7,4.045a78,78,0,0,0,3.711,7.117m-7.722-35.573a.079.079,0,0,1-.15-.013c-.028-.487-.145-.991-.215-1.478-.067-.469-.161-.933-.273-1.393a23.839,23.839,0,0,0-.931-2.952,53.71,53.71,0,0,0-2.345-5.055,41.189,41.189,0,0,0-2.657-4.734,26.151,26.151,0,0,0-3.56-4.076c-.629-.6-1.282-1.167-1.947-1.723-.706-.589-1.682-1.148-2.082-2-.188-.4.141-1.013.636-.91a7.11,7.11,0,0,1,2.776,1.881c.806.686,1.595,1.394,2.346,2.141a24.477,24.477,0,0,1,3.636,4.524,46.321,46.321,0,0,1,2.516,5.015,34.239,34.239,0,0,1,2.036,5.478,13.914,13.914,0,0,1,.471,2.822,9.987,9.987,0,0,1,0,1.34,7.282,7.282,0,0,1-.255,1.135" fill="#ad865a"/>
      <path id="Path_10282" data-name="Path 10282" d="M84.03,114.768a13.7,13.7,0,0,1,1.408,2.111c.856,1.53,1.611,3.106,2.407,4.666.461.9.907,2.462,2.02,2.742a4.567,4.567,0,0,0,2.363-.245,10.3,10.3,0,0,0,1.332-.538,4.97,4.97,0,0,1,.628-.267,16.888,16.888,0,0,1-.744-2.489c-.285-1.215-.551-2.429-.907-3.627-.22-.74-.478-1.463-.77-2.178-.124-.3-.285-.6-.423-.9-2.508.283-5.04.371-7.566.416.094.116.18.226.252.312" fill="#ad865a"/>
      <path id="Path_10283" data-name="Path 10283" d="M97.068,124.489l0-.023s-.01.008-.013.013l.018.01" fill="#ad865a"/>
      <path id="Path_10284" data-name="Path 10284" d="M163.775,235.851c5.1-6.814,10.131-13.9,12.7-22.1a68.6,68.6,0,0,0,2.367-13.808c.47-4.733.737-9.865-1.007-14.389a10.848,10.848,0,0,0-3.217-4.634,18.326,18.326,0,0,0-4.976-2.813,29.712,29.712,0,0,0-9.188-2,27.78,27.78,0,0,1,2.308,3.2.658.658,0,0,1-.14.853,27.746,27.746,0,0,1,1.437,3.388,23,23,0,0,1,1.139,8.95,42,42,0,0,1-1.585,8.432,78.484,78.484,0,0,1-6.077,15.525,100.344,100.344,0,0,1-8.961,14.228,52.84,52.84,0,0,1-5.612,6.533,18.64,18.64,0,0,1-6.354,4.216,6.629,6.629,0,0,0,1.534,2.141c1.266,1.369,2.542,2.729,3.916,3.989a20.111,20.111,0,0,0,2.076,1.7,5.43,5.43,0,0,0,1.713.855,5.971,5.971,0,0,0,3.591-.457,16.556,16.556,0,0,0,3.83-2.295c-.1-.072-.205-.139-.306-.214a.254.254,0,0,1,.232-.445c.222.058.435.136.651.206a41.908,41.908,0,0,0,3.631-3.462,83.607,83.607,0,0,0,6.294-7.6" fill="#fff"/>
      <path id="Path_10285" data-name="Path 10285" d="M217.986,193.892c-.017.01-.013.015,0,.016v-.016" fill="#6cbdff"/>
      <path id="Path_10286" data-name="Path 10286" d="M92.581,113.886c.033.032.063.066.1.1l.055-.01.015,0a.229.229,0,0,1,.036-.116l-.2.03" fill="#6cbdff"/>
      <path id="Path_10287" data-name="Path 10287" d="M159.141,177.1c-.2-.227-.4-.448-.6-.666a1.383,1.383,0,0,0-.224-.026c.276.23.55.463.827.692" fill="#6cbdff"/>
      <path id="Path_10288" data-name="Path 10288" d="M82,80.2c-1.245.489-2.52.9-3.8,1.267-2.211.637-4.447,1.166-6.692,1.664-1.134.252-2.7.542-2.822,1.917a7.427,7.427,0,0,0,.681,3.18,32.421,32.421,0,0,0,1.528,3.205c.566,1.083,1.138,2.162,1.691,3.251a14.812,14.812,0,0,1,.824,1.793c.046.135.1.271.141.409,1.19-.438,2.376-.888,3.552-1.36,3.794-1.522,7.517-3.211,11.2-4.982-1.032-2.7-2.073-5.416-2.953-8.168-.351-1.1-.694-2.2-1.038-3.3a4.179,4.179,0,0,1-.471.307c-.6.3-1.213.575-1.836.82" fill="#ad865a"/>
      <path id="Path_10289" data-name="Path 10289" d="M137.316,237.456c-.009.045-.018.09-.028.135.16-.294.33-.583.5-.871-.168.239-.324.485-.472.736" fill="#6cbdff"/>
      <path id="Path_10290" data-name="Path 10290" d="M216.951,193.63c-4.229.216-21.292,1.667-22.505,1.624a43.339,43.339,0,0,1-8.8-.916,15.667,15.667,0,0,1-3.77-1.374,6.885,6.885,0,0,1-1.1-.764,64.724,64.724,0,0,1-.7,11.449,73.1,73.1,0,0,1-1.169,7.391,44.374,44.374,0,0,1-2.118,6.7,66.221,66.221,0,0,1-6.843,12.344c-2.1,3.086-4.316,6.115-6.627,9.051a61.822,61.822,0,0,1-7.609,8.3c-.048.042-.1.084-.148.126.747.333,1.477.706,2.2,1.081q2.217,1.143,4.391,2.367c2.571,1.445,5.131,2.919,7.761,4.255a41.946,41.946,0,0,0,7.855,3.08c2.648.733,5.351,1.234,8.049,1.737,1.337.249,2.673.5,4,.773q1.061.221,2.115.465a7.233,7.233,0,0,1,1.372.387c.03-.053.058-.107.088-.16a10.31,10.31,0,0,1,1.81-2.035c.8-.8,1.74-1.47,2.478-2.345a5.875,5.875,0,0,0,.763-1.271c.71-1.488,1.347-3,1.952-4.536,1.936-4.906,4.3-9.636,6.111-14.6a182.671,182.671,0,0,0,5.123-17.735c1.011-3.971,2.258-7.9,3.106-11.91.3-1.4.584-2.81.826-4.221a11.832,11.832,0,0,1,.89-3.215,15.445,15.445,0,0,0,1.519-5.69c0-.026,0-.051,0-.076a.848.848,0,0,1-1.034-.284" fill="#fff"/>
      <path id="Path_10291" data-name="Path 10291" d="M71.034,97.785c.358-.123.712-.257,1.069-.383-.139-.258-.268-.521-.394-.768-.331-.65-.645-1.307-.981-1.954-.662-1.272-1.345-2.535-1.986-3.819-.011-.022-.02-.044-.031-.066a9.789,9.789,0,0,1-1.034.978q-.8.745-1.656,1.436c-1.072.87-2.25,1.541-3.38,2.314a2.652,2.652,0,0,0-.432.351c-.013.022-.069.1-.1.138a1.072,1.072,0,0,0-.046.113l-.007.023a1.181,1.181,0,0,0-.013.118.559.559,0,0,0,0,.19,4.621,4.621,0,0,0,.151.8,11.729,11.729,0,0,0,.548,1.609,4.053,4.053,0,0,1,.586,1.6,12.855,12.855,0,0,1,3.435-1.394c1.439-.4,2.859-.8,4.275-1.284" fill="#ad865a"/>
      <path id="Path_10292" data-name="Path 10292" d="M69.25,113.052c.1.16.2.319.3.48a10.971,10.971,0,0,1,1.21,2.8c.013.047.024.1.037.144a33.8,33.8,0,0,1,1.347,3.208,46.135,46.135,0,0,1,1.455,4.768,28.937,28.937,0,0,0,.753,2.854,4.572,4.572,0,0,0,1.315,2.158,2.08,2.08,0,0,0,2.292-.2,8.157,8.157,0,0,0,2.418-2.6,13.939,13.939,0,0,0,1.562-3.3,14.534,14.534,0,0,0,.614-4.2,13.136,13.136,0,0,0-.177-2.335c-.064-.388-.146-.774-.248-1.154s-.113-.762-.213-1.142c0-.016,0-.029,0-.044a56.684,56.684,0,0,1-7.543-.248,21.329,21.329,0,0,1-5.117-1.186" fill="#ad865a"/>
      <path id="Path_10293" data-name="Path 10293" d="M95,69.945a20.7,20.7,0,0,1-4.154.485,34.9,34.9,0,0,0-3.723.317,4.643,4.643,0,0,0-2.6.925,1.944,1.944,0,0,0-.245,1.752,15.877,15.877,0,0,0,.671,2.157c.914,2.6,1.571,5.294,2.492,7.9.737,2.086,1.9,4.308,1.878,6.573q2.7-1.31,5.374-2.663c1.867-.943,3.71-1.94,5.616-2.805.26-.119.526-.237.794-.355a50.919,50.919,0,0,1-1.658-7.964c-.477-2.566-1.071-5.109-1.647-7.656a4.488,4.488,0,0,1-.863.6,8.059,8.059,0,0,1-1.93.738" fill="#ad865a"/>
      <path id="Path_10294" data-name="Path 10294" d="M95.377,46.9l-.013-.018c.093.46.18.919.264,1.374.268,1.463.5,2.934.724,4.4.412,2.724.744,5.464,1.2,8.18.449,2.673,1.064,5.314,1.676,7.953.618,2.667,1.247,5.332,1.73,8.027a58.088,58.088,0,0,0,1.453,6.861,13.646,13.646,0,0,1,3.5-.928,6.4,6.4,0,0,1,4.284,1.092,27.424,27.424,0,0,1,3.649,3.275c1.408,1.359,2.834,2.7,4.295,4a88.336,88.336,0,0,0,9.166,7.209,81.163,81.163,0,0,0,7,4.149,46.977,46.977,0,0,1-4.648-5.253,132.4,132.4,0,0,1-8.107-12.62A144.822,144.822,0,0,1,108.392,56.47a190.643,190.643,0,0,1-7.549-30.876c-.29-1.925-.512-3.842-.684-5.779a8.984,8.984,0,0,0-.986-4.116,1.939,1.939,0,0,0-3.08-.027A10.608,10.608,0,0,0,93.893,20a40.388,40.388,0,0,0-1.5,5.889,51.1,51.1,0,0,0-.637,7.244,18.721,18.721,0,0,0,1.024,6.94,22.364,22.364,0,0,0,3.516,6.049c.478.606-.435,1.382-.914.776" fill="#ad865a"/>
      <path id="Path_10295" data-name="Path 10295" d="M158,176.392c1.41-.168,2.314,1.834,2.823,2.832a32.673,32.673,0,0,1,1.831,4.5c1.759,5.265.993,10.72-.394,15.964a86.715,86.715,0,0,1-13.787,28.364,62.794,62.794,0,0,1-5.684,7.027c-1.964,2.03-4.271,4.064-7.016,4.935a.846.846,0,0,0-.664.95.823.823,0,0,0,.95.664,18.049,18.049,0,0,0,6.908-4.417,52.929,52.929,0,0,0,5.612-6.532,100.344,100.344,0,0,0,8.961-14.228,78.5,78.5,0,0,0,6.076-15.525,42,42,0,0,0,1.586-8.432,23.017,23.017,0,0,0-1.14-8.95,23.342,23.342,0,0,0-2.395-5.071c-.709-1.077-2.211-3.147-3.749-2.339a.137.137,0,0,0,.082.257" fill="#3b265d"/>
      <path id="Path_10296" data-name="Path 10296" d="M137.465,234.3a5.642,5.642,0,0,0-1.273,2.121c-.393.944-.709,1.917-1.063,2.876a.557.557,0,0,0,1.044.386c.367-.848.811-1.661,1.195-2.5l-1.187-.438A39.6,39.6,0,0,0,135.31,241a.674.674,0,0,0,1.213.446c1.072-1.357,1.735-2.966,2.665-4.413l-1.123-.786a13.4,13.4,0,0,0-.883,2.639c-.2.63.569,1.276,1.107.775a11.923,11.923,0,0,1,2.029-1.566.743.743,0,0,0,.4-.774,4.048,4.048,0,0,0-2.266-2.9c-.647-.321-1.12.48-.929,1.017-.05-.139.033.133.039.159.036.145.068.29.1.435.064.264.133.522.22.78.266.8,1.636.365,1.42-.454-.123-.466-.42-.868-.54-1.324a.765.765,0,0,0-1.361-.3c-1.466,1.78-2.908,4.076-2.431,6.49.385,1.947,1.994,3.347,3.3,4.732a40.6,40.6,0,0,0,4.465,4.254,6.594,6.594,0,0,0,4.154,1.644c3.369-.037,6.4-2.292,8.827-4.421a61.741,61.741,0,0,0,7.609-8.3c2.311-2.936,4.523-5.965,6.627-9.051a66.221,66.221,0,0,0,6.843-12.344,44.447,44.447,0,0,0,2.118-6.7,72.914,72.914,0,0,0,1.169-7.391c.631-5.075,1.213-10.343.219-15.411a16.3,16.3,0,0,0-2.621-6.5,13.9,13.9,0,0,0-4.427-3.745,29.511,29.511,0,0,0-11.987-3.488,26.323,26.323,0,0,0-2.664-.091c-.625.012-1.291.8-.707,1.358a27.458,27.458,0,0,1,3.555,4.383c.5.728,1.795-.091,1.317-.852a23.289,23.289,0,0,0-3.613-4.6l-.707,1.358a29.479,29.479,0,0,1,11.2,2.042,18.326,18.326,0,0,1,4.976,2.813,10.846,10.846,0,0,1,3.216,4.634c1.744,4.525,1.477,9.656,1.007,14.389a68.663,68.663,0,0,1-2.366,13.808c-2.573,8.208-7.6,15.29-12.705,22.1a83.44,83.44,0,0,1-6.294,7.6c-2.3,2.415-4.9,4.922-8.037,6.21a5.977,5.977,0,0,1-3.593.457,5.456,5.456,0,0,1-1.712-.855,20.338,20.338,0,0,1-2.076-1.7c-1.373-1.261-2.65-2.621-3.915-3.989a6.254,6.254,0,0,1-1.589-2.266,4.091,4.091,0,0,1,.195-2.723,11.28,11.28,0,0,1,1.884-2.982l-1.361-.3c.125.466.422.863.544,1.323l1.421-.454c-.126-.373-.216-.937-.378-1.367l-.928,1.017a2.491,2.491,0,0,1,1.366,1.755q.2-.389.4-.775a13.567,13.567,0,0,0-2.315,1.8l1.107.774a11.632,11.632,0,0,1,.7-2.337c.417-.756-.642-1.545-1.123-.786-.922,1.454-1.574,3.068-2.637,4.433l1.213.445c.151-1.384.5-2.735.763-4.1.14-.729-.961-.914-1.223-.278-.353.853-.763,1.676-1.052,2.554l1.044.386c.249-.919.467-1.847.733-2.761a5.833,5.833,0,0,1,.963-2.254c.209-.237-.173-.571-.4-.368" fill="#3b265d"/>
      <path id="Path_10297" data-name="Path 10297" d="M98.667,171.908a24.6,24.6,0,0,0,2.358,7.244c1.062,2.347,2.18,4.655,3.054,7.081,1.829,5.073,4.67,9.731,7.256,14.44a168.812,168.812,0,0,0,17.846,27.065c3.324,3.988,6.854,8.359,11.591,10.717.81.4,1.539-.973.739-1.412-4.108-2.258-7.23-5.816-10.216-9.355a137.321,137.321,0,0,1-9.379-12.528c-2.975-4.469-5.735-9.084-8.4-13.743-1.295-2.263-2.573-4.534-3.871-6.794a78.009,78.009,0,0,1-3.712-7.117c-.594-1.337-1.086-2.715-1.7-4.044s-1.27-2.6-1.939-3.883a50.221,50.221,0,0,1-3.46-7.726c-.033-.1-.181-.04-.171.055" fill="#3b265d"/>
      <path id="Path_10298" data-name="Path 10298" d="M152.967,247.147a42.964,42.964,0,0,0,3.882,2.429c1.265.754,2.527,1.514,3.793,2.266,2.539,1.506,5.071,3.021,7.68,4.406a43.554,43.554,0,0,0,8.023,3.394,80.239,80.239,0,0,0,8.02,1.836c1.51.285,3.023.559,4.53.861.776.155,1.552.317,2.324.494a5.7,5.7,0,0,0,2.362.336.644.644,0,0,0,.253-1.146,4.136,4.136,0,0,0-1.888-.705q-1.055-.244-2.115-.465c-1.331-.276-2.667-.525-4-.773-2.7-.5-5.4-1-8.049-1.737a42.015,42.015,0,0,1-7.855-3.08c-2.63-1.337-5.19-2.81-7.761-4.255q-2.175-1.223-4.391-2.367A22.576,22.576,0,0,0,153.2,246.7a.254.254,0,0,0-.232.444" fill="#3b265d"/>
      <path id="Path_10299" data-name="Path 10299" d="M179.578,190.611a2.56,2.56,0,0,0,.9,1.341,7.214,7.214,0,0,0,1.4,1.012,15.683,15.683,0,0,0,3.77,1.374,43.339,43.339,0,0,0,8.8.916c1.341.048,22.043-1.73,23.382-1.648l-.4-.146-.1-.126c-.01-.213-.019-.426-.029-.64-.005.011-.01.021-.014.032l.418-.458c-.142.081.24-.087-.066.028a2.174,2.174,0,0,0-.251.1,1.223,1.223,0,0,0-.5.572c-.369.705.692,1.359,1.233.862-.146.134-.233.072-.056.037a1.623,1.623,0,0,0,.306-.09.88.88,0,0,0,.378-.323.991.991,0,0,0-.47-1.395,5.024,5.024,0,0,0-1.91-.17c-1.445-.049-22.251,1.716-23.7,1.647a34.145,34.145,0,0,1-9.052-1.312,12.252,12.252,0,0,1-2.068-.878c-.27-.149-.526-.329-.782-.5a4.426,4.426,0,0,0-.817-.555.292.292,0,0,0-.384.321" fill="#3b265d"/>
      <path id="Path_10300" data-name="Path 10300" d="M185.005,193.213a6.5,6.5,0,0,1-1.76-.419,6.947,6.947,0,0,1-.809-.383c-.136-.075-.272-.145-.4-.232s-.243-.194-.376-.269a.085.085,0,0,0-.113.123,2.544,2.544,0,0,0,.739.6,3.989,3.989,0,0,0,.858.373,8.359,8.359,0,0,0,1.85.335.062.062,0,0,0,.012-.123" fill="#3b265d"/>
      <path id="Path_10301" data-name="Path 10301" d="M161.789,179.66a11.945,11.945,0,0,0-2.47-2.407q-1.38-1.136-2.742-2.3c-1.809-1.534-3.638-3.041-5.373-4.66a48.81,48.81,0,0,1-8.8-10.919c-.628-1.061-1.3-2.1-1.907-3.169-.326-.572-.636-1.155-.923-1.747a6.79,6.79,0,0,0-.927-1.585.519.519,0,0,0-.9.284,5.505,5.505,0,0,0,.992,3.283c.543,1,1.152,1.955,1.742,2.924a67.826,67.826,0,0,0,3.984,6.043,53.954,53.954,0,0,0,10.386,10.055c1.1.83,2.232,1.6,3.375,2.365a12.719,12.719,0,0,0,3.5,1.92.059.059,0,0,0,.065-.092" fill="#3b265d"/>
      <path id="Path_10302" data-name="Path 10302" d="M132.691,159.713a3.038,3.038,0,0,0,2.259-.81,14.3,14.3,0,0,0,2.33-2.589,32.52,32.52,0,0,0,2.178-3.266c.565-1,1.1-2.016,1.626-3.037a85.59,85.59,0,0,0,4.087-9.058,76.387,76.387,0,0,0,3.17-11.439c.813-3.94,1.541-8.039.87-12.058a14.791,14.791,0,0,0-4.813-8.612,38.874,38.874,0,0,0-8.084-5.29,97.171,97.171,0,0,1-9.008-5.227,88.125,88.125,0,0,1-9.166-7.209c-1.462-1.3-2.888-2.64-4.295-4a27.432,27.432,0,0,0-3.65-3.275,6.4,6.4,0,0,0-4.284-1.092,18.785,18.785,0,0,0-5.6,1.83c-1.906.866-3.749,1.862-5.616,2.806q-2.9,1.461-5.811,2.88c-3.872,1.872-7.789,3.657-11.781,5.258q-3,1.2-6.065,2.26c-1.416.485-2.835.882-4.275,1.283-2.5.695-5.773,1.908-5.276,5.1a10.427,10.427,0,0,0,1.968,4.159,13.179,13.179,0,0,0,2.8,3.089,16.6,16.6,0,0,0,8.117,2.817,64.355,64.355,0,0,0,8.605.233,60.039,60.039,0,0,0,12.882-1.191,50.325,50.325,0,0,0,11.973-4.476c1.762-.933,3.544-1.783,5.251-2.816.325-.2.073-.737-.257-.538-1.661,1.005-3.677,1.4-5.461,2.141-1.917.794-3.808,1.643-5.757,2.359a45.427,45.427,0,0,1-12.069,2.755c-3.365.272-6.77.3-10.146.273a30.25,30.25,0,0,1-8.43-.98,11.843,11.843,0,0,1-3.607-1.71,11.357,11.357,0,0,1-2.526-2.765,8.682,8.682,0,0,1-1.758-3.757c-.129-1.133.689-1.779,1.629-2.243a18.418,18.418,0,0,1,3.551-1.169c1.662-.434,3.286-1.013,4.9-1.59,3.867-1.379,7.661-2.958,11.4-4.654,3.779-1.715,7.5-3.55,11.205-5.422,1.777-.9,3.532-1.844,5.348-2.663a15.174,15.174,0,0,1,5.384-1.678,5.174,5.174,0,0,1,3.4,1.31c1.3,1.029,2.429,2.274,3.625,3.415,2.723,2.6,5.528,5.109,8.491,7.428a71.972,71.972,0,0,0,9.251,6.209c2.664,1.489,5.427,2.8,8.027,4.4a19.662,19.662,0,0,1,6.586,5.931c1.942,3.1,2.181,6.85,1.824,10.4a56.984,56.984,0,0,1-.938,5.734c-.386,1.883-.784,3.761-1.293,5.616a69.891,69.891,0,0,1-3.913,10.622c-1,2.179-2.044,4.358-3.155,6.484a24.884,24.884,0,0,1-3.772,6.039c-.482.5-1.12,1.164-1.872,1.152a.312.312,0,0,0-.058.62" fill="#3b265d"/>
      <path id="Path_10303" data-name="Path 10303" d="M96.365,111.975c-.786.229-.816,1.282-.829,1.955a21.437,21.437,0,0,0,.27,3.065,76.013,76.013,0,0,0,1.748,9.551c1.41,5.464,4.358,11.026,8.986,14.434a12.581,12.581,0,0,0,3.994,1.956,12.264,12.264,0,0,0,2.169.438c.371.035.743.055,1.116.062.409.008.8-.087,1.206-.113.592-.039.543-1.012-.042-1.04-.33-.016-.636-.1-.962-.141s-.636-.06-.953-.106a15.934,15.934,0,0,1-1.827-.345,11.539,11.539,0,0,1-3.249-1.4,19.367,19.367,0,0,1-5.46-5.726,27.52,27.52,0,0,1-3.349-7.253,73.735,73.735,0,0,1-1.835-8.661c-.214-1.247-.393-2.5-.573-3.754-.076-.53-.149-1.067-.187-1.6a4.8,4.8,0,0,1-.045-1.152.152.152,0,0,0-.178-.164" fill="#3b265d"/>
      <path id="Path_10304" data-name="Path 10304" d="M104.955,185.937c-.474-1.16-.891-2.333-1.412-3.477-.5-1.092-1.038-2.162-1.552-3.247a42.811,42.811,0,0,0-2.729-5.473c-2.446-3.694-6.713-5.1-10.431-7.133-2.1-1.148-4.156-2.379-6.193-3.632a30.336,30.336,0,0,1-4.888-3.648,19.634,19.634,0,0,1-3.822-4.786,18.352,18.352,0,0,1-1.964-6.492c-.324-2.394-.481-4.822-.667-7.231a38.753,38.753,0,0,1-.026-7.217.472.472,0,0,0-.909-.207c-1.327,4.121-.618,8.659-.241,12.88a26.862,26.862,0,0,0,1.358,6.873,18.046,18.046,0,0,0,3.332,5.5c2.887,3.351,6.661,5.6,10.429,7.812,2.06,1.212,4.165,2.313,6.311,3.36a19.652,19.652,0,0,1,5.442,3.511,22.171,22.171,0,0,1,3.592,5.456q.974,1.808,2.034,3.565c.729,1.21,1.557,2.4,2.19,3.66a.081.081,0,0,0,.146-.07" fill="#3b265d"/>
      <path id="Path_10305" data-name="Path 10305" d="M101.922,159.05a7.282,7.282,0,0,0,.255-1.135,9.987,9.987,0,0,0,0-1.34,13.914,13.914,0,0,0-.471-2.822,34.239,34.239,0,0,0-2.036-5.478,46.321,46.321,0,0,0-2.516-5.015,24.477,24.477,0,0,0-3.636-4.524c-.751-.747-1.54-1.455-2.346-2.141a7.11,7.11,0,0,0-2.776-1.881c-.5-.1-.824.509-.636.91.4.854,1.376,1.413,2.082,2,.665.556,1.318,1.127,1.947,1.723a26.256,26.256,0,0,1,3.561,4.076,41.332,41.332,0,0,1,2.656,4.734,53.71,53.71,0,0,1,2.345,5.055,23.671,23.671,0,0,1,.931,2.952c.112.46.206.924.273,1.393.07.487.187.991.215,1.478a.079.079,0,0,0,.15.013" fill="#3b265d"/>
      <path id="Path_10306" data-name="Path 10306" d="M143.011,108.983a55.179,55.179,0,0,1-5.568-4.951,60.768,60.768,0,0,1-5.1-5.415,107.473,107.473,0,0,1-8.4-12.91,157.224,157.224,0,0,1-13.687-28.755,182.81,182.81,0,0,1-7.822-31.642c-.294-1.944-.514-3.88-.692-5.836a9.5,9.5,0,0,0-1.257-4.575,3.17,3.17,0,0,0-4.031-1.047,6.89,6.89,0,0,0-3.031,3.832A39.373,39.373,0,0,0,90.671,30.1a29.85,29.85,0,0,0,.156,7.377,19.1,19.1,0,0,0,2.5,6.486A28.838,28.838,0,0,0,95.377,46.9c.479.6,1.391-.17.914-.777a22.308,22.308,0,0,1-3.516-6.049,18.718,18.718,0,0,1-1.024-6.94,50.939,50.939,0,0,1,.637-7.243A40.229,40.229,0,0,1,93.893,20a10.608,10.608,0,0,1,2.2-4.328c.9-.893,2.315-1.108,3.079.027a8.951,8.951,0,0,1,.986,4.115c.172,1.937.394,3.854.685,5.779a190.651,190.651,0,0,0,7.548,30.877A144.818,144.818,0,0,0,121.546,84.6a132.533,132.533,0,0,0,8.106,12.621,53.786,53.786,0,0,0,10.31,10.139,21.563,21.563,0,0,0,2.886,1.855c.157.085.315-.122.163-.234" fill="#3b265d"/>
      <path id="Path_10307" data-name="Path 10307" d="M94.35,43.908a23.422,23.422,0,0,0,.272,4.009c.163,1.378.341,2.755.516,4.132.343,2.7.632,5.412,1.014,8.108.768,5.434,2.29,10.718,3.292,16.107.524,2.825.766,5.8,1.845,8.486a.706.706,0,0,0,.929.33.715.715,0,0,0,.33-.929,52.5,52.5,0,0,1-1.589-7.332c-.482-2.695-1.112-5.361-1.73-8.027-.612-2.639-1.226-5.28-1.676-7.953-.456-2.716-.789-5.456-1.2-8.18-.222-1.471-.455-2.942-.724-4.4a20.471,20.471,0,0,0-1.13-4.372.079.079,0,0,0-.148.026" fill="#3b265d"/>
      <path id="Path_10308" data-name="Path 10308" d="M98.3,67.564c-1.253.253-2.464.68-3.734.882a36.006,36.006,0,0,1-3.823.363,35.63,35.63,0,0,0-3.984.332,6.618,6.618,0,0,0-3.15,1.137c-1.5,1.235-1.093,3.228-.563,4.836.8,2.413,1.527,4.842,2.3,7.262.949,2.969,2.086,5.9,3.2,8.805.138.362.625.194.683-.121.478-2.61-.937-5.187-1.785-7.582-.92-2.6-1.577-5.292-2.491-7.9a15.847,15.847,0,0,1-.671-2.158,1.94,1.94,0,0,1,.245-1.751,4.643,4.643,0,0,1,2.6-.925,34.876,34.876,0,0,1,3.723-.317A20.843,20.843,0,0,0,95,69.946a8.147,8.147,0,0,0,1.93-.739A3.613,3.613,0,0,0,98.445,67.8a.151.151,0,0,0-.148-.232" fill="#3b265d"/>
      <path id="Path_10309" data-name="Path 10309" d="M85.3,78.03c-.309.056-.618-.045-.933-.009a5.368,5.368,0,0,0-.89.166c-.616.181-1.228.376-1.842.564-1.239.381-2.477.762-3.725,1.114-2.3.649-4.622,1.159-6.945,1.7-1.5.347-3.239.907-3.765,2.538a5.718,5.718,0,0,0,.126,3.179,18.821,18.821,0,0,0,1.416,3.584c.64,1.284,1.323,2.547,1.985,3.819.336.647.65,1.3.981,1.954a5.223,5.223,0,0,0,1.213,1.837.5.5,0,0,0,.783-.362,3.258,3.258,0,0,0-.3-1.632,14.826,14.826,0,0,0-.824-1.794c-.553-1.088-1.125-2.168-1.691-3.25a32.4,32.4,0,0,1-1.527-3.205,7.417,7.417,0,0,1-.682-3.181c.125-1.374,1.688-1.665,2.822-1.917,2.245-.5,4.481-1.027,6.692-1.663,1.284-.37,2.559-.779,3.8-1.268.623-.244,1.24-.517,1.836-.82a4.82,4.82,0,0,0,.748-.487c.3-.232.461-.56.752-.791a.041.041,0,0,0-.034-.072" fill="#3b265d"/>
      <path id="Path_10310" data-name="Path 10310" d="M91.062,113.068a6.368,6.368,0,0,0,.705,1.875c.292.714.55,1.438.77,2.178.356,1.2.622,2.412.908,3.627.515,2.193,1.277,4.9,3.8,5.434a.8.8,0,0,0,.869-.719.815.815,0,0,0-.719-.869c-.893-.183-1.4-1.121-1.73-1.883a20.242,20.242,0,0,1-.894-3.019,25.588,25.588,0,0,0-1.2-3.6,12.271,12.271,0,0,0-.977-1.875,2.536,2.536,0,0,0-1.366-1.289.125.125,0,0,0-.164.137" fill="#3b265d"/>
      <path id="Path_10311" data-name="Path 10311" d="M82.52,113.734c-.128.475.349,1,.535,1.4.292.635.617,1.258.918,1.89.649,1.366,1.247,2.755,1.882,4.128a23.712,23.712,0,0,0,1.722,3.357,3.347,3.347,0,0,0,2.951,1.473,8.377,8.377,0,0,0,2.666-.543c.79-.282,1.852-.62,2.2-1.455a.619.619,0,0,0-.518-.822,2.267,2.267,0,0,0-1.317.337,10.3,10.3,0,0,1-1.332.538,4.567,4.567,0,0,1-2.363.245c-1.113-.279-1.559-1.838-2.02-2.742-.8-1.56-1.551-3.136-2.407-4.665a13.711,13.711,0,0,0-1.408-2.112c-.311-.371-.864-1.185-1.426-1.1a.108.108,0,0,0-.084.07" fill="#3b265d"/>
      <path id="Path_10312" data-name="Path 10312" d="M68.686,89.716a1.815,1.815,0,0,0-1.075.465c-.316.215-.623.443-.931.67-.655.483-1.3.977-1.968,1.444s-1.359.924-2.072,1.331a7.3,7.3,0,0,0-1.486.988,2.85,2.85,0,0,0-.56,2.992,14.821,14.821,0,0,0,.692,2.028c.267.621.627,1.472,1.408,1.493a.6.6,0,0,0,.635-.527c.1-.623-.357-1.182-.591-1.737a11.547,11.547,0,0,1-.547-1.609,4.513,4.513,0,0,1-.152-.8.553.553,0,0,1,0-.189c0-.041.007-.082.014-.123-.023.079-.021.072.006-.019.01-.042.1-.205.026-.084.016-.028.19-.249.1-.148a2.611,2.611,0,0,1,.455-.37c1.13-.772,2.309-1.443,3.38-2.314q.852-.691,1.657-1.436c.483-.449,1.233-.954,1.362-1.63a.394.394,0,0,0-.354-.427" fill="#3b265d"/>
      <path id="Path_10313" data-name="Path 10313" d="M67.511,110.748a10.188,10.188,0,0,0,1.2,4.186,45.522,45.522,0,0,1,1.837,4.673c.574,1.719,1.086,3.453,1.5,5.216a29.839,29.839,0,0,0,.882,3.278,5.648,5.648,0,0,0,1.76,2.661,3.352,3.352,0,0,0,3.282.3,7.6,7.6,0,0,0,3.087-2.546,14.919,14.919,0,0,0,3.1-8.561,16.268,16.268,0,0,0-.1-2.968,12.594,12.594,0,0,0-.269-1.43,6.914,6.914,0,0,0-.606-1.438c-.326-.66-1.479-.355-1.279.409.1.379.112.763.213,1.141s.184.766.248,1.154a13.237,13.237,0,0,1,.177,2.335,14.568,14.568,0,0,1-.614,4.2,13.946,13.946,0,0,1-1.562,3.3,8.164,8.164,0,0,1-2.418,2.6,2.08,2.08,0,0,1-2.292.2,4.561,4.561,0,0,1-1.316-2.158,29.139,29.139,0,0,1-.752-2.854,46.042,46.042,0,0,0-1.455-4.767,29.031,29.031,0,0,0-2.176-4.778,32.54,32.54,0,0,1-2.368-4.172.045.045,0,0,0-.086.015" fill="#3b265d"/>
      <path id="Path_10314" data-name="Path 10314" d="M70.1,138a17.386,17.386,0,0,0,.779-2.508c.245-.848.413-1.725.61-2.585a25.49,25.49,0,0,0,.574-5.461,40.14,40.14,0,0,0-1.3-11.113,11.012,11.012,0,0,0-1.209-2.8c-.28-.461-.58-.912-.834-1.388a6.877,6.877,0,0,0-.765-1.27.246.246,0,0,0-.427.135,5.823,5.823,0,0,0,.624,2.35c.315.862.586,1.726.825,2.612a39.691,39.691,0,0,1,1.116,5.375,43.433,43.433,0,0,1,.329,5.371c0,.924-.013,1.85-.075,2.772-.059.878-.2,1.747-.26,2.624-.073.983-.2,1.97-.245,2.953a11.316,11.316,0,0,0,.072,2.914A.1.1,0,0,0,70.1,138" fill="#3b265d"/>
      <path id="Path_10315" data-name="Path 10315" d="M67.678,110.752a2.658,2.658,0,0,1,.382.909q.159.474.291.955c.162.593.325,1.183.5,1.772a13.873,13.873,0,0,0,1.258,3.2c.05.084.185.025.14-.066a22.03,22.03,0,0,1-1.286-3.41c-.161-.537-.326-1.066-.519-1.592-.1-.276-.2-.552-.311-.824a4.3,4.3,0,0,1-.386-.977c-.007-.068-.12-.019-.072.034" fill="#3b265d"/>
      <path id="Path_10316" data-name="Path 10316" d="M92.99,113.675a.546.546,0,0,1,.018.111l.046-.037L93,113.738a.244.244,0,0,0-.127.023.189.189,0,0,0-.074.057.234.234,0,0,0-.061.205c0,.013.008.026.011.039.019-.037.038-.074.058-.111l-.023.009-.012,0c-.014.006,0,0,.007,0l-.054.014-.055.011a.459.459,0,0,0-.072.022.051.051,0,0,0-.029.049.054.054,0,0,0,.034.046.235.235,0,0,0,.072.028l.063.011a.638.638,0,0,0,.131,0l-.1-.035.02.027a.245.245,0,0,0,.385-.018.25.25,0,0,0,.04-.182.247.247,0,0,0-.155-.186h0l.027.043a.667.667,0,0,0-.019-.133c-.013-.052-.1-.038-.082.014" fill="#3b265d"/>
      <path id="Path_10317" data-name="Path 10317" d="M91.54,113.822a15.044,15.044,0,0,1,1.827,5.433c.222,1.023.377,2.077.684,3.078.352,1.146,1.178,2.446,2.544,2.4a.5.5,0,0,0,.419-.8c-.323-.455-.78-.812-1.087-1.282a4.815,4.815,0,0,1-.569-1.49c-.244-.975-.492-1.946-.773-2.911a18.693,18.693,0,0,0-1.159-3.1c-.329-.663-.877-1.6-1.68-1.716-.227-.032-.316.236-.206.395" fill="#3b265d"/>
      <path id="Path_10318" data-name="Path 10318" d="M85.523,125.907a14.237,14.237,0,0,0,4.866,5.785,19.313,19.313,0,0,0,7.416,3.264,20.4,20.4,0,0,0,2.158.331,3.281,3.281,0,0,0,2.26-.218.688.688,0,0,0-.051-1.077,3.321,3.321,0,0,0-1.772-.318q-.9-.067-1.79-.219a29.059,29.059,0,0,1-7.169-2.338,20.584,20.584,0,0,1-3.112-2.023,11.472,11.472,0,0,1-2.736-3.22.039.039,0,0,0-.07.033" fill="#3b265d"/>
    </g>
  </g>
  <g id="Group_2672" data-name="Group 2672">
    <g id="Group_2671" data-name="Group 2671" clip-path="url(#clip-path-2)">
      <path id="Path_10320" data-name="Path 10320" d="M185.938,40.837h-3.375a1.687,1.687,0,0,1-1.688-1.687V35.775a1.688,1.688,0,0,0-1.687-1.688h-9a1.688,1.688,0,0,0-1.688,1.688V39.15a1.688,1.688,0,0,1-1.687,1.687h-3.375a1.687,1.687,0,0,0-1.688,1.687v9a1.687,1.687,0,0,0,1.688,1.687h3.375A1.688,1.688,0,0,1,168.5,54.9v3.374a1.688,1.688,0,0,0,1.688,1.688h9a1.688,1.688,0,0,0,1.687-1.688V54.9a1.688,1.688,0,0,1,1.688-1.688h3.375a1.687,1.687,0,0,0,1.686-1.687v-9a1.687,1.687,0,0,0-1.686-1.687" fill="#6cbdff"/>
      <path id="Path_10321" data-name="Path 10321" d="M51.043,103.071H49.38a.832.832,0,0,1-.832-.832v-1.663a.831.831,0,0,0-.831-.831H43.282a.831.831,0,0,0-.831.831v1.663a.832.832,0,0,1-.832.832H39.956a.831.831,0,0,0-.831.832v4.434a.831.831,0,0,0,.831.832h1.663a.832.832,0,0,1,.832.831v1.663a.831.831,0,0,0,.831.832h4.435a.831.831,0,0,0,.831-.832V110a.832.832,0,0,1,.832-.831h1.663a.832.832,0,0,0,.832-.832V103.9a.832.832,0,0,0-.832-.832" fill="#6cbdff"/>
      <path id="Path_10322" data-name="Path 10322" d="M145.658,43.462H143.75a.954.954,0,0,1-.953-.954V40.6a.954.954,0,0,0-.954-.954h-5.087a.954.954,0,0,0-.954.954v1.907a.954.954,0,0,1-.954.954h-1.907a.954.954,0,0,0-.954.954V49.5a.954.954,0,0,0,.954.954h1.907a.954.954,0,0,1,.954.953v1.908a.954.954,0,0,0,.954.954h5.087a.954.954,0,0,0,.954-.954V51.41a.953.953,0,0,1,.953-.953h1.908a.954.954,0,0,0,.954-.954V44.416a.954.954,0,0,0-.954-.954" fill="#6cbdff"/>
      <path id="Path_10323" data-name="Path 10323" d="M183.921,134.873h-1.857a.929.929,0,0,1-.929-.929v-1.857a.927.927,0,0,0-.928-.928h-4.953a.927.927,0,0,0-.928.928v1.857a.929.929,0,0,1-.929.929H171.54a.929.929,0,0,0-.929.929v4.952a.929.929,0,0,0,.929.929H173.4a.928.928,0,0,1,.929.928v1.857a.928.928,0,0,0,.928.929h4.953a.928.928,0,0,0,.928-.929v-1.857a.928.928,0,0,1,.929-.928h1.857a.929.929,0,0,0,.929-.929V135.8a.929.929,0,0,0-.929-.929" fill="#fff"/>
      <path id="Path_10324" data-name="Path 10324" d="M219.352,107.6h-3.295a1.648,1.648,0,0,1-1.648-1.648v-3.295a1.648,1.648,0,0,0-1.647-1.648h-8.788a1.647,1.647,0,0,0-1.647,1.648v3.295a1.648,1.648,0,0,1-1.648,1.648h-3.295a1.648,1.648,0,0,0-1.648,1.648v8.787a1.648,1.648,0,0,0,1.648,1.648h3.295a1.647,1.647,0,0,1,1.648,1.647v3.295a1.647,1.647,0,0,0,1.647,1.648h8.788a1.648,1.648,0,0,0,1.647-1.648v-3.295a1.647,1.647,0,0,1,1.648-1.647h3.295A1.648,1.648,0,0,0,221,118.034v-8.787a1.648,1.648,0,0,0-1.648-1.648" fill="#fff"/>
      <path id="Path_10325" data-name="Path 10325" d="M154.6,270.728h-2.633a1.316,1.316,0,0,1-1.316-1.316v-2.633a1.317,1.317,0,0,0-1.317-1.317h-7.02A1.317,1.317,0,0,0,141,266.779v2.633a1.316,1.316,0,0,1-1.316,1.316h-2.633a1.316,1.316,0,0,0-1.316,1.316v7.021a1.317,1.317,0,0,0,1.316,1.317h2.633A1.316,1.316,0,0,1,141,281.7v2.633a1.317,1.317,0,0,0,1.317,1.316h7.02a1.317,1.317,0,0,0,1.317-1.316V281.7a1.316,1.316,0,0,1,1.316-1.316H154.6a1.317,1.317,0,0,0,1.316-1.317v-7.021a1.316,1.316,0,0,0-1.316-1.316" fill="#fff"/>
      <path id="Path_10326" data-name="Path 10326" d="M106.877,219.251h-3.246a1.624,1.624,0,0,1-1.624-1.623v-3.247a1.623,1.623,0,0,0-1.623-1.623H91.727a1.623,1.623,0,0,0-1.623,1.623v3.247a1.623,1.623,0,0,1-1.623,1.623H85.235a1.623,1.623,0,0,0-1.623,1.623v8.657a1.622,1.622,0,0,0,1.623,1.623h3.246a1.623,1.623,0,0,1,1.623,1.623v3.247a1.623,1.623,0,0,0,1.623,1.623h8.657a1.623,1.623,0,0,0,1.623-1.623v-3.247a1.624,1.624,0,0,1,1.624-1.623h3.246a1.623,1.623,0,0,0,1.623-1.623v-8.657a1.623,1.623,0,0,0-1.623-1.623" fill="#fff"/>
      <path id="Path_10327" data-name="Path 10327" d="M82.792,263.978H81.284a.755.755,0,0,1-.754-.754v-1.508a.754.754,0,0,0-.754-.754h-4.02a.754.754,0,0,0-.754.754v1.508a.755.755,0,0,1-.754.754H72.74a.755.755,0,0,0-.754.754v4.021a.755.755,0,0,0,.754.754h1.508a.754.754,0,0,1,.754.753v1.508a.753.753,0,0,0,.754.754h4.02a.753.753,0,0,0,.754-.754V270.26a.754.754,0,0,1,.754-.753h1.508a.755.755,0,0,0,.754-.754v-4.021a.755.755,0,0,0-.754-.754" fill="#fff"/>
      <path id="Path_10328" data-name="Path 10328" d="M58.111,51.6H55.6a1.256,1.256,0,0,1-1.256-1.256V47.836a1.256,1.256,0,0,0-1.256-1.256h-6.7a1.256,1.256,0,0,0-1.256,1.256v2.513A1.256,1.256,0,0,1,43.873,51.6H41.36A1.256,1.256,0,0,0,40.1,52.861v6.7a1.256,1.256,0,0,0,1.256,1.256h2.513a1.256,1.256,0,0,1,1.256,1.256v2.513a1.256,1.256,0,0,0,1.256,1.256h6.7a1.256,1.256,0,0,0,1.256-1.256V62.074A1.257,1.257,0,0,1,55.6,60.818h2.513a1.256,1.256,0,0,0,1.256-1.256v-6.7A1.256,1.256,0,0,0,58.111,51.6" fill="#6cbdff"/>
    </g>
  </g>
</svg>
