<svg xmlns="http://www.w3.org/2000/svg" xmlns:xlink="http://www.w3.org/1999/xlink" width="380.583" height="241.775" viewBox="0 0 380.583 241.775">
  <defs>
    <clipPath id="clip-path">
      <rect id="Rectangle_1937" data-name="Rectangle 1937" width="380.584" height="241.775" fill="none"/>
    </clipPath>
  </defs>
  <g id="Group_2548" data-name="Group 2548" transform="translate(1322 -131)">
    <g id="Group_2545" data-name="Group 2545" transform="translate(-1322 131)">
      <g id="Group_2544" data-name="Group 2544" clip-path="url(#clip-path)">
        <path id="Path_8587" data-name="Path 8587" d="M365.675,700.461c0,22.9-81.859,41.461-182.838,41.461S0,723.359,0,700.461,81.859,659,182.838,659s182.838,18.563,182.838,41.461" transform="translate(0 -500.147)" fill="#f4f0ff"/>
        <path id="Path_8588" data-name="Path 8588" d="M316.942,167.647a134.093,134.093,0,0,1-47.609-11.056V119.135a162.4,162.4,0,0,0,28.43,11.112q15.341,4.458,26.964,4.456,9.587,0,14.046-2.313t4.456-7.728a7.856,7.856,0,0,0-3.215-6.318q-3.216-2.594-10.718-5.866t-20.251-7.9q-14.329-5.3-23.127-11.9a41.505,41.505,0,0,1-12.8-14.779q-4.006-8.178-4.005-20.363,0-18.615,11.959-29.107t35.876-12.974V0H340.3V15.23a132.45,132.45,0,0,1,45.24,11.056L372.109,58.439q-23.58-10.6-42.532-10.6-9.027,0-12.692,2.2a7.108,7.108,0,0,0-3.667,6.487,7.967,7.967,0,0,0,2.651,6.148q2.65,2.427,9.195,5.415t18.163,6.939q23.578,8.35,33.845,19.009T387.34,121.5q0,18.953-12.015,30.8T340.3,166.97v21.774H316.942Z" transform="translate(-204.238)" fill="#ff9d00"/>
        <path id="Path_8589" data-name="Path 8589" d="M654.894,496.046H547.024A11.149,11.149,0,0,1,535.875,484.9V414.149A11.149,11.149,0,0,1,547.024,403H654.894a11.149,11.149,0,0,1,11.149,11.149V484.9a11.149,11.149,0,0,1-11.149,11.149" transform="translate(-406.701 -305.856)" fill="#2a5438"/>
        <rect id="Rectangle_1913" data-name="Rectangle 1913" width="120.526" height="83.404" rx="26.25" transform="translate(133.995 101.965)" fill="#457557"/>
        <path id="Path_8590" data-name="Path 8590" d="M773.765,361.258h-7.714v-5.544H751.589v5.544h-7.714v-9.4A3.857,3.857,0,0,1,747.732,348h22.177a3.857,3.857,0,0,1,3.857,3.857Z" transform="translate(-564.563 -264.114)" fill="#2a5438"/>
        <path id="Path_8591" data-name="Path 8591" d="M740.434,489.349H729.6a2.257,2.257,0,0,1-2.257-2.257V476.257A2.257,2.257,0,0,0,725.085,474h-23.6a2.257,2.257,0,0,0-2.257,2.257v10.835a2.257,2.257,0,0,1-2.257,2.257H686.132a2.257,2.257,0,0,0-2.257,2.257v23.6a2.257,2.257,0,0,0,2.257,2.257h10.834a2.257,2.257,0,0,1,2.257,2.257v10.835a2.257,2.257,0,0,0,2.257,2.257h23.6a2.257,2.257,0,0,0,2.257-2.257V519.725a2.257,2.257,0,0,1,2.257-2.257h10.835a2.257,2.257,0,0,0,2.257-2.257v-23.6a2.257,2.257,0,0,0-2.257-2.257" transform="translate(-519.026 -359.741)" fill="#fff"/>
        <path id="Path_8592" data-name="Path 8592" d="M1036.943,429.11,944.389,415.5a4.761,4.761,0,0,1-4.018-5.4L959.108,282.66a4.761,4.761,0,0,1,5.4-4.018l92.554,13.608a4.761,4.761,0,0,1,4.018,5.4l-18.737,127.44a4.761,4.761,0,0,1-5.4,4.018" transform="translate(-713.654 -211.436)" fill="#3b265d"/>
        <rect id="Rectangle_1914" data-name="Rectangle 1914" width="121.454" height="92.221" transform="translate(233.364 190.745) rotate(-81.636)" fill="#c5d1c9"/>
        <rect id="Rectangle_1915" data-name="Rectangle 1915" width="115.125" height="92.221" transform="translate(231.188 180.935) rotate(-77.977)" fill="#dae5de"/>
        <rect id="Rectangle_1916" data-name="Rectangle 1916" width="108.692" height="92.221" transform="translate(241.69 184.445) rotate(-88.779)" fill="#d9ffe6"/>
        <rect id="Rectangle_1917" data-name="Rectangle 1917" width="109.399" height="92.221" transform="translate(235.118 178.818) rotate(-81.636)" fill="#fff"/>
        <rect id="Rectangle_1918" data-name="Rectangle 1918" width="2.712" height="83.18" transform="matrix(0.145, -0.989, 0.989, 0.145, 254.408, 78.694)" fill="#798e80"/>
        <rect id="Rectangle_1919" data-name="Rectangle 1919" width="2.712" height="65.097" transform="matrix(0.145, -0.989, 0.989, 0.145, 253.663, 83.763)" fill="#798e80"/>
        <rect id="Rectangle_1920" data-name="Rectangle 1920" width="2.712" height="83.18" transform="matrix(0.145, -0.989, 0.989, 0.145, 252.917, 88.832)" fill="#798e80"/>
        <rect id="Rectangle_1921" data-name="Rectangle 1921" width="2.712" height="44.001" transform="translate(252.172 93.901) rotate(-81.636)" fill="#798e80"/>
        <rect id="Rectangle_1922" data-name="Rectangle 1922" width="2.712" height="83.18" transform="matrix(0.145, -0.989, 0.989, 0.145, 249.936, 109.108)" fill="#798e80"/>
        <rect id="Rectangle_1923" data-name="Rectangle 1923" width="2.712" height="83.18" transform="matrix(0.145, -0.989, 0.989, 0.145, 249.191, 114.177)" fill="#798e80"/>
        <rect id="Rectangle_1924" data-name="Rectangle 1924" width="2.712" height="68.111" transform="translate(248.446 119.246) rotate(-81.636)" fill="#798e80"/>
        <rect id="Rectangle_1925" data-name="Rectangle 1925" width="2.712" height="83.18" transform="matrix(0.145, -0.989, 0.989, 0.145, 247.701, 124.314)" fill="#798e80"/>
        <rect id="Rectangle_1926" data-name="Rectangle 1926" width="2.712" height="50.028" transform="translate(246.911 129.682) rotate(-81.636)" fill="#798e80"/>
        <rect id="Rectangle_1927" data-name="Rectangle 1927" width="2.712" height="68.111" transform="translate(246.122 135.049) rotate(-81.636)" fill="#798e80"/>
        <rect id="Rectangle_1928" data-name="Rectangle 1928" width="2.712" height="83.18" transform="translate(242.308 160.989) rotate(-81.636)" fill="#798e80"/>
        <rect id="Rectangle_1929" data-name="Rectangle 1929" width="2.712" height="68.111" transform="translate(241.651 165.462) rotate(-81.636)" fill="#798e80"/>
        <rect id="Rectangle_1930" data-name="Rectangle 1930" width="2.712" height="74.138" transform="translate(240.993 169.934) rotate(-81.636)" fill="#798e80"/>
        <path id="Path_8593" data-name="Path 8593" d="M1186.416,266.887a5.919,5.919,0,0,0,.118-.592h0a5.876,5.876,0,0,0-4.959-6.669l-5.367-.789a5.877,5.877,0,0,0-6.669,4.959,5.943,5.943,0,0,0-.057.6l-10.914-1.6-1.709,11.629,39.657,5.831,1.71-11.629Z" transform="translate(-877.995 -196.396)" fill="#798e80"/>
        <rect id="Rectangle_1931" data-name="Rectangle 1931" width="10.222" height="55.683" transform="translate(115.253 134.748)" fill="#2a5438"/>
        <rect id="Rectangle_1932" data-name="Rectangle 1932" width="32.052" height="55.683" transform="translate(83.2 134.748)" fill="#798e80"/>
        <rect id="Rectangle_1933" data-name="Rectangle 1933" width="32.052" height="20.7" transform="translate(83.2 169.731)" fill="#c5d1c9"/>
        <rect id="Rectangle_1934" data-name="Rectangle 1934" width="11.904" height="64.843" transform="translate(93.49 125.588)" fill="#2a5438"/>
        <rect id="Rectangle_1935" data-name="Rectangle 1935" width="37.325" height="64.843" transform="translate(56.165 125.588)" fill="#798e80"/>
        <rect id="Rectangle_1936" data-name="Rectangle 1936" width="37.325" height="24.105" transform="translate(56.165 166.326)" fill="#c5d1c9"/>
        <path id="Path_8594" data-name="Path 8594" d="M431.017,828.3H420.652a2.652,2.652,0,1,1,0-5.3h10.365a2.652,2.652,0,1,1,0,5.3" transform="translate(-317.24 -624.614)" fill="#2a5438"/>
        <path id="Path_8595" data-name="Path 8595" d="M425.714,823h-5.062a2.652,2.652,0,1,0,0,5.3h5.062Z" transform="translate(-317.24 -624.614)" fill="#c5d1c9"/>
        <path id="Path_8596" data-name="Path 8596" d="M280.652,812h10.365a2.652,2.652,0,0,1,0,5.3H280.652a2.652,2.652,0,0,1,0-5.3" transform="translate(-210.988 -616.266)" fill="#2a5438"/>
        <path id="Path_8597" data-name="Path 8597" d="M311,817.3h5.062a2.652,2.652,0,1,0,0-5.3H311Z" transform="translate(-236.033 -616.266)" fill="#c5d1c9"/>
        <path id="Path_8598" data-name="Path 8598" d="M335.652,845h10.365a2.652,2.652,0,1,1,0,5.3H335.652a2.652,2.652,0,1,1,0-5.3" transform="translate(-252.73 -641.311)" fill="#2a5438"/>
        <path id="Path_8599" data-name="Path 8599" d="M366,850.3h5.062a2.652,2.652,0,1,0,0-5.3H366Z" transform="translate(-277.775 -641.311)" fill="#c5d1c9"/>
        <path id="Path_8600" data-name="Path 8600" d="M555.975,792.652c0,1.464,2.753,2.652,6.15,2.652s6.15-1.187,6.15-2.652V790h-12.3Z" transform="translate(-421.956 -599.569)" fill="#2a5438"/>
        <path id="Path_8601" data-name="Path 8601" d="M568.275,781.652c0,1.464-2.753,2.651-6.15,2.651s-6.15-1.187-6.15-2.651,2.753-2.652,6.15-2.652,6.15,1.187,6.15,2.652" transform="translate(-421.956 -591.221)" fill="#c5d1c9"/>
        <path id="Path_8602" data-name="Path 8602" d="M555.975,787.193a21.69,21.69,0,0,1,12.3,0c-.517-.035-1.028-.1-1.542-.147a44.415,44.415,0,0,0-10.758.147" transform="translate(-421.956 -596.762)" fill="#2a5438"/>
        <path id="Path_8603" data-name="Path 8603" d="M619.975,809.652c0,1.464,2.753,2.652,6.15,2.652s6.15-1.187,6.15-2.652V807h-12.3Z" transform="translate(-470.529 -612.471)" fill="#2a5438"/>
        <path id="Path_8604" data-name="Path 8604" d="M632.275,798.651c0,1.464-2.753,2.652-6.15,2.652s-6.15-1.187-6.15-2.652,2.753-2.651,6.15-2.651,6.15,1.187,6.15,2.651" transform="translate(-470.529 -604.123)" fill="#c5d1c9"/>
        <path id="Path_8605" data-name="Path 8605" d="M619.975,804.193a21.689,21.689,0,0,1,12.3,0c-.517-.034-1.028-.1-1.542-.147a44.42,44.42,0,0,0-10.758.147" transform="translate(-470.529 -609.664)" fill="#2a5438"/>
        <path id="Path_8606" data-name="Path 8606" d="M247.975,869.652c0,1.464,2.753,2.652,6.15,2.652s6.15-1.187,6.15-2.652V867h-12.3Z" transform="translate(-188.2 -658.008)" fill="#2a5438"/>
        <path id="Path_8607" data-name="Path 8607" d="M260.275,858.652c0,1.464-2.753,2.651-6.15,2.651s-6.15-1.187-6.15-2.651,2.753-2.652,6.15-2.652,6.15,1.187,6.15,2.652" transform="translate(-188.2 -649.66)" fill="#c5d1c9"/>
        <path id="Path_8608" data-name="Path 8608" d="M247.975,864.193a21.69,21.69,0,0,1,12.3,0c-.517-.034-1.028-.1-1.542-.147a44.42,44.42,0,0,0-10.758.147" transform="translate(-188.2 -655.201)" fill="#2a5438"/>
        <path id="Path_8609" data-name="Path 8609" d="M1068.137,111.072a29.308,29.308,0,0,1-10.676.368l-2.125-7.905a35.493,35.493,0,0,0,6.631.732,21.483,21.483,0,0,0,5.944-.589,7,7,0,0,0,2.833-1.285,1.755,1.755,0,0,0,.5-1.884,1.717,1.717,0,0,0-1.037-1.151,10.877,10.877,0,0,0-2.595-.63q-1.769-.265-4.722-.518a20.034,20.034,0,0,1-5.556-1.2,9.071,9.071,0,0,1-3.541-2.393,10.079,10.079,0,0,1-2-4.071,8.018,8.018,0,0,1,.873-6.822q1.928-2.893,6.836-4.774l-.877-3.262,4.929-1.325.864,3.214a28.944,28.944,0,0,1,10.176-.234l-1.009,7.548a23.007,23.007,0,0,0-9.579.175,5.752,5.752,0,0,0-2.554,1.185,1.554,1.554,0,0,0-.406,1.577,1.742,1.742,0,0,0,.909,1.147,8.13,8.13,0,0,0,2.248.621q1.55.26,4.227.434,5.45.424,8.222,2.092a8.3,8.3,0,0,1,3.726,5.215,9.037,9.037,0,0,1-.788,7.182q-1.864,3.182-6.561,5.083l1.235,4.6-4.929,1.325Z" transform="translate(-797.973 -56.438)" fill="#ffce00"/>
        <path id="Path_8610" data-name="Path 8610" d="M1462.417,531.946a25.864,25.864,0,0,1-7.8-5.29l2.6-6.741a31.334,31.334,0,0,0,4.346,3.971,18.969,18.969,0,0,0,4.544,2.671,6.18,6.18,0,0,0,2.688.558,1.548,1.548,0,0,0,1.338-1.082,1.515,1.515,0,0,0-.141-1.36,9.611,9.611,0,0,0-1.522-1.8q-1.124-1.109-3.1-2.825a17.674,17.674,0,0,1-3.337-3.745,8.008,8.008,0,0,1-1.28-3.548,8.9,8.9,0,0,1,.691-3.942,7.076,7.076,0,0,1,4.17-4.409q2.879-1.059,7.356.152l1.072-2.782,4.2,1.619-1.056,2.741a25.542,25.542,0,0,1,7.375,5.126l-4.645,4.856A20.3,20.3,0,0,0,1473,511.26a5.081,5.081,0,0,0-2.437-.484,1.37,1.37,0,0,0-1.11.913,1.536,1.536,0,0,0,.051,1.29,7.166,7.166,0,0,0,1.279,1.612q.97.992,2.788,2.508a16.932,16.932,0,0,1,4.773,5.767,7.324,7.324,0,0,1-.057,5.656,7.974,7.974,0,0,1-4.3,4.71,11.283,11.283,0,0,1-7.321.211l-1.509,3.919-4.2-1.619Z" transform="translate(-1103.978 -380.821)" fill="#ff7300"/>
        <path id="Path_8611" data-name="Path 8611" d="M71.748,709.117a17.831,17.831,0,0,1-5.833,2.876l-3.158-3.856a21.6,21.6,0,0,0,3.864-1.253,13.079,13.079,0,0,0,3.152-1.815,4.264,4.264,0,0,0,1.251-1.423,1.068,1.068,0,0,0-.193-1.171,1.046,1.046,0,0,0-.864-.379,6.61,6.61,0,0,0-1.6.3q-1.048.3-2.751.894a12.191,12.191,0,0,1-3.385.725,5.526,5.526,0,0,1-2.564-.442,6.141,6.141,0,0,1-2.129-1.759,4.883,4.883,0,0,1-1.223-4,8.443,8.443,0,0,1,2.6-4.361l-1.3-1.591,2.4-1.969,1.284,1.568a17.61,17.61,0,0,1,5.59-2.676l1.329,4.442a14.013,14.013,0,0,0-5.273,2.494,3.5,3.5,0,0,0-1.121,1.3.946.946,0,0,0,.169.977,1.06,1.06,0,0,0,.791.409,4.968,4.968,0,0,0,1.4-.217q.926-.244,2.455-.817a11.686,11.686,0,0,1,5.087-.9,5.053,5.053,0,0,1,3.373,1.963,5.5,5.5,0,0,1,1.36,4.184,7.785,7.785,0,0,1-2.37,4.463l1.836,2.241-2.4,1.969Z" transform="translate(-42.694 -522.749)" fill="#ff7300"/>
        <path id="Path_8612" data-name="Path 8612" d="M99.774,452.647a30.057,30.057,0,0,1-10.848,1.523l-3.018-7.833a36.4,36.4,0,0,0,6.841.034,22.033,22.033,0,0,0,6-1.24,7.183,7.183,0,0,0,2.751-1.615,1.8,1.8,0,0,0,.309-1.975,1.759,1.759,0,0,0-1.181-1.062,11.15,11.15,0,0,0-2.714-.363q-1.833-.08-4.871-.02a20.537,20.537,0,0,1-5.8-.626,9.3,9.3,0,0,1-3.869-2.059,10.337,10.337,0,0,1-2.478-3.936,8.223,8.223,0,0,1,.156-7.051q1.655-3.157,6.458-5.6l-1.245-3.232,4.884-1.881,1.227,3.185a29.686,29.686,0,0,1,10.352-1.332l-.218,7.806a23.589,23.589,0,0,0-9.749,1.209,5.9,5.9,0,0,0-2.477,1.482,1.593,1.593,0,0,0-.244,1.652,1.785,1.785,0,0,0,1.05,1.072,8.338,8.338,0,0,0,2.359.392q1.609.1,4.357-.012,5.6-.153,8.61,1.249a8.511,8.511,0,0,1,4.36,4.918,9.266,9.266,0,0,1-.032,7.409q-1.558,3.445-6.144,5.889l1.754,4.553-4.884,1.881Z" transform="translate(-60.857 -315.498)" fill="#ffce00"/>
        <path id="Path_8613" data-name="Path 8613" d="M1350.776,181.795a53.431,53.431,0,0,1-18.128-7.118l2.171-14.766a64.707,64.707,0,0,0,10.563,6.028,39.183,39.183,0,0,0,10.371,3.32,12.768,12.768,0,0,0,5.671-.1,3.2,3.2,0,0,0,2.2-2.788,3.131,3.131,0,0,0-.9-2.677,19.856,19.856,0,0,0-3.885-2.934q-2.769-1.724-7.526-4.287a36.513,36.513,0,0,1-8.427-6.033,16.539,16.539,0,0,1-4.191-6.568,18.376,18.376,0,0,1-.4-8.26q1.079-7.338,6.4-10.781t14.9-3.035l.9-6.093,9.206,1.354-.883,6a52.771,52.771,0,0,1,17.193,6.981l-7.156,11.9q-8.681-5.547-16.152-6.646a10.5,10.5,0,0,0-5.131.132,2.832,2.832,0,0,0-1.822,2.345,3.175,3.175,0,0,0,.689,2.578,14.825,14.825,0,0,0,3.311,2.668q2.4,1.558,6.758,3.788,8.811,4.659,12.24,9.455a15.129,15.129,0,0,1,2.455,11.425,16.475,16.475,0,0,1-6.521,11.445q-5.423,3.973-14.66,3.751l-1.262,8.584-9.207-1.354Z" transform="translate(-1011.411 -87.814)" fill="#ffec61"/>
      </g>
    </g>
  </g>
</svg>
