<svg id="Group_2674" data-name="Group 2674" xmlns="http://www.w3.org/2000/svg" xmlns:xlink="http://www.w3.org/1999/xlink" width="298.548" height="259.75" viewBox="0 0 298.548 259.75">
  <defs>
    <clipPath id="clip-path">
      <rect id="Rectangle_2005" data-name="Rectangle 2005" width="298.548" height="259.75" fill="none"/>
    </clipPath>
    <clipPath id="clip-path-2">
      <path id="Path_9635" data-name="Path 9635" d="M24.65,129.875a119.816,119.816,0,0,0,191.341,96.184c.4.1.8.2,1.205.278,4.312.866,8.807,1.271,13.175,1.822a63.517,63.517,0,0,0,13.257.224c4.391-.363,8.73-.241,13.1-.966,6.542-1.088,12.918-3.735,19.582-3.851a30.148,30.148,0,0,1,4.186.458c.739.085.694.21,1.178-.345.679-.779.368-2.343.356-3.255a50.542,50.542,0,0,1,.388-5.74c.441-4.444.111-9.045.111-13.509a310.262,310.262,0,0,0-2.109-37.037c-.7-5.814-1.443-11.533-.119-17.345.329-1.446.759-3.027,1.995-3.938a10.946,10.946,0,0,1,3.481-1.436c4-1.071,12.724-1.314,12.775-6.334v-.09a6.366,6.366,0,0,0-.538-2.347c-1.12-2.714-3.472-4.626-5.236-6.9a80.514,80.514,0,0,0-6.5-7.089c-3.785-3.841-9.868-5.354-14.985-6.413a77.092,77.092,0,0,1-8.6-2.566A119.877,119.877,0,0,0,24.65,129.875" fill="none"/>
    </clipPath>
  </defs>
  <g id="Group_2651" data-name="Group 2651">
    <g id="Group_2650" data-name="Group 2650" clip-path="url(#clip-path)">
      <path id="Path_9614" data-name="Path 9614" d="M144.525,10A119.875,119.875,0,1,0,264.4,129.875,120.011,120.011,0,0,0,144.525,10" fill="#fff"/>
      <path id="Path_9615" data-name="Path 9615" d="M144.525,259.75A129.875,129.875,0,1,1,274.4,129.875,130.022,130.022,0,0,1,144.525,259.75m0-249.75A119.875,119.875,0,1,0,264.4,129.875,120.011,120.011,0,0,0,144.525,10" fill="#3b265d"/>
    </g>
  </g>
  <g id="Group_2653" data-name="Group 2653">
    <g id="Group_2652" data-name="Group 2652" clip-path="url(#clip-path-2)">
      <path id="Path_9616" data-name="Path 9616" d="M37.054,99.48,1.392,95.319v116.71l35.662,5.094Z" fill="#4698d1"/>
      <path id="Path_9617" data-name="Path 9617" d="M107,98.2a.793.793,0,0,1,.342.2.691.691,0,0,1,.073.109.683.683,0,0,1,.061.117.751.751,0,0,1,.027.135.642.642,0,0,1,.02.1v30.494l2.773.447,82.233-60.614-60.349-9.734-48.8,35.971,23.526,2.745a.722.722,0,0,1,.093.03" fill="#b25656"/>
      <path id="Path_9618" data-name="Path 9618" d="M38.445,217.23h67.687V99.557H38.445ZM81.83,144.207H97.9v17.856H81.83Zm0,39.06H97.9v17.856H81.83Zm-31.249-39.06H66.652v17.856H50.581Zm0,39.06H66.652v17.856H50.581Z" fill="#6cbdff"/>
      <path id="Path_9619" data-name="Path 9619" d="M94.86,98.165,69.734,95.233H12.664l25.125,2.932Z" fill="#35789e"/>
      <path id="Path_9620" data-name="Path 9620" d="M110.476,131.232h0a.69.69,0,0,1-.11-.009l-2.841-.458v86.551l19.7,2.814v-88.9Z" fill="#4698d1"/>
      <path id="Path_9621" data-name="Path 9621" d="M128.617,220.237h56.332V194.65h20.088v25.587H258.3V131.232H128.617Zm104.1-76.03h16.07v17.856h-16.07Zm0,39.06h16.07v17.856h-16.07Zm-47.1-39.06h16.071v17.856H185.618Zm-47.1,0h16.07v17.856h-16.07Zm0,39.06h16.07v17.856h-16.07Z" fill="#6cbdff"/>
      <path id="Path_9622" data-name="Path 9622" d="M112.593,129.84h163.37L194.278,69.629Z" fill="#c12929"/>
      <rect id="Rectangle_2006" data-name="Rectangle 2006" width="68.124" height="33.69" transform="translate(38.446 99.557)" fill="#fff"/>
      <path id="Path_9623" data-name="Path 9623" d="M.887,93.845v33.69l37.558,5.713V99.557Z" fill="#d9dadb"/>
      <rect id="Rectangle_2007" data-name="Rectangle 2007" width="130.472" height="8.611" transform="translate(127.967 168.475)" fill="#fff"/>
      <path id="Path_9624" data-name="Path 9624" d="M107.524,165.66v8.611l19.7,2.815v-8.612Z" fill="#d9dadb"/>
      <path id="Path_9625" data-name="Path 9625" d="M259,221.628H127.921a.7.7,0,0,1-.7-.7v-90.4a.7.7,0,0,1,.7-.7H259a.7.7,0,0,1,.7.7v90.4a.7.7,0,0,1-.7.7m-130.379-1.391H258.3V131.232H128.617Z" fill="#3b265d"/>
      <path id="Path_9626" data-name="Path 9626" d="M127.922,221.628a.681.681,0,0,1-.1-.007l-21.091-3.013a.7.7,0,0,1,.2-1.378l21.092,3.013a.7.7,0,0,1-.1,1.385" fill="#3b265d"/>
      <path id="Path_9627" data-name="Path 9627" d="M278.08,131.232h-167.6a.7.7,0,0,1-.413-1.256l83.8-61.771a.7.7,0,0,1,.826,0l83.8,61.771a.7.7,0,0,1-.413,1.256M112.593,129.84h163.37L194.278,69.629Z" fill="#3b265d"/>
      <path id="Path_9628" data-name="Path 9628" d="M110.477,131.232a.715.715,0,0,1-.112-.009l-3.434-.554a.7.7,0,0,1,.222-1.374l3.434.554a.7.7,0,0,1-.11,1.383" fill="#3b265d"/>
      <path id="Path_9629" data-name="Path 9629" d="M81.8,96.424a.7.7,0,0,1-.413-1.256L131.591,58.16a.7.7,0,0,1,.524-.127l62.273,10.044a.7.7,0,0,1-.221,1.374l-61.985-10L82.21,96.288a.69.69,0,0,1-.412.136" fill="#3b265d"/>
      <path id="Path_9630" data-name="Path 9630" d="M106.828,218.621H37.75a.7.7,0,0,1-.7-.7V98.861a.7.7,0,0,1,.7-.7h69.078a.7.7,0,0,1,.7.7V217.926a.7.7,0,0,1-.7.7M38.445,217.23h67.687V99.557H38.445Z" fill="#3b265d"/>
      <path id="Path_9631" data-name="Path 9631" d="M37.751,218.621a.681.681,0,0,1-.1-.007L.6,213.321a.7.7,0,0,1-.6-.689V94.513c0-.012,0-.024,0-.035v0a.694.694,0,0,1,.189-.418h0v0h0l.037-.037,0,0h0a.694.694,0,0,1,.441-.172h0c.006,0,.011,0,.017,0H69.775a.734.734,0,0,1,.081,0l37.053,4.323a.7.7,0,0,1-.161,1.383L69.735,95.233H12.665L37.83,98.169a.7.7,0,0,1,.616.69.752.752,0,0,1,0,.082.7.7,0,0,1-.772.611L1.392,95.319v116.71l36.457,5.207a.7.7,0,0,1-.1,1.385" fill="#3b265d"/>
      <path id="Path_9632" data-name="Path 9632" d="M65.8,108.234v10.207a5.892,5.892,0,0,1-.782,3.066,5.093,5.093,0,0,1-2.261,2.018,8.092,8.092,0,0,1-3.5.7,6.7,6.7,0,0,1-4.726-1.559,5.535,5.535,0,0,1-1.683-4.269V108.234h3.334v9.658a4.041,4.041,0,0,0,.734,2.676,3.053,3.053,0,0,0,2.427.852,2.983,2.983,0,0,0,2.38-.857,4.071,4.071,0,0,0,.739-2.693v-9.636Z" fill="#3b265d"/>
      <path id="Path_9633" data-name="Path 9633" d="M69.665,108.235h4.91a9.455,9.455,0,0,1,4.871.955,3.322,3.322,0,0,1,1.516,3.037,3.828,3.828,0,0,1-.663,2.32,2.654,2.654,0,0,1-1.764,1.09v.108A3.474,3.474,0,0,1,80.7,117a4.073,4.073,0,0,1,.664,2.438A4.019,4.019,0,0,1,79.8,122.8a6.74,6.74,0,0,1-4.235,1.208h-5.9Zm3.345,6.248h1.942a3.552,3.552,0,0,0,1.969-.421,1.57,1.57,0,0,0,.61-1.392,1.391,1.391,0,0,0-.664-1.3,4.258,4.258,0,0,0-2.1-.394H73.01Zm0,2.654v4.111h2.18a3.23,3.23,0,0,0,2.039-.529,1.95,1.95,0,0,0,.658-1.618q0-1.963-2.805-1.964Z" fill="#3b265d"/>
      <path id="Path_9634" data-name="Path 9634" d="M93.824,119.629A4.078,4.078,0,0,1,92.286,123a6.679,6.679,0,0,1-4.278,1.23,10.049,10.049,0,0,1-4.467-.949v-3.107a18.408,18.408,0,0,0,2.7,1,8,8,0,0,0,2.023.291,2.874,2.874,0,0,0,1.689-.421,1.44,1.44,0,0,0,.588-1.251,1.389,1.389,0,0,0-.259-.826,2.914,2.914,0,0,0-.761-.7,19.47,19.47,0,0,0-2.045-1.068,9.7,9.7,0,0,1-2.169-1.3,4.929,4.929,0,0,1-1.154-1.457,4.153,4.153,0,0,1-.432-1.942,4.076,4.076,0,0,1,1.419-3.291,5.9,5.9,0,0,1,3.923-1.2,9.268,9.268,0,0,1,2.346.291,16.1,16.1,0,0,1,2.336.82l-1.079,2.6A15.71,15.71,0,0,0,90.582,111a6.713,6.713,0,0,0-1.625-.205,2.148,2.148,0,0,0-1.456.442,1.46,1.46,0,0,0-.507,1.155,1.423,1.423,0,0,0,.2.771,2.234,2.234,0,0,0,.653.637,20.049,20.049,0,0,0,2.12,1.106A8.452,8.452,0,0,1,93,117.023a4.143,4.143,0,0,1,.82,2.606" fill="#3b265d"/>
      <rect id="Rectangle_2008" data-name="Rectangle 2008" width="16.07" height="17.856" transform="translate(50.582 144.207)" fill="#3b265d"/>
      <rect id="Rectangle_2009" data-name="Rectangle 2009" width="16.07" height="17.856" transform="translate(81.83 144.207)" fill="#3b265d"/>
      <rect id="Rectangle_2010" data-name="Rectangle 2010" width="16.07" height="17.856" transform="translate(138.523 144.207)" fill="#3b265d"/>
      <rect id="Rectangle_2011" data-name="Rectangle 2011" width="16.071" height="17.856" transform="translate(185.618 144.207)" fill="#3b265d"/>
      <rect id="Rectangle_2012" data-name="Rectangle 2012" width="16.071" height="17.856" transform="translate(232.713 144.207)" fill="#3b265d"/>
      <rect id="Rectangle_2013" data-name="Rectangle 2013" width="20.088" height="26.338" transform="translate(184.949 194.65)" fill="#3b265d"/>
      <rect id="Rectangle_2014" data-name="Rectangle 2014" width="16.07" height="17.856" transform="translate(50.582 183.267)" fill="#3b265d"/>
      <rect id="Rectangle_2015" data-name="Rectangle 2015" width="16.07" height="17.856" transform="translate(81.83 183.267)" fill="#3b265d"/>
      <rect id="Rectangle_2016" data-name="Rectangle 2016" width="16.07" height="17.856" transform="translate(138.523 183.267)" fill="#3b265d"/>
      <rect id="Rectangle_2017" data-name="Rectangle 2017" width="16.071" height="17.856" transform="translate(232.713 183.267)" fill="#3b265d"/>
    </g>
  </g>
</svg>
