<svg id="Group_2772" data-name="Group 2772" xmlns="http://www.w3.org/2000/svg" xmlns:xlink="http://www.w3.org/1999/xlink" width="377.543" height="320.251" viewBox="0 0 377.543 320.251">
  <defs>
    <clipPath id="clip-path">
      <rect id="Rectangle_2399" data-name="Rectangle 2399" width="377.543" height="320.251" fill="none"/>
    </clipPath>
  </defs>
  <g id="Group_2768" data-name="Group 2768">
    <g id="Group_2767" data-name="Group 2767" clip-path="url(#clip-path)">
      <path id="Path_19767" data-name="Path 19767" d="M691.587,361.29l4.382,30.674a12.733,12.733,0,0,1-11.288,14.509c-1.094.106-1.824.039-1.91-.3-.4-1.6-8.014-45.68-8.014-45.68Z" transform="translate(-420.706 -224.761)" fill="#b5abd3"/>
      <path id="Path_19768" data-name="Path 19768" d="M683.2,312.773l8.949-3.74-15.627-40.07-9.216,3.606Z" transform="translate(-416.061 -167.696)" fill="#e5db65"/>
      <path id="Path_19769" data-name="Path 19769" d="M623.735,59.078c.708,4-1.226,7.921-2.657,11.723-1.686,4.479-2.71,9.5-1.131,14.016s6.511,8.107,11.11,6.785a10.847,10.847,0,0,1-.888,5.552c-2.626,6.235-9.534,10.023-16.3,10.09s-13.258-3.113-18.337-7.582a20.11,20.11,0,0,1-6-8.131,20.883,20.883,0,0,1-.547-9.793,47.183,47.183,0,0,1,13.663-26.774c2.959-2.936,6.65-6.666,11.214-5.787,4.48.863,9.076,5.421,9.869,9.9" transform="translate(-367.029 -30.579)" fill="#3b265d"/>
      <path id="Path_19770" data-name="Path 19770" d="M601.33,99.654l-4.132-21.2a12.421,12.421,0,0,0-14.568-9.816l-17,3.314a12.421,12.421,0,0,0-9.816,14.568l4.132,21.2a12.359,12.359,0,0,0,3.351,6.347q.6,1.723,1.3,3.4c1.42,3.365,3.153,6.627,4.028,10.173,1.41,5.717.92,12.687,5.554,16.32,3.23,2.532,7.939,2.318,11.7.685a11.274,11.274,0,0,0,6.264-5.855c1.053-2.71.555-5.737.208-8.624-.667-5.542-.544-11.569,1.486-16.641a12.424,12.424,0,0,0,7.485-13.872" transform="translate(-346.402 -42.654)" fill="#b5abd3"/>
      <path id="Path_19771" data-name="Path 19771" d="M564.34,18.2a15.959,15.959,0,0,0-4.755-8.67,10.447,10.447,0,0,0-9.329-2.5,3.792,3.792,0,0,1-.075,5.944,8.917,8.917,0,0,0-6.492-5,15.572,15.572,0,0,1-3.839,14.936,15.127,15.127,0,0,0-6.268-8.054c-.7,2.442-1.468,5.01-3.319,6.749-2.18,2.048-5.354,2.5-8.234,3.3l-.081.023a16.367,16.367,0,0,0-11.861,17.167l1.536,17.727c.169,3.354,1.912,6.388,3.217,9.483s2.168,6.744.623,9.725a6.525,6.525,0,0,0-1.081,2.529,4.012,4.012,0,0,0,1.764,2.992c6.319,5.369,16.467,5.946,22.932.755s7.894-15.858,2.5-22.157c-2.433-2.843-6.032-4.86-7.336-8.368a9.4,9.4,0,0,1-.473-4.148c.819-8.7,8.5-10.647,15.7-11.43A17.511,17.511,0,0,0,564.417,26.01a18.477,18.477,0,0,0-.078-7.813" transform="translate(-317.997 -4.204)" fill="#3b265d"/>
      <path id="Path_19772" data-name="Path 19772" d="M585.049,256.035c-.781-4.177-4.786-10.852-8.6-12.721l-7.025-3.441-2.479,3.719A9.927,9.927,0,0,1,554,246.835l-7.013-3.757-14.6,6.764a14.249,14.249,0,0,0-8.209,11.745c-1.822,21.8-5.512,78.728-5.512,78.728h80.674Z" transform="translate(-323.385 -149.559)" fill="#e5db65"/>
      <path id="Path_19773" data-name="Path 19773" d="M521.262,302.518c-1.38,20.1-2.595,38.843-2.595,38.843h80.674l-8.883-51.522h0a35.829,35.829,0,0,1-12.219-29.7l1.038-13.909a13.431,13.431,0,0,0-2.829-1.867l-5.735-2.809c-1.378,4.576-6.366,24.746-6.366,24.746l-3.473,37.933-5.61-30.186-13.4-27.546-9.476,4.391c-.305.142-.6.294-.9.456l8.963,23.345a14.024,14.024,0,0,1-1.235,12.515l-5.47,8.662a14.028,14.028,0,0,1-10.476,6.468c-.7.069-1.38.133-2.011.185" transform="translate(-323.385 -150.605)" fill="#2b7241"/>
      <path id="Path_19774" data-name="Path 19774" d="M647.087,313.762c1.069,0,15.494-2.939,15.494-2.939l1.069,11.754-16.295,2.137Z" transform="translate(-403.454 -193.796)" fill="#fff"/>
      <path id="Path_19775" data-name="Path 19775" d="M646.645,313.761l15.494-2.939.267,4.274-16.028,1.87Z" transform="translate(-403.012 -193.795)" fill="#606060"/>
      <path id="Path_19776" data-name="Path 19776" d="M684.785,417.457l-30.7-28.514,1.852-2.076-.2-.22a1.558,1.558,0,0,0-2.252-.061l-7.027,6.962a1.558,1.558,0,0,0,.4,2.5l2.98-2.964,29.219,30.382a4.155,4.155,0,0,0,6.222-.262,4.237,4.237,0,0,0-.491-5.748" transform="translate(-402.771 -240.752)" fill="#c5f4ff"/>
      <path id="Path_19777" data-name="Path 19777" d="M748.529,482.075,766.464,500l-19.609-16.075a1.248,1.248,0,1,1,1.674-1.848" transform="translate(-465.37 -300.337)" fill="#606060"/>
      <path id="Path_19778" data-name="Path 19778" d="M674.785,432.524c2.729-2.449,13.016-11.676,15.976-14.331a.869.869,0,0,1,1.337.219l.055.1a.871.871,0,0,1-.178,1.083l-16.028,14.233a.871.871,0,0,1-1.16-1.3" transform="translate(-420.543 -260.602)" fill="#c5f4ff"/>
      <path id="Path_19779" data-name="Path 19779" d="M701.734,435l-4.4,3.715,13.377,12.918a2.843,2.843,0,0,0,3.955-4.085Z" transform="translate(-434.783 -271.217)" fill="#fff"/>
      <path id="Path_19780" data-name="Path 19780" d="M709.731,448.673a19.27,19.27,0,0,1-12.228-4.187l-.168.142,13.377,12.918a2.843,2.843,0,0,0,3.955-4.085Z" transform="translate(-434.783 -277.134)" fill="#ff0"/>
      <rect id="Rectangle_2392" data-name="Rectangle 2392" width="3.238" height="0.712" transform="matrix(0.766, -0.642, 0.642, 0.766, 275.717, 181.614)" fill="#606060"/>
      <rect id="Rectangle_2393" data-name="Rectangle 2393" width="3.238" height="0.712" transform="matrix(0.766, -0.642, 0.642, 0.766, 266.227, 171.682)" fill="#606060"/>
      <rect id="Rectangle_2394" data-name="Rectangle 2394" width="1.729" height="0.712" transform="matrix(0.732, -0.681, 0.681, 0.732, 273.222, 179.474)" fill="#606060"/>
      <rect id="Rectangle_2395" data-name="Rectangle 2395" width="1.729" height="0.712" transform="matrix(0.732, -0.681, 0.681, 0.732, 271.815, 177.883)" fill="#606060"/>
      <rect id="Rectangle_2396" data-name="Rectangle 2396" width="1.729" height="0.712" transform="matrix(0.732, -0.681, 0.681, 0.732, 270.382, 176.115)" fill="#606060"/>
      <rect id="Rectangle_2397" data-name="Rectangle 2397" width="1.729" height="0.712" transform="matrix(0.732, -0.681, 0.681, 0.732, 269.014, 174.788)" fill="#606060"/>
      <rect id="Rectangle_2398" data-name="Rectangle 2398" width="1.729" height="0.712" transform="matrix(0.732, -0.681, 0.681, 0.732, 267.721, 173.36)" fill="#606060"/>
      <path id="Path_19781" data-name="Path 19781" d="M516.566,292.131l-4.539-24.569-.883.269-4.849,1.477a16.429,16.429,0,0,0-11.484,13.442l-7.363,52.657,33.125-11.22Z" transform="translate(-303.92 -166.823)" fill="#e5db65"/>
      <path id="Path_19782" data-name="Path 19782" d="M529.362,416l.023.187-27.8,9.418a9.952,9.952,0,0,0,9.278,7.4l52.932,1.818a9.854,9.854,0,1,0,.088-19.7Z" transform="translate(-312.732 -258.825)" fill="#b5abd3"/>
      <path id="Path_19783" data-name="Path 19783" d="M604.517,203.7l-19.609-16.075c-.023-.02-.044-.04-.063-.059a4.335,4.335,0,0,1-5.157-.827l-1.628-1.693,1.66,9.792h-81.1L499.732,178a10.083,10.083,0,0,1-7.468-7.087l-5.421,1.836,7.405-52.96a16.673,16.673,0,0,1,11.616-13.6l5.713-1.74c.306-.169.6-.317.89-.452l14.562-6.748c-.229-1.156-.407-2.357-.579-3.521-.238-1.608-.484-3.272-.864-4.811a28.229,28.229,0,0,0-1.151-3.546c-6.429,4.9-16.418,4.48-22.864-1-.817-.694-1.9-1.776-1.829-3.145a4.559,4.559,0,0,1,.775-2.021c.112-.195.225-.389.326-.585,1.245-2.4,1.034-5.621-.629-9.565-.277-.658-.58-1.325-.873-1.971a21.29,21.29,0,0,1-2.358-7.575L495.445,41.8a16.569,16.569,0,0,1,12-17.364l.063-.018c.562-.157,1.117-.3,1.674-.437,2.344-.59,4.767-1.2,6.5-2.828,1.866-1.753,2.643-4.476,3.267-6.663l.068-.241.213.134a15.427,15.427,0,0,1,6.247,7.86,15.291,15.291,0,0,0,3.578-14.532l-.082-.288.295.05a9.066,9.066,0,0,1,6.534,4.9,3.427,3.427,0,0,0,1.213-2.67,3.373,3.373,0,0,0-1.32-2.834l-.329-.233.39-.1a10.6,10.6,0,0,1,9.5,2.54,16.212,16.212,0,0,1,4.814,8.772,19.953,19.953,0,0,1,.456,4.481c4.586.942,9.108,5.509,9.909,10.032.615,3.469-.724,6.868-2.019,10.155-.22.558-.439,1.114-.647,1.667a32.882,32.882,0,0,0-1.427,4.807l2.314,11.87c.047.241.088.5.126.8,2.45,2.744,5.792,3.924,8.738,3.078l.21-.06.028.217a11.045,11.045,0,0,1-.9,5.649c-2.5,5.938-9.274,10.134-16.47,10.206-.247,0-.492,0-.738-.012a41.816,41.816,0,0,0,.036,10.651l.082.665c.088.706.178,1.436.244,2.159l6.678,3.271c.128.063.256.131.384.2a13.677,13.677,0,0,1,2.485,1.689l.072.062-.022.3a24.4,24.4,0,0,1,3.846,5.443l.659-.258,15.762,40.417-4.3,1.8,3.42,23.938a13.078,13.078,0,0,1,.058,3.231l6.634,6.161a4.5,4.5,0,0,1,1.11,5l.036.032,17.94,17.928ZM584.925,187.09l.1.115a1.4,1.4,0,0,0,.125.134L601.8,200.985l-15.228-15.218a.854.854,0,0,0-.082-.064l-.163-.122.065-.139a4.11,4.11,0,0,0-.963-4.706l-6.773-6.29.01-.095a12.679,12.679,0,0,0-.046-3.23L575.158,146.9l4.232-1.769L563.9,105.4l-.622.244-.078-.15a24.015,24.015,0,0,0-3.919-5.565l-.059-.061.02-.275a13.34,13.34,0,0,0-2.349-1.583c-.126-.072-.247-.137-.369-.2l-6.869-3.364-.009-.106c-.066-.752-.16-1.514-.251-2.252l-.082-.666a41.974,41.974,0,0,1-.012-10.916l.024-.167.262.008c.265.009.528.018.8.015,7.051-.07,13.682-4.172,16.127-9.975a10.8,10.8,0,0,0,.9-5.24c-3.048.775-6.457-.472-8.949-3.291l-.038-.043-.007-.058c-.039-.311-.082-.584-.131-.832l-2.328-11.944.008-.037a33.115,33.115,0,0,1,1.451-4.9c.209-.555.428-1.113.649-1.672,1.275-3.238,2.594-6.587,2-9.951-.769-4.345-5.311-8.9-9.72-9.749l-.156-.03-.041-.166a19.515,19.515,0,0,0-.444-4.553,15.843,15.843,0,0,0-4.7-8.569,10.3,10.3,0,0,0-8.789-2.546,3.834,3.834,0,0,1,1.172,2.9,3.748,3.748,0,0,1-1.558,3.107l-.184.124-.092-.2A8.686,8.686,0,0,0,529.5,7.9a15.673,15.673,0,0,1-3.967,14.828l-.217.219-.1-.294a15.04,15.04,0,0,0-5.977-7.816c-.625,2.188-1.429,4.832-3.3,6.59-1.8,1.7-4.277,2.318-6.667,2.919-.553.139-1.1.278-1.646.429l-.079.023A16.192,16.192,0,0,0,495.82,41.768L497.357,59.5a21.025,21.025,0,0,0,2.326,7.446c.294.648.6,1.318.877,1.98,1.707,4.052,1.915,7.378.616,9.885-.1.2-.22.4-.335.6a4.22,4.22,0,0,0-.725,1.851c-.044.916.495,1.818,1.7,2.84,6.381,5.421,16.3,5.786,22.586.832l.2-.156.093.235a29.12,29.12,0,0,1,1.259,3.828c.384,1.557.632,3.229.872,4.846.185,1.247.376,2.536.627,3.759l.081.394-.4-.213-14.511,6.724c-.289.134-.578.281-.883.45l-.036.015-5.732,1.746a16.3,16.3,0,0,0-11.353,13.288L487.3,172.2l13.238-4.484.121.357L492.62,170.8a9.71,9.71,0,0,0,7.349,6.875l.159.034-1.1,16.756h80.25l-1.79-10.557,2.475,2.574a3.96,3.96,0,0,0,4.831.688Z" transform="translate(-303.542 -3.893)" fill="#3b265d"/>
      <path id="Path_19784" data-name="Path 19784" d="M310.28,229.473l-9.158,27.118,38.931,104.272,23.18-5.056-4.468-112.626L330.3,223.991l-1.262,7.912a5.582,5.582,0,0,1-8.715,4.392Z" transform="translate(-187.747 -139.657)" fill="#a04747"/>
      <path id="Path_19785" data-name="Path 19785" d="M293.233,338.985l14.935.65,1.065,15.119-8.013,6.772-6.529-9.461Z" transform="translate(-182.829 -211.355)" fill="#d4d9e8"/>
      <path id="Path_19786" data-name="Path 19786" d="M377.946,219.226l-1.124-.034,15.7,23.37,7.249,112.578,33.039-7.206-11.87-84.5A42.115,42.115,0,0,0,401.109,233.3Z" transform="translate(-234.946 -136.664)" fill="#fff"/>
      <path id="Path_19787" data-name="Path 19787" d="M409.541,259.886a1.82,1.82,0,0,1-2.2-1.657c-.493-7.512-3.785-15.268-9.269-21.837-4.745-5.684-11.237-10.706-19.295-14.924a1.818,1.818,0,1,1,1.687-3.221c8.483,4.442,15.347,9.762,20.4,15.815,5.974,7.156,9.563,15.654,10.106,23.929a1.819,1.819,0,0,1-1.424,1.9" transform="translate(-235.554 -135.945)" fill="#3b265d"/>
      <path id="Path_19788" data-name="Path 19788" d="M457.417,321.886A6.818,6.818,0,1,0,452.209,330a6.817,6.817,0,0,0,5.208-8.114" transform="translate(-276.791 -197.347)" fill="#3b265d"/>
      <path id="Path_19789" data-name="Path 19789" d="M460.01,329.023a3,3,0,1,0-2.292,3.57,3,3,0,0,0,2.292-3.57" transform="translate(-283.114 -203.671)" fill="#fff"/>
      <path id="Path_19790" data-name="Path 19790" d="M373.284,219.964l15.7,23.37,8.581,112.287,3.8-101.59-6.748-6.622,6.521-3.376L377.1,220.807Z" transform="translate(-232.74 -137.146)" fill="#d4d9e8"/>
      <path id="Path_19791" data-name="Path 19791" d="M382.322,135.623a13.635,13.635,0,1,1-16.228-10.416,13.635,13.635,0,0,1,16.228,10.416" transform="translate(-221.565 -77.868)" fill="#3b265d"/>
      <path id="Path_19792" data-name="Path 19792" d="M396.11,99.6a13.6,13.6,0,0,0-7-9.173,13.623,13.623,0,0,0-7.045-12.794,13.633,13.633,0,1,0-19.632,15.824,13.555,13.555,0,0,0,2.207,4.366c-.147.027-.293.052-.44.084a13.635,13.635,0,1,0,15.737,17.932A13.634,13.634,0,0,0,396.11,99.6" transform="translate(-220.385 -42.314)" fill="#3b265d"/>
      <path id="Path_19793" data-name="Path 19793" d="M362.965,43.472a13.635,13.635,0,1,1-16.228-10.416,13.635,13.635,0,0,1,16.228,10.416" transform="translate(-209.496 -20.413)" fill="#3b265d"/>
      <path id="Path_19794" data-name="Path 19794" d="M326.251,114.561l-15.407,6.646a13.13,13.13,0,0,1-17.257-6.855l-8.375-19.417a13.13,13.13,0,0,1,6.855-17.257l15.407-6.646a13.131,13.131,0,0,1,17.257,6.856L333.106,97.3a13.13,13.13,0,0,1-6.855,17.257" transform="translate(-177.155 -43.616)" fill="#8774aa"/>
      <path id="Path_19795" data-name="Path 19795" d="M333.692,154.934c-1-1.361-3.241-.346-4.177,1.061-2.676,4.022-1.086,9.459,1.15,13.741a24.093,24.093,0,0,1,2.324,5.216,9.849,9.849,0,0,1-13.781,11.268c-2.53-1.2-4.416-3.4-6.223-5.539l-7.633-9.033a25.6,25.6,0,0,1-4.187-6.054c-2.363-5.405-.752-11.636.937-17.288a36.18,36.18,0,0,1,3.464-8.7,12.483,12.483,0,0,1,7.119-5.772c4.3-1.135,8.981,1.046,11.771,4.5s3.963,7.958,4.415,12.378" transform="translate(-187.032 -83.256)" fill="#8774aa"/>
      <path id="Path_19796" data-name="Path 19796" d="M284.237,226.341l23.086,26.505,9.923,109.482-37.568,8.194L264.542,262.735Z" transform="translate(-164.94 -141.122)" fill="#fff"/>
      <path id="Path_19797" data-name="Path 19797" d="M308.984,279.141l-4.242.628c-1.869-11.278-3.746-23.847-3.708-25.971a1.818,1.818,0,0,0-2.661-2.117c-1.223.727-1.135,1.9-.6,6.246.281,2.306.728,5.483,1.326,9.441.84,5.55,1.75,11.118,2.049,12.933l-8.113,1.2a1.815,1.815,0,0,0-1.536,2.037l2.348,17.741a3.352,3.352,0,0,0,.3,2.068,1.8,1.8,0,0,0,.735.993,3.408,3.408,0,1,0,2.254-5.9l-1.8-13.6,12.5-1.851,2.953,13.538c-.075.011-.149.021-.224.037a3.409,3.409,0,1,0,3.789,4.82,1.814,1.814,0,0,0,.8-1.913l-4.126-18.917a1.818,1.818,0,0,0-2.043-1.411" transform="translate(-181.735 -156.762)" fill="#3b265d"/>
      <path id="Path_19798" data-name="Path 19798" d="M305.291,226.341l23.086,26.505L338.3,362.329l-17.316-94.752,2.912-10.962-9.011,4.756L298.309,234Z" transform="translate(-185.994 -141.122)" fill="#d4d9e8"/>
      <path id="Path_19799" data-name="Path 19799" d="M388.637,440.138c.865.22,18.236,2.864,30.6,4.734a11.99,11.99,0,1,1-3.592,23.709l-48.876-7.417Z" transform="translate(-228.676 -274.423)" fill="#8774aa"/>
      <path id="Path_19800" data-name="Path 19800" d="M459.287,455.558a3.54,3.54,0,0,0-6.91,1.507Z" transform="translate(-282.024 -282.407)" fill="#5ffff3"/>
      <path id="Path_19801" data-name="Path 19801" d="M452.663,462.339a3.54,3.54,0,0,0,6.91-1.507Z" transform="translate(-282.232 -287.325)" fill="#5ffff3"/>
      <path id="Path_19802" data-name="Path 19802" d="M490.835,464.246a3.54,3.54,0,0,0-6.91,1.507Z" transform="translate(-301.694 -287.823)" fill="#ff61f4"/>
      <path id="Path_19803" data-name="Path 19803" d="M484.211,471.026a3.541,3.541,0,0,0,6.91-1.507Z" transform="translate(-301.902 -292.741)" fill="#ff61f4"/>
      <path id="Path_19804" data-name="Path 19804" d="M446.08,487l.111.113a2.1,2.1,0,0,0,2.973.014l4.181-4.142a2.1,2.1,0,0,0,.014-2.973l-.112-.113a2.1,2.1,0,0,0-2.973-.014l-4.181,4.142A2.1,2.1,0,0,0,446.08,487" transform="translate(-277.747 -298.822)" fill="#fff"/>
      <path id="Path_19805" data-name="Path 19805" d="M448.141,486.645l-1.937,1.919a2.182,2.182,0,1,0,3.071,3.1l1.937-1.919Z" transform="translate(-277.802 -303.419)" fill="#ffec00"/>
      <path id="Path_19806" data-name="Path 19806" d="M478.782,488.188l-.046.152a2.1,2.1,0,0,0,1.407,2.619l5.636,1.7a2.1,2.1,0,0,0,2.619-1.407l.046-.152a2.1,2.1,0,0,0-1.407-2.619l-5.636-1.7a2.1,2.1,0,0,0-2.619,1.407" transform="translate(-298.432 -303.448)" fill="#fff"/>
      <path id="Path_19807" data-name="Path 19807" d="M484.121,487.621l-2.612-.786a2.182,2.182,0,0,0-1.257,4.178l2.611.786Z" transform="translate(-298.465 -303.48)" fill="#ffec00"/>
      <path id="Path_19808" data-name="Path 19808" d="M327.844,367.532c-.441-.741-42.261-9.484-42.261-9.484l-4.908-8.174a3.406,3.406,0,0,1-2.589-.9,1.8,1.8,0,0,1-.736-.993,3.431,3.431,0,0,1-.273-.774,3.4,3.4,0,0,1-.029-1.294l-.353-2.664L264.542,323l.637,48.346a17.106,17.106,0,0,0,15.831,16.833l44.037,6.2s3.238-26.106,2.8-26.847" transform="translate(-164.94 -201.39)" fill="#fff"/>
      <path id="Path_19809" data-name="Path 19809" d="M233.306,8.742a13.635,13.635,0,0,0-22.342-4.073,13.637,13.637,0,0,0-18.035,11.11,13.636,13.636,0,0,0-15.048,19.038,13.637,13.637,0,0,0-2.932,21.073,13.651,13.651,0,0,0-8.118,9.742A13.635,13.635,0,0,0,170.079,91.3a13.643,13.643,0,0,0,18.1,9.333,13.626,13.626,0,0,0,19.564-1.5,13.624,13.624,0,0,0,12.1-18.332,13.635,13.635,0,0,0-3.185-19.051c-.007-.032-.011-.064-.018-.1a13.62,13.62,0,0,0-8.41-9.813,13.51,13.51,0,0,0-1.373-2.758,13.739,13.739,0,0,0,2.233-.3,13.574,13.574,0,0,0,6.072-3.059,13.635,13.635,0,0,0,20.4-9.979c.086-.017.172-.03.258-.049a13.636,13.636,0,0,0-2.506-26.952" transform="translate(-99.193 -0.307)" fill="#3b265d"/>
      <path id="Path_19810" data-name="Path 19810" d="M213.635,229.588a.187.187,0,0,1-.206-.161l-6.318-44.993a17.214,17.214,0,0,1-8.183-14.472l-.637-48.346a.188.188,0,0,1,.023-.092L210.826,98.4c-.389.122-.775.224-1.152.306a13.935,13.935,0,0,1-2.157.294,13.678,13.678,0,0,1-7.653,4.637,13.877,13.877,0,0,1-12.043-3.1,13.969,13.969,0,0,1-1.909.561,14.285,14.285,0,0,1-1.514.245,13.761,13.761,0,0,1-14.787-10.2,13.823,13.823,0,0,1-3.26-25.958,13.814,13.814,0,0,1,7.962-9.681,13.825,13.825,0,0,1,3.012-21.08,13.912,13.912,0,0,1-.861-2.64,13.825,13.825,0,0,1,15.99-16.545A13.825,13.825,0,0,1,210.6,4.145a13.824,13.824,0,0,1,22.519,4.106,13.916,13.916,0,0,1,9.586,4.39A13.828,13.828,0,0,1,252.84,26.447a13.756,13.756,0,0,1,7.878,8.74A13.812,13.812,0,0,1,267.8,48a13.822,13.822,0,0,1-9.249,25.739,13.82,13.82,0,0,1-13.587,8.982,71.2,71.2,0,0,1,14.875,10.537l5.3,3.221a42.146,42.146,0,0,1,19.922,30.267l6.171,43.926A12.177,12.177,0,0,1,294.3,192.5l2.633,18.741a.188.188,0,0,1-.146.21l-83.13,18.131-.02,0M198.669,121.66l.636,48.3a16.84,16.84,0,0,0,8.079,14.2.19.19,0,0,1,.088.134l6.3,44.879,82.761-18.051-2.625-18.687a.188.188,0,0,1,.085-.185A11.8,11.8,0,0,0,291.009,171a.19.19,0,0,1-.133-.154L284.689,126.8a41.772,41.772,0,0,0-19.745-30l-5.318-3.232a.207.207,0,0,1-.031-.024,71.477,71.477,0,0,0-15.6-10.916.188.188,0,0,1,.109-.354,13.443,13.443,0,0,0,14.152-8.817.187.187,0,0,1,.216-.12,13.446,13.446,0,0,0,9.047-25.061.187.187,0,0,1-.1-.178,13.436,13.436,0,0,0-6.948-12.618.189.189,0,0,1-.09-.111,13.384,13.384,0,0,0-7.8-8.623.188.188,0,0,1-.117-.182,13.451,13.451,0,0,0-9.907-13.573.189.189,0,0,1-.088-.054,13.534,13.534,0,0,0-9.477-4.313.189.189,0,0,1-.168-.114,13.447,13.447,0,0,0-22.034-4.017.188.188,0,0,1-.2.047A13.449,13.449,0,0,0,192.8,15.5a.189.189,0,0,1-.223.16,13.448,13.448,0,0,0-15.744,16.058,13.517,13.517,0,0,0,.9,2.717.188.188,0,0,1-.075.24,13.449,13.449,0,0,0-2.892,20.782.188.188,0,0,1-.065.3,13.436,13.436,0,0,0-8.006,9.607.19.19,0,0,1-.1.13,13.447,13.447,0,0,0,3.2,25.313.187.187,0,0,1,.146.138,13.4,13.4,0,0,0,15.885,9.79,13.573,13.573,0,0,0,1.96-.585.189.189,0,0,1,.192.035,13.5,13.5,0,0,0,11.8,3.089,13.309,13.309,0,0,0,7.5-4.572.187.187,0,0,1,.135-.068,13.288,13.288,0,0,0,3.741-.734.187.187,0,0,1,.205.056.189.189,0,0,1,.022.212ZM241.236,83.4a.184.184,0,0,1-.061,0L241,83.361a.188.188,0,0,1-.136-.12q-.085-.232-.164-.466a.185.185,0,0,1-.005-.1.188.188,0,0,1-.057-.084c-.105-.321-.2-.648-.293-.97a.188.188,0,0,1,.252-.225,13.443,13.443,0,0,0,1.864.6.188.188,0,0,1,.01.363,1.616,1.616,0,0,0-.612.346.192.192,0,0,1-.131.047l-.614-.019.258.383a.188.188,0,0,1-.136.292m-.28-1.057.712.021a2.135,2.135,0,0,1,.2-.145c-.355-.1-.707-.215-1.052-.343q.069.234.143.466" transform="translate(-98.877 0)" fill="#3b265d"/>
      <text id="ATENÇÃO" transform="translate(121.387 236.58)" fill="#008cff" font-size="51" font-family="OpenSans-ExtraBold, Open Sans" font-weight="800"><tspan x="0" y="0">ATENÇÃO</tspan></text>
    </g>
  </g>
  <text id="BÁSICA" transform="translate(152.184 299.678)" fill="#008cff" font-size="51" font-family="OpenSans-ExtraBold, Open Sans" font-weight="800"><tspan x="0" y="0">BÁSICA</tspan></text>
  <g id="Group_2770" data-name="Group 2770">
    <g id="Group_2769" data-name="Group 2769" clip-path="url(#clip-path)">
      <path id="Path_19811" data-name="Path 19811" d="M263.574,620.141l9.243,40.475a17.061,17.061,0,0,1-13.468,20.623c-1.449.262-2.431.253-2.584-.2-.712-2.1-15.751-60.111-15.751-60.111Z" transform="translate(-150.27 -386.653)" fill="#685e7f"/>
      <path id="Path_19812" data-name="Path 19812" d="M247.674,560.56l11.536-5.983L233.99,505.61l-11.984,3.023Z" transform="translate(-138.419 -315.244)" fill="#a7d6b4"/>
      <path id="Path_19813" data-name="Path 19813" d="M116.912,276.58l-7.86-27.847a16.643,16.643,0,0,0-20.538-11.5l-22.331,6.3a16.643,16.643,0,0,0-11.5,20.538l7.86,27.847a16.565,16.565,0,0,0,5.176,8.105q.988,2.234,2.114,4.4c2.268,4.336,4.943,8.5,6.5,13.139,2.515,7.477,2.633,16.839,9.221,21.177,4.593,3.025,10.857,2.217,15.7-.38,3.467-1.857,6.6-4.74,7.718-8.51,1.106-3.735.107-7.722-.676-11.538-1.5-7.328-2.005-15.389.145-22.386a16.647,16.647,0,0,0,8.461-19.351" transform="translate(-33.703 -147.523)" fill="#685e7f"/>
      <path id="Path_19814" data-name="Path 19814" d="M125.839,483.387c-1.5-5.491-7.591-13.961-12.893-16.035l-9.761-3.818-2.9,5.24a13.3,13.3,0,0,1-16.93,5.763L73.576,470.3,54.834,480.941a19.093,19.093,0,0,0-9.662,16.59c-.023,29.317.9,100.385.9,100.385L153.8,589Z" transform="translate(-28.164 -289.01)" fill="#a7d6b4"/>
      <path id="Path_19815" data-name="Path 19815" d="M199.436,560.069c1.427-.118,20.364-5.637,20.364-5.637l2.726,15.577L201,574.664Z" transform="translate(-124.347 -345.684)" fill="#fff"/>
      <path id="Path_19816" data-name="Path 19816" d="M199.432,560.068l20.364-5.637.829,5.678-21.2,4.269Z" transform="translate(-124.343 -345.684)" fill="#606060"/>
      <path id="Path_19817" data-name="Path 19817" d="M181.536,624.176c-4.885,12.495-18.793,47.481-24.121,60.877a5.256,5.256,0,0,0,3.358,6.973l49.039,14.89a5.258,5.258,0,0,0,6.4-3.049l24.83-61a5.257,5.257,0,0,0-3.371-7.021L187.93,621.052a5.256,5.256,0,0,0-6.395,3.124" transform="translate(-97.913 -387.084)" fill="#a8a08f"/>
      <path id="Path_19818" data-name="Path 19818" d="M285.508,632.038l12.844,4.242-2.9-6.272-4.585-1.488a5.691,5.691,0,1,0-10.793-3.5l-6.735-2.185-6.3,3.108,15.255,5.038A5.67,5.67,0,0,0,284.97,632c.181.02.36.03.539.034m.419-8.486a2.806,2.806,0,0,1,2.184,4.073l-5.275-1.712a2.809,2.809,0,0,1,3.091-2.361" transform="translate(-166.502 -386.971)" fill="#606060"/>
      <path id="Path_19819" data-name="Path 19819" d="M34.642,543.951l-8.777-32.306-1.149.457L18.4,514.61A22.015,22.015,0,0,0,4.555,533.829L.545,604.957l42.991-18.644Z" transform="translate(-0.34 -319.007)" fill="#a7d6b4"/>
      <path id="Path_19820" data-name="Path 19820" d="M54.921,700.915l.052.247L18.888,716.811h0A13.333,13.333,0,0,0,32.1,725.665l70.882-3.424a13.2,13.2,0,1,0-2.06-26.314Z" transform="translate(-11.777 -433.856)" fill="#685e7f"/>
      <path id="Path_19821" data-name="Path 19821" d="M89.818,191.92c-.424-.443-1.321-.443-1.535.132l-1.56-3.661-1.786.929a2.156,2.156,0,1,0-4.035-1.454c.3-1.758-.523-3.812-2.229-4.293a2.549,2.549,0,0,0-3.008,2.465,22.91,22.91,0,0,0-2.3-4.408A7.76,7.76,0,0,0,70.021,188a12.3,12.3,0,0,0-2.244-4.9c-.326-.428-.8-.878-1.325-.75-.438.107-.676.569-.858.982l-1.89,4.285c.59-2.468-2.787-4.4-5.119-3.406s-3.492,3.633-4.008,6.117c.586-2.133-2.439-3.9-4.379-2.839a4.854,4.854,0,0,0-2.124,4.764,2.751,2.751,0,0,0-3.715-.87c-1.523,1.052-1.825,3.217-1.46,5.032a2.912,2.912,0,1,0-5.441,1.935c-1.53-1.348-4.152-.111-4.9,1.785-.7,1.768-.3,3.744.187,5.6-.354-.311-1.424.075-1.737.728-1.412,2.942-.781,6.409-.122,9.6l2.023,9.813a42.541,42.541,0,0,0,1.576,6.1,42.554,42.554,0,0,0,3.7,7.136l4.236,7.051c1.7,6.406,3.462,13.584,3.462,13.584l6.945,5.995c-.826-1.1,2.411-11.849,2.332-12.794-.056-.674-1.762-5.722-2.739-8.57a3.624,3.624,0,0,1,6.787-2.536l1.736,4.278,3.864-3.177-7.762-28.563,8.624.283a38.718,38.718,0,0,0,24.117-7.438l-.774-1a38.661,38.661,0,0,0,1.348-12.6,2.644,2.644,0,0,0-.534-1.72" transform="translate(-18.8 -113.245)" fill="#3b265d"/>
      <path id="Path_19822" data-name="Path 19822" d="M143.166,364.251a5.458,5.458,0,0,0-3.357-2.863l-9.377-2.788-1.342-2.9-4.472-1.451a5.869,5.869,0,0,0-6.57-7.839L97.893,307.276l-.036-.136c-1.539-5.618-7.684-14.079-13.006-16.161l-9.312-3.643c-.169-.964-.371-1.934-.567-2.874l-.186-.894c-1.775-8.654-1.735-16.128.117-22.217a16.86,16.86,0,0,0,8.486-19.533l-7.86-27.847a16.733,16.733,0,0,0-4.831-7.835l-.288-.371a38.688,38.688,0,0,0,1.329-12.57,2.814,2.814,0,0,0-.585-1.839,1.309,1.309,0,0,0-1.172-.35.959.959,0,0,0-.459.227L68.016,187.7l-1.553.807a2.418,2.418,0,0,0-.178-1.492,2.2,2.2,0,0,0-3.2-1.074,2.578,2.578,0,0,0-.741.623,3.73,3.73,0,0,0-2.423-3.6,2.5,2.5,0,0,0-2.238.565,2.849,2.849,0,0,0-.922,1.34,22.909,22.909,0,0,0-2.045-3.772l-.105-.157-.156.106a7.912,7.912,0,0,0-3.345,5.369,12.534,12.534,0,0,0-1.985-3.851c-.508-.666-1.02-.942-1.52-.819-.567.139-.84.757-.986,1.089l-1.494,3.389a3.077,3.077,0,0,0-1.114-1.845,4.319,4.319,0,0,0-4.3-.762c-2.1.9-3.217,3.027-3.805,5a2.846,2.846,0,0,0-.94-1.259,3.433,3.433,0,0,0-3.658-.459,4.827,4.827,0,0,0-2.243,4.34,3,3,0,0,0-1.418-.774,2.741,2.741,0,0,0-2.2.339,4.6,4.6,0,0,0-1.673,4.051,3.31,3.31,0,0,0-1.046-.908,2.93,2.93,0,0,0-4.305,1.531,3.194,3.194,0,0,0-.151,1.962,2.756,2.756,0,0,0-1.913-.179,4.145,4.145,0,0,0-2.784,2.38,8.839,8.839,0,0,0,.092,5.377,1.274,1.274,0,0,0-.366.026,1.9,1.9,0,0,0-1.271.914c-1.5,3.123-.711,6.939-.137,9.724l2.024,9.813A42.862,42.862,0,0,0,15.5,231.62a42.8,42.8,0,0,0,3.712,7.168l4.223,7.028c1.677,6.325,3.436,13.484,3.454,13.555l.014.058,6.959,6.006c.667,1.506,1.374,2.976,2.1,4.369.606,1.158,1.251,2.323,1.875,3.45a59.444,59.444,0,0,1,4.616,9.662c.678,2.017,1.191,4.212,1.688,6.334.363,1.551.737,3.153,1.175,4.684L26.577,304.579c-.38.215-.764.453-1.144.7L18,308.24A22.277,22.277,0,0,0,4.028,327.623L.017,398.751l-.017.3,7-3.037A13.492,13.492,0,0,0,17.51,404.65c.122,10.266.21,17.072.21,17.072l0,.2,45.746-3.788,48.376,14.688a5.51,5.51,0,0,0,1.6.239,5.417,5.417,0,0,0,5.024-3.4l6.775-16.645.629-.052-.239-.9,17.666-43.4a5.457,5.457,0,0,0-.134-4.41m-17.9,47.73-.024.058.157.591-.411.034-6.862,16.86a5.047,5.047,0,0,1-6.168,2.939l-48.41-14.7-.034-.01-45.415,3.76c-.016-1.2-.1-7.706-.209-17.028l0-.16-.159-.024a13.118,13.118,0,0,1-10.436-8.6l-.068-.19L.41,398.468,4.4,327.644A21.9,21.9,0,0,1,18.134,308.59l7.456-2.964.035-.018c.378-.251.761-.488,1.138-.7l18.661-10.6.455.2-.113-.386c-.473-1.609-.87-3.31-1.255-4.955-.5-2.131-1.014-4.335-1.7-6.368a59.781,59.781,0,0,0-4.643-9.724c-.623-1.125-1.267-2.287-1.871-3.442-.731-1.4-1.44-2.873-2.109-4.385l-.018-.04-6.931-5.982c-.172-.7-1.848-7.5-3.448-13.529l-4.257-7.1a42.553,42.553,0,0,1-3.681-7.1,42.576,42.576,0,0,1-1.569-6.075L12.264,215.6c-.564-2.733-1.335-6.477.108-9.485a1.515,1.515,0,0,1,1.006-.708.556.556,0,0,1,.436.041l.462.405-.155-.594c-.454-1.744-.882-3.75-.194-5.484a3.753,3.753,0,0,1,2.521-2.153,2.262,2.262,0,0,1,2.083.44l.741.653-.449-.88a2.714,2.714,0,1,1,5.089-1.809l.369-.076c-.316-1.574-.144-3.786,1.383-4.84a2.564,2.564,0,0,1,3.442.8l.426.793-.072-.9c-.13-1.609.335-3.658,2.027-4.584a3.048,3.048,0,0,1,3.244.425,2.117,2.117,0,0,1,.91,1.982c-.017.077-.034.153-.049.229l.366.088a2.282,2.282,0,0,0,.052-.241c.474-2.125,1.524-4.759,3.849-5.753a3.928,3.928,0,0,1,3.912.7,2.472,2.472,0,0,1,.95,2.486l.355.12,1.89-4.285c.166-.378.374-.788.731-.875.427-.1.85.313,1.131.681a12.134,12.134,0,0,1,2.209,4.823l.372-.04a7.629,7.629,0,0,1,3.1-6.108,22.791,22.791,0,0,1,2.177,4.213l.472,1.2-.11-1.286a2.186,2.186,0,0,1,.874-1.775,2.124,2.124,0,0,1,1.9-.492c1.648.464,2.37,2.479,2.095,4.079l.367.082a2.048,2.048,0,0,1,.989-1.216,1.928,1.928,0,0,1,1.46-.206,2.068,2.068,0,0,1,1.235,2.745l-.243.508,2.106-1.095,1.666,3.908.165-.442a.51.51,0,0,1,.4-.309.933.933,0,0,1,.825.242,2.475,2.475,0,0,1,.482,1.6,38.31,38.31,0,0,1-1.341,12.538l-.025.091.426.544a16.411,16.411,0,0,1,4.744,7.683l7.861,27.847a16.482,16.482,0,0,1-8.366,19.132l-.071.036-.023.076c-1.894,6.163-1.945,13.726-.149,22.479l.186.9c.2.971.412,1.974.582,2.966l.018.1,9.51,3.72c5.224,2.043,11.263,10.374,12.779,15.908l.046.175L117.778,346.7l.066.128.14-.029a5.495,5.495,0,0,1,6.211,7.488l-.078.188,4.7,1.525,1.344,2.91,9.54,2.837a5.069,5.069,0,0,1,3.25,6.77Z" transform="translate(0 -112.812)" fill="#3b265d"/>
      <path id="Path_19823" data-name="Path 19823" d="M316.594,627.809l-.06,0-.339-.029,1.488,2.89-1.486.771,2.651.86.073-.143a3,3,0,0,0-2.328-4.345m2.267,3.275a2.6,2.6,0,0,1-.2.754l-1.486-.482,1.02-.53-1.335-2.591a2.625,2.625,0,0,1,2.005,2.849Z" transform="translate(-197.146 -391.413)" fill="#3b265d"/>
    </g>
  </g>
</svg>
