<svg id="Group_2519" data-name="Group 2519" xmlns="http://www.w3.org/2000/svg" xmlns:xlink="http://www.w3.org/1999/xlink" width="301.91" height="98.171" viewBox="0 0 301.91 98.171">
  <defs>
    <clipPath id="clip-path">
      <rect id="Rectangle_1899" data-name="Rectangle 1899" width="301.91" height="98.171" fill="none"/>
    </clipPath>
  </defs>
  <rect id="Rectangle_1897" data-name="Rectangle 1897" width="252.825" height="66.248" transform="translate(49.085 15.961)" fill="#265d3b"/>
  <path id="Path_8560" data-name="Path 8560" d="M368.062,138.989V117.98h5.676V134.4h8.09v4.584Z" transform="translate(-247.714 -79.403)" fill="#fff"/>
  <path id="Path_8561" data-name="Path 8561" d="M432.917,138.989H420.445V117.98h12.473v4.555h-6.8v3.305h6.294V130.4h-6.294v3.966h6.8Z" transform="translate(-282.968 -79.403)" fill="#fff"/>
  <g id="Group_2513" data-name="Group 2513">
    <g id="Group_2512" data-name="Group 2512" clip-path="url(#clip-path)">
      <path id="Path_8562" data-name="Path 8562" d="M476.964,117.981h6.351l-6.883,21.008h-6.682L462.9,117.981h6.38l2.859,10.647a32.495,32.495,0,0,1,.977,4.943q.1-1.005.4-2.514t.532-2.371Z" transform="translate(-311.54 -79.404)" fill="#fff"/>
      <path id="Path_8563" data-name="Path 8563" d="M544.758,138.989H532.285V117.98h12.473v4.555h-6.8v3.305h6.294V130.4h-6.294v3.966h6.8Z" transform="translate(-358.24 -79.403)" fill="#fff"/>
      <rect id="Rectangle_1898" data-name="Rectangle 1898" width="8.119" height="4.483" transform="translate(188.545 49.455)" fill="#fff"/>
      <path id="Path_8564" data-name="Path 8564" d="M628.12,128.04q0,5.259-2.9,8.1t-8.14,2.845h-6.8V117.981h7.271q5.058,0,7.81,2.586t2.752,7.472m-5.891.2a6.679,6.679,0,0,0-1.142-4.282,4.226,4.226,0,0,0-3.47-1.394h-1.653v11.768h1.264a4.579,4.579,0,0,0,3.794-1.5,7.255,7.255,0,0,0,1.207-4.591" transform="translate(-410.737 -79.404)" fill="#fff"/>
      <path id="Path_8565" data-name="Path 8565" d="M693.963,117.981v12.645a8.483,8.483,0,0,1-2.335,6.387q-2.335,2.263-6.732,2.263-4.3,0-6.6-2.2a8.323,8.323,0,0,1-2.307-6.322V117.981h5.7V130.31a5.047,5.047,0,0,0,.833,3.233,3.593,3.593,0,0,0,4.979.008,5.35,5.35,0,0,0,.783-3.269v-12.3Z" transform="translate(-454.954 -79.404)" fill="#fff"/>
      <path id="Path_8566" data-name="Path 8566" d="M750.13,131.344v7.644h-5.676V117.981h6.883q8.564,0,8.564,6.207a6.2,6.2,0,0,1-3.564,5.647l6.121,9.153h-6.437l-4.454-7.644Zm0-4.268h1.063q2.974,0,2.974-2.63,0-2.169-2.917-2.17H750.13Z" transform="translate(-501.034 -79.404)" fill="#fff"/>
      <path id="Path_8567" data-name="Path 8567" d="M813.578,138.812l-1.035-3.937h-6.826l-1.063,3.937h-6.236l6.854-21.094h7.573l6.94,21.094Zm-2.213-8.593-.905-3.449q-.316-1.15-.769-2.975t-.6-2.615q-.129.733-.51,2.414t-1.689,6.624Z" transform="translate(-537.353 -79.227)" fill="#fff"/>
      <path id="Path_8568" data-name="Path 8568" d="M99.523,51.715A47.808,47.808,0,1,0,51.716,99.523,47.808,47.808,0,0,0,99.523,51.715" transform="translate(-2.63 -2.629)" fill="#265d3b"/>
      <path id="Path_8569" data-name="Path 8569" d="M49.085,98.171A49.085,49.085,0,1,1,98.171,49.085,49.141,49.141,0,0,1,49.085,98.171m0-95.615a46.53,46.53,0,1,0,46.53,46.53,46.583,46.583,0,0,0-46.53-46.53" fill="#fff"/>
      <path id="Path_8570" data-name="Path 8570" d="M94.559,152.11,70.246,138.042V111.2l24.313,13.677Zm27.787-14.069L98.033,152.108V124.875L122.347,111.2Z" transform="translate(-47.277 -74.839)" fill="#fff"/>
      <path id="Path_8571" data-name="Path 8571" d="M100.015,62.657l20.243,11.388L100.015,85.432,79.773,74.045Zm0-2.251L75.772,74.045l24.243,13.639L124.26,74.045Z" transform="translate(-50.996 -40.655)" fill="#fff"/>
    </g>
  </g>
</svg>
