<svg id="sLID_41" data-name="sLID 41" xmlns="http://www.w3.org/2000/svg" xmlns:xlink="http://www.w3.org/1999/xlink" width="350.44" height="301.206" viewBox="0 0 350.44 301.206">
  <defs>
    <clipPath id="clip-path">
      <rect id="Rectangle_1861" data-name="Rectangle 1861" width="350.44" height="301.206" fill="none"/>
    </clipPath>
    <clipPath id="clip-path-3">
      <rect id="Rectangle_1759" data-name="Rectangle 1759" width="71.875" height="71.875" fill="none"/>
    </clipPath>
    <clipPath id="clip-path-4">
      <rect id="Rectangle_1760" data-name="Rectangle 1760" width="108.447" height="108.446" fill="none"/>
    </clipPath>
    <clipPath id="clip-path-5">
      <rect id="Rectangle_1798" data-name="Rectangle 1798" width="64.114" height="64.113" fill="none"/>
    </clipPath>
    <clipPath id="clip-path-6">
      <rect id="Rectangle_1804" data-name="Rectangle 1804" width="64.115" height="64.115" fill="none"/>
    </clipPath>
    <clipPath id="clip-path-7">
      <rect id="Rectangle_1808" data-name="Rectangle 1808" width="64.115" height="64.114" fill="none"/>
    </clipPath>
    <clipPath id="clip-path-8">
      <rect id="Rectangle_1813" data-name="Rectangle 1813" width="64.114" height="64.114" fill="none"/>
    </clipPath>
    <clipPath id="clip-path-9">
      <rect id="Rectangle_1816" data-name="Rectangle 1816" width="64.113" height="64.114" fill="none"/>
    </clipPath>
    <clipPath id="clip-path-11">
      <rect id="Rectangle_1858" data-name="Rectangle 1858" width="163.565" height="163.564" fill="none"/>
    </clipPath>
    <clipPath id="clip-path-12">
      <rect id="Rectangle_1859" data-name="Rectangle 1859" width="251.369" height="251.369" fill="none"/>
    </clipPath>
  </defs>
  <g id="Group_2488" data-name="Group 2488" clip-path="url(#clip-path)">
    <g id="Group_2487" data-name="Group 2487" transform="translate(0 0)">
      <g id="Group_2486" data-name="Group 2486" clip-path="url(#clip-path)">
        <path id="Path_8265" data-name="Path 8265" d="M234.741,11.585c-12.127,9.774-18.939,25-31.167,34.642-21.021,16.583-54.332,13.981-71.4,34.609a38.454,38.454,0,0,0-3.881,42.119c3.935,7.076,10.21,13.006,12.229,20.847,1.533,5.954.382,12.275-1.428,18.15-4.45,14.443-12.779,27.5-16.733,42.09s-2.253,32.454,9.85,41.5c12.269,9.175,30.4,6,43.258,14.334,8.726,5.657,13.512,15.625,20.611,23.224,11.634,12.453,29.388,18.025,46.419,17.416s33.437-6.835,48.384-15.022c14.008-7.674,28.41-17.472,44.316-16.031,6.842.62,13.4,3.342,20.267,3.579,12.071.417,22.933-6.765,32.833-13.684,14.273-9.976,29.823-22.181,31.488-39.515,1.883-19.6-15.122-37.037-14.3-56.714.663-15.957,12.811-29.1,16.688-44.59a45.292,45.292,0,0,0-15.674-45.587c-15.519-12.126-38.1-13.228-52.074-27.1-9.368-9.3-13.372-23-22.848-32.186C319.069,1.546,298.694-.956,282.025.284c-16.737,1.245-33.345.066-47.284,11.3" transform="translate(-97.055 0.001)" fill="#f4f0ff"/>
        <path id="Path_8266" data-name="Path 8266" d="M162.769,836.371a1.165,1.165,0,0,1-1.054-.666l-2.581-5.441a1.166,1.166,0,0,1,0-.992l2.543-5.458a1.166,1.166,0,1,1,2.113.985l-2.312,4.962,2.346,4.946a1.166,1.166,0,0,1-1.052,1.665" transform="translate(-128.131 -663.239)" fill="#3d8958"/>
        <path id="Path_8267" data-name="Path 8267" d="M230.866,1002.59a1.166,1.166,0,0,1-1.054-.666l-4.725-9.961a1.166,1.166,0,0,1,2.106-1l4.725,9.961a1.166,1.166,0,0,1-1.052,1.665m-9.449-19.923a1.165,1.165,0,0,1-1.054-.666l-4.725-9.962a1.165,1.165,0,1,1,2.106-1L222.469,981a1.166,1.166,0,0,1-1.052,1.665m-9.449-19.923a1.166,1.166,0,0,1-1.054-.666l-4.725-9.961a1.166,1.166,0,1,1,2.106-1l4.725,9.962a1.166,1.166,0,0,1-1.052,1.665m-9.449-19.923a1.165,1.165,0,0,1-1.054-.666l-4.725-9.962a1.166,1.166,0,0,1,2.106-1l4.725,9.962a1.166,1.166,0,0,1-1.052,1.665" transform="translate(-158.431 -749.766)" fill="#3d8958"/>
        <path id="Path_8268" data-name="Path 8268" d="M400.965,1348.54h-6.022a1.166,1.166,0,0,1-1.053-.666l-2.581-5.441a1.166,1.166,0,0,1,2.106-1l2.265,4.775h5.285a1.166,1.166,0,0,1,0,2.331" transform="translate(-315.203 -1080.313)" fill="#3d8958"/>
        <path id="Path_8269" data-name="Path 8269" d="M651.011,1371.108H639.2a1.166,1.166,0,0,1,0-2.331h11.812a1.166,1.166,0,0,1,0,2.331m-23.624,0H615.575a1.166,1.166,0,0,1,0-2.331h11.812a1.166,1.166,0,0,1,0,2.331m-23.624,0H591.951a1.166,1.166,0,0,1,0-2.331h11.812a1.166,1.166,0,1,1,0,2.331m-23.624,0H568.327a1.166,1.166,0,0,1,0-2.331h11.812a1.166,1.166,0,0,1,0,2.331m-23.624,0H544.7a1.166,1.166,0,0,1,0-2.331h11.812a1.166,1.166,0,0,1,0,2.331m-23.624,0H521.079a1.166,1.166,0,0,1,0-2.331h11.812a1.166,1.166,0,0,1,0,2.331m-23.624,0H497.455a1.166,1.166,0,0,1,0-2.331h11.812a1.166,1.166,0,1,1,0,2.331" transform="translate(-399.881 -1102.882)" fill="#3d8958"/>
        <path id="Path_8270" data-name="Path 8270" d="M1354.762,1349.014h-6.022a1.166,1.166,0,0,1,0-2.331h5.319l2.482-4.7a1.165,1.165,0,1,1,2.062,1.087l-2.81,5.326a1.165,1.165,0,0,1-1.031.622" transform="translate(-1085.799 -1080.787)" fill="#3d8958"/>
        <path id="Path_8271" data-name="Path 8271" d="M1421.923,994.7a1.166,1.166,0,0,1-1.03-1.709l5.385-10.21a1.165,1.165,0,0,1,2.062,1.087l-5.385,10.21a1.165,1.165,0,0,1-1.032.622m10.771-20.419a1.166,1.166,0,0,1-1.03-1.709l5.385-10.21a1.166,1.166,0,1,1,2.062,1.088l-5.385,10.21a1.165,1.165,0,0,1-1.032.622m10.771-20.419a1.166,1.166,0,0,1-1.03-1.709l5.385-10.209a1.165,1.165,0,1,1,2.062,1.087l-5.385,10.209a1.165,1.165,0,0,1-1.032.622m10.77-20.419a1.166,1.166,0,0,1-1.03-1.709l5.385-10.21a1.165,1.165,0,1,1,2.062,1.088l-5.385,10.21a1.165,1.165,0,0,1-1.032.622" transform="translate(-1144.766 -742.005)" fill="#3d8958"/>
        <path id="Path_8272" data-name="Path 8272" d="M1643.7,826.125a1.166,1.166,0,0,1-1.03-1.709l2.534-4.8-2.38-4.882a1.166,1.166,0,1,1,2.1-1.021l2.639,5.413a1.165,1.165,0,0,1-.017,1.054l-2.809,5.327a1.165,1.165,0,0,1-1.032.622" transform="translate(-1323.461 -655.112)" fill="#3d8958"/>
        <path id="Path_8273" data-name="Path 8273" d="M1449.926,416.04a1.166,1.166,0,0,1-1.049-.655l-5.695-11.683a1.166,1.166,0,1,1,2.1-1.021l5.695,11.683a1.166,1.166,0,0,1-1.047,1.676m-11.389-23.366a1.166,1.166,0,0,1-1.049-.655l-5.695-11.683a1.166,1.166,0,0,1,2.1-1.021L1439.583,391a1.166,1.166,0,0,1-1.047,1.676m-11.389-23.365a1.166,1.166,0,0,1-1.049-.655l-5.695-11.683a1.166,1.166,0,0,1,2.1-1.021l5.695,11.683a1.166,1.166,0,0,1-1.047,1.677m-11.389-23.366a1.166,1.166,0,0,1-1.049-.655l-5.695-11.683a1.166,1.166,0,0,1,2.1-1.021l5.695,11.683a1.166,1.166,0,0,1-1.047,1.676" transform="translate(-1135.208 -267.449)" fill="#3d8958"/>
        <path id="Path_8274" data-name="Path 8274" d="M1344.827,251.667a1.165,1.165,0,0,1-1.049-.655l-2.319-4.758h-5.293a1.166,1.166,0,0,1,0-2.331h6.022a1.166,1.166,0,0,1,1.048.655l2.639,5.413a1.166,1.166,0,0,1-1.047,1.676" transform="translate(-1075.666 -196.539)" fill="#3d8958"/>
        <path id="Path_8275" data-name="Path 8275" d="M682.162,246.253H669.281a1.166,1.166,0,0,1,0-2.331h12.881a1.166,1.166,0,0,1,0,2.331m-25.762,0H643.52a1.166,1.166,0,0,1,0-2.331H656.4a1.166,1.166,0,1,1,0,2.331m-25.761,0H617.758a1.166,1.166,0,1,1,0-2.331h12.881a1.166,1.166,0,0,1,0,2.331m-25.762,0H592a1.166,1.166,0,0,1,0-2.331h12.881a1.166,1.166,0,0,1,0,2.331m-25.761,0H566.235a1.166,1.166,0,0,1,0-2.331h12.881a1.166,1.166,0,0,1,0,2.331m-25.761,0H540.474a1.166,1.166,0,0,1,0-2.331h12.881a1.166,1.166,0,0,1,0,2.331" transform="translate(-434.544 -196.538)" fill="#3d8958"/>
        <path id="Path_8276" data-name="Path 8276" d="M430.071,251.712a1.166,1.166,0,0,1-1.056-1.658l2.543-5.458a1.165,1.165,0,0,1,1.057-.673h6.022a1.166,1.166,0,1,1,0,2.331h-5.279l-2.23,4.786a1.166,1.166,0,0,1-1.057.673" transform="translate(-345.587 -196.538)" fill="#3d8958"/>
        <path id="Path_8277" data-name="Path 8277" d="M201.812,418.855a1.166,1.166,0,0,1-1.056-1.658l5.543-11.9a1.166,1.166,0,1,1,2.113.984l-5.543,11.9a1.166,1.166,0,0,1-1.057.674M212.9,395.064a1.166,1.166,0,0,1-1.056-1.658l5.543-11.9a1.166,1.166,0,0,1,2.113.985l-5.543,11.9a1.165,1.165,0,0,1-1.057.673m11.085-23.791a1.166,1.166,0,0,1-1.056-1.658l5.543-11.9a1.166,1.166,0,1,1,2.113.984l-5.543,11.9a1.166,1.166,0,0,1-1.057.674m11.085-23.791a1.166,1.166,0,0,1-1.056-1.658l5.543-11.9a1.166,1.166,0,0,1,2.113.984l-5.543,11.9a1.166,1.166,0,0,1-1.057.674" transform="translate(-161.67 -268.518)" fill="#3d8958"/>
        <path id="Path_8278" data-name="Path 8278" d="M532.2,343.049a1.165,1.165,0,0,1-.851-1.961l8.224-8.8a1.166,1.166,0,0,1,1.7,1.592l-8.223,8.8a1.163,1.163,0,0,1-.852.37m-8.072-6.717a1.163,1.163,0,0,1-.867-.386l-8.051-8.958a1.165,1.165,0,0,1,1.734-1.558L525,334.387a1.166,1.166,0,0,1-.866,1.945m24.519-10.883a1.166,1.166,0,0,1-.852-1.961l8.224-8.8a1.166,1.166,0,0,1,1.7,1.592l-8.224,8.8a1.163,1.163,0,0,1-.852.37m-40.621-7.033a1.163,1.163,0,0,1-.867-.386l-8.051-8.958a1.166,1.166,0,1,1,1.734-1.558l8.051,8.957a1.166,1.166,0,0,1-.867,1.945M565.1,307.851a1.165,1.165,0,0,1-.851-1.961l8.224-8.8a1.166,1.166,0,0,1,1.7,1.592l-8.224,8.8a1.163,1.163,0,0,1-.852.37m-73.17-7.348a1.163,1.163,0,0,1-.867-.386l-8.051-8.958a1.165,1.165,0,1,1,1.734-1.558l8.051,8.957a1.166,1.166,0,0,1-.866,1.945m89.617-10.251a1.165,1.165,0,0,1-.852-1.961l8.224-8.8a1.166,1.166,0,0,1,1.7,1.592l-8.224,8.8a1.163,1.163,0,0,1-.852.37m-105.719-7.664a1.163,1.163,0,0,1-.867-.386l-8.051-8.958a1.166,1.166,0,1,1,1.734-1.558l8.051,8.957a1.166,1.166,0,0,1-.866,1.945m122.166-9.935a1.165,1.165,0,0,1-.851-1.961l8.224-8.8a1.166,1.166,0,0,1,1.7,1.592l-8.224,8.8a1.163,1.163,0,0,1-.852.37m-138.268-7.98a1.163,1.163,0,0,1-.867-.386l-8.051-8.958a1.166,1.166,0,0,1,1.734-1.558l8.051,8.957a1.166,1.166,0,0,1-.866,1.945m154.715-9.619a1.166,1.166,0,0,1-.851-1.961l8.223-8.8a1.166,1.166,0,1,1,1.7,1.592l-8.224,8.8a1.163,1.163,0,0,1-.852.37m-170.817-8.3a1.163,1.163,0,0,1-.867-.386l-.453-.5a1.165,1.165,0,1,1,1.734-1.558l.453.5a1.166,1.166,0,0,1-.866,1.945" transform="translate(-356.138 -196.538)" fill="#3d8958"/>
        <path id="Path_8279" data-name="Path 8279" d="M405.647,870.86a1.166,1.166,0,0,1-.914-1.888l7.466-9.45a1.166,1.166,0,1,1,1.829,1.445l-7.466,9.45a1.163,1.163,0,0,1-.915.443m185.859-4.323a1.163,1.163,0,0,1-.92-.449l-7.4-9.5a1.166,1.166,0,0,1,1.839-1.432l7.4,9.5a1.165,1.165,0,0,1-.919,1.882M420.58,851.959a1.165,1.165,0,0,1-.914-1.888l7.466-9.451a1.166,1.166,0,0,1,1.829,1.445l-7.466,9.45a1.163,1.163,0,0,1-.915.443M576.7,847.534a1.163,1.163,0,0,1-.92-.449l-7.4-9.5a1.166,1.166,0,0,1,1.839-1.432l7.4,9.5a1.166,1.166,0,0,1-.919,1.882M435.513,833.058a1.166,1.166,0,0,1-.914-1.888l7.466-9.45a1.166,1.166,0,0,1,1.829,1.445l-7.466,9.45a1.163,1.163,0,0,1-.915.443M561.9,828.53a1.162,1.162,0,0,1-.92-.45l-7.4-9.5a1.166,1.166,0,1,1,1.839-1.432l7.4,9.5a1.166,1.166,0,0,1-.919,1.882M450.445,814.158a1.166,1.166,0,0,1-.914-1.888L457,802.819a1.166,1.166,0,0,1,1.829,1.445l-7.466,9.45a1.163,1.163,0,0,1-.915.443m96.656-4.631a1.163,1.163,0,0,1-.92-.45l-7.4-9.5a1.165,1.165,0,0,1,1.839-1.432l7.4,9.5a1.166,1.166,0,0,1-.919,1.882m-81.723-14.27a1.166,1.166,0,0,1-.914-1.888l7.466-9.45a1.166,1.166,0,1,1,1.829,1.445l-7.466,9.45a1.163,1.163,0,0,1-.915.443m66.921-4.734a1.163,1.163,0,0,1-.92-.449l-7.4-9.5a1.166,1.166,0,0,1,1.839-1.432l7.4,9.5a1.166,1.166,0,0,1-.919,1.882m-51.988-14.167a1.166,1.166,0,0,1-.914-1.888l7.466-9.45a1.166,1.166,0,1,1,1.829,1.445l-7.466,9.451a1.163,1.163,0,0,1-.915.443m37.187-4.837a1.163,1.163,0,0,1-.92-.449l-7.4-9.5a1.165,1.165,0,0,1,1.839-1.432l7.4,9.5a1.165,1.165,0,0,1-.919,1.882m-22.254-14.063a1.166,1.166,0,0,1-.914-1.888l5.689-7.2a1.166,1.166,0,0,1,.915-.443h0a1.165,1.165,0,0,1,.916.449l1.762,2.261a1.166,1.166,0,0,1-1.839,1.432l-.849-1.089-4.768,6.035a1.163,1.163,0,0,1-.915.443" transform="translate(-325.908 -602.633)" fill="#3d8958"/>
        <path id="Path_8280" data-name="Path 8280" d="M160.186,770.324a1.166,1.166,0,0,1-.161-2.32l4.4-.617a1.165,1.165,0,1,1,.324,2.308l-4.4.617a1.171,1.171,0,0,1-.164.012m291-2a1.176,1.176,0,0,1-.143-.009l-11.955-1.459a1.166,1.166,0,1,1,.282-2.314L451.322,766a1.166,1.166,0,0,1-.14,2.323m-274.674-.287a1.166,1.166,0,0,1-.161-2.32l11.927-1.674a1.166,1.166,0,1,1,.324,2.308l-11.927,1.674a1.17,1.17,0,0,1-.163.012M427.272,765.4a1.179,1.179,0,0,1-.143-.009l-11.955-1.459a1.165,1.165,0,1,1,.282-2.314l11.955,1.459a1.166,1.166,0,0,1-.14,2.323m-226.909-.718a1.166,1.166,0,0,1-.16-2.32l11.927-1.674a1.166,1.166,0,1,1,.324,2.308l-11.927,1.674a1.171,1.171,0,0,1-.164.012m203-2.2a1.174,1.174,0,0,1-.143-.009l-11.955-1.459a1.166,1.166,0,1,1,.282-2.314L403.5,760.16a1.166,1.166,0,0,1-.14,2.323m-179.145-1.148a1.166,1.166,0,0,1-.16-2.32l11.927-1.674a1.166,1.166,0,0,1,.324,2.309l-11.927,1.674a1.171,1.171,0,0,1-.164.011m155.234-1.77a1.174,1.174,0,0,1-.143-.009L367.353,758.1a1.166,1.166,0,1,1,.282-2.314l11.955,1.459a1.166,1.166,0,0,1-.14,2.323m-131.38-1.579a1.166,1.166,0,0,1-.16-2.32l11.927-1.674a1.165,1.165,0,1,1,.324,2.308l-11.927,1.674a1.17,1.17,0,0,1-.164.011m107.47-1.34a1.188,1.188,0,0,1-.143-.009l-11.955-1.459a1.165,1.165,0,1,1,.282-2.314l11.955,1.459a1.166,1.166,0,0,1-.14,2.323m-83.616-2.009a1.166,1.166,0,0,1-.161-2.32l11.927-1.675a1.166,1.166,0,0,1,.324,2.309l-11.927,1.674a1.168,1.168,0,0,1-.163.011m59.705-.909a1.212,1.212,0,0,1-.143-.009l-11.955-1.459a1.165,1.165,0,1,1,.282-2.314l11.955,1.459a1.166,1.166,0,0,1-.14,2.323m-35.851-2.439a1.166,1.166,0,0,1-.161-2.32l7.377-1.035a1.157,1.157,0,0,1,.3,0l4.561.557a1.165,1.165,0,1,1-.282,2.314l-4.409-.538-7.225,1.014a1.187,1.187,0,0,1-.163.011" transform="translate(-128.131 -602.633)" fill="#3d8958"/>
        <g id="Group_2458" data-name="Group 2458" transform="translate(139.283 116.065)" opacity="0.7">
          <g id="Group_2457" data-name="Group 2457">
            <g id="Group_2456" data-name="Group 2456" clip-path="url(#clip-path-3)">
              <path id="Path_8281" data-name="Path 8281" d="M788.875,633.416a35.938,35.938,0,1,0-35.938,35.938,35.938,35.938,0,0,0,35.938-35.938" transform="translate(-717 -597.478)" fill="#c9d6ce"/>
            </g>
          </g>
        </g>
        <g id="Group_2461" data-name="Group 2461" transform="translate(120.997 97.78)" opacity="0.7">
          <g id="Group_2460" data-name="Group 2460">
            <g id="Group_2459" data-name="Group 2459" clip-path="url(#clip-path-4)">
              <path id="Path_8282" data-name="Path 8282" d="M677.091,611.793a54.223,54.223,0,1,1,54.223-54.223,54.285,54.285,0,0,1-54.223,54.223m0-104.434a50.21,50.21,0,1,0,50.21,50.21,50.267,50.267,0,0,0-50.21-50.21" transform="translate(-622.868 -503.347)" fill="#dfe7e2"/>
            </g>
          </g>
        </g>
        <rect id="Rectangle_1761" data-name="Rectangle 1761" width="30.664" height="59.975" transform="translate(147.15 111.34)" fill="#b9b0d6"/>
        <rect id="Rectangle_1762" data-name="Rectangle 1762" width="35.173" height="5.411" transform="translate(144.895 108.183)" fill="#3b265d"/>
        <rect id="Rectangle_1763" data-name="Rectangle 1763" width="47.482" height="14.849" transform="translate(151.677 90.046)" fill="#3b265d"/>
        <rect id="Rectangle_1764" data-name="Rectangle 1764" width="1.405" height="14.849" transform="translate(153.583 98.273)" fill="#3b265d"/>
        <rect id="Rectangle_1765" data-name="Rectangle 1765" width="1.405" height="31.304" transform="translate(195.523 98.273)" fill="#3b265d"/>
        <rect id="Rectangle_1766" data-name="Rectangle 1766" width="1.806" height="7.023" transform="translate(150.323 117.136)" fill="#fff"/>
        <rect id="Rectangle_1767" data-name="Rectangle 1767" width="1.806" height="7.023" transform="translate(157.68 117.136)" fill="#fff"/>
        <rect id="Rectangle_1768" data-name="Rectangle 1768" width="1.806" height="7.023" transform="translate(165.038 117.136)" fill="#fff"/>
        <rect id="Rectangle_1769" data-name="Rectangle 1769" width="1.806" height="7.023" transform="translate(172.396 117.136)" fill="#fff"/>
        <rect id="Rectangle_1770" data-name="Rectangle 1770" width="1.806" height="7.023" transform="translate(150.323 130.581)" fill="#fff"/>
        <rect id="Rectangle_1771" data-name="Rectangle 1771" width="1.806" height="7.023" transform="translate(157.68 130.581)" fill="#fff"/>
        <rect id="Rectangle_1772" data-name="Rectangle 1772" width="1.806" height="7.023" transform="translate(165.038 130.581)" fill="#fff"/>
        <rect id="Rectangle_1773" data-name="Rectangle 1773" width="1.806" height="7.023" transform="translate(172.396 130.581)" fill="#fff"/>
        <rect id="Rectangle_1774" data-name="Rectangle 1774" width="1.806" height="7.023" transform="translate(150.323 144.026)" fill="#fff"/>
        <rect id="Rectangle_1775" data-name="Rectangle 1775" width="1.806" height="7.023" transform="translate(157.68 144.026)" fill="#fff"/>
        <rect id="Rectangle_1776" data-name="Rectangle 1776" width="1.806" height="7.023" transform="translate(165.038 144.026)" fill="#fff"/>
        <rect id="Rectangle_1777" data-name="Rectangle 1777" width="1.806" height="7.023" transform="translate(172.396 144.026)" fill="#fff"/>
        <rect id="Rectangle_1778" data-name="Rectangle 1778" width="1.806" height="7.023" transform="translate(150.323 157.471)" fill="#fff"/>
        <rect id="Rectangle_1779" data-name="Rectangle 1779" width="1.806" height="7.023" transform="translate(157.68 157.471)" fill="#fff"/>
        <rect id="Rectangle_1780" data-name="Rectangle 1780" width="1.806" height="7.023" transform="translate(165.038 157.471)" fill="#fff"/>
        <rect id="Rectangle_1781" data-name="Rectangle 1781" width="1.806" height="7.023" transform="translate(172.396 157.471)" fill="#fff"/>
        <rect id="Rectangle_1782" data-name="Rectangle 1782" width="30.664" height="41.938" transform="translate(170.824 129.377)" fill="#9182ad"/>
        <rect id="Rectangle_1783" data-name="Rectangle 1783" width="35.173" height="5.411" transform="translate(168.57 128.475)" fill="#3b265d"/>
        <rect id="Rectangle_1784" data-name="Rectangle 1784" width="3.211" height="3.211" transform="translate(174.002 136.802)" fill="#fff"/>
        <rect id="Rectangle_1785" data-name="Rectangle 1785" width="3.211" height="3.211" transform="translate(183.935 136.802)" fill="#fff"/>
        <rect id="Rectangle_1786" data-name="Rectangle 1786" width="3.211" height="3.211" transform="translate(193.868 136.802)" fill="#fff"/>
        <rect id="Rectangle_1787" data-name="Rectangle 1787" width="3.211" height="3.211" transform="translate(174.002 144.427)" fill="#fff"/>
        <rect id="Rectangle_1788" data-name="Rectangle 1788" width="3.211" height="3.211" transform="translate(183.935 144.427)" fill="#fff"/>
        <rect id="Rectangle_1789" data-name="Rectangle 1789" width="3.211" height="3.211" transform="translate(193.868 144.427)" fill="#fff"/>
        <rect id="Rectangle_1790" data-name="Rectangle 1790" width="3.211" height="3.211" transform="translate(174.002 152.053)" fill="#fff"/>
        <rect id="Rectangle_1791" data-name="Rectangle 1791" width="3.211" height="3.211" transform="translate(183.935 152.053)" fill="#fff"/>
        <rect id="Rectangle_1792" data-name="Rectangle 1792" width="3.211" height="3.211" transform="translate(193.868 152.053)" fill="#fff"/>
        <rect id="Rectangle_1793" data-name="Rectangle 1793" width="3.211" height="3.211" transform="translate(174.002 159.678)" fill="#fff"/>
        <rect id="Rectangle_1794" data-name="Rectangle 1794" width="3.211" height="3.211" transform="translate(183.935 159.678)" fill="#fff"/>
        <rect id="Rectangle_1795" data-name="Rectangle 1795" width="2.91" height="1.605" transform="translate(183.935 167.304)" fill="#fff"/>
        <rect id="Rectangle_1796" data-name="Rectangle 1796" width="3.211" height="3.211" transform="translate(193.868 159.678)" fill="#fff"/>
        <rect id="Rectangle_1797" data-name="Rectangle 1797" width="61.328" height="3.157" transform="translate(146.023 168.158)" fill="#3b265d"/>
        <path id="Path_8283" data-name="Path 8283" d="M854.833,488.2l-.463-1.619-2.823.062-.4,1.638-2.579.056,2.644-8.785,3.131-.068,3.061,8.66Zm-.993-3.533-.406-1.418q-.141-.472-.345-1.223t-.27-1.076q-.047.3-.189,1t-.638,2.755Z" transform="translate(-683.724 -386.338)" fill="#fff"/>
        <path id="Path_8284" data-name="Path 8284" d="M904.271,481.581a2.911,2.911,0,0,1-.809,2.268,3.464,3.464,0,0,1-2.422.846l-.659.015.063,2.882-2.347.051-.19-8.688,3.007-.066a3.678,3.678,0,0,1,2.487.665,2.563,2.563,0,0,1,.871,2.026m-3.932,1.215.428-.009a1.168,1.168,0,0,0,.834-.315,1.079,1.079,0,0,0,.294-.827q-.019-.879-.994-.858l-.606.013Z" transform="translate(-723.481 -385.86)" fill="#fff"/>
        <path id="Path_8285" data-name="Path 8285" d="M942.086,483.508a2.563,2.563,0,0,1-.379,1.444,2.685,2.685,0,0,1-1.161,1,4.387,4.387,0,0,1-1.8.387,7.337,7.337,0,0,1-1.458-.09,5.41,5.41,0,0,1-1.233-.4L936,483.759a6.961,6.961,0,0,0,1.408.507,5.2,5.2,0,0,0,1.335.164,1.3,1.3,0,0,0,.763-.2.557.557,0,0,0,.233-.472.512.512,0,0,0-.1-.31,1.145,1.145,0,0,0-.321-.264q-.22-.132-1.168-.533a5.533,5.533,0,0,1-1.291-.721,2.3,2.3,0,0,1-.648-.818,2.761,2.761,0,0,1-.229-1.107,2.228,2.228,0,0,1,.833-1.891,3.85,3.85,0,0,1,2.386-.724,6.736,6.736,0,0,1,2.765.564l-.679,1.828a5.207,5.207,0,0,0-2.116-.513,1.1,1.1,0,0,0-.662.175.486.486,0,0,0-.2.4.575.575,0,0,0,.275.452,10.074,10.074,0,0,0,1.451.705,3.975,3.975,0,0,1,1.583,1.05,2.356,2.356,0,0,1,.469,1.449" transform="translate(-754.16 -384.655)" fill="#fff"/>
        <g id="Group_2464" data-name="Group 2464" transform="translate(55.494 22.19)" opacity="0.7">
          <g id="Group_2463" data-name="Group 2463">
            <g id="Group_2462" data-name="Group 2462" clip-path="url(#clip-path-5)">
              <path id="Path_8286" data-name="Path 8286" d="M349.789,146.284a32.057,32.057,0,1,0-32.057,32.057,32.057,32.057,0,0,0,32.057-32.057" transform="translate(-285.675 -114.228)" fill="#dacaf9"/>
            </g>
          </g>
        </g>
        <path id="Path_8287" data-name="Path 8287" d="M364.9,108.069a2.266,2.266,0,0,0,.663-1.59v-.9a2.641,2.641,0,0,0-1.993-2.556l-12.43-3.105V90.636a2.7,2.7,0,0,0-.574-5.342H326.47a2.7,2.7,0,0,0-.577,5.341v9.28l-12.426,3.107h0a2.644,2.644,0,0,0-2,2.556v.9a2.271,2.271,0,0,0,1.8,2.2v28.9h-.9a.9.9,0,1,0,0,1.8h52.288a.9.9,0,0,0,0-1.8h-.9v-28.9a2.267,2.267,0,0,0,1.14-.616m-39.005,5.172v24.34H315.076V108.731h10.816v4.509m0-6.312H314.174l-.014,0h-.434a.438.438,0,0,1-.452-.45v-.9a.821.821,0,0,1,.629-.8l11.99-3ZM336.534,130h3.96v6.86h-3.96Zm12.8,7.58h-7v-8.5a.921.921,0,0,0-.921-.921h-5.8a.921.921,0,0,0-.921.921v8.5H327.7V114.143h21.633Zm0-36.963v7.19c0,.008,0,.015,0,.024v4.506l-21.286,0H327.7V90.7h21.635Zm.925-11.717-.024,0-23.439,0h-.326a.9.9,0,1,1,0-1.8h24.093a.881.881,0,0,1,.9.9h0a.88.88,0,0,1-.9.9Zm11.694,48.68H351.137V108.733h10.816Zm1.8-31.1a.435.435,0,0,1-.448.448H351.137v-5.154l11.992,3a.82.82,0,0,1,.627.806Z" transform="translate(-250.963 -68.725)" fill="#265d3b"/>
        <path id="Path_8288" data-name="Path 8288" d="M434.5,123.413h.48v.481a1.219,1.219,0,0,0,1.213,1.212h.96a1.219,1.219,0,0,0,1.213-1.212v-.481h.48a1.219,1.219,0,0,0,1.213-1.212v-.961a1.219,1.219,0,0,0-1.213-1.211h-.48v-.48a1.221,1.221,0,0,0-1.213-1.213h-.959a1.221,1.221,0,0,0-1.213,1.213v.48h-.48a1.218,1.218,0,0,0-1.212,1.211v.961a1.218,1.218,0,0,0,1.212,1.212m-.365-2.172a.355.355,0,0,1,.366-.366h.9a.424.424,0,0,0,.422-.423v-.9a.358.358,0,0,1,.368-.367h.959a.358.358,0,0,1,.367.368v.9a.424.424,0,0,0,.423.424h.9a.356.356,0,0,1,.367.365v.961a.357.357,0,0,1-.368.367h-.9a.424.424,0,0,0-.424.421v.9a.356.356,0,0,1-.366.366h-.96a.356.356,0,0,1-.367-.366v-.9a.423.423,0,0,0-.423-.421h-.9a.356.356,0,0,1-.365-.368Z" transform="translate(-349.115 -95.348)" fill="#265d3b"/>
        <path id="Path_8289" data-name="Path 8289" d="M344.361,217.787h-5.8a.921.921,0,0,0-.921.921v5.755a.921.921,0,0,0,.921.921h5.8a.921.921,0,0,0,.921-.921v-5.755a.921.921,0,0,0-.921-.921m-.921,5.755h-3.96v-3.913h3.96Z" transform="translate(-272.05 -175.48)" fill="#265d3b"/>
        <path id="Path_8290" data-name="Path 8290" d="M344.361,275.62h-5.8a.921.921,0,0,0-.921.921V282.3a.921.921,0,0,0,.921.921h5.8a.921.921,0,0,0,.921-.921v-5.755a.921.921,0,0,0-.921-.921m-.921,5.755h-3.96v-3.914h3.96Z" transform="translate(-272.05 -222.078)" fill="#265d3b"/>
        <path id="Path_8291" data-name="Path 8291" d="M525.8,225.384h5.8a.921.921,0,0,0,.921-.921v-5.755a.921.921,0,0,0-.921-.921h-5.8a.921.921,0,0,0-.921.921v5.755a.921.921,0,0,0,.921.921m.921-5.755h3.96v3.914h-3.96Z" transform="translate(-422.921 -175.48)" fill="#265d3b"/>
        <path id="Path_8292" data-name="Path 8292" d="M525.8,283.217h5.8a.921.921,0,0,0,.921-.921v-5.755a.921.921,0,0,0-.921-.921h-5.8a.921.921,0,0,0-.921.921V282.3a.921.921,0,0,0,.921.921m.921-5.755h3.96v3.914h-3.96Z" transform="translate(-422.921 -222.078)" fill="#265d3b"/>
        <path id="Path_8293" data-name="Path 8293" d="M438,126.079h.9a.424.424,0,0,1,.423.421v.9a.356.356,0,0,0,.367.365h.96a.355.355,0,0,0,.366-.366v-.9a.424.424,0,0,1,.424-.421h.9a.358.358,0,0,0,.368-.367v-.961a.356.356,0,0,0-.367-.364h-.9a.424.424,0,0,1-.423-.424v-.9a.358.358,0,0,0-.367-.368H439.7a.358.358,0,0,0-.368.367v.9a.424.424,0,0,1-.422.423H438a.355.355,0,0,0-.366.366v.96a.356.356,0,0,0,.365.368" transform="translate(-352.624 -98.858)" fill="#8aa795"/>
        <rect id="Rectangle_1799" data-name="Rectangle 1799" width="3.96" height="6.86" transform="translate(85.571 61.277)" fill="#8aa795"/>
        <path id="Path_8294" data-name="Path 8294" d="M395.017,124.8v9.966h.348l21.286,0v-4.506c0-.008,0-.015,0-.023V113.122H395.018Zm7.433-7.757a1.218,1.218,0,0,1,1.211-1.211h.48v-.48a1.221,1.221,0,0,1,1.213-1.213h.959a1.221,1.221,0,0,1,1.213,1.213v.48h.48a1.219,1.219,0,0,1,1.213,1.211V118a1.219,1.219,0,0,1-1.213,1.211h-.48v.481a1.219,1.219,0,0,1-1.213,1.212h-.96a1.219,1.219,0,0,1-1.213-1.212v-.481h-.48A1.218,1.218,0,0,1,402.451,118Z" transform="translate(-318.282 -91.147)" fill="#fff"/>
        <path id="Path_8295" data-name="Path 8295" d="M330.043,205.946V234.8h10.816V205.946Zm9.119,20.211a.921.921,0,0,1-.921.921h-5.8a.921.921,0,0,1-.921-.921V220.4a.921.921,0,0,1,.921-.921h5.8a.921.921,0,0,1,.921.921Zm0-11.234a.921.921,0,0,1-.921.921h-5.8a.921.921,0,0,1-.921-.921v-5.755a.921.921,0,0,1,.921-.921h5.8a.921.921,0,0,1,.921.921Z" transform="translate(-265.93 -165.939)" fill="#fff"/>
        <rect id="Rectangle_1800" data-name="Rectangle 1800" width="3.96" height="3.914" transform="translate(67.431 55.383)" fill="#8aa795"/>
        <rect id="Rectangle_1801" data-name="Rectangle 1801" width="3.96" height="3.914" transform="translate(67.431 44.149)" fill="#8aa795"/>
        <path id="Path_8296" data-name="Path 8296" d="M517.37,99.221h0Z" transform="translate(-416.867 -79.946)" fill="#fff"/>
        <path id="Path_8297" data-name="Path 8297" d="M320.766,173.933v.9a.438.438,0,0,0,.451.45h12.167v-5.154l-11.99,3a.821.821,0,0,0-.629.8" transform="translate(-258.455 -137.082)" fill="#fff"/>
        <path id="Path_8298" data-name="Path 8298" d="M395.017,240.811V257.24h6.995v-8.5a.921.921,0,0,1,.921-.921h5.8a.921.921,0,0,1,.921.921v8.5h7V233.8H395.017Z" transform="translate(-318.282 -188.384)" fill="#fff"/>
        <rect id="Rectangle_1802" data-name="Rectangle 1802" width="3.96" height="3.914" transform="translate(103.804 55.383)" fill="#8aa795"/>
        <path id="Path_8299" data-name="Path 8299" d="M527.671,173.129l-11.992-3v5.155H527.85a.434.434,0,0,0,.448-.448v-.9a.821.821,0,0,0-.627-.806" transform="translate(-415.505 -137.081)" fill="#fff"/>
        <path id="Path_8300" data-name="Path 8300" d="M515.676,210.46V234.8h10.816V205.953H515.676Zm1.788-1.287a.921.921,0,0,1,.921-.921h5.8a.921.921,0,0,1,.921.921v5.755a.921.921,0,0,1-.921.921h-5.8a.921.921,0,0,1-.921-.921Zm0,11.234a.921.921,0,0,1,.921-.921h5.8a.921.921,0,0,1,.921.921v5.755a.921.921,0,0,1-.921.921h-5.8a.921.921,0,0,1-.921-.921Z" transform="translate(-415.502 -165.945)" fill="#fff"/>
        <rect id="Rectangle_1803" data-name="Rectangle 1803" width="3.96" height="3.914" transform="translate(103.804 44.149)" fill="#8aa795"/>
        <path id="Path_8301" data-name="Path 8301" d="M409.946,95.477a.881.881,0,0,0-.9-.9H384.951a.9.9,0,1,0,0,1.8h.326l23.439,0,.024,0h.3a.88.88,0,0,0,.9-.9" transform="translate(-309.444 -76.202)" fill="#fff"/>
        <path id="Path_8302" data-name="Path 8302" d="M411.89,175.226v3.893a2.612,2.612,0,0,1-.719,1.966,3.411,3.411,0,0,1-4.106.02,2.563,2.563,0,0,1-.71-1.947v-3.933h1.756v3.8a1.556,1.556,0,0,0,.257,1,1.106,1.106,0,0,0,1.533,0,1.648,1.648,0,0,0,.241-1.007v-3.787Z" transform="translate(-327.418 -141.187)" fill="#265d3b"/>
        <path id="Path_8303" data-name="Path 8303" d="M441.838,175.225h2.256a3.837,3.837,0,0,1,1.958.392,1.327,1.327,0,0,1,.639,1.219,1.541,1.541,0,0,1-.279.929,1.244,1.244,0,0,1-.734.5v.044a1.5,1.5,0,0,1,.872.531,1.6,1.6,0,0,1,.27.964,1.652,1.652,0,0,1-.661,1.387,2.9,2.9,0,0,1-1.8.507h-2.517Zm1.748,2.482h.526a.952.952,0,0,0,.582-.155.54.54,0,0,0,.206-.46q0-.544-.823-.544h-.491Zm0,1.279v1.358h.615q.819,0,.818-.69a.594.594,0,0,0-.219-.5,1.008,1.008,0,0,0-.635-.172Z" transform="translate(-356.008 -141.186)" fill="#265d3b"/>
        <path id="Path_8304" data-name="Path 8304" d="M476.248,179.345a1.909,1.909,0,0,1-.305,1.068,2,2,0,0,1-.881.726,3.263,3.263,0,0,1-1.349.259,5.464,5.464,0,0,1-1.084-.091,4.024,4.024,0,0,1-.911-.316v-1.557a5.2,5.2,0,0,0,1.04.4,3.878,3.878,0,0,0,.991.144.963.963,0,0,0,.571-.135.415.415,0,0,0,.181-.347.381.381,0,0,0-.073-.232.85.85,0,0,0-.234-.2q-.161-.1-.861-.416a4.133,4.133,0,0,1-.949-.558,1.713,1.713,0,0,1-.469-.619,2.056,2.056,0,0,1-.153-.827,1.658,1.658,0,0,1,.65-1.394,2.867,2.867,0,0,1,1.787-.5,5.016,5.016,0,0,1,2.048.464l-.535,1.35a3.876,3.876,0,0,0-1.566-.416.817.817,0,0,0-.5.119.361.361,0,0,0-.155.3.428.428,0,0,0,.2.341,7.49,7.49,0,0,0,1.068.549,2.956,2.956,0,0,1,1.161.808,1.753,1.753,0,0,1,.325,1.086" transform="translate(-380.083 -140.802)" fill="#265d3b"/>
        <g id="Group_2467" data-name="Group 2467" transform="translate(230.832 19.379)" opacity="0.7">
          <g id="Group_2466" data-name="Group 2466">
            <g id="Group_2465" data-name="Group 2465" clip-path="url(#clip-path-6)">
              <path id="Path_8305" data-name="Path 8305" d="M1252.395,131.817a32.057,32.057,0,1,0-32.057,32.057,32.057,32.057,0,0,0,32.057-32.057" transform="translate(-1188.281 -99.76)" fill="#dacaf9"/>
            </g>
          </g>
        </g>
        <path id="Path_8306" data-name="Path 8306" d="M1330.98,236.96h-27.685a.839.839,0,0,1-.839-.839V221.859a.839.839,0,1,1,1.678,0v13.423h26.007V218.5a.839.839,0,0,1,1.678,0v17.618a.839.839,0,0,1-.839.839" transform="translate(-1049.444 -175.381)" fill="#265d3b"/>
        <path id="Path_8307" data-name="Path 8307" d="M1287.421,312.551h-40.269a.839.839,0,0,1-.839-.839v-2.517a.839.839,0,0,1,.839-.839h40.269a.839.839,0,0,1,.839.839v2.517a.839.839,0,0,1-.839.839m-39.43-1.678h38.591v-.839h-38.591Z" transform="translate(-1004.208 -248.455)" fill="#265d3b"/>
        <path id="Path_8308" data-name="Path 8308" d="M1266.177,250.879h-8.949a.839.839,0,0,1-.839-.839V235.778a.839.839,0,0,1,.839-.839h8.949a.839.839,0,0,1,.839.839V250.04a.839.839,0,0,1-.839.839m-8.11-1.678h7.271V236.617h-7.271Z" transform="translate(-1012.327 -189.3)" fill="#265d3b"/>
        <path id="Path_8309" data-name="Path 8309" d="M1230.973,172.821h-16.932a.839.839,0,0,1-.542-1.479l18.177-15.381a.839.839,0,0,1,.542-.2H1248.9a.839.839,0,0,1,.546,1.476l-17.928,15.381a.838.838,0,0,1-.546.2m-14.642-1.678h14.331l15.972-13.7h-14.109Z" transform="translate(-977.529 -125.505)" fill="#265d3b"/>
        <path id="Path_8310" data-name="Path 8310" d="M1345.037,172.821h-8.512a.839.839,0,1,1,0-1.678h6.222l-16.194-13.7h-16.376a.839.839,0,0,1,0-1.678h16.683a.839.839,0,0,1,.542.2l18.177,15.381a.839.839,0,0,1-.542,1.479" transform="translate(-1054.99 -125.505)" fill="#265d3b"/>
        <path id="Path_8311" data-name="Path 8311" d="M1397.674,179.324a.836.836,0,0,1-.536-.194l-11.605-9.648a.839.839,0,0,1,1.073-1.29l11.605,9.648a.839.839,0,0,1-.537,1.484" transform="translate(-1116.139 -135.363)" fill="#265d3b"/>
        <rect id="Rectangle_1805" data-name="Rectangle 1805" width="5.593" height="8.669" transform="translate(268.112 51.511)" fill="#265d3b"/>
        <rect id="Rectangle_1806" data-name="Rectangle 1806" width="5.142" height="5.313" transform="translate(258.271 50.673)" fill="#265d3b"/>
        <rect id="Rectangle_1807" data-name="Rectangle 1807" width="3.41" height="5.313" transform="translate(247.365 50.952)" fill="#265d3b"/>
        <path id="Path_8312" data-name="Path 8312" d="M1243.643,178.1l15.972-13.7h-14.109l-16.194,13.7h14.331Z" transform="translate(-990.509 -132.463)" fill="#8aa795"/>
        <path id="Path_8313" data-name="Path 8313" d="M1265.017,316.994H1254.95v.839h38.591v-.839h-28.524Z" transform="translate(-1011.167 -255.415)" fill="#fff"/>
        <path id="Path_8314" data-name="Path 8314" d="M1272.3,243.576h-7.271V256.16h7.271Zm-2.237,8.949h-3.41v-5.313h3.41Z" transform="translate(-1019.286 -196.259)" fill="#fff"/>
        <path id="Path_8315" data-name="Path 8315" d="M1392.77,165.579l11.516,9.574c.01.008.017.018.026.027a.794.794,0,0,1,.061.062.773.773,0,0,1,.051.062c.016.022.03.045.044.068s.027.047.039.072a.742.742,0,0,1,.03.074.782.782,0,0,1,.024.079.954.954,0,0,1,.024.165c0,.012,0,.024,0,.036v2.517h5.383l-16.134-13.651Z" transform="translate(-1122.214 -132.676)" fill="#8aa795"/>
        <path id="Path_8316" data-name="Path 8316" d="M1337.1,184.541l-11.3-9.4a.849.849,0,0,1-.117-.119l-14.587,12.515v13.386h13.423v-8.389h5.593v8.389h6.991Zm-17.284,12.47h-5.142V191.7h5.142Z" transform="translate(-1056.404 -141.026)" fill="#fff"/>
        <g id="Group_2470" data-name="Group 2470" transform="translate(286.326 134.718)" opacity="0.7">
          <g id="Group_2469" data-name="Group 2469">
            <g id="Group_2468" data-name="Group 2468" clip-path="url(#clip-path-7)">
              <path id="Path_8317" data-name="Path 8317" d="M1538.069,725.558a32.057,32.057,0,1,0-32.057,32.057,32.057,32.057,0,0,0,32.057-32.057" transform="translate(-1473.954 -693.501)" fill="#dacaf9"/>
            </g>
          </g>
        </g>
        <path id="Path_8318" data-name="Path 8318" d="M1614.642,832.357h-27.685a.839.839,0,0,1-.839-.839V817.256a.839.839,0,1,1,1.678,0v13.423H1613.8V813.9a.839.839,0,1,1,1.678,0v17.618a.839.839,0,0,1-.839.839" transform="translate(-1278.003 -655.117)" fill="#265d3b"/>
        <path id="Path_8319" data-name="Path 8319" d="M1571.083,907.948h-40.269a.839.839,0,0,1-.839-.839v-2.517a.839.839,0,0,1,.839-.839h40.269a.839.839,0,0,1,.839.839v2.517a.839.839,0,0,1-.839.839m-39.43-1.678h38.591v-.839h-38.591Z" transform="translate(-1232.766 -728.192)" fill="#265d3b"/>
        <path id="Path_8320" data-name="Path 8320" d="M1549.839,846.276h-8.949a.839.839,0,0,1-.839-.839V831.175a.839.839,0,0,1,.839-.839h8.949a.839.839,0,0,1,.839.839v14.262a.839.839,0,0,1-.839.839m-8.11-1.678H1549V832.014h-7.271Z" transform="translate(-1240.885 -669.037)" fill="#265d3b"/>
        <path id="Path_8321" data-name="Path 8321" d="M1514.635,768.218H1497.7a.839.839,0,0,1-.542-1.479l18.177-15.38a.838.838,0,0,1,.542-.2h16.683a.839.839,0,0,1,.546,1.476l-17.928,15.381a.838.838,0,0,1-.546.2m-14.642-1.678h14.331l15.972-13.7h-14.109Z" transform="translate(-1206.087 -605.241)" fill="#265d3b"/>
        <path id="Path_8322" data-name="Path 8322" d="M1628.7,768.218h-8.512a.839.839,0,1,1,0-1.678h6.222l-16.194-13.7h-16.376a.839.839,0,0,1,0-1.678h16.683a.839.839,0,0,1,.542.2l18.177,15.38a.839.839,0,0,1-.542,1.479" transform="translate(-1283.548 -605.241)" fill="#265d3b"/>
        <path id="Path_8323" data-name="Path 8323" d="M1681.336,774.722a.837.837,0,0,1-.536-.194l-11.605-9.648a.839.839,0,1,1,1.073-1.29l11.605,9.648a.839.839,0,0,1-.537,1.484" transform="translate(-1344.698 -615.1)" fill="#265d3b"/>
        <rect id="Rectangle_1809" data-name="Rectangle 1809" width="5.593" height="8.669" transform="translate(323.216 167.172)" fill="#265d3b"/>
        <rect id="Rectangle_1810" data-name="Rectangle 1810" width="5.142" height="5.313" transform="translate(313.374 166.333)" fill="#265d3b"/>
        <rect id="Rectangle_1811" data-name="Rectangle 1811" width="4.059" height="4.195" transform="translate(310.839 140.605)" fill="#265d3b"/>
        <rect id="Rectangle_1812" data-name="Rectangle 1812" width="3.41" height="5.313" transform="translate(302.468 166.612)" fill="#265d3b"/>
        <path id="Path_8324" data-name="Path 8324" d="M1559.956,747.9a.839.839,0,0,1-.839-.839v-7.728a.839.839,0,0,1,1.678,0v7.728a.839.839,0,0,1-.839.839" transform="translate(-1256.247 -595.036)" fill="#265d3b"/>
        <path id="Path_8325" data-name="Path 8325" d="M1532.284,752.14a.839.839,0,0,1-.839-.839V739.333a.839.839,0,0,1,.839-.839h5.376a.839.839,0,0,1,.839.839v7.728a.839.839,0,1,1-1.678,0v-6.889h-3.7V751.3a.839.839,0,0,1-.839.839" transform="translate(-1233.951 -595.036)" fill="#265d3b"/>
        <path id="Path_8326" data-name="Path 8326" d="M1516.512,701.848h-10.171a.839.839,0,0,1-.542-1.479l10.919-9.239a.839.839,0,0,1,.542-.2h10.022a.839.839,0,0,1,.546,1.476l-10.77,9.239a.838.838,0,0,1-.546.2m-7.881-1.678h7.571l8.814-7.561h-7.448Z" transform="translate(-1213.047 -556.712)" fill="#265d3b"/>
        <path id="Path_8327" data-name="Path 8327" d="M1585.032,701.849h-5.113a.839.839,0,1,1,0-1.678h2.823l-8.936-7.562h-9.714a.839.839,0,1,1,0-1.678h10.022a.84.84,0,0,1,.542.2l10.919,9.24a.839.839,0,0,1-.542,1.479" transform="translate(-1259.579 -556.713)" fill="#265d3b"/>
        <path id="Path_8328" data-name="Path 8328" d="M1616.653,709.952a.839.839,0,0,1-.839-.839v-3.8l-6.669-5.544a.839.839,0,1,1,1.073-1.29l6.971,5.8a.839.839,0,0,1,.3.645v4.2a.839.839,0,0,1-.839.839" transform="translate(-1296.313 -562.635)" fill="#265d3b"/>
        <path id="Path_8329" data-name="Path 8329" d="M1529.181,707.13l8.814-7.561h-7.448l-8.937,7.561h7.571Z" transform="translate(-1226.026 -563.672)" fill="#8aa795"/>
        <path id="Path_8330" data-name="Path 8330" d="M1555.96,838.973h-7.271v12.584h7.271Zm-2.237,8.949h-3.41v-5.313h3.41Z" transform="translate(-1247.845 -675.996)" fill="#fff"/>
        <path id="Path_8331" data-name="Path 8331" d="M1617.768,700.374l6.613,5.5a.839.839,0,0,1,.3.645v1.177h1.984l-8.776-7.426Z" transform="translate(-1303.505 -564.235)" fill="#8aa795"/>
        <path id="Path_8332" data-name="Path 8332" d="M1543.78,747.131h-3.7v9.509l3.7-3.129Z" transform="translate(-1240.91 -601.995)" fill="#fff"/>
        <path id="Path_8333" data-name="Path 8333" d="M1527.3,773.5l15.972-13.7h-14.109l-5.618,4.754a.839.839,0,0,1-.578.489l-10,8.46H1527.3Z" transform="translate(-1219.067 -612.201)" fill="#8aa795"/>
        <path id="Path_8334" data-name="Path 8334" d="M1548.679,912.391h-10.067v.839H1577.2v-.839h-28.524Z" transform="translate(-1239.726 -735.152)" fill="#8aa795"/>
        <path id="Path_8335" data-name="Path 8335" d="M1582.708,711.947l-6.529-5.428-8.424,7.227v5.623l4.7-3.98a.839.839,0,0,1,.542-.2h9.708Zm-4.6,2.125h-4.059v-4.195h4.059Z" transform="translate(-1263.207 -569.272)" fill="#fff"/>
        <path id="Path_8336" data-name="Path 8336" d="M1676.432,760.976l11.516,9.573c.01.008.017.018.026.027a.862.862,0,0,1,.061.062c.018.02.035.04.051.062s.03.045.044.068.027.047.039.072a1.032,1.032,0,0,1,.054.153c.006.025.011.051.015.077a.859.859,0,0,1,.009.088c0,.012,0,.024,0,.036v2.517h5.383L1677.5,760.06Z" transform="translate(-1350.773 -612.412)" fill="#8aa795"/>
        <path id="Path_8337" data-name="Path 8337" d="M1620.762,779.938l-11.3-9.4a.842.842,0,0,1-.117-.119l-14.587,12.515v13.386h13.423v-8.389h5.593v8.389h6.991Zm-17.284,12.47h-5.142V787.1h5.142Z" transform="translate(-1284.962 -620.762)" fill="#fff"/>
        <g id="Group_2473" data-name="Group 2473" transform="translate(0 134.468)" opacity="0.7">
          <g id="Group_2472" data-name="Group 2472">
            <g id="Group_2471" data-name="Group 2471" clip-path="url(#clip-path-8)">
              <path id="Path_8338" data-name="Path 8338" d="M64.114,724.273A32.057,32.057,0,1,0,32.057,756.33a32.057,32.057,0,0,0,32.057-32.057" transform="translate(0 -692.216)" fill="#dacaf9"/>
            </g>
          </g>
        </g>
        <path id="Path_8339" data-name="Path 8339" d="M136.652,822.624H117.636a.839.839,0,0,1-.839-.839V796.9a.839.839,0,0,1,1.678,0v24.05h17.338v-15.66a.839.839,0,0,1,1.678,0v16.5a.839.839,0,0,1-.839.839" transform="translate(-94.108 -641.417)" fill="#265d3b"/>
        <path id="Path_8340" data-name="Path 8340" d="M105.646,797.323a.838.838,0,0,1-.328-.067L79.03,786.07a.839.839,0,0,1,.657-1.544l25.119,10.689v-.429L79.736,783.341H72.047l-.559,1.119h.88a.839.839,0,1,1,0,1.678H70.131a.839.839,0,0,1-.75-1.214l1.4-2.8a.839.839,0,0,1,.75-.464h8.389a.836.836,0,0,1,.348.076l25.727,11.745a.839.839,0,0,1,.49.763v2.237a.839.839,0,0,1-.839.839" transform="translate(-55.831 -629.819)" fill="#265d3b"/>
        <path id="Path_8341" data-name="Path 8341" d="M88.638,822.624H81.647a.839.839,0,0,1-.839-.839V796.9a.839.839,0,0,1,.839-.839h6.991a.839.839,0,0,1,.839.839v24.888a.839.839,0,0,1-.839.839m-6.152-1.678H87.8V797.736H82.486Z" transform="translate(-65.11 -641.417)" fill="#265d3b"/>
        <rect id="Rectangle_1814" data-name="Rectangle 1814" width="5.593" height="8.669" transform="translate(31.078 171.419)" fill="#265d3b"/>
        <rect id="Rectangle_1815" data-name="Rectangle 1815" width="3.076" height="4.754" transform="translate(18.215 167.225)" fill="#265d3b"/>
        <path id="Path_8342" data-name="Path 8342" d="M81.157,790.3l-.559,1.119h7.87a.841.841,0,0,1,.169.017.829.829,0,0,1,.161.05l25.119,10.689v-.429L88.846,790.3Z" transform="translate(-64.941 -636.777)" fill="#8aa795"/>
        <path id="Path_8343" data-name="Path 8343" d="M125.435,829.689h6.712v-8.11h5.593v8.11h5.034v-15.4l-17.338-7.378Z" transform="translate(-101.068 -650.16)" fill="#fff"/>
        <path id="Path_8344" data-name="Path 8344" d="M94.758,804.7H89.445v23.211h5.313Zm-1.4,15.66H90.284V815.6H93.36Z" transform="translate(-72.07 -648.377)" fill="#fff"/>
        <g id="Group_2476" data-name="Group 2476" transform="translate(229.177 237.092)" opacity="0.7">
          <g id="Group_2475" data-name="Group 2475">
            <g id="Group_2474" data-name="Group 2474" clip-path="url(#clip-path-9)">
              <path id="Path_8345" data-name="Path 8345" d="M1243.87,1252.561a32.057,32.057,0,1,0-32.057,32.057,32.057,32.057,0,0,0,32.057-32.057" transform="translate(-1179.757 -1220.504)" fill="#dacaf9"/>
            </g>
          </g>
        </g>
        <rect id="Rectangle_1817" data-name="Rectangle 1817" width="6.053" height="15.89" transform="translate(241.088 235.502)" fill="#fff"/>
        <path id="Path_8346" data-name="Path 8346" d="M1280.03,1228.209H1316.1v-15.89H1280.03Zm25.979-14.125h3.783v5.045h-3.783Zm0,8.071h3.783v5.045h-3.783Zm-9.837-8.071h3.783v5.045h-3.783Zm0,8.071h3.783v5.045h-3.783Zm-9.837-8.071h3.783v5.045h-3.783Zm0,8.071h3.783v5.045h-3.783Z" transform="translate(-1031.375 -976.817)" fill="#fff"/>
        <path id="Path_8347" data-name="Path 8347" d="M1230.69,1415.585h23.2v-3.531h8.828v3.531h23.205v-11.1H1230.69Zm45.653-8.576h3.783v5.045h-3.783Zm-9.837,0h3.783v5.045h-3.783Zm-19.674,0h3.783v5.045h-3.783Zm-6.054,5.044H1237v-5.045h3.783Z" transform="translate(-991.619 -1131.655)" fill="#fff"/>
        <path id="Path_8348" data-name="Path 8348" d="M1191.513,1404.487h-7.567v11.1h7.567Z" transform="translate(-953.956 -1131.654)" fill="#fff"/>
        <path id="Path_8349" data-name="Path 8349" d="M1191.513,1310.486v-8.576h-7.567v8.576h7.567Z" transform="translate(-953.956 -1049.004)" fill="#fff"/>
        <path id="Path_8350" data-name="Path 8350" d="M1230.69,1310.486h55.238v-8.576H1230.69Zm10.089-1.261H1237v-5.045h3.783Zm9.837,0h-3.783v-5.045h3.783Zm9.837,0h-3.784v-5.045h3.784Zm9.837,0h-3.783v-5.045h3.783Zm9.837,0h-3.783v-5.045h3.783Z" transform="translate(-991.619 -1049.004)" fill="#fff"/>
        <rect id="Rectangle_1818" data-name="Rectangle 1818" width="62.301" height="8.324" transform="translate(235.035 262.995)" fill="#8aa795"/>
        <path id="Path_8351" data-name="Path 8351" d="M1223.656,1305.6a.756.756,0,0,1-.757-.757v-9.963a.757.757,0,0,1,.757-.757h56.752a.757.757,0,0,1,.757.757v9.774a.757.757,0,0,1-1.514,0v-9.017h-55.238v9.207a.757.757,0,0,1-.757.757" transform="translate(-985.342 -1042.727)" fill="#265d3b"/>
        <path id="Path_8352" data-name="Path 8352" d="M1280.407,1410.821h-56.752a.757.757,0,0,1-.757-.757v-12.422a.757.757,0,0,1,1.513,0v11.666h55.238v-11.855a.757.757,0,0,1,1.513,0v12.612a.757.757,0,0,1-.757.757" transform="translate(-985.342 -1125.377)" fill="#265d3b"/>
        <path id="Path_8353" data-name="Path 8353" d="M1310.579,1223.446a.756.756,0,0,1-.757-.757v-16.647h-36.069v16.647a.757.757,0,0,1-1.513,0v-17.4a.757.757,0,0,1,.757-.757h37.582a.756.756,0,0,1,.756.757v17.4a.756.756,0,0,1-.756.757" transform="translate(-1025.098 -970.54)" fill="#265d3b"/>
        <path id="Path_8354" data-name="Path 8354" d="M1185.992,1328.171h-9.08a.757.757,0,0,1-.757-.757v-32.538a.757.757,0,0,1,.757-.757h9.08a.757.757,0,0,1,0,1.513h-8.323v31.024h8.323a.757.757,0,0,1,0,1.513" transform="translate(-947.678 -1042.727)" fill="#265d3b"/>
        <path id="Path_8355" data-name="Path 8355" d="M1241.611,1223.446a.757.757,0,0,1-.757-.757v-16.647H1234.8v16.647a.757.757,0,0,1-1.513,0v-17.4a.757.757,0,0,1,.757-.757h7.567a.757.757,0,0,1,.757.757v17.4a.757.757,0,0,1-.757.757" transform="translate(-993.712 -970.54)" fill="#265d3b"/>
        <rect id="Rectangle_1819" data-name="Rectangle 1819" width="3.783" height="5.045" transform="translate(254.961 237.268)" fill="#265d3b"/>
        <rect id="Rectangle_1820" data-name="Rectangle 1820" width="3.783" height="5.045" transform="translate(264.798 237.268)" fill="#265d3b"/>
        <rect id="Rectangle_1821" data-name="Rectangle 1821" width="8.828" height="3.783" transform="translate(262.276 280.399)" fill="#265d3b"/>
        <rect id="Rectangle_1822" data-name="Rectangle 1822" width="3.783" height="5.045" transform="translate(274.635 237.268)" fill="#265d3b"/>
        <rect id="Rectangle_1823" data-name="Rectangle 1823" width="3.783" height="5.045" transform="translate(245.376 255.176)" fill="#265d3b"/>
        <rect id="Rectangle_1824" data-name="Rectangle 1824" width="3.783" height="5.045" transform="translate(255.213 255.176)" fill="#265d3b"/>
        <rect id="Rectangle_1825" data-name="Rectangle 1825" width="3.784" height="5.045" transform="translate(265.05 255.176)" fill="#265d3b"/>
        <rect id="Rectangle_1826" data-name="Rectangle 1826" width="3.783" height="5.045" transform="translate(274.887 255.176)" fill="#265d3b"/>
        <rect id="Rectangle_1827" data-name="Rectangle 1827" width="3.783" height="5.045" transform="translate(284.724 255.176)" fill="#265d3b"/>
        <rect id="Rectangle_1828" data-name="Rectangle 1828" width="3.783" height="5.045" transform="translate(245.376 275.354)" fill="#265d3b"/>
        <rect id="Rectangle_1829" data-name="Rectangle 1829" width="3.783" height="5.045" transform="translate(255.213 275.354)" fill="#265d3b"/>
        <rect id="Rectangle_1830" data-name="Rectangle 1830" width="3.783" height="5.045" transform="translate(274.887 275.354)" fill="#265d3b"/>
        <rect id="Rectangle_1831" data-name="Rectangle 1831" width="3.783" height="5.045" transform="translate(284.724 275.354)" fill="#265d3b"/>
        <rect id="Rectangle_1832" data-name="Rectangle 1832" width="3.783" height="5.045" transform="translate(254.961 245.339)" fill="#265d3b"/>
        <rect id="Rectangle_1833" data-name="Rectangle 1833" width="3.783" height="5.045" transform="translate(264.798 245.339)" fill="#265d3b"/>
        <rect id="Rectangle_1834" data-name="Rectangle 1834" width="3.783" height="5.045" transform="translate(274.635 245.339)" fill="#265d3b"/>
        <path id="Path_8356" data-name="Path 8356" d="M1266.695,1357.407h-63.814a.757.757,0,0,1-.757-.757v-9.837a.757.757,0,0,1,.757-.757h63.814a.757.757,0,0,1,.757.757v9.837a.757.757,0,0,1-.757.757m-63.057-1.513h62.3v-8.323h-62.3Z" transform="translate(-968.603 -1084.575)" fill="#265d3b"/>
        <path id="Path_8357" data-name="Path 8357" d="M1171.495,1357.408h-7.567a.757.757,0,0,1-.757-.757v-9.837a.756.756,0,0,1,.757-.757h7.567a.757.757,0,0,1,.757.757v9.837a.757.757,0,0,1-.757.757" transform="translate(-937.217 -1084.576)" fill="#265d3b"/>
        <path id="Path_8358" data-name="Path 8358" d="M1247.55,1364.356h.433v.434a1.1,1.1,0,0,0,1.094,1.093h.866a1.1,1.1,0,0,0,1.094-1.093v-.434h.433a1.1,1.1,0,0,0,1.094-1.093v-.867a1.1,1.1,0,0,0-1.094-1.093h-.433v-.433a1.1,1.1,0,0,0-1.094-1.094h-.865a1.1,1.1,0,0,0-1.094,1.094v.432h-.433a1.1,1.1,0,0,0-1.093,1.093v.867a1.1,1.1,0,0,0,1.093,1.093m-.329-1.959a.32.32,0,0,1,.33-.33h.815a.382.382,0,0,0,.381-.382v-.814a.323.323,0,0,1,.332-.331h.865a.323.323,0,0,1,.331.332v.813a.382.382,0,0,0,.381.383h.814a.321.321,0,0,1,.331.329v.867a.323.323,0,0,1-.332.331h-.814a.382.382,0,0,0-.382.38v.815a.321.321,0,0,1-.33.33h-.866a.321.321,0,0,1-.331-.33v-.816a.382.382,0,0,0-.381-.38h-.814a.321.321,0,0,1-.329-.332Z" transform="translate(-1004.324 -1095.63)" fill="#fff"/>
        <path id="Path_8359" data-name="Path 8359" d="M1302.673,1367.574H1301.3v-2.058h-1.585v2.058h-1.371v-5.049h1.371v1.872h1.585v-1.872h1.371Z" transform="translate(-1046.132 -1097.844)" fill="#fff"/>
        <path id="Path_8360" data-name="Path 8360" d="M1330.192,1364.712a2.723,2.723,0,0,1-.625,1.938,2.841,2.841,0,0,1-3.652,0,3.273,3.273,0,0,1,0-3.866,2.858,2.858,0,0,1,3.659-.005,2.725,2.725,0,0,1,.622,1.938m-3.475,0q0,1.465,1.019,1.464a.876.876,0,0,0,.768-.356,2.583,2.583,0,0,0,0-2.226.866.866,0,0,0-.758-.361q-1.026,0-1.026,1.478" transform="translate(-1067.835 -1097.514)" fill="#fff"/>
        <path id="Path_8361" data-name="Path 8361" d="M1357.585,1365.739a1.489,1.489,0,0,1-.238.834,1.562,1.562,0,0,1-.688.567,2.546,2.546,0,0,1-1.053.2,4.271,4.271,0,0,1-.846-.071,3.15,3.15,0,0,1-.711-.247v-1.216a4.079,4.079,0,0,0,.812.313,3.028,3.028,0,0,0,.774.112.752.752,0,0,0,.446-.105.324.324,0,0,0,.142-.271.3.3,0,0,0-.057-.181.665.665,0,0,0-.183-.157q-.126-.079-.672-.324a3.236,3.236,0,0,1-.741-.435,1.342,1.342,0,0,1-.366-.484,1.605,1.605,0,0,1-.119-.646,1.3,1.3,0,0,1,.508-1.088,2.239,2.239,0,0,1,1.4-.39,3.913,3.913,0,0,1,1.6.363l-.418,1.053a3.027,3.027,0,0,0-1.223-.325.635.635,0,0,0-.387.093.282.282,0,0,0-.121.231.334.334,0,0,0,.154.266,5.816,5.816,0,0,0,.834.428,2.306,2.306,0,0,1,.907.63,1.367,1.367,0,0,1,.254.848" transform="translate(-1091.014 -1097.542)" fill="#fff"/>
        <path id="Path_8362" data-name="Path 8362" d="M1379.937,1364.13a1.69,1.69,0,0,1-.5,1.307,2.013,2.013,0,0,1-1.418.461h-.383v1.675h-1.364v-5.049h1.748a2.135,2.135,0,0,1,1.437.418,1.489,1.489,0,0,1,.48,1.188m-2.3.656h.249a.68.68,0,0,0,.489-.173.627.627,0,0,0,.182-.477q0-.511-.567-.511h-.352Z" transform="translate(-1108.922 -1097.843)" fill="#fff"/>
        <rect id="Rectangle_1835" data-name="Rectangle 1835" width="1.371" height="5.049" transform="translate(271.82 264.681)" fill="#fff"/>
        <path id="Path_8363" data-name="Path 8363" d="M1412.65,1367.574h-1.364v-3.934h-1.233v-1.115h3.827v1.115h-1.23Z" transform="translate(-1136.139 -1097.844)" fill="#fff"/>
        <path id="Path_8364" data-name="Path 8364" d="M1434.3,1367.487l-.249-.946h-1.64l-.256.946h-1.5l1.648-5.07h1.82l1.668,5.07Zm-.532-2.065-.218-.829q-.076-.276-.185-.715t-.143-.629q-.031.176-.123.58t-.406,1.592Z" transform="translate(-1152.743 -1097.757)" fill="#fff"/>
        <path id="Path_8365" data-name="Path 8365" d="M1459.906,1367.574v-5.049h1.364v3.948h1.944v1.1Z" transform="translate(-1176.308 -1097.844)" fill="#fff"/>
        <g id="Group_2479" data-name="Group 2479" transform="translate(51.591 237.092)" opacity="0.7">
          <g id="Group_2478" data-name="Group 2478">
            <g id="Group_2477" data-name="Group 2477" clip-path="url(#clip-path-8)">
              <path id="Path_8366" data-name="Path 8366" d="M329.7,1252.561a32.057,32.057,0,1,0-32.057,32.057,32.057,32.057,0,0,0,32.057-32.057" transform="translate(-265.583 -1220.504)" fill="#dacaf9"/>
            </g>
          </g>
        </g>
        <path id="Path_8367" data-name="Path 8367" d="M376.791,1211.006a2.936,2.936,0,1,0,2.936,2.936,2.939,2.939,0,0,0-2.936-2.936" transform="translate(-301.231 -975.759)" fill="#8aa795"/>
        <path id="Path_8368" data-name="Path 8368" d="M288.389,1268.966v33.785h6.752v-34.974h-5.564a1.19,1.19,0,0,0-1.188,1.188m2.093,1.638h2.932v6.964h-2.932Zm0,11h2.932v6.964h-2.932Z" transform="translate(-232.367 -1021.502)" fill="#fff"/>
        <path id="Path_8369" data-name="Path 8369" d="M342.307,1297.36h6.231v5.392h10.157v-33.785a1.19,1.19,0,0,0-1.188-1.188H331.784v34.974h10.523Zm8.43-26.755h3.3v6.964h-3.3Zm0,11h3.3v6.964h-3.3Zm0,9.9h3.3v6.964h-3.3Zm-6.964-20.891h3.3v6.964h-3.3Zm0,11h3.3v6.964h-3.3Zm-3.665,16.859h-3.3V1291.5h3.3Zm0-9.9h-3.3V1281.6h3.3Zm-3.3-17.959h3.3v6.964h-3.3Z" transform="translate(-267.333 -1021.502)" fill="#fff"/>
        <path id="Path_8370" data-name="Path 8370" d="M369.786,1200.187a5.736,5.736,0,0,0-11.471,0v6.831h11.471Z" transform="translate(-288.71 -962.42)" fill="#8aa795"/>
        <path id="Path_8371" data-name="Path 8371" d="M495.612,1341.361H478.95v20.68h18.48v-18.861a1.821,1.821,0,0,0-1.818-1.818m-9.8,18.953h-3.3v-6.964h3.3Zm0-10.262h-3.3v-6.964h3.3Zm7.33,10.262h-3.3v-6.964h3.3Zm0-10.262h-3.3v-6.964h3.3Z" transform="translate(-385.91 -1080.791)" fill="#fff"/>
        <path id="Path_8372" data-name="Path 8372" d="M353.413,1297.47H323.147v-38.329h27.4a2.87,2.87,0,0,1,2.866,2.866Zm-28.588-1.678h26.91v-33.785a1.19,1.19,0,0,0-1.188-1.188H324.825Z" transform="translate(-260.373 -1014.543)" fill="#265d3b"/>
        <path id="Path_8373" data-name="Path 8373" d="M492.149,1356.759h-21a.839.839,0,0,1,0-1.678h19.319V1336.22a1.821,1.821,0,0,0-1.818-1.818h-17.5a.839.839,0,0,1,0-1.678h17.5a3.5,3.5,0,0,1,3.5,3.5Z" transform="translate(-378.951 -1073.832)" fill="#265d3b"/>
        <path id="Path_8374" data-name="Path 8374" d="M289.86,1297.47H279.752v-35.463a2.869,2.869,0,0,1,2.866-2.866h7.241Zm-8.43-1.678h6.752v-34.973h-5.564a1.19,1.19,0,0,0-1.188,1.188Z" transform="translate(-225.408 -1014.543)" fill="#265d3b"/>
        <path id="Path_8375" data-name="Path 8375" d="M363.666,1201.37a.839.839,0,0,1-.839-.839v-7.3a5.736,5.736,0,1,0-11.472,0v7.3a.839.839,0,1,1-1.678,0v-7.3a7.414,7.414,0,1,1,14.827,0v7.3a.839.839,0,0,1-.839.839" transform="translate(-281.75 -955.461)" fill="#265d3b"/>
        <rect id="Rectangle_1837" data-name="Rectangle 1837" width="3.299" height="6.964" transform="translate(69.477 249.102)" fill="#265d3b"/>
        <rect id="Rectangle_1838" data-name="Rectangle 1838" width="3.299" height="6.964" transform="translate(76.44 249.102)" fill="#265d3b"/>
        <rect id="Rectangle_1839" data-name="Rectangle 1839" width="3.299" height="6.964" transform="translate(83.404 249.102)" fill="#265d3b"/>
        <rect id="Rectangle_1840" data-name="Rectangle 1840" width="3.299" height="6.964" transform="translate(96.599 262.296)" fill="#265d3b"/>
        <rect id="Rectangle_1841" data-name="Rectangle 1841" width="3.299" height="6.964" transform="translate(103.929 262.296)" fill="#265d3b"/>
        <rect id="Rectangle_1842" data-name="Rectangle 1842" width="3.299" height="6.964" transform="translate(96.599 272.559)" fill="#265d3b"/>
        <rect id="Rectangle_1843" data-name="Rectangle 1843" width="3.299" height="6.964" transform="translate(103.929 272.559)" fill="#265d3b"/>
        <rect id="Rectangle_1844" data-name="Rectangle 1844" width="3.299" height="6.964" transform="translate(69.477 260.097)" fill="#265d3b"/>
        <rect id="Rectangle_1845" data-name="Rectangle 1845" width="3.299" height="6.964" transform="translate(76.44 260.097)" fill="#265d3b"/>
        <rect id="Rectangle_1846" data-name="Rectangle 1846" width="2.932" height="6.964" transform="translate(58.115 249.102)" fill="#265d3b"/>
        <rect id="Rectangle_1847" data-name="Rectangle 1847" width="2.932" height="6.964" transform="translate(58.115 260.097)" fill="#265d3b"/>
        <rect id="Rectangle_1848" data-name="Rectangle 1848" width="3.299" height="6.964" transform="translate(83.404 260.097)" fill="#265d3b"/>
        <rect id="Rectangle_1849" data-name="Rectangle 1849" width="3.299" height="6.964" transform="translate(69.477 269.993)" fill="#265d3b"/>
        <rect id="Rectangle_1850" data-name="Rectangle 1850" width="6.231" height="5.498" transform="translate(74.974 275.857)" fill="#265d3b"/>
        <rect id="Rectangle_1851" data-name="Rectangle 1851" width="3.299" height="6.964" transform="translate(83.404 269.993)" fill="#265d3b"/>
        <path id="Path_8376" data-name="Path 8376" d="M374.979,1213.434a3.373,3.373,0,1,1,3.373-3.373,3.377,3.377,0,0,1-3.373,3.373m0-6a2.623,2.623,0,1,0,2.623,2.623,2.626,2.626,0,0,0-2.623-2.623" transform="translate(-299.419 -972.28)" fill="#265d3b"/>
        <rect id="Rectangle_1852" data-name="Rectangle 1852" width="18.736" height="3.076" transform="translate(66.054 242.273)" fill="#265d3b"/>
        <rect id="Rectangle_1853" data-name="Rectangle 1853" width="0.839" height="3.915" transform="translate(75.003 224.934)" fill="#265d3b"/>
        <rect id="Rectangle_1854" data-name="Rectangle 1854" width="0.839" height="3.915" transform="translate(68.428 226.923) rotate(-45)" fill="#265d3b"/>
        <rect id="Rectangle_1855" data-name="Rectangle 1855" width="0.839" height="3.915" transform="matrix(0.359, -0.933, 0.933, 0.359, 65.195, 231.194)" fill="#265d3b"/>
        <rect id="Rectangle_1856" data-name="Rectangle 1856" width="3.915" height="0.839" transform="matrix(0.707, -0.707, 0.707, 0.707, 79.055, 229.098)" fill="#265d3b"/>
        <rect id="Rectangle_1857" data-name="Rectangle 1857" width="3.915" height="0.839" transform="translate(81.694 231.818) rotate(-21.062)" fill="#265d3b"/>
        <g id="Group_2482" data-name="Group 2482" transform="translate(93.438 70.221)" opacity="0.4">
          <g id="Group_2481" data-name="Group 2481">
            <g id="Group_2480" data-name="Group 2480" clip-path="url(#clip-path-11)">
              <path id="Path_8377" data-name="Path 8377" d="M562.782,525.042a81.782,81.782,0,1,1,81.783-81.782,81.875,81.875,0,0,1-81.783,81.782m0-157.511a75.729,75.729,0,1,0,75.729,75.729,75.815,75.815,0,0,0-75.729-75.729" transform="translate(-481 -361.478)" fill="#dfe7e2"/>
            </g>
          </g>
        </g>
        <g id="Group_2485" data-name="Group 2485" transform="translate(49.536 26.318)" opacity="0.2">
          <g id="Group_2484" data-name="Group 2484">
            <g id="Group_2483" data-name="Group 2483" clip-path="url(#clip-path-12)">
              <path id="Path_8378" data-name="Path 8378" d="M380.684,386.847A125.685,125.685,0,1,1,506.369,261.163,125.827,125.827,0,0,1,380.684,386.847m0-242.066A116.382,116.382,0,1,0,497.066,261.163,116.514,116.514,0,0,0,380.684,144.781" transform="translate(-255 -135.478)" fill="#dfe7e2"/>
            </g>
          </g>
        </g>
      </g>
    </g>
  </g>
</svg>
