<svg id="Slide_43" data-name="Slide 43" xmlns="http://www.w3.org/2000/svg" xmlns:xlink="http://www.w3.org/1999/xlink" width="727" height="349.751" viewBox="0 0 727 349.751">
  <defs>
    <clipPath id="clip-path">
      <path id="Path_8381" data-name="Path 8381" d="M712.818,627.117c-34.522,12.262-69.044,24.526-94.936,33.73-12.947,4.6-23.735,8.44-31.287,11.129-3.778,1.345-6.745,2.4-8.769,3.126-1.013.362-1.791.64-2.314.828-1.1.4-2.347.844-2.512,2.823l2.4.3.028,0,.716,2.8c2.7-1.035,239.874-85.244,272.436-96.8q.89-3.384,1.763-6.773c-6.694,2.377-72.106,25.6-137.522,48.835" transform="translate(-573 -578.282)" fill="none"/>
    </clipPath>
    <linearGradient id="linear-gradient" x1="-0.734" y1="0.897" x2="-0.732" y2="0.897" gradientUnits="objectBoundingBox">
      <stop offset="0" stop-color="#ff9d00"/>
      <stop offset="1" stop-color="#114999"/>
    </linearGradient>
    <clipPath id="clip-path-2">
      <path id="Path_8382" data-name="Path 8382" d="M1279.742,585.039l70.342,95.946a2.952,2.952,0,0,0,4.762-3.491l-72.682-99.139c-.725,2.251-1.519,4.49-2.422,6.684" transform="translate(-1279.742 -578.355)" fill="none"/>
    </clipPath>
    <linearGradient id="linear-gradient-2" x1="-3.904" y1="1.045" x2="-3.901" y2="1.045" gradientUnits="objectBoundingBox">
      <stop offset="0" stop-color="#ff9d00"/>
      <stop offset="1" stop-color="#139b60"/>
    </linearGradient>
    <clipPath id="clip-path-3">
      <path id="Path_8384" data-name="Path 8384" d="M429.728,834.98h0Z" transform="translate(-429.728 -834.98)" fill="none"/>
    </clipPath>
    <clipPath id="clip-path-4">
      <path id="Path_8385" data-name="Path 8385" d="M1275,367.113v67.455a2.952,2.952,0,1,0,5.9,0V367.113a2.952,2.952,0,1,0-5.9,0" transform="translate(-1275 -364.161)" fill="none"/>
    </clipPath>
    <linearGradient id="linear-gradient-3" x1="-85" y1="2.814" x2="-84.933" y2="2.814" gradientUnits="objectBoundingBox">
      <stop offset="0" stop-color="#265d3b"/>
      <stop offset="1" stop-color="#ff9d00"/>
    </linearGradient>
    <clipPath id="clip-path-5">
      <rect id="Rectangle_1890" data-name="Rectangle 1890" width="727" height="349.752" fill="none"/>
    </clipPath>
    <clipPath id="clip-path-6">
      <path id="Path_8548" data-name="Path 8548" d="M198.37,149.137l4.107,1.694c-1.966,6.845-3.444,16.553-.808,26.833,3.184,12.416,11.541,22.9,24.845,31.181l-2.061,3.9,14.706-.554-7.832-12.461-2.048,3.877c-25.559-16.133-24.833-37.636-21.307-50.511l4,1.652-1.945-14.589Z" transform="translate(-198.37 -140.16)" fill="none"/>
    </clipPath>
    <linearGradient id="linear-gradient-4" x1="-0.912" y1="3.604" x2="-0.906" y2="3.604" gradientUnits="objectBoundingBox">
      <stop offset="0" stop-color="#3b265d"/>
      <stop offset="1" stop-color="#265d3b"/>
    </linearGradient>
    <clipPath id="clip-path-7">
      <path id="Path_8549" data-name="Path 8549" d="M1079.8,182.956a2.952,2.952,0,0,0,0,4.175l8.906,8.907a2.952,2.952,0,0,0,4.175-4.175l-8.906-8.906a2.952,2.952,0,0,0-4.175,0m-17.813-17.813a2.952,2.952,0,0,0,0,4.175l8.907,8.907a2.952,2.952,0,1,0,4.175-4.175l-8.906-8.907a2.952,2.952,0,0,0-4.175,0" transform="translate(-1061.117 -164.278)" fill="none"/>
    </clipPath>
    <linearGradient id="linear-gradient-5" x1="-8.824" y1="6.276" x2="-8.815" y2="6.276" xlink:href="#linear-gradient-4"/>
    <clipPath id="clip-path-8">
      <path id="Path_8550" data-name="Path 8550" d="M1037.309,150.876l10.407-10.407L1033.5,136.66Z" transform="translate(-1033.501 -136.66)" fill="none"/>
    </clipPath>
    <linearGradient id="linear-gradient-6" x1="-20.09" y1="14.869" x2="-20.07" y2="14.869" xlink:href="#linear-gradient-4"/>
  </defs>
  <rect id="Rectangle_1862" data-name="Rectangle 1862" width="41.229" height="5.117" transform="translate(462.887 26.239)" fill="#3b265d"/>
  <path id="Path_8379" data-name="Path 8379" d="M1275.815,69.575l11.488-6.632-11.488-6.634Z" transform="translate(-773.64 -34.145)" fill="#3b265d"/>
  <rect id="Rectangle_1863" data-name="Rectangle 1863" width="36.506" height="5.117" transform="translate(211.369 26.239)" fill="#3b265d"/>
  <path id="Path_8380" data-name="Path 8380" d="M624.815,69.575,636.3,62.943l-11.488-6.634Z" transform="translate(-378.881 -34.145)" fill="#3b265d"/>
  <g id="Group_2491" data-name="Group 2491" transform="translate(225.539 227.618)">
    <g id="Group_2490" data-name="Group 2490" clip-path="url(#clip-path)">
      <rect id="Rectangle_1864" data-name="Rectangle 1864" width="295.253" height="177.139" transform="translate(-27.86 8.132) rotate(-16.272)" fill="url(#linear-gradient)"/>
    </g>
  </g>
  <g id="Group_2493" data-name="Group 2493" transform="translate(503.721 227.647)">
    <g id="Group_2492" data-name="Group 2492" clip-path="url(#clip-path-2)">
      <rect id="Rectangle_1865" data-name="Rectangle 1865" width="123.002" height="128.715" transform="translate(-49.721 36.972) rotate(-36.634)" fill="url(#linear-gradient-2)"/>
    </g>
  </g>
  <g id="Group_2495" data-name="Group 2495" transform="translate(169.146 328.658)">
    <g id="Group_2494" data-name="Group 2494" clip-path="url(#clip-path-3)">
      <path id="Path_8383" data-name="Path 8383" d="M429.728,834.98h0Z" transform="translate(-429.728 -834.98)" fill="#fff"/>
    </g>
  </g>
  <g id="Group_2497" data-name="Group 2497" transform="translate(501.854 143.338)">
    <g id="Group_2496" data-name="Group 2496" clip-path="url(#clip-path-4)">
      <rect id="Rectangle_1866" data-name="Rectangle 1866" width="5.904" height="73.359" transform="translate(0 0)" fill="url(#linear-gradient-3)"/>
    </g>
  </g>
  <g id="Group_2499" data-name="Group 2499">
    <g id="Group_2498" data-name="Group 2498" clip-path="url(#clip-path-5)">
      <path id="Path_8386" data-name="Path 8386" d="M943.346,571.954H825.464a2.952,2.952,0,0,1,0-5.9H943.346a2.952,2.952,0,0,1,0,5.9" transform="translate(-498.762 -343.246)" fill="#ff9d00"/>
      <rect id="Rectangle_1867" data-name="Rectangle 1867" width="182.383" height="40.025" transform="translate(30.065 10.052)" fill="#3b265d"/>
      <path id="Path_8387" data-name="Path 8387" d="M60.768,31.884A28.884,28.884,0,1,0,31.884,60.769,28.885,28.885,0,0,0,60.768,31.884" transform="translate(-1.819 -1.819)" fill="#3b265d"/>
      <path id="Path_8388" data-name="Path 8388" d="M30.065,60.13A30.065,30.065,0,1,1,60.13,30.065,30.1,30.1,0,0,1,30.065,60.13m0-57.768a27.7,27.7,0,1,0,27.7,27.7,27.735,27.735,0,0,0-27.7-27.7" fill="#fff"/>
      <path id="Path_8389" data-name="Path 8389" d="M191.618,73.352l-.5-1.91H187.8l-.516,1.91h-3.026l3.325-10.235h3.674l3.367,10.235Zm-1.074-4.169-.439-1.673q-.153-.558-.373-1.443t-.289-1.269q-.063.355-.248,1.171t-.819,3.214Z" transform="translate(-111.735 -38.273)" fill="#fff"/>
      <path id="Path_8390" data-name="Path 8390" d="M216.911,67.223h4.4v5.494a12.083,12.083,0,0,1-3.939.614,4.76,4.76,0,0,1-3.643-1.367,5.469,5.469,0,0,1-1.286-3.9,5.119,5.119,0,0,1,1.408-3.841,5.414,5.414,0,0,1,3.946-1.373,8.732,8.732,0,0,1,1.816.181,7.68,7.68,0,0,1,1.489.46l-.871,2.161a5.39,5.39,0,0,0-2.419-.544,2.3,2.3,0,0,0-1.865.784,3.393,3.393,0,0,0-.659,2.241,3.436,3.436,0,0,0,.6,2.179,2.066,2.066,0,0,0,1.719.749,5.042,5.042,0,0,0,1.13-.118v-1.6h-1.82Z" transform="translate(-128.822 -38.113)" fill="#fff"/>
      <path id="Path_8391" data-name="Path 8391" d="M246.3,73.416H240.25V63.224H246.3v2.21H243v1.6h3.054v2.21H243v1.924h3.3Z" transform="translate(-145.685 -38.338)" fill="#fff"/>
      <path id="Path_8392" data-name="Path 8392" d="M269.864,73.417h-3.611l-3.723-7.181h-.063q.132,1.695.132,2.587v4.594h-2.44V63.224h3.6l3.709,7.083h.042q-.1-1.541-.1-2.475V63.224h2.454Z" transform="translate(-157.757 -38.338)" fill="#fff"/>
      <path id="Path_8393" data-name="Path 8393" d="M293.759,73.416h-2.754V65.475h-2.489V63.224h7.725v2.252h-2.482Z" transform="translate(-174.953 -38.338)" fill="#fff"/>
      <path id="Path_8394" data-name="Path 8394" d="M317.895,73.416h-6.052V63.224h6.052v2.21h-3.3v1.6h3.054v2.21H314.6v1.924h3.3Z" transform="translate(-189.098 -38.338)" fill="#fff"/>
      <path id="Path_8395" data-name="Path 8395" d="M344.766,62.852l-3.8,10.478h-2.412l3.8-10.478Z" transform="translate(-205.295 -38.112)" fill="#fff"/>
      <path id="Path_8396" data-name="Path 8396" d="M372.562,70.095a3,3,0,0,1-.481,1.683,3.149,3.149,0,0,1-1.387,1.143,5.141,5.141,0,0,1-2.126.408,8.6,8.6,0,0,1-1.708-.143,6.338,6.338,0,0,1-1.436-.5V70.234a8.172,8.172,0,0,0,1.638.631,6.1,6.1,0,0,0,1.562.227,1.517,1.517,0,0,0,.9-.213.654.654,0,0,0,.286-.548.6.6,0,0,0-.115-.366,1.329,1.329,0,0,0-.37-.317q-.255-.161-1.356-.655a6.521,6.521,0,0,1-1.5-.879,2.7,2.7,0,0,1-.739-.976,3.241,3.241,0,0,1-.24-1.3,2.612,2.612,0,0,1,1.025-2.2,4.514,4.514,0,0,1,2.816-.788,7.9,7.9,0,0,1,3.228.732l-.844,2.126a6.12,6.12,0,0,0-2.468-.655,1.287,1.287,0,0,0-.781.188.569.569,0,0,0-.244.467.675.675,0,0,0,.31.537,11.8,11.8,0,0,0,1.684.864,4.657,4.657,0,0,1,1.83,1.273,2.762,2.762,0,0,1,.512,1.711" transform="translate(-221.588 -38.112)" fill="#fff"/>
      <path id="Path_8397" data-name="Path 8397" d="M396.144,63.224v6.135a4.114,4.114,0,0,1-1.133,3.1,4.506,4.506,0,0,1-3.267,1.1,4.461,4.461,0,0,1-3.2-1.067,4.039,4.039,0,0,1-1.119-3.067v-6.2h2.768v5.982a2.45,2.45,0,0,0,.4,1.569,1.743,1.743,0,0,0,2.416,0,2.593,2.593,0,0,0,.38-1.586V63.224Z" transform="translate(-234.928 -38.338)" fill="#fff"/>
      <path id="Path_8398" data-name="Path 8398" d="M410.778,76.616a6.741,6.741,0,0,1-1.429-.146V74.329c.149.028.307.059.474.095a2.715,2.715,0,0,0,.544.052,1.116,1.116,0,0,0,.976-.412,2.522,2.522,0,0,0,.293-1.408V63.224H414.4v9.2a4.717,4.717,0,0,1-.906,3.134,3.374,3.374,0,0,1-2.719,1.063" transform="translate(-248.225 -38.338)" fill="#fff"/>
      <path id="Path_8399" data-name="Path 8399" d="M433.839,73.416h-6.052V63.224h6.052v2.21h-3.3v1.6h3.054v2.21h-3.054v1.924h3.3Z" transform="translate(-259.405 -38.338)" fill="#fff"/>
      <rect id="Rectangle_1868" data-name="Rectangle 1868" width="2.768" height="10.193" transform="translate(176.218 24.886)" fill="#fff"/>
      <path id="Path_8400" data-name="Path 8400" d="M463.673,73.416h-2.754V65.475H458.43V63.224h7.725v2.252h-2.482Z" transform="translate(-277.987 -38.338)" fill="#fff"/>
      <path id="Path_8401" data-name="Path 8401" d="M490.714,68.059a5.5,5.5,0,0,1-1.262,3.911,5.733,5.733,0,0,1-7.372-.007,5.474,5.474,0,0,1-1.279-3.918,5.439,5.439,0,0,1,1.272-3.887,5.77,5.77,0,0,1,7.387-.011,5.5,5.5,0,0,1,1.255,3.911m-7.013,0q0,2.956,2.057,2.956a1.768,1.768,0,0,0,1.551-.718A5.214,5.214,0,0,0,487.3,65.8a1.748,1.748,0,0,0-1.53-.729q-2.071,0-2.07,2.984" transform="translate(-291.552 -38.091)" fill="#fff"/>
      <path id="Path_8402" data-name="Path 8402" d="M71.91,32.813a8.134,8.134,0,1,1-8.134-8.134,8.134,8.134,0,0,1,8.134,8.134" transform="translate(-33.74 -14.965)" fill="#fff" fill-rule="evenodd"/>
      <path id="Path_8403" data-name="Path 8403" d="M67.059,83.922H33.344c0-8.456,4.923-13.807,11.024-15.734A11.131,11.131,0,0,0,50.255,69.9a10.493,10.493,0,0,0,5.78-1.713c6.1,1.927,11.024,7.278,11.024,15.734Z" transform="translate(-20.219 -41.348)" fill="#fff" fill-rule="evenodd"/>
      <rect id="Rectangle_1869" data-name="Rectangle 1869" width="182.383" height="40.025" transform="translate(287.341 10.052)" fill="#3b265d"/>
      <path id="Path_8404" data-name="Path 8404" d="M714.4,31.884a28.884,28.884,0,1,0-28.884,28.884A28.884,28.884,0,0,0,714.4,31.884" transform="translate(-398.172 -1.819)" fill="#3b265d"/>
      <path id="Path_8405" data-name="Path 8405" d="M683.695,60.13A30.065,30.065,0,1,1,713.76,30.065,30.1,30.1,0,0,1,683.695,60.13m0-57.768a27.7,27.7,0,1,0,27.7,27.7,27.734,27.734,0,0,0-27.7-27.7" transform="translate(-396.354)" fill="#fff"/>
      <path id="Path_8406" data-name="Path 8406" d="M943.266,68.059A5.5,5.5,0,0,1,942,71.97a5.734,5.734,0,0,1-7.373-.007,5.474,5.474,0,0,1-1.279-3.918,5.44,5.44,0,0,1,1.272-3.887,5.77,5.77,0,0,1,7.387-.011,5.5,5.5,0,0,1,1.255,3.911m-7.014,0q0,2.956,2.057,2.956a1.767,1.767,0,0,0,1.551-.718,5.213,5.213,0,0,0-.007-4.493,1.748,1.748,0,0,0-1.53-.729q-2.071,0-2.071,2.984" transform="translate(-565.974 -38.091)" fill="#fff"/>
      <path id="Path_8407" data-name="Path 8407" d="M963.215,63.224h3.555a6.046,6.046,0,0,1,3.085.617,2.092,2.092,0,0,1,1.008,1.921,2.428,2.428,0,0,1-.439,1.464,1.958,1.958,0,0,1-1.157.781v.07a2.374,2.374,0,0,1,1.373.837,2.526,2.526,0,0,1,.425,1.52,2.6,2.6,0,0,1-1.042,2.186,4.566,4.566,0,0,1-2.841.8h-3.967Zm2.754,3.911h.829a1.5,1.5,0,0,0,.917-.244.85.85,0,0,0,.324-.725q0-.857-1.3-.857h-.774Zm0,2.015v2.14h.969q1.29,0,1.289-1.088a.935.935,0,0,0-.345-.781,1.588,1.588,0,0,0-1-.272Z" transform="translate(-584.083 -38.338)" fill="#fff"/>
      <path id="Path_8408" data-name="Path 8408" d="M983.418,76.616a6.743,6.743,0,0,1-1.429-.146V74.329c.149.028.307.059.474.095a2.713,2.713,0,0,0,.544.052,1.116,1.116,0,0,0,.976-.412,2.522,2.522,0,0,0,.293-1.408V63.224h2.768v9.2a4.715,4.715,0,0,1-.906,3.134,3.373,3.373,0,0,1-2.719,1.063" transform="translate(-595.467 -38.338)" fill="#fff"/>
      <path id="Path_8409" data-name="Path 8409" d="M1006.479,73.416h-6.051V63.224h6.051v2.21h-3.3v1.6h3.054v2.21h-3.054v1.924h3.3Z" transform="translate(-606.648 -38.338)" fill="#fff"/>
      <path id="Path_8410" data-name="Path 8410" d="M1023.683,73.416h-2.754V65.475h-2.489V63.224h7.725v2.252h-2.482Z" transform="translate(-617.571 -38.338)" fill="#fff"/>
      <path id="Path_8411" data-name="Path 8411" d="M1050.725,68.059a5.5,5.5,0,0,1-1.262,3.911,5.734,5.734,0,0,1-7.373-.007,5.473,5.473,0,0,1-1.279-3.918,5.441,5.441,0,0,1,1.272-3.887,5.771,5.771,0,0,1,7.387-.011,5.5,5.5,0,0,1,1.255,3.911m-7.014,0q0,2.956,2.057,2.956a1.767,1.767,0,0,0,1.551-.718,5.213,5.213,0,0,0-.007-4.493,1.747,1.747,0,0,0-1.53-.729q-2.071,0-2.071,2.984" transform="translate(-631.136 -38.091)" fill="#fff"/>
      <path id="Path_8412" data-name="Path 8412" d="M709.65,25.243a.61.61,0,0,1,.369-.082,1.2,1.2,0,0,1,.369.082l12.745,7.376-13.114,7.54-13.114-7.54ZM695.881,50.4a.761.761,0,0,1-.369-.614V35.037l13.114,7.581V57.74Zm28.276,0-12.745,7.376V42.618l13.114-7.581V49.749a.739.739,0,0,1-.369.656Z" transform="translate(-421.751 -15.257)" fill="#fff"/>
      <rect id="Rectangle_1870" data-name="Rectangle 1870" width="182.383" height="40.025" transform="translate(544.617 10.052)" fill="#3b265d"/>
      <path id="Path_8413" data-name="Path 8413" d="M1368.027,31.884a28.884,28.884,0,1,0-28.884,28.884,28.885,28.885,0,0,0,28.884-28.884" transform="translate(-794.526 -1.819)" fill="#3b265d"/>
      <path id="Path_8414" data-name="Path 8414" d="M1337.324,60.13a30.065,30.065,0,1,1,30.065-30.065,30.1,30.1,0,0,1-30.065,30.065m0-57.768a27.7,27.7,0,1,0,27.7,27.7,27.735,27.735,0,0,0-27.7-27.7" transform="translate(-792.707)" fill="#fff"/>
      <path id="Path_8415" data-name="Path 8415" d="M1573.124,66.466a3.413,3.413,0,0,1-1.007,2.639,4.064,4.064,0,0,1-2.862.931h-.774v3.381h-2.754V63.224h3.528a4.312,4.312,0,0,1,2.9.844,3.009,3.009,0,0,1,.969,2.4m-4.643,1.325h.5a1.372,1.372,0,0,0,.986-.348,1.266,1.266,0,0,0,.366-.962q0-1.031-1.143-1.032h-.711Z" transform="translate(-949.439 -38.338)" fill="#fff"/>
      <path id="Path_8416" data-name="Path 8416" d="M1591.4,69.708v3.709h-2.754V63.224h3.339q4.155,0,4.155,3.012a3.009,3.009,0,0,1-1.73,2.74l2.97,4.441h-3.123l-2.161-3.709Zm0-2.071h.516q1.443,0,1.443-1.276,0-1.053-1.415-1.053h-.544Z" transform="translate(-963.337 -38.338)" fill="#fff"/>
      <path id="Path_8417" data-name="Path 8417" d="M1622.152,68.059a5.5,5.5,0,0,1-1.262,3.911,5.734,5.734,0,0,1-7.373-.007,5.473,5.473,0,0,1-1.279-3.918,5.44,5.44,0,0,1,1.272-3.887,5.77,5.77,0,0,1,7.387-.011,5.5,5.5,0,0,1,1.255,3.911m-7.014,0q0,2.956,2.057,2.956a1.767,1.767,0,0,0,1.551-.718,5.213,5.213,0,0,0-.007-4.493,1.747,1.747,0,0,0-1.53-.729q-2.071,0-2.071,2.984" transform="translate(-977.643 -38.091)" fill="#fff"/>
      <path id="Path_8418" data-name="Path 8418" d="M1650.753,68.1a5.265,5.265,0,0,1-1.405,3.932,5.394,5.394,0,0,1-3.949,1.38h-3.3V63.224h3.527a5.322,5.322,0,0,1,3.789,1.255,4.735,4.735,0,0,1,1.335,3.625m-2.858.1a3.241,3.241,0,0,0-.554-2.077,2.049,2.049,0,0,0-1.684-.677h-.8v5.71h.614a2.221,2.221,0,0,0,1.841-.729,3.52,3.52,0,0,0,.586-2.227" transform="translate(-995.752 -38.338)" fill="#fff"/>
      <path id="Path_8419" data-name="Path 8419" d="M1677.3,63.224v6.135a4.114,4.114,0,0,1-1.133,3.1,5.375,5.375,0,0,1-6.469.031,4.037,4.037,0,0,1-1.119-3.067v-6.2h2.767v5.982a2.453,2.453,0,0,0,.4,1.569,1.743,1.743,0,0,0,2.416,0,2.593,2.593,0,0,0,.38-1.586V63.224Z" transform="translate(-1011.809 -38.338)" fill="#fff"/>
      <path id="Path_8420" data-name="Path 8420" d="M1699.524,73.416h-2.754V65.475h-2.489V63.224h7.725v2.252h-2.482Z" transform="translate(-1027.393 -38.338)" fill="#fff"/>
      <path id="Path_8421" data-name="Path 8421" d="M1726.565,68.059a5.5,5.5,0,0,1-1.262,3.911,5.734,5.734,0,0,1-7.373-.007,5.474,5.474,0,0,1-1.279-3.918,5.441,5.441,0,0,1,1.272-3.887,5.771,5.771,0,0,1,7.387-.011,5.5,5.5,0,0,1,1.255,3.911m-7.014,0q0,2.956,2.057,2.956a1.767,1.767,0,0,0,1.551-.718,5.213,5.213,0,0,0-.007-4.493,1.747,1.747,0,0,0-1.53-.729q-2.071,0-2.071,2.984" transform="translate(-1040.958 -38.091)" fill="#fff"/>
      <path id="Path_8422" data-name="Path 8422" d="M1368,52.433l-8.819-5.1V37.594L1368,42.555Zm10.079-5.1-8.819,5.1V42.555l8.819-4.96Z" transform="translate(-824.193 -22.797)" fill="#fff"/>
      <path id="Path_8423" data-name="Path 8423" d="M1369.641,22.29l-8.793,4.947,8.793,4.947,8.794-4.947Z" transform="translate(-825.202 -13.517)" fill="#fff"/>
      <path id="Path_8424" data-name="Path 8424" d="M1353.744,69.954V64.394a8.072,8.072,0,0,0-4.058-6.99.888.888,0,0,1-.189-.144l-4.42-4.913a1.138,1.138,0,0,0-.819-.378,1.172,1.172,0,0,0-.84.335,1.144,1.144,0,0,0-.038,1.58l5.161,5.678-.932.847-5.161-5.678a2.395,2.395,0,0,1-.042-3.171V42.519a1.26,1.26,0,0,0-2.52,0V54.442a4.426,4.426,0,0,0,.555,2.142l5.665,10.2a.626.626,0,0,1,.079.305v2.868Z" transform="translate(-812.492 -25.019)" fill="#fff"/>
      <path id="Path_8425" data-name="Path 8425" d="M1348.117,52.864c.813-2.423,1.753-5.692,2.122-6.993a1.08,1.08,0,0,0-2.078-.589l-.044.155Z" transform="translate(-817.483 -26.982)" fill="#fff"/>
      <path id="Path_8426" data-name="Path 8426" d="M1391.281,69.954V64.394a8.073,8.073,0,0,1,4.058-6.99.889.889,0,0,0,.189-.144l4.42-4.913a1.138,1.138,0,0,1,.819-.378,1.172,1.172,0,0,1,.84.335,1.144,1.144,0,0,1,.038,1.58l-5.161,5.678.932.847,5.161-5.678a2.395,2.395,0,0,0,.042-3.171V42.519a1.26,1.26,0,0,1,2.52,0V54.442a4.426,4.426,0,0,1-.555,2.142l-5.665,10.2a.626.626,0,0,0-.08.305v2.868Z" transform="translate(-843.657 -25.019)" fill="#fff"/>
      <path id="Path_8427" data-name="Path 8427" d="M1414.926,52.864c-.813-2.423-1.753-5.692-2.122-6.993a1.08,1.08,0,0,1,2.078-.589l.044.155Z" transform="translate(-856.683 -26.982)" fill="#fff"/>
      <rect id="Rectangle_1871" data-name="Rectangle 1871" width="198.063" height="61.482" transform="translate(124.145 98.459)" fill="#265d3b"/>
      <path id="Path_8428" data-name="Path 8428" d="M514.423,313.409H324.612a.825.825,0,0,1-.825-.825V259.354a.825.825,0,0,1,.825-.825H514.423a.825.825,0,0,1,.825.825v53.229a.825.825,0,0,1-.825.825m-188.985-1.65H513.6V260.18H325.437Z" transform="translate(-196.341 -156.769)" fill="#fff"/>
      <rect id="Rectangle_1872" data-name="Rectangle 1872" width="2.768" height="10.193" transform="translate(151.481 114.938)" fill="#fff"/>
      <path id="Path_8429" data-name="Path 8429" d="M407.183,302.2h-3.611l-3.723-7.181h-.063q.132,1.695.132,2.587V302.2h-2.44V292.008h3.6l3.709,7.083h.042q-.1-1.541-.1-2.475v-4.608h2.454Z" transform="translate(-241.026 -177.07)" fill="#fff"/>
      <path id="Path_8430" data-name="Path 8430" d="M431.078,302.2h-2.754V294.26h-2.489v-2.252h7.725v2.252h-2.482Z" transform="translate(-258.222 -177.071)" fill="#fff"/>
      <path id="Path_8431" data-name="Path 8431" d="M455.213,302.2h-6.052V292.008h6.052v2.21h-3.3v1.6h3.054v2.21h-3.054v1.924h3.3Z" transform="translate(-272.366 -177.071)" fill="#fff"/>
      <path id="Path_8432" data-name="Path 8432" d="M478.776,302.2h-3.611l-3.723-7.181h-.063q.132,1.695.132,2.587V302.2h-2.44V292.008h3.6l3.709,7.083h.042q-.1-1.541-.1-2.475v-4.608h2.454Z" transform="translate(-284.439 -177.07)" fill="#fff"/>
      <path id="Path_8433" data-name="Path 8433" d="M503.282,293.895a1.756,1.756,0,0,0-1.534.8,3.887,3.887,0,0,0-.551,2.221q0,2.942,2.238,2.942a4.583,4.583,0,0,0,1.311-.189,13.091,13.091,0,0,0,1.276-.453v2.329a7.064,7.064,0,0,1-2.886.564,4.566,4.566,0,0,1-3.538-1.338,5.522,5.522,0,0,1-1.23-3.87,6.176,6.176,0,0,1,.6-2.782,4.269,4.269,0,0,1,1.715-1.844,5.183,5.183,0,0,1,2.632-.645,7.257,7.257,0,0,1,3.158.718l-.844,2.168a9.568,9.568,0,0,0-1.129-.446,3.948,3.948,0,0,0-1.213-.181" transform="translate(-302.204 -176.845)" fill="#fff"/>
      <rect id="Rectangle_1873" data-name="Rectangle 1873" width="2.768" height="10.193" transform="translate(205.805 114.938)" fill="#fff"/>
      <path id="Path_8434" data-name="Path 8434" d="M544.449,296.843a5.5,5.5,0,0,1-1.262,3.911,5.733,5.733,0,0,1-7.372-.007,6.606,6.606,0,0,1-.007-7.8,5.77,5.77,0,0,1,7.387-.011,5.5,5.5,0,0,1,1.255,3.911m-7.013,0q0,2.956,2.057,2.956a1.768,1.768,0,0,0,1.551-.718,5.213,5.213,0,0,0-.007-4.493,1.748,1.748,0,0,0-1.53-.729q-2.071,0-2.07,2.984" transform="translate(-324.137 -176.823)" fill="#fff"/>
      <path id="Path_8435" data-name="Path 8435" d="M574.1,302.2h-3.611l-3.723-7.181h-.063q.132,1.695.132,2.587V302.2H564.4V292.008H568l3.709,7.083h.042q-.1-1.541-.1-2.475v-4.608H574.1Z" transform="translate(-342.245 -177.07)" fill="#fff"/>
      <path id="Path_8436" data-name="Path 8436" d="M599.207,302.136l-.5-1.911h-3.312l-.516,1.911h-3.026l3.325-10.235h3.674l3.367,10.235Zm-1.074-4.169-.439-1.673q-.153-.558-.373-1.443t-.289-1.269q-.063.356-.248,1.171t-.819,3.214Z" transform="translate(-358.892 -177.005)" fill="#fff"/>
      <path id="Path_8437" data-name="Path 8437" d="M620.988,302.2V292.008h2.754v7.969h3.925V302.2Z" transform="translate(-376.56 -177.071)" fill="#fff"/>
      <rect id="Rectangle_1874" data-name="Rectangle 1874" width="2.768" height="10.193" transform="translate(252.738 114.938)" fill="#fff"/>
      <path id="Path_8438" data-name="Path 8438" d="M663.382,296.889a5.266,5.266,0,0,1-1.4,3.932,5.4,5.4,0,0,1-3.95,1.38h-3.3V292.009h3.528a5.322,5.322,0,0,1,3.789,1.255,4.735,4.735,0,0,1,1.335,3.625m-2.858.1a3.241,3.241,0,0,0-.554-2.077,2.05,2.05,0,0,0-1.684-.677h-.8v5.71h.614a2.222,2.222,0,0,0,1.841-.729,3.519,3.519,0,0,0,.586-2.227" transform="translate(-397.021 -177.071)" fill="#fff"/>
      <path id="Path_8439" data-name="Path 8439" d="M685.909,302.136l-.5-1.911H682.1l-.516,1.911h-3.026l3.325-10.235h3.674l3.367,10.235Zm-1.074-4.169-.439-1.673q-.153-.558-.373-1.443t-.289-1.269q-.063.356-.248,1.171t-.819,3.214Z" transform="translate(-411.467 -177.005)" fill="#fff"/>
      <path id="Path_8440" data-name="Path 8440" d="M716.342,296.889a5.266,5.266,0,0,1-1.4,3.932,5.4,5.4,0,0,1-3.949,1.38h-3.3V292.009h3.528a5.322,5.322,0,0,1,3.789,1.255,4.736,4.736,0,0,1,1.335,3.625m-2.858.1a3.24,3.24,0,0,0-.554-2.077,2.05,2.05,0,0,0-1.684-.677h-.8v5.71h.614a2.221,2.221,0,0,0,1.841-.729,3.519,3.519,0,0,0,.586-2.227" transform="translate(-429.135 -177.071)" fill="#fff"/>
      <path id="Path_8441" data-name="Path 8441" d="M740.362,302.2H734.31V292.008h6.052v2.21h-3.3v1.6h3.054v2.21h-3.054v1.924h3.3Z" transform="translate(-445.278 -177.071)" fill="#fff"/>
      <path id="Path_8442" data-name="Path 8442" d="M461.244,345.73h-2.712V335.538h6.024v2.21h-3.312v1.945H464.3v2.21h-3.054Z" transform="translate(-278.049 -203.466)" fill="#fff"/>
      <rect id="Rectangle_1875" data-name="Rectangle 1875" width="2.768" height="10.193" transform="translate(188.18 132.072)" fill="#fff"/>
      <path id="Path_8443" data-name="Path 8443" d="M500.42,345.731h-3.611l-3.723-7.181h-.063q.132,1.695.132,2.587v4.594h-2.44V335.538h3.6l3.709,7.083h.042q-.1-1.541-.1-2.475v-4.608h2.454Z" transform="translate(-297.564 -203.466)" fill="#fff"/>
      <path id="Path_8444" data-name="Path 8444" d="M525.524,345.666l-.5-1.91H521.71l-.516,1.91h-3.026l3.325-10.235h3.674l3.367,10.235ZM524.45,341.5l-.439-1.673q-.153-.558-.373-1.443t-.289-1.269q-.063.355-.248,1.171t-.819,3.214Z" transform="translate(-314.212 -203.402)" fill="#fff"/>
      <path id="Path_8445" data-name="Path 8445" d="M547.305,345.73V335.538h2.754v7.969h3.925v2.224Z" transform="translate(-331.88 -203.466)" fill="#fff"/>
      <rect id="Rectangle_1876" data-name="Rectangle 1876" width="2.768" height="10.193" transform="translate(223.736 132.072)" fill="#fff"/>
      <path id="Path_8446" data-name="Path 8446" d="M589.7,340.418a5.266,5.266,0,0,1-1.4,3.932,5.4,5.4,0,0,1-3.95,1.38h-3.3V335.538h3.528a5.322,5.322,0,0,1,3.789,1.255,4.736,4.736,0,0,1,1.335,3.625m-2.858.1a3.24,3.24,0,0,0-.554-2.077,2.05,2.05,0,0,0-1.684-.677h-.8v5.71h.614a2.222,2.222,0,0,0,1.841-.729,3.519,3.519,0,0,0,.586-2.227" transform="translate(-352.34 -203.466)" fill="#fff"/>
      <path id="Path_8447" data-name="Path 8447" d="M612.226,345.666l-.5-1.91h-3.312l-.516,1.91h-3.026l3.325-10.235h3.674l3.367,10.235Zm-1.074-4.169-.439-1.673q-.153-.558-.373-1.443t-.289-1.269q-.063.355-.248,1.171t-.819,3.214Z" transform="translate(-366.787 -203.402)" fill="#fff"/>
      <path id="Path_8448" data-name="Path 8448" d="M642.659,340.418a5.266,5.266,0,0,1-1.4,3.932,5.4,5.4,0,0,1-3.949,1.38h-3.3V335.538h3.528a5.322,5.322,0,0,1,3.789,1.255,4.736,4.736,0,0,1,1.335,3.625m-2.858.1a3.24,3.24,0,0,0-.554-2.077,2.05,2.05,0,0,0-1.684-.677h-.8v5.71h.614a2.221,2.221,0,0,0,1.841-.729,3.519,3.519,0,0,0,.586-2.227" transform="translate(-384.455 -203.466)" fill="#fff"/>
      <path id="Path_8449" data-name="Path 8449" d="M666.679,345.73h-6.052V335.538h6.052v2.21h-3.3v1.6h3.054v2.21h-3.054v1.924h3.3Z" transform="translate(-400.597 -203.466)" fill="#fff"/>
      <rect id="Rectangle_1877" data-name="Rectangle 1877" width="198.063" height="61.482" transform="translate(405.973 98.459)" fill="#265d3b"/>
      <path id="Path_8450" data-name="Path 8450" d="M1230.427,313.409H1040.616a.825.825,0,0,1-.825-.825V259.354a.825.825,0,0,1,.825-.825h189.811a.825.825,0,0,1,.825.825v53.229a.825.825,0,0,1-.825.825m-188.985-1.65H1229.6V260.18h-188.16Z" transform="translate(-630.518 -156.769)" fill="#fff"/>
      <path id="Path_8451" data-name="Path 8451" d="M1073.36,323.9l-.5-1.91h-3.311l-.516,1.91h-3.026l3.325-10.235H1073l3.367,10.235Zm-1.074-4.169-.439-1.673q-.153-.558-.373-1.443t-.29-1.269q-.063.355-.248,1.171t-.819,3.214Z" transform="translate(-646.413 -190.204)" fill="#fff"/>
      <path id="Path_8452" data-name="Path 8452" d="M1098.489,323.966h-2.754v-7.941h-2.489v-2.252h7.725v2.252h-2.482Z" transform="translate(-662.932 -190.268)" fill="#fff"/>
      <rect id="Rectangle_1878" data-name="Rectangle 1878" width="2.767" height="10.193" transform="translate(439.496 123.505)" fill="#fff"/>
      <path id="Path_8453" data-name="Path 8453" d="M1133.228,313.773h3.082l-3.339,10.193h-3.242l-3.325-10.193h3.1l1.387,5.166a15.776,15.776,0,0,1,.474,2.4q.048-.488.195-1.22t.258-1.151Z" transform="translate(-683.038 -190.268)" fill="#fff"/>
      <rect id="Rectangle_1879" data-name="Rectangle 1879" width="2.767" height="10.193" transform="translate(454.373 123.505)" fill="#fff"/>
      <path id="Path_8454" data-name="Path 8454" d="M1175.652,318.653a5.265,5.265,0,0,1-1.405,3.932,5.4,5.4,0,0,1-3.949,1.38H1167V313.773h3.528a5.322,5.322,0,0,1,3.789,1.255,4.735,4.735,0,0,1,1.335,3.625m-2.858.1a3.241,3.241,0,0,0-.554-2.077,2.049,2.049,0,0,0-1.684-.677h-.8v5.71h.614a2.221,2.221,0,0,0,1.84-.729,3.518,3.518,0,0,0,.586-2.227" transform="translate(-707.656 -190.268)" fill="#fff"/>
      <path id="Path_8455" data-name="Path 8455" d="M1198.177,323.9l-.5-1.91h-3.311l-.516,1.91h-3.026l3.325-10.235h3.674l3.367,10.235Zm-1.074-4.169-.439-1.673q-.154-.558-.373-1.443t-.29-1.269q-.063.355-.248,1.171t-.819,3.214Z" transform="translate(-722.101 -190.204)" fill="#fff"/>
      <path id="Path_8456" data-name="Path 8456" d="M1228.611,318.653a5.265,5.265,0,0,1-1.405,3.932,5.4,5.4,0,0,1-3.949,1.38h-3.3V313.773h3.528a5.322,5.322,0,0,1,3.789,1.255,4.736,4.736,0,0,1,1.335,3.625m-2.858.1a3.24,3.24,0,0,0-.554-2.077,2.049,2.049,0,0,0-1.684-.677h-.8v5.71h.614a2.221,2.221,0,0,0,1.84-.729,3.519,3.519,0,0,0,.586-2.227" transform="translate(-739.769 -190.268)" fill="#fff"/>
      <path id="Path_8457" data-name="Path 8457" d="M1252.631,323.966h-6.051V313.773h6.051v2.21h-3.3v1.6h3.054v2.21h-3.054v1.924h3.3Z" transform="translate(-755.912 -190.268)" fill="#fff"/>
      <path id="Path_8458" data-name="Path 8458" d="M1279.5,313.4l-3.8,10.478h-2.412l3.8-10.478Z" transform="translate(-772.108 -190.043)" fill="#fff"/>
      <path id="Path_8459" data-name="Path 8459" d="M1304.711,323.966h-2.754v-7.941h-2.489v-2.252h7.725v2.252h-2.482Z" transform="translate(-787.983 -190.268)" fill="#fff"/>
      <path id="Path_8460" data-name="Path 8460" d="M1325.549,320.257v3.709h-2.754V313.773h3.339q4.155,0,4.155,3.012a3.009,3.009,0,0,1-1.729,2.74l2.97,4.441h-3.123l-2.161-3.709Zm0-2.071h.516q1.443,0,1.443-1.276,0-1.053-1.415-1.053h-.544Z" transform="translate(-802.128 -190.268)" fill="#fff"/>
      <path id="Path_8461" data-name="Path 8461" d="M1351.9,323.9l-.5-1.91h-3.312l-.516,1.91h-3.026l3.325-10.235h3.674l3.367,10.235Zm-1.074-4.169-.439-1.673q-.153-.558-.373-1.443t-.29-1.269q-.062.355-.248,1.171t-.819,3.214Z" transform="translate(-815.317 -190.204)" fill="#fff"/>
      <path id="Path_8462" data-name="Path 8462" d="M1373.682,313.773h3.556a6.047,6.047,0,0,1,3.085.617,2.092,2.092,0,0,1,1.008,1.921,2.429,2.429,0,0,1-.439,1.464,1.959,1.959,0,0,1-1.157.781v.07a2.374,2.374,0,0,1,1.373.837,2.525,2.525,0,0,1,.425,1.52,2.6,2.6,0,0,1-1.042,2.186,4.565,4.565,0,0,1-2.841.8h-3.967Zm2.754,3.911h.829a1.5,1.5,0,0,0,.917-.244.85.85,0,0,0,.324-.725q0-.857-1.3-.857h-.774Zm0,2.015v2.14h.969q1.289,0,1.289-1.088a.935.935,0,0,0-.345-.781,1.588,1.588,0,0,0-1-.272Z" transform="translate(-832.985 -190.268)" fill="#fff"/>
      <path id="Path_8463" data-name="Path 8463" d="M1402.68,323.9l-.5-1.91h-3.311l-.516,1.91h-3.026l3.325-10.235h3.674l3.367,10.235Zm-1.074-4.169-.439-1.673q-.153-.558-.373-1.443t-.29-1.269q-.063.355-.248,1.171t-.819,3.214Z" transform="translate(-846.109 -190.204)" fill="#fff"/>
      <path id="Path_8464" data-name="Path 8464" d="M1424.462,323.966V313.773h2.754v7.969h3.925v2.224Z" transform="translate(-863.778 -190.268)" fill="#fff"/>
      <path id="Path_8465" data-name="Path 8465" d="M1454.311,323.966h-2.768V319.81h-3.2v4.155h-2.768V313.773h2.768v3.779h3.2v-3.779h2.768Z" transform="translate(-876.581 -190.268)" fill="#fff"/>
      <path id="Path_8466" data-name="Path 8466" d="M1482.322,318.608a5.5,5.5,0,0,1-1.262,3.911,5.734,5.734,0,0,1-7.373-.008,6.606,6.606,0,0,1-.007-7.8,5.77,5.77,0,0,1,7.387-.011,5.5,5.5,0,0,1,1.255,3.911m-7.014,0q0,2.956,2.057,2.956a1.767,1.767,0,0,0,1.551-.718,5.214,5.214,0,0,0-.007-4.493,1.748,1.748,0,0,0-1.53-.729q-2.071,0-2.071,2.984" transform="translate(-892.852 -190.021)" fill="#fff"/>
      <path id="Path_8467" data-name="Path 8467" d="M359.4,546.6V505.782a10.332,10.332,0,0,1,10.332-10.332h177.4a10.332,10.332,0,0,1,10.332,10.332V546.6a10.333,10.333,0,0,1-10.332,10.332h-177.4A10.333,10.333,0,0,1,359.4,546.6" transform="translate(-217.934 -300.435)" fill="#ff9d00"/>
      <path id="Path_8468" data-name="Path 8468" d="M552.082,558.737H375.063a7.191,7.191,0,0,1-7.183-7.183V511.116a7.192,7.192,0,0,1,7.183-7.183H552.082a7.192,7.192,0,0,1,7.183,7.183v40.437a7.191,7.191,0,0,1-7.183,7.183M375.063,505.507a5.616,5.616,0,0,0-5.609,5.609v40.437a5.615,5.615,0,0,0,5.609,5.609H552.082a5.615,5.615,0,0,0,5.609-5.609V511.116a5.616,5.616,0,0,0-5.609-5.609Z" transform="translate(-223.078 -305.579)" fill="#fff"/>
      <path id="Path_8469" data-name="Path 8469" d="M510.59,547.507h-2.712V537.314H513.9v2.211H510.59v1.945h3.054v2.21H510.59Z" transform="translate(-307.972 -325.821)" fill="#fff"/>
      <path id="Path_8470" data-name="Path 8470" d="M536.389,542.151a5.5,5.5,0,0,1-1.262,3.911,5.733,5.733,0,0,1-7.372-.007,6.606,6.606,0,0,1-.007-7.8,5.77,5.77,0,0,1,7.386-.011,5.5,5.5,0,0,1,1.255,3.911m-7.013,0q0,2.956,2.057,2.956a1.769,1.769,0,0,0,1.551-.718,5.213,5.213,0,0,0-.007-4.493,1.748,1.748,0,0,0-1.53-.729q-2.071,0-2.07,2.984" transform="translate(-319.249 -325.575)" fill="#fff"/>
      <path id="Path_8471" data-name="Path 8471" d="M559.092,543.8v3.709h-2.754V537.315h3.34q4.155,0,4.155,3.012a3.009,3.009,0,0,1-1.729,2.74l2.97,4.441h-3.123l-2.161-3.709Zm0-2.071h.516q1.443,0,1.443-1.276,0-1.053-1.415-1.053h-.544Z" transform="translate(-337.357 -325.822)" fill="#fff"/>
      <path id="Path_8472" data-name="Path 8472" d="M585.328,547.507l-2.085-7.341h-.063q.146,1.875.146,2.914v4.427h-2.44V537.314h3.667l2.127,7.237h.055l2.085-7.237h3.674v10.193h-2.531v-4.469c0-.232,0-.49.01-.773s.039-.979.094-2.085h-.063l-2.057,7.327Z" transform="translate(-352.243 -325.821)" fill="#fff"/>
      <path id="Path_8473" data-name="Path 8473" d="M620.515,547.444l-.5-1.911H616.7l-.516,1.911H613.16l3.325-10.235h3.674l3.367,10.235Zm-1.074-4.169L619,541.6q-.153-.557-.373-1.443t-.289-1.269q-.063.355-.248,1.171t-.819,3.214Z" transform="translate(-371.813 -325.757)" fill="#fff"/>
      <path id="Path_8474" data-name="Path 8474" d="M648.231,544.187a3,3,0,0,1-.481,1.683,3.154,3.154,0,0,1-1.387,1.144,5.147,5.147,0,0,1-2.126.408,8.572,8.572,0,0,1-1.708-.143,6.34,6.34,0,0,1-1.436-.5v-2.454a8.2,8.2,0,0,0,1.638.631,6.1,6.1,0,0,0,1.562.227,1.514,1.514,0,0,0,.9-.213.653.653,0,0,0,.286-.547.6.6,0,0,0-.115-.366,1.331,1.331,0,0,0-.37-.318q-.254-.16-1.356-.655a6.508,6.508,0,0,1-1.5-.878,2.694,2.694,0,0,1-.739-.976,3.241,3.241,0,0,1-.241-1.3,2.612,2.612,0,0,1,1.025-2.2,4.517,4.517,0,0,1,2.816-.788,7.9,7.9,0,0,1,3.228.732l-.844,2.126a6.114,6.114,0,0,0-2.468-.655,1.288,1.288,0,0,0-.781.188.569.569,0,0,0-.244.467.675.675,0,0,0,.31.537,11.837,11.837,0,0,0,1.684.864,4.661,4.661,0,0,1,1.83,1.272,2.765,2.765,0,0,1,.513,1.712" transform="translate(-388.751 -325.596)" fill="#fff"/>
      <path id="Path_8475" data-name="Path 8475" d="M681.307,542.2a5.266,5.266,0,0,1-1.4,3.932,5.4,5.4,0,0,1-3.95,1.38h-3.3V537.315h3.528a5.324,5.324,0,0,1,3.789,1.255,4.736,4.736,0,0,1,1.335,3.625m-2.858.1a3.241,3.241,0,0,0-.554-2.077,2.051,2.051,0,0,0-1.684-.676h-.8v5.71h.614a2.221,2.221,0,0,0,1.841-.729,3.519,3.519,0,0,0,.586-2.227" transform="translate(-407.89 -325.822)" fill="#fff"/>
      <path id="Path_8476" data-name="Path 8476" d="M705.328,547.507h-6.052V537.314h6.052v2.211h-3.3v1.6h3.054v2.21H702.03v1.924h3.3Z" transform="translate(-424.033 -325.821)" fill="#fff"/>
      <path id="Path_8477" data-name="Path 8477" d="M484.086,585.681a5.5,5.5,0,0,1-1.262,3.911,5.733,5.733,0,0,1-7.372-.007,6.606,6.606,0,0,1-.007-7.8,5.771,5.771,0,0,1,7.387-.011,5.5,5.5,0,0,1,1.255,3.911m-7.013,0q0,2.956,2.057,2.956a1.769,1.769,0,0,0,1.551-.718,5.213,5.213,0,0,0-.007-4.493,1.748,1.748,0,0,0-1.53-.729q-2.071,0-2.07,2.984" transform="translate(-287.533 -351.971)" fill="#fff"/>
      <path id="Path_8478" data-name="Path 8478" d="M506.788,587.329v3.709h-2.754V580.845h3.34q4.155,0,4.155,3.012a3.009,3.009,0,0,1-1.729,2.74l2.97,4.441h-3.123l-2.161-3.709Zm0-2.071h.516q1.443,0,1.443-1.276,0-1.053-1.415-1.053h-.544Z" transform="translate(-305.641 -352.218)" fill="#fff"/>
      <path id="Path_8479" data-name="Path 8479" d="M532.1,584.845h4.4v5.494a12.092,12.092,0,0,1-3.939.614,4.761,4.761,0,0,1-3.643-1.367,5.47,5.47,0,0,1-1.286-3.9,5.12,5.12,0,0,1,1.408-3.842,5.416,5.416,0,0,1,3.946-1.373,8.761,8.761,0,0,1,1.816.181,7.736,7.736,0,0,1,1.489.46l-.871,2.162a5.384,5.384,0,0,0-2.419-.544,2.3,2.3,0,0,0-1.865.784,3.394,3.394,0,0,0-.659,2.241,3.435,3.435,0,0,0,.6,2.179,2.066,2.066,0,0,0,1.719.75,5.043,5.043,0,0,0,1.13-.118v-1.6H532.1Z" transform="translate(-319.947 -351.993)" fill="#fff"/>
      <path id="Path_8480" data-name="Path 8480" d="M559.992,590.974l-.5-1.911h-3.312l-.516,1.911h-3.026l3.325-10.235h3.674L563,590.974Zm-1.074-4.169-.439-1.673q-.153-.557-.373-1.443t-.289-1.269q-.063.355-.248,1.171t-.819,3.214Z" transform="translate(-335.113 -352.154)" fill="#fff"/>
      <path id="Path_8481" data-name="Path 8481" d="M591.478,591.038h-3.611l-3.723-7.181h-.063q.132,1.694.132,2.586v4.594h-2.44V580.845h3.6l3.709,7.084h.042q-.1-1.541-.1-2.475v-4.608h2.454Z" transform="translate(-352.781 -352.218)" fill="#fff"/>
      <rect id="Rectangle_1880" data-name="Rectangle 1880" width="2.768" height="10.193" transform="translate(240.9 228.627)" fill="#fff"/>
      <path id="Path_8482" data-name="Path 8482" d="M630.878,591.038h-7.941v-1.7l4.413-6.268h-4.309v-2.224h7.725v1.695l-4.413,6.275h4.525Z" transform="translate(-377.742 -352.218)" fill="#fff"/>
      <path id="Path_8483" data-name="Path 8483" d="M651.369,590.974l-.5-1.911h-3.312l-.516,1.911h-3.026l3.325-10.235h3.674l3.367,10.235ZM650.3,586.8l-.439-1.673q-.153-.557-.373-1.443t-.289-1.269q-.063.355-.248,1.171t-.819,3.214Z" transform="translate(-390.523 -352.154)" fill="#fff"/>
      <path id="Path_8484" data-name="Path 8484" d="M677.109,582.733a1.755,1.755,0,0,0-1.534.805,3.887,3.887,0,0,0-.551,2.22q0,2.943,2.238,2.943a4.582,4.582,0,0,0,1.311-.188,13.211,13.211,0,0,0,1.276-.453v2.329a7.062,7.062,0,0,1-2.886.565,4.564,4.564,0,0,1-3.538-1.339,5.521,5.521,0,0,1-1.23-3.869,6.171,6.171,0,0,1,.6-2.782,4.267,4.267,0,0,1,1.715-1.844,5.18,5.18,0,0,1,2.632-.645,7.246,7.246,0,0,1,3.158.718l-.844,2.168a9.447,9.447,0,0,0-1.13-.446,3.947,3.947,0,0,0-1.213-.181m1.081,9.837a1.537,1.537,0,0,1-.523,1.217,2.036,2.036,0,0,1-1.387.457,4.356,4.356,0,0,1-1.485-.2v-1.43a3.355,3.355,0,0,0,1.025.189q.362,0,.363-.328a.5.5,0,0,0-.286-.408,2.417,2.417,0,0,0-.746-.283l.5-.969h1.415l-.063.2a2.02,2.02,0,0,1,.927.645,1.561,1.561,0,0,1,.258.91" transform="translate(-407.611 -351.993)" fill="#fff"/>
      <path id="Path_8485" data-name="Path 8485" d="M701.247,586.13l-.5-1.911h-3.312l-.516,1.911h-3.026l3.325-10.235h3.674l3.367,10.235Zm-.9-10.995a2.008,2.008,0,0,1-.631-.1q-.317-.1-.624-.23t-.6-.23a1.612,1.612,0,0,0-.547-.1q-.377,0-.5.683h-1.255a3.448,3.448,0,0,1,.5-1.8,1.456,1.456,0,0,1,1.255-.582,1.728,1.728,0,0,1,.565.1q.3.1.607.23t.607.23a1.717,1.717,0,0,0,.564.1.37.37,0,0,0,.321-.174,1.373,1.373,0,0,0,.181-.509h1.269a3.41,3.41,0,0,1-.516,1.774,1.4,1.4,0,0,1-1.2.61m-.174,6.826-.439-1.673q-.153-.557-.373-1.443t-.289-1.269q-.063.355-.248,1.171t-.819,3.214Z" transform="translate(-420.768 -347.31)" fill="#fff"/>
      <path id="Path_8486" data-name="Path 8486" d="M731.985,585.681a5.5,5.5,0,0,1-1.262,3.911,5.733,5.733,0,0,1-7.373-.007,6.606,6.606,0,0,1-.007-7.8,5.77,5.77,0,0,1,7.386-.011,5.5,5.5,0,0,1,1.255,3.911m-7.013,0q0,2.956,2.056,2.956a1.768,1.768,0,0,0,1.551-.718,5.213,5.213,0,0,0-.007-4.493,1.748,1.748,0,0,0-1.53-.729q-2.07,0-2.07,2.984" transform="translate(-437.856 -351.971)" fill="#fff"/>
      <path id="Path_8487" data-name="Path 8487" d="M1031.929,546.6V505.782a10.332,10.332,0,0,1,10.332-10.332h177.4a10.332,10.332,0,0,1,10.332,10.332V546.6a10.332,10.332,0,0,1-10.332,10.332h-177.4a10.333,10.333,0,0,1-10.332-10.332" transform="translate(-625.75 -300.435)" fill="#ff9d00"/>
      <path id="Path_8488" data-name="Path 8488" d="M1224.614,558.737H1047.6a7.191,7.191,0,0,1-7.183-7.183V511.116a7.192,7.192,0,0,1,7.183-7.183h177.018a7.192,7.192,0,0,1,7.183,7.183v40.437a7.191,7.191,0,0,1-7.183,7.183M1047.6,505.507a5.616,5.616,0,0,0-5.609,5.609v40.437a5.615,5.615,0,0,0,5.609,5.609h177.018a5.615,5.615,0,0,0,5.609-5.609V511.116a5.615,5.615,0,0,0-5.609-5.609Z" transform="translate(-630.894 -305.579)" fill="#fff"/>
      <path id="Path_8489" data-name="Path 8489" d="M1098.637,569.273l-2.085-7.341h-.063q.146,1.875.147,2.914v4.427h-2.44V559.08h3.667l2.127,7.237h.056l2.084-7.237h3.674v10.193h-2.531V564.8c0-.232,0-.49.011-.773s.038-.979.094-2.085h-.063l-2.057,7.327Z" transform="translate(-663.508 -339.02)" fill="#fff"/>
      <path id="Path_8490" data-name="Path 8490" d="M1135.318,569.273h-6.051V559.08h6.051v2.211h-3.3v1.6h3.054v2.21h-3.054v1.924h3.3Z" transform="translate(-684.775 -339.02)" fill="#fff"/>
      <rect id="Rectangle_1881" data-name="Rectangle 1881" width="2.767" height="10.193" transform="translate(452.328 220.061)" fill="#fff"/>
      <path id="Path_8491" data-name="Path 8491" d="M1170.761,563.917a5.5,5.5,0,0,1-1.262,3.911,5.733,5.733,0,0,1-7.373-.007,6.606,6.606,0,0,1-.007-7.8,5.771,5.771,0,0,1,7.387-.011,5.5,5.5,0,0,1,1.255,3.911m-7.014,0q0,2.956,2.057,2.956a1.768,1.768,0,0,0,1.551-.718,5.213,5.213,0,0,0-.007-4.493,1.748,1.748,0,0,0-1.53-.729q-2.071,0-2.071,2.984" transform="translate(-703.925 -338.774)" fill="#fff"/>
      <path id="Path_8492" data-name="Path 8492" d="M1196.644,565.953a3.006,3.006,0,0,1-.481,1.683,3.154,3.154,0,0,1-1.387,1.144,5.149,5.149,0,0,1-2.126.408,8.568,8.568,0,0,1-1.708-.143,6.347,6.347,0,0,1-1.437-.5v-2.454a8.2,8.2,0,0,0,1.638.631,6.109,6.109,0,0,0,1.562.227,1.516,1.516,0,0,0,.9-.213.652.652,0,0,0,.286-.547.6.6,0,0,0-.115-.366,1.342,1.342,0,0,0-.37-.318q-.254-.16-1.356-.655a6.5,6.5,0,0,1-1.495-.878,2.711,2.711,0,0,1-.74-.976,3.242,3.242,0,0,1-.24-1.3,2.612,2.612,0,0,1,1.025-2.2,4.518,4.518,0,0,1,2.817-.788,7.907,7.907,0,0,1,3.228.732l-.844,2.126a6.113,6.113,0,0,0-2.468-.655,1.289,1.289,0,0,0-.781.188.57.57,0,0,0-.244.467.674.674,0,0,0,.311.537,11.862,11.862,0,0,0,1.684.864,4.664,4.664,0,0,1,1.83,1.272,2.767,2.767,0,0,1,.512,1.712" transform="translate(-721.302 -338.795)" fill="#fff"/>
      <path id="Path_8493" data-name="Path 8493" d="M1229.72,563.961a5.265,5.265,0,0,1-1.405,3.932,5.4,5.4,0,0,1-3.949,1.38h-3.3V559.081h3.528a5.323,5.323,0,0,1,3.789,1.255,4.735,4.735,0,0,1,1.335,3.625m-2.858.1a3.242,3.242,0,0,0-.554-2.078,2.05,2.05,0,0,0-1.684-.676h-.8v5.71h.614a2.22,2.22,0,0,0,1.841-.729,3.518,3.518,0,0,0,.586-2.227" transform="translate(-740.442 -339.02)" fill="#fff"/>
      <path id="Path_8494" data-name="Path 8494" d="M1253.741,569.273h-6.051V559.08h6.051v2.211h-3.3v1.6h3.054v2.21h-3.054v1.924h3.3Z" transform="translate(-756.585 -339.02)" fill="#fff"/>
      <path id="Path_8495" data-name="Path 8495" d="M1280.368,569.273h-2.754v-7.941h-2.489V559.08h7.725v2.252h-2.482Z" transform="translate(-773.222 -339.02)" fill="#fff"/>
      <path id="Path_8496" data-name="Path 8496" d="M1301.206,565.564v3.709h-2.754V559.08h3.339q4.155,0,4.155,3.012a3.009,3.009,0,0,1-1.729,2.74l2.97,4.441h-3.123l-2.161-3.709Zm0-2.071h.516q1.443,0,1.443-1.276,0-1.053-1.415-1.053h-.544Z" transform="translate(-787.367 -339.02)" fill="#fff"/>
      <path id="Path_8497" data-name="Path 8497" d="M1327.557,569.209l-.5-1.911h-3.312l-.516,1.911H1320.2l3.325-10.235h3.674l3.367,10.235Zm-1.074-4.169-.439-1.673q-.153-.557-.373-1.443t-.29-1.269q-.063.355-.248,1.171t-.819,3.214Z" transform="translate(-800.556 -338.956)" fill="#fff"/>
      <path id="Path_8498" data-name="Path 8498" d="M1349.339,559.08h3.556a6.046,6.046,0,0,1,3.085.617,2.092,2.092,0,0,1,1.008,1.921,2.428,2.428,0,0,1-.439,1.464,1.959,1.959,0,0,1-1.157.781v.07a2.375,2.375,0,0,1,1.373.836,2.527,2.527,0,0,1,.425,1.52,2.6,2.6,0,0,1-1.042,2.186,4.566,4.566,0,0,1-2.841.8h-3.967Zm2.754,3.911h.829a1.5,1.5,0,0,0,.917-.244.85.85,0,0,0,.324-.725q0-.857-1.3-.858h-.774Zm0,2.015v2.14h.969q1.289,0,1.289-1.087a.936.936,0,0,0-.345-.781,1.59,1.59,0,0,0-1-.272Z" transform="translate(-818.224 -339.02)" fill="#fff"/>
      <path id="Path_8499" data-name="Path 8499" d="M1378.337,569.209l-.5-1.911h-3.312l-.516,1.911h-3.026l3.325-10.235h3.674l3.367,10.235Zm-1.074-4.169-.439-1.673q-.154-.557-.373-1.443t-.29-1.269q-.062.355-.248,1.171t-.819,3.214Z" transform="translate(-831.348 -338.956)" fill="#fff"/>
      <path id="Path_8500" data-name="Path 8500" d="M1400.119,569.273V559.08h2.754v7.969h3.925v2.224Z" transform="translate(-849.016 -339.02)" fill="#fff"/>
      <path id="Path_8501" data-name="Path 8501" d="M1429.968,569.273H1427.2v-4.155H1424v4.155h-2.767V559.08H1424v3.779h3.2V559.08h2.768Z" transform="translate(-861.819 -339.02)" fill="#fff"/>
      <path id="Path_8502" data-name="Path 8502" d="M1457.98,563.917a5.5,5.5,0,0,1-1.262,3.911,5.733,5.733,0,0,1-7.373-.007,6.607,6.607,0,0,1-.007-7.8,5.772,5.772,0,0,1,7.387-.011,5.5,5.5,0,0,1,1.255,3.911m-7.014,0q0,2.956,2.057,2.956a1.766,1.766,0,0,0,1.55-.718,5.211,5.211,0,0,0-.007-4.493,1.749,1.749,0,0,0-1.53-.729q-2.071,0-2.071,2.984" transform="translate(-878.091 -338.774)" fill="#fff"/>
      <path id="Path_8503" data-name="Path 8503" d="M323.317,844.708H199.527l8.253-28.471H323.317Z" transform="translate(-120.991 -494.957)" fill="#3b265d"/>
      <path id="Path_8504" data-name="Path 8504" d="M258.365,795.008,359,803.364v28.471L258.365,823.48Z" transform="translate(-156.669 -482.084)"/>
      <path id="Path_8505" data-name="Path 8505" d="M697.481,844.708H813.018L825.4,816.237H697.481Z" transform="translate(-422.945 -494.957)" fill="#3b265d"/>
      <path id="Path_8506" data-name="Path 8506" d="M798.111,795.008l-100.631,8.356v28.471l100.631-8.356Z" transform="translate(-422.944 -482.084)"/>
      <rect id="Rectangle_1882" data-name="Rectangle 1882" width="273.575" height="28.471" transform="translate(101.695 312.924)" fill="#114999"/>
      <path id="Path_8507" data-name="Path 8507" d="M377,829.257h-2.754v-7.941h-2.489v-2.252h7.725v2.252H377Z" transform="translate(-225.428 -496.671)" fill="#fff"/>
      <path id="Path_8508" data-name="Path 8508" d="M401.133,829.257h-6.052V819.064h6.052v2.211h-3.3v1.6h3.054v2.21h-3.054v1.924h3.3Z" transform="translate(-239.573 -496.671)" fill="#fff"/>
      <path id="Path_8509" data-name="Path 8509" d="M418.949,820.952a1.755,1.755,0,0,0-1.534.805,3.883,3.883,0,0,0-.551,2.22q0,2.942,2.238,2.942a4.6,4.6,0,0,0,1.311-.188,13.332,13.332,0,0,0,1.276-.453v2.329a7.064,7.064,0,0,1-2.886.565,4.565,4.565,0,0,1-3.538-1.339,5.52,5.52,0,0,1-1.23-3.869,6.178,6.178,0,0,1,.6-2.782,4.269,4.269,0,0,1,1.715-1.844,5.183,5.183,0,0,1,2.632-.645,7.247,7.247,0,0,1,3.158.718l-.844,2.168a9.557,9.557,0,0,0-1.129-.446,3.948,3.948,0,0,0-1.213-.181" transform="translate(-251.066 -496.446)" fill="#fff"/>
      <path id="Path_8510" data-name="Path 8510" d="M448.234,829.257h-3.611l-3.723-7.181h-.063q.132,1.694.132,2.586v4.594h-2.44V819.064h3.6l3.709,7.084h.042q-.1-1.541-.1-2.475v-4.608h2.454Z" transform="translate(-265.919 -496.671)" fill="#fff"/>
      <path id="Path_8511" data-name="Path 8511" d="M477.74,823.9a5.5,5.5,0,0,1-1.262,3.911,5.733,5.733,0,0,1-7.372-.007,6.606,6.606,0,0,1-.007-7.8,5.771,5.771,0,0,1,7.387-.011,5.5,5.5,0,0,1,1.255,3.911m-7.013,0q0,2.956,2.057,2.956a1.769,1.769,0,0,0,1.551-.718,5.213,5.213,0,0,0-.007-4.493,1.748,1.748,0,0,0-1.53-.729q-2.071,0-2.07,2.984" transform="translate(-283.684 -496.425)" fill="#fff"/>
      <path id="Path_8512" data-name="Path 8512" d="M497.688,829.257V819.064h2.754v7.969h3.925v2.224Z" transform="translate(-301.793 -496.671)" fill="#fff"/>
      <path id="Path_8513" data-name="Path 8513" d="M527.758,823.9a5.5,5.5,0,0,1-1.262,3.911,5.733,5.733,0,0,1-7.372-.007,6.606,6.606,0,0,1-.007-7.8,5.771,5.771,0,0,1,7.387-.011,5.5,5.5,0,0,1,1.255,3.911m-7.013,0q0,2.956,2.057,2.956a1.769,1.769,0,0,0,1.551-.718,5.213,5.213,0,0,0-.007-4.493,1.748,1.748,0,0,0-1.53-.729q-2.071,0-2.07,2.984" transform="translate(-314.015 -496.425)" fill="#fff"/>
      <path id="Path_8514" data-name="Path 8514" d="M551.22,823.064h4.4v5.494a12.092,12.092,0,0,1-3.939.614,4.761,4.761,0,0,1-3.643-1.367,5.47,5.47,0,0,1-1.286-3.9,5.12,5.12,0,0,1,1.408-3.842,5.416,5.416,0,0,1,3.946-1.373,8.756,8.756,0,0,1,1.816.181,7.734,7.734,0,0,1,1.489.46l-.871,2.162a5.385,5.385,0,0,0-2.419-.544,2.3,2.3,0,0,0-1.865.784,3.394,3.394,0,0,0-.659,2.241,3.435,3.435,0,0,0,.6,2.179,2.066,2.066,0,0,0,1.719.75,5.043,5.043,0,0,0,1.13-.118v-1.6h-1.82Z" transform="translate(-331.544 -496.446)" fill="#fff"/>
      <rect id="Rectangle_1883" data-name="Rectangle 1883" width="2.768" height="10.193" transform="translate(226.153 322.393)" fill="#fff"/>
      <path id="Path_8515" data-name="Path 8515" d="M591.745,829.194l-.5-1.911h-3.312l-.516,1.911H584.39l3.325-10.235h3.674l3.367,10.235Zm-1.074-4.169-.439-1.673q-.153-.557-.373-1.443t-.289-1.269q-.063.355-.248,1.171t-.819,3.214Z" transform="translate(-354.368 -496.608)" fill="#fff"/>
      <path id="Path_8516" data-name="Path 8516" d="M619.461,825.937a3,3,0,0,1-.481,1.683,3.154,3.154,0,0,1-1.387,1.144,5.147,5.147,0,0,1-2.126.408,8.577,8.577,0,0,1-1.708-.143,6.34,6.34,0,0,1-1.436-.5v-2.454a8.194,8.194,0,0,0,1.638.631,6.1,6.1,0,0,0,1.562.227,1.514,1.514,0,0,0,.9-.213.653.653,0,0,0,.286-.547.6.6,0,0,0-.115-.366,1.33,1.33,0,0,0-.37-.318q-.255-.16-1.356-.655a6.508,6.508,0,0,1-1.5-.878,2.694,2.694,0,0,1-.739-.976,3.241,3.241,0,0,1-.241-1.3,2.613,2.613,0,0,1,1.025-2.2,4.517,4.517,0,0,1,2.816-.788,7.905,7.905,0,0,1,3.228.732l-.844,2.126a6.114,6.114,0,0,0-2.468-.655,1.287,1.287,0,0,0-.781.188.569.569,0,0,0-.244.467.675.675,0,0,0,.31.537,11.843,11.843,0,0,0,1.684.864,4.66,4.66,0,0,1,1.83,1.272,2.765,2.765,0,0,1,.513,1.712" transform="translate(-371.305 -496.446)" fill="#fff"/>
      <path id="Path_8517" data-name="Path 8517" d="M648.325,829.257l-2.085-7.341h-.063q.146,1.875.146,2.914v4.427h-2.44V819.064h3.667l2.127,7.237h.055l2.085-7.237h3.674v10.193h-2.531v-4.469c0-.232,0-.49.01-.773s.039-.979.094-2.085H653l-2.057,7.327Z" transform="translate(-390.444 -496.671)" fill="#fff"/>
      <path id="Path_8518" data-name="Path 8518" d="M683.512,829.194l-.5-1.911H679.7l-.516,1.911h-3.026l3.325-10.235h3.674l3.367,10.235Zm-1.074-4.169L682,823.351q-.153-.557-.373-1.443t-.289-1.269q-.063.355-.248,1.171t-.819,3.214Z" transform="translate(-410.014 -496.608)" fill="#fff"/>
      <path id="Path_8519" data-name="Path 8519" d="M708.641,829.257h-2.754v-7.941H703.4v-2.252h7.725v2.252h-2.482Z" transform="translate(-426.533 -496.671)" fill="#fff"/>
      <path id="Path_8520" data-name="Path 8520" d="M732.776,829.257h-6.052V819.064h6.052v2.211h-3.3v1.6h3.054v2.21h-3.054v1.924h3.3Z" transform="translate(-440.677 -496.671)" fill="#fff"/>
      <path id="Path_8521" data-name="Path 8521" d="M749.387,825.549v3.709h-2.754V819.065h3.34q4.155,0,4.155,3.012a3.009,3.009,0,0,1-1.729,2.74l2.97,4.441h-3.123l-2.161-3.709Zm0-2.071h.516q1.443,0,1.443-1.276,0-1.053-1.415-1.053h-.544Z" transform="translate(-452.75 -496.672)" fill="#fff"/>
      <rect id="Rectangle_1884" data-name="Rectangle 1884" width="2.768" height="10.193" transform="translate(303.546 322.393)" fill="#fff"/>
      <path id="Path_8522" data-name="Path 8522" d="M788.369,829.194l-.5-1.911h-3.312l-.516,1.911h-3.026l3.325-10.235h3.674l3.367,10.235Zm-1.074-4.169-.439-1.673q-.153-.557-.373-1.443t-.289-1.269q-.063.355-.248,1.171t-.819,3.214Z" transform="translate(-473.598 -496.608)" fill="#fff"/>
      <rect id="Rectangle_1885" data-name="Rectangle 1885" width="2.768" height="10.193" transform="translate(318.884 322.393)" fill="#fff"/>
      <path id="Path_8523" data-name="Path 8523" d="M828.713,825.937a3,3,0,0,1-.481,1.683,3.155,3.155,0,0,1-1.388,1.144,5.147,5.147,0,0,1-2.126.408,8.576,8.576,0,0,1-1.708-.143,6.34,6.34,0,0,1-1.436-.5v-2.454a8.194,8.194,0,0,0,1.638.631,6.1,6.1,0,0,0,1.562.227,1.514,1.514,0,0,0,.9-.213.653.653,0,0,0,.286-.547.6.6,0,0,0-.115-.366,1.33,1.33,0,0,0-.37-.318q-.254-.16-1.356-.655a6.51,6.51,0,0,1-1.5-.878,2.7,2.7,0,0,1-.739-.976,3.241,3.241,0,0,1-.24-1.3,2.613,2.613,0,0,1,1.025-2.2,4.517,4.517,0,0,1,2.816-.788,7.9,7.9,0,0,1,3.228.732l-.844,2.126a6.114,6.114,0,0,0-2.468-.655,1.287,1.287,0,0,0-.781.188.569.569,0,0,0-.244.467.675.675,0,0,0,.31.537,11.843,11.843,0,0,0,1.684.864,4.661,4.661,0,0,1,1.83,1.272,2.765,2.765,0,0,1,.512,1.712" transform="translate(-498.193 -496.446)" fill="#fff"/>
      <path id="Path_8524" data-name="Path 8524" d="M1147.856,844.708h-123.79l8.253-28.471h115.537Z" transform="translate(-620.982 -494.957)" fill="#5a389e"/>
      <path id="Path_8525" data-name="Path 8525" d="M1082.9,795.008l100.631,8.356v28.471L1082.9,823.48Z" transform="translate(-656.661 -482.084)"/>
      <path id="Path_8526" data-name="Path 8526" d="M1522.02,844.708h115.537l12.379-28.471H1522.02Z" transform="translate(-922.936 -494.957)" fill="#5a389e"/>
      <path id="Path_8527" data-name="Path 8527" d="M1622.65,795.008l-100.631,8.356v28.471l100.631-8.356Z" transform="translate(-922.936 -482.084)"/>
      <rect id="Rectangle_1886" data-name="Rectangle 1886" width="273.575" height="28.471" transform="translate(426.243 312.924)" fill="#139b60"/>
      <path id="Path_8528" data-name="Path 8528" d="M1154.077,829.257h-2.754v-7.941h-2.489v-2.252h7.725v2.252h-2.482Z" transform="translate(-696.64 -496.671)" fill="#fff"/>
      <path id="Path_8529" data-name="Path 8529" d="M1178.213,829.257h-6.051V819.064h6.051v2.211h-3.3v1.6h3.054v2.21h-3.054v1.924h3.3Z" transform="translate(-710.785 -496.671)" fill="#fff"/>
      <path id="Path_8530" data-name="Path 8530" d="M1196.028,820.952a1.756,1.756,0,0,0-1.534.805,3.89,3.89,0,0,0-.551,2.22q0,2.942,2.238,2.942a4.6,4.6,0,0,0,1.311-.188,13.357,13.357,0,0,0,1.276-.453v2.329a7.065,7.065,0,0,1-2.886.565,4.564,4.564,0,0,1-3.538-1.339,5.519,5.519,0,0,1-1.231-3.869,6.177,6.177,0,0,1,.6-2.782,4.27,4.27,0,0,1,1.715-1.844,5.186,5.186,0,0,1,2.632-.645,7.249,7.249,0,0,1,3.158.718l-.844,2.168a9.585,9.585,0,0,0-1.129-.446,3.946,3.946,0,0,0-1.213-.181" transform="translate(-722.278 -496.446)" fill="#fff"/>
      <path id="Path_8531" data-name="Path 8531" d="M1225.313,829.257H1221.7l-3.723-7.181h-.063q.133,1.694.133,2.586v4.594h-2.44V819.064h3.6l3.709,7.084h.042q-.1-1.541-.1-2.475v-4.608h2.454Z" transform="translate(-737.132 -496.671)" fill="#fff"/>
      <path id="Path_8532" data-name="Path 8532" d="M1254.817,823.9a5.5,5.5,0,0,1-1.262,3.911,5.733,5.733,0,0,1-7.373-.007,6.606,6.606,0,0,1-.007-7.8,5.771,5.771,0,0,1,7.387-.011,5.5,5.5,0,0,1,1.255,3.911m-7.014,0q0,2.956,2.057,2.956a1.767,1.767,0,0,0,1.551-.718,5.213,5.213,0,0,0-.007-4.493,1.747,1.747,0,0,0-1.53-.729q-2.071,0-2.071,2.984" transform="translate(-754.895 -496.425)" fill="#fff"/>
      <path id="Path_8533" data-name="Path 8533" d="M1274.767,829.257V819.064h2.754v7.969h3.925v2.224Z" transform="translate(-773.004 -496.671)" fill="#fff"/>
      <path id="Path_8534" data-name="Path 8534" d="M1304.837,823.9a5.5,5.5,0,0,1-1.262,3.911,5.733,5.733,0,0,1-7.373-.007,6.606,6.606,0,0,1-.007-7.8,5.771,5.771,0,0,1,7.387-.011,5.5,5.5,0,0,1,1.255,3.911m-7.014,0q0,2.956,2.057,2.956a1.767,1.767,0,0,0,1.551-.718,5.213,5.213,0,0,0-.007-4.493,1.748,1.748,0,0,0-1.53-.729q-2.071,0-2.071,2.984" transform="translate(-785.227 -496.425)" fill="#fff"/>
      <path id="Path_8535" data-name="Path 8535" d="M1328.3,823.064h4.4v5.494a12.091,12.091,0,0,1-3.939.614,4.76,4.76,0,0,1-3.642-1.367,5.471,5.471,0,0,1-1.287-3.9,5.119,5.119,0,0,1,1.409-3.842,5.414,5.414,0,0,1,3.946-1.373,8.755,8.755,0,0,1,1.816.181,7.742,7.742,0,0,1,1.489.46l-.872,2.162a5.388,5.388,0,0,0-2.419-.544,2.3,2.3,0,0,0-1.865.784,3.4,3.4,0,0,0-.659,2.241,3.435,3.435,0,0,0,.6,2.179,2.065,2.065,0,0,0,1.719.75,5.038,5.038,0,0,0,1.129-.118v-1.6h-1.82Z" transform="translate(-802.755 -496.446)" fill="#fff"/>
      <rect id="Rectangle_1887" data-name="Rectangle 1887" width="2.767" height="10.193" transform="translate(532.02 322.393)" fill="#fff"/>
      <path id="Path_8536" data-name="Path 8536" d="M1368.823,829.194l-.5-1.911h-3.312l-.516,1.911h-3.026l3.325-10.235h3.674l3.367,10.235Zm-1.074-4.169-.439-1.673q-.153-.557-.373-1.443t-.29-1.269q-.063.355-.248,1.171t-.819,3.214Z" transform="translate(-825.579 -496.608)" fill="#fff"/>
      <path id="Path_8537" data-name="Path 8537" d="M1396.538,825.937a3,3,0,0,1-.481,1.683,3.151,3.151,0,0,1-1.387,1.144,5.148,5.148,0,0,1-2.126.408,8.575,8.575,0,0,1-1.708-.143,6.349,6.349,0,0,1-1.437-.5v-2.454a8.207,8.207,0,0,0,1.639.631,6.1,6.1,0,0,0,1.562.227,1.515,1.515,0,0,0,.9-.213.652.652,0,0,0,.286-.547.6.6,0,0,0-.115-.366,1.336,1.336,0,0,0-.37-.318q-.254-.16-1.356-.655a6.5,6.5,0,0,1-1.5-.878,2.7,2.7,0,0,1-.739-.976,3.242,3.242,0,0,1-.24-1.3,2.611,2.611,0,0,1,1.025-2.2,4.518,4.518,0,0,1,2.816-.788,7.9,7.9,0,0,1,3.228.732l-.844,2.126a6.11,6.11,0,0,0-2.468-.655,1.287,1.287,0,0,0-.781.188.569.569,0,0,0-.244.467.674.674,0,0,0,.31.537,11.884,11.884,0,0,0,1.684.864,4.662,4.662,0,0,1,1.83,1.272,2.766,2.766,0,0,1,.512,1.712" transform="translate(-842.516 -496.446)" fill="#fff"/>
      <path id="Path_8538" data-name="Path 8538" d="M1430.667,829.257h-3.611l-3.723-7.181h-.063q.133,1.694.133,2.586v4.594h-2.44V819.064h3.6l3.709,7.084h.042q-.1-1.541-.1-2.475v-4.608h2.454Z" transform="translate(-861.656 -496.671)" fill="#fff"/>
      <path id="Path_8539" data-name="Path 8539" d="M1455.771,824.35l-.5-1.911h-3.311l-.516,1.911h-3.026l3.325-10.235h3.674l3.367,10.235Zm-.9-10.995a2.006,2.006,0,0,1-.631-.1q-.318-.1-.624-.23t-.6-.23a1.614,1.614,0,0,0-.547-.1q-.377,0-.5.683h-1.255a3.454,3.454,0,0,1,.5-1.8,1.456,1.456,0,0,1,1.255-.582,1.729,1.729,0,0,1,.564.1q.3.1.607.23t.606.23a1.72,1.72,0,0,0,.565.1.368.368,0,0,0,.32-.174,1.361,1.361,0,0,0,.182-.509h1.269a3.41,3.41,0,0,1-.516,1.774,1.4,1.4,0,0,1-1.2.61m-.174,6.826-.439-1.673q-.153-.557-.373-1.443t-.29-1.269q-.063.355-.248,1.171t-.819,3.214Z" transform="translate(-878.303 -491.764)" fill="#fff"/>
      <path id="Path_8540" data-name="Path 8540" d="M1486.51,823.9a5.5,5.5,0,0,1-1.262,3.911,5.733,5.733,0,0,1-7.373-.007,6.606,6.606,0,0,1-.007-7.8,5.771,5.771,0,0,1,7.387-.011,5.5,5.5,0,0,1,1.255,3.911m-7.014,0q0,2.956,2.057,2.956a1.768,1.768,0,0,0,1.551-.718,5.213,5.213,0,0,0-.007-4.493,1.748,1.748,0,0,0-1.53-.729q-2.071,0-2.071,2.984" transform="translate(-895.391 -496.425)" fill="#fff"/>
      <path id="Path_8541" data-name="Path 8541" d="M1520.323,829.257l-2.084-7.341h-.063q.146,1.875.146,2.914v4.427h-2.44V819.064h3.667l2.127,7.237h.055l2.085-7.237h3.674v10.193h-2.531v-4.469c0-.232,0-.49.011-.773s.038-.979.094-2.085H1525l-2.057,7.327Z" transform="translate(-919.214 -496.671)" fill="#fff"/>
      <path id="Path_8542" data-name="Path 8542" d="M1555.508,829.194l-.5-1.911h-3.311l-.516,1.911h-3.026l3.325-10.235h3.674l3.367,10.235Zm-1.074-4.169-.439-1.673q-.153-.557-.373-1.443t-.29-1.269q-.062.355-.248,1.171t-.819,3.214Z" transform="translate(-938.783 -496.608)" fill="#fff"/>
      <path id="Path_8543" data-name="Path 8543" d="M1580.637,829.257h-2.754v-7.941h-2.489v-2.252h7.725v2.252h-2.482Z" transform="translate(-955.302 -496.671)" fill="#fff"/>
      <path id="Path_8544" data-name="Path 8544" d="M1604.773,829.257h-6.051V819.064h6.051v2.211h-3.3v1.6h3.054v2.21h-3.054v1.924h3.3Z" transform="translate(-969.447 -496.671)" fill="#fff"/>
      <path id="Path_8545" data-name="Path 8545" d="M1621.384,825.549v3.709h-2.754V819.065h3.339q4.155,0,4.155,3.012a3.009,3.009,0,0,1-1.729,2.74l2.97,4.441h-3.123l-2.161-3.709Zm0-2.071h.516q1.443,0,1.443-1.276,0-1.053-1.415-1.053h-.544Z" transform="translate(-981.519 -496.672)" fill="#fff"/>
      <rect id="Rectangle_1888" data-name="Rectangle 1888" width="2.767" height="10.193" transform="translate(646.774 322.393)" fill="#fff"/>
      <path id="Path_8546" data-name="Path 8546" d="M1660.365,829.194l-.5-1.911h-3.312l-.516,1.911h-3.026l3.325-10.235h3.674l3.367,10.235Zm-1.074-4.169-.439-1.673q-.154-.557-.373-1.443t-.29-1.269q-.063.355-.248,1.171t-.819,3.214Z" transform="translate(-1002.366 -496.608)" fill="#fff"/>
      <rect id="Rectangle_1889" data-name="Rectangle 1889" width="2.767" height="10.193" transform="translate(662.112 322.393)" fill="#fff"/>
      <path id="Path_8547" data-name="Path 8547" d="M1700.708,825.937a3,3,0,0,1-.481,1.683,3.151,3.151,0,0,1-1.387,1.144,5.147,5.147,0,0,1-2.126.408,8.576,8.576,0,0,1-1.708-.143,6.355,6.355,0,0,1-1.437-.5v-2.454a8.206,8.206,0,0,0,1.639.631,6.1,6.1,0,0,0,1.561.227,1.515,1.515,0,0,0,.9-.213.652.652,0,0,0,.286-.547.6.6,0,0,0-.115-.366,1.336,1.336,0,0,0-.37-.318q-.254-.16-1.356-.655a6.5,6.5,0,0,1-1.5-.878,2.7,2.7,0,0,1-.739-.976,3.242,3.242,0,0,1-.24-1.3,2.611,2.611,0,0,1,1.025-2.2,4.517,4.517,0,0,1,2.816-.788,7.9,7.9,0,0,1,3.228.732l-.844,2.126a6.111,6.111,0,0,0-2.468-.655,1.288,1.288,0,0,0-.781.188.569.569,0,0,0-.244.467.674.674,0,0,0,.31.537,11.888,11.888,0,0,0,1.684.864,4.659,4.659,0,0,1,1.83,1.272,2.765,2.765,0,0,1,.512,1.712" transform="translate(-1026.961 -496.446)" fill="#fff"/>
    </g>
  </g>
  <g id="Group_2501" data-name="Group 2501" transform="translate(78.081 55.169)">
    <g id="Group_2500" data-name="Group 2500" clip-path="url(#clip-path-6)">
      <rect id="Rectangle_1891" data-name="Rectangle 1891" width="69.753" height="83.222" transform="translate(-29.78 15.549) rotate(-27.57)" fill="url(#linear-gradient-4)"/>
    </g>
  </g>
  <g id="Group_2503" data-name="Group 2503" transform="translate(417.668 64.662)">
    <g id="Group_2502" data-name="Group 2502" clip-path="url(#clip-path-7)">
      <rect id="Rectangle_1892" data-name="Rectangle 1892" width="46.545" height="46.534" transform="translate(-16.594 15.852) rotate(-44.193)" fill="url(#linear-gradient-5)"/>
    </g>
  </g>
  <g id="Group_2505" data-name="Group 2505" transform="translate(406.798 53.791)">
    <g id="Group_2504" data-name="Group 2504" clip-path="url(#clip-path-8)">
      <rect id="Rectangle_1893" data-name="Rectangle 1893" width="20.103" height="20.103" transform="translate(-7.105 6.908) rotate(-44.193)" fill="url(#linear-gradient-6)"/>
    </g>
  </g>
  <g id="Group_2507" data-name="Group 2507">
    <g id="Group_2506" data-name="Group 2506" clip-path="url(#clip-path-5)">
      <path id="Path_8551" data-name="Path 8551" d="M905.318,316.323l-12.745-7.36v4.407H845.245v-4.407l-12.745,7.36,12.745,7.359v-4.407h47.328v4.407Z" transform="translate(-504.819 -187.352)" fill="#265d3b"/>
    </g>
  </g>
</svg>
